<?xml version="1.0" encoding="UTF-8" standalone="no"?>
<!DOCTYPE svg PUBLIC "-//W3C//DTD SVG 1.1//EN"
 "http://www.w3.org/Graphics/SVG/1.1/DTD/svg11.dtd">
<!-- Generated by graphviz version 2.43.0 (0)
 -->
<!-- Title: /home/build/sdk/c/ifxAvian/Avian.h Pages: 1 -->
<svg width="614pt" height="498pt"
 viewBox="0.00 0.00 613.50 498.00" xmlns="http://www.w3.org/2000/svg" xmlns:xlink="http://www.w3.org/1999/xlink">
<g id="graph0" class="graph" transform="scale(1 1) rotate(0) translate(4 494)">
<title>/home/build/sdk/c/ifxAvian/Avian.h</title>
<polygon fill="white" stroke="transparent" points="-4,4 -4,-494 609.5,-494 609.5,4 -4,4"/>
<!-- Node1 -->
<g id="node1" class="node">
<title>Node1</title>
<g id="a_node1"><a xlink:title=" ">
<polygon fill="#bfbfbf" stroke="black" points="220.5,-459.5 220.5,-489.5 366.5,-489.5 366.5,-459.5 220.5,-459.5"/>
<text text-anchor="start" x="228.5" y="-477.5" font-family="Helvetica,sans-Serif" font-size="10.00">/home/build/sdk/c/ifxAvian</text>
<text text-anchor="middle" x="293.5" y="-466.5" font-family="Helvetica,sans-Serif" font-size="10.00">/Avian.h</text>
</a>
</g>
</g>
<!-- Node2 -->
<g id="node2" class="node">
<title>Node2</title>
<g id="a_node2"><a xlink:href="_device_config_8h.html" target="_top" xlink:title="API for Radar device configuration.">
<polygon fill="white" stroke="black" points="0,-291.5 0,-310.5 133,-310.5 133,-291.5 0,-291.5"/>
<text text-anchor="middle" x="66.5" y="-298.5" font-family="Helvetica,sans-Serif" font-size="10.00">ifxAvian/DeviceConfig.h</text>
</a>
</g>
</g>
<!-- Node1&#45;&gt;Node2 -->
<g id="edge1" class="edge">
<title>Node1&#45;&gt;Node2</title>
<path fill="none" stroke="midnightblue" d="M220.31,-464.85C166.95,-456.98 100.91,-443.42 82.5,-423 57.16,-394.9 59.39,-347.12 63.05,-320.8"/>
<polygon fill="midnightblue" stroke="midnightblue" points="66.55,-321.08 64.69,-310.65 59.64,-319.97 66.55,-321.08"/>
</g>
<!-- Node8 -->
<g id="node8" class="node">
<title>Node8</title>
<g id="a_node8"><a xlink:href="_device_control_8h.html" target="_top" xlink:title="API for Radar device control operations.">
<polygon fill="white" stroke="black" points="214,-347.5 214,-366.5 351,-366.5 351,-347.5 214,-347.5"/>
<text text-anchor="middle" x="282.5" y="-354.5" font-family="Helvetica,sans-Serif" font-size="10.00">ifxAvian/DeviceControl.h</text>
</a>
</g>
</g>
<!-- Node1&#45;&gt;Node8 -->
<g id="edge8" class="edge">
<title>Node1&#45;&gt;Node8</title>
<path fill="none" stroke="midnightblue" d="M292.15,-459.34C290.18,-438.62 286.5,-400.02 284.3,-376.9"/>
<polygon fill="midnightblue" stroke="midnightblue" points="287.76,-376.29 283.33,-366.67 280.79,-376.96 287.76,-376.29"/>
</g>
<!-- Node18 -->
<g id="node18" class="node">
<title>Node18</title>
<g id="a_node18"><a xlink:href="_constant_wave_control_8h.html" target="_top" xlink:title="Header for Constant Wave Control. It provides APIs to use an Avian device in constant wave mode....">
<polygon fill="white" stroke="black" points="91.5,-403.5 91.5,-422.5 265.5,-422.5 265.5,-403.5 91.5,-403.5"/>
<text text-anchor="middle" x="178.5" y="-410.5" font-family="Helvetica,sans-Serif" font-size="10.00">ifxAvian/ConstantWaveControl.h</text>
</a>
</g>
</g>
<!-- Node1&#45;&gt;Node18 -->
<g id="edge27" class="edge">
<title>Node1&#45;&gt;Node18</title>
<path fill="none" stroke="midnightblue" d="M266.25,-459.4C247.47,-449.68 222.67,-436.86 204.23,-427.31"/>
<polygon fill="midnightblue" stroke="midnightblue" points="205.72,-424.14 195.23,-422.66 202.51,-430.36 205.72,-424.14"/>
</g>
<!-- Node19 -->
<g id="node19" class="node">
<title>Node19</title>
<g id="a_node19"><a xlink:href="_metrics_8h.html" target="_top" xlink:title="API for Metrics.">
<polygon fill="white" stroke="black" points="321.5,-403.5 321.5,-422.5 425.5,-422.5 425.5,-403.5 321.5,-403.5"/>
<text text-anchor="middle" x="373.5" y="-410.5" font-family="Helvetica,sans-Serif" font-size="10.00">ifxAvian/Metrics.h</text>
</a>
</g>
</g>
<!-- Node1&#45;&gt;Node19 -->
<g id="edge30" class="edge">
<title>Node1&#45;&gt;Node19</title>
<path fill="none" stroke="midnightblue" d="M312.46,-459.4C324.92,-450.13 341.2,-438.03 353.81,-428.65"/>
<polygon fill="midnightblue" stroke="midnightblue" points="355.92,-431.43 361.86,-422.66 351.75,-425.82 355.92,-431.43"/>
</g>
<!-- Node20 -->
<g id="node20" class="node">
<title>Node20</title>
<g id="a_node20"><a xlink:href="_shapes_8h.html" target="_top" xlink:title=" ">
<polygon fill="white" stroke="black" points="443.5,-403.5 443.5,-422.5 547.5,-422.5 547.5,-403.5 443.5,-403.5"/>
<text text-anchor="middle" x="495.5" y="-410.5" font-family="Helvetica,sans-Serif" font-size="10.00">ifxAvian/Shapes.h</text>
</a>
</g>
</g>
<!-- Node1&#45;&gt;Node20 -->
<g id="edge33" class="edge">
<title>Node1&#45;&gt;Node20</title>
<path fill="none" stroke="midnightblue" d="M341.12,-459.47C376.42,-449.08 423.94,-435.08 456.89,-425.37"/>
<polygon fill="midnightblue" stroke="midnightblue" points="458.02,-428.69 466.62,-422.51 456.04,-421.97 458.02,-428.69"/>
</g>
<!-- Node3 -->
<g id="node3" class="node">
<title>Node3</title>
<g id="a_node3"><a xlink:href="_types_8h.html" target="_top" xlink:title="Definitions of data types used within the SDK.">
<polygon fill="white" stroke="black" points="296,-56.5 296,-75.5 389,-75.5 389,-56.5 296,-56.5"/>
<text text-anchor="middle" x="342.5" y="-63.5" font-family="Helvetica,sans-Serif" font-size="10.00">ifxBase/Types.h</text>
</a>
</g>
</g>
<!-- Node2&#45;&gt;Node3 -->
<g id="edge2" class="edge">
<title>Node2&#45;&gt;Node3</title>
<path fill="none" stroke="midnightblue" d="M55.23,-291.43C45.53,-283.27 32.22,-270.05 26.5,-255 21.6,-242.12 20.67,-236.48 26.5,-224 59.37,-153.69 91.27,-147.1 160.5,-112 199.9,-92.02 248.69,-80.58 285.83,-74.23"/>
<polygon fill="midnightblue" stroke="midnightblue" points="286.67,-77.64 295.98,-72.58 285.55,-70.73 286.67,-77.64"/>
</g>
<!-- Node7 -->
<g id="node7" class="node">
<title>Node7</title>
<g id="a_node7"><a xlink:href="_radar_device_common_8h.html" target="_top" xlink:title="Header for ifxRadarDeviceCommon.">
<polygon fill="white" stroke="black" points="35.5,-224.5 35.5,-254.5 171.5,-254.5 171.5,-224.5 35.5,-224.5"/>
<text text-anchor="start" x="43.5" y="-242.5" font-family="Helvetica,sans-Serif" font-size="10.00">ifxRadarDeviceCommon</text>
<text text-anchor="middle" x="103.5" y="-231.5" font-family="Helvetica,sans-Serif" font-size="10.00">/RadarDeviceCommon.h</text>
</a>
</g>
</g>
<!-- Node2&#45;&gt;Node7 -->
<g id="edge6" class="edge">
<title>Node2&#45;&gt;Node7</title>
<path fill="none" stroke="midnightblue" d="M71.8,-291.48C76.39,-284.09 83.24,-273.08 89.4,-263.17"/>
<polygon fill="midnightblue" stroke="midnightblue" points="92.47,-264.86 94.78,-254.52 86.53,-261.17 92.47,-264.86"/>
</g>
<!-- Node4 -->
<g id="node4" class="node">
<title>Node4</title>
<g id="a_node4"><a xlink:title=" ">
<polygon fill="white" stroke="#bfbfbf" points="243,-0.5 243,-19.5 296,-19.5 296,-0.5 243,-0.5"/>
<text text-anchor="middle" x="269.5" y="-7.5" font-family="Helvetica,sans-Serif" font-size="10.00">stdint.h</text>
</a>
</g>
</g>
<!-- Node3&#45;&gt;Node4 -->
<g id="edge3" class="edge">
<title>Node3&#45;&gt;Node4</title>
<path fill="none" stroke="midnightblue" d="M330.77,-56.32C319.66,-48.11 302.76,-35.6 289.52,-25.81"/>
<polygon fill="midnightblue" stroke="midnightblue" points="291.56,-22.97 281.44,-19.83 287.4,-28.59 291.56,-22.97"/>
</g>
<!-- Node5 -->
<g id="node5" class="node">
<title>Node5</title>
<g id="a_node5"><a xlink:title=" ">
<polygon fill="white" stroke="#bfbfbf" points="314.5,-0.5 314.5,-19.5 370.5,-19.5 370.5,-0.5 314.5,-0.5"/>
<text text-anchor="middle" x="342.5" y="-7.5" font-family="Helvetica,sans-Serif" font-size="10.00">stddef.h</text>
</a>
</g>
</g>
<!-- Node3&#45;&gt;Node5 -->
<g id="edge4" class="edge">
<title>Node3&#45;&gt;Node5</title>
<path fill="none" stroke="midnightblue" d="M342.5,-56.08C342.5,-49.01 342.5,-38.86 342.5,-29.99"/>
<polygon fill="midnightblue" stroke="midnightblue" points="346,-29.75 342.5,-19.75 339,-29.75 346,-29.75"/>
</g>
<!-- Node6 -->
<g id="node6" class="node">
<title>Node6</title>
<g id="a_node6"><a xlink:title=" ">
<polygon fill="white" stroke="#bfbfbf" points="388.5,-0.5 388.5,-19.5 450.5,-19.5 450.5,-0.5 388.5,-0.5"/>
<text text-anchor="middle" x="419.5" y="-7.5" font-family="Helvetica,sans-Serif" font-size="10.00">stdbool.h</text>
</a>
</g>
</g>
<!-- Node3&#45;&gt;Node6 -->
<g id="edge5" class="edge">
<title>Node3&#45;&gt;Node6</title>
<path fill="none" stroke="midnightblue" d="M354.87,-56.32C366.66,-48.06 384.63,-35.45 398.64,-25.63"/>
<polygon fill="midnightblue" stroke="midnightblue" points="400.98,-28.26 407.16,-19.65 396.96,-22.53 400.98,-28.26"/>
</g>
<!-- Node7&#45;&gt;Node3 -->
<g id="edge7" class="edge">
<title>Node7&#45;&gt;Node3</title>
<path fill="none" stroke="midnightblue" d="M108.74,-224.34C119.18,-198.11 145.12,-141.9 185.5,-112 214.59,-90.45 253.72,-79.21 285.64,-73.34"/>
<polygon fill="midnightblue" stroke="midnightblue" points="286.45,-76.76 295.72,-71.62 285.28,-69.86 286.45,-76.76"/>
</g>
<!-- Node8&#45;&gt;Node2 -->
<g id="edge25" class="edge">
<title>Node8&#45;&gt;Node2</title>
<path fill="none" stroke="midnightblue" d="M248.27,-347.44C210.99,-338.12 151.23,-323.18 110.49,-313"/>
<polygon fill="midnightblue" stroke="midnightblue" points="111.12,-309.55 100.57,-310.52 109.42,-316.34 111.12,-309.55"/>
</g>
<!-- Node8&#45;&gt;Node3 -->
<g id="edge9" class="edge">
<title>Node8&#45;&gt;Node3</title>
<path fill="none" stroke="midnightblue" d="M263.8,-347.37C249.35,-339.77 229.95,-327.36 218.5,-311 199.89,-284.41 199.5,-272.95 199.5,-240.5 199.5,-240.5 199.5,-240.5 199.5,-177 199.5,-124.84 260.01,-93.99 302.31,-78.8"/>
<polygon fill="midnightblue" stroke="midnightblue" points="303.5,-82.09 311.82,-75.54 301.23,-75.47 303.5,-82.09"/>
</g>
<!-- Node8&#45;&gt;Node7 -->
<g id="edge26" class="edge">
<title>Node8&#45;&gt;Node7</title>
<path fill="none" stroke="midnightblue" d="M259.62,-347.48C239.36,-339.45 209.38,-326.38 185.5,-311 163.32,-296.71 140.79,-276.87 124.97,-261.88"/>
<polygon fill="midnightblue" stroke="midnightblue" points="126.98,-258.95 117.35,-254.53 122.12,-263.99 126.98,-258.95"/>
</g>
<!-- Node9 -->
<g id="node9" class="node">
<title>Node9</title>
<g id="a_node9"><a xlink:href="_error_8h.html" target="_top" xlink:title="API for error handling.">
<polygon fill="white" stroke="black" points="227.5,-291.5 227.5,-310.5 315.5,-310.5 315.5,-291.5 227.5,-291.5"/>
<text text-anchor="middle" x="271.5" y="-298.5" font-family="Helvetica,sans-Serif" font-size="10.00">ifxBase/Error.h</text>
</a>
</g>
</g>
<!-- Node8&#45;&gt;Node9 -->
<g id="edge10" class="edge">
<title>Node8&#45;&gt;Node9</title>
<path fill="none" stroke="midnightblue" d="M280.68,-347.08C279.23,-339.93 277.13,-329.64 275.31,-320.69"/>
<polygon fill="midnightblue" stroke="midnightblue" points="278.71,-319.85 273.28,-310.75 271.85,-321.25 278.71,-319.85"/>
</g>
<!-- Node12 -->
<g id="node12" class="node">
<title>Node12</title>
<g id="a_node12"><a xlink:href="_list_8h.html" target="_top" xlink:title=" ">
<polygon fill="white" stroke="black" points="266,-112.5 266,-131.5 349,-131.5 349,-112.5 266,-112.5"/>
<text text-anchor="middle" x="307.5" y="-119.5" font-family="Helvetica,sans-Serif" font-size="10.00">ifxBase/List.h</text>
</a>
</g>
</g>
<!-- Node8&#45;&gt;Node12 -->
<g id="edge14" class="edge">
<title>Node8&#45;&gt;Node12</title>
<path fill="none" stroke="midnightblue" d="M294.71,-347.24C304.85,-339.14 318.54,-326.11 324.5,-311 347.81,-251.87 335.92,-230.52 324.5,-168 322.81,-158.76 319.33,-148.95 315.95,-140.85"/>
<polygon fill="midnightblue" stroke="midnightblue" points="319.13,-139.4 311.87,-131.69 312.74,-142.25 319.13,-139.4"/>
</g>
<!-- Node13 -->
<g id="node13" class="node">
<title>Node13</title>
<g id="a_node13"><a xlink:href="_cube_8h.html" target="_top" xlink:title="API for operations on Cube data structures.">
<polygon fill="white" stroke="black" points="377.5,-291.5 377.5,-310.5 467.5,-310.5 467.5,-291.5 377.5,-291.5"/>
<text text-anchor="middle" x="422.5" y="-298.5" font-family="Helvetica,sans-Serif" font-size="10.00">ifxBase/Cube.h</text>
</a>
</g>
</g>
<!-- Node8&#45;&gt;Node13 -->
<g id="edge16" class="edge">
<title>Node8&#45;&gt;Node13</title>
<path fill="none" stroke="midnightblue" d="M304.68,-347.44C327.93,-338.48 364.65,-324.31 390.92,-314.18"/>
<polygon fill="midnightblue" stroke="midnightblue" points="392.35,-317.38 400.42,-310.52 389.83,-310.85 392.35,-317.38"/>
</g>
<!-- Node10 -->
<g id="node10" class="node">
<title>Node10</title>
<g id="a_node10"><a xlink:href="_log_8h.html" target="_top" xlink:title="API for logging.">
<polygon fill="white" stroke="black" points="230,-230 230,-249 313,-249 313,-230 230,-230"/>
<text text-anchor="middle" x="271.5" y="-237" font-family="Helvetica,sans-Serif" font-size="10.00">ifxBase/Log.h</text>
</a>
</g>
</g>
<!-- Node9&#45;&gt;Node10 -->
<g id="edge11" class="edge">
<title>Node9&#45;&gt;Node10</title>
<path fill="none" stroke="midnightblue" d="M271.5,-291.48C271.5,-283.08 271.5,-269.98 271.5,-259.16"/>
<polygon fill="midnightblue" stroke="midnightblue" points="275,-259.01 271.5,-249.01 268,-259.01 275,-259.01"/>
</g>
<!-- Node10&#45;&gt;Node3 -->
<g id="edge13" class="edge">
<title>Node10&#45;&gt;Node3</title>
<path fill="none" stroke="midnightblue" d="M267,-229.74C256.53,-208.01 233.14,-150.59 256.5,-112 265.91,-96.46 282.65,-86.02 298.88,-79.15"/>
<polygon fill="midnightblue" stroke="midnightblue" points="300.25,-82.37 308.32,-75.51 297.73,-75.85 300.25,-82.37"/>
</g>
<!-- Node11 -->
<g id="node11" class="node">
<title>Node11</title>
<g id="a_node11"><a xlink:title=" ">
<polygon fill="white" stroke="#bfbfbf" points="265.5,-168.5 265.5,-187.5 315.5,-187.5 315.5,-168.5 265.5,-168.5"/>
<text text-anchor="middle" x="290.5" y="-175.5" font-family="Helvetica,sans-Serif" font-size="10.00">stdio.h</text>
</a>
</g>
</g>
<!-- Node10&#45;&gt;Node11 -->
<g id="edge12" class="edge">
<title>Node10&#45;&gt;Node11</title>
<path fill="none" stroke="midnightblue" d="M274.22,-229.98C276.93,-221.49 281.17,-208.2 284.65,-197.32"/>
<polygon fill="midnightblue" stroke="midnightblue" points="288.07,-198.1 287.78,-187.51 281.41,-195.97 288.07,-198.1"/>
</g>
<!-- Node12&#45;&gt;Node3 -->
<g id="edge15" class="edge">
<title>Node12&#45;&gt;Node3</title>
<path fill="none" stroke="midnightblue" d="M313.28,-112.08C318.17,-104.53 325.33,-93.49 331.33,-84.23"/>
<polygon fill="midnightblue" stroke="midnightblue" points="334.33,-86.05 336.83,-75.75 328.45,-82.24 334.33,-86.05"/>
</g>
<!-- Node14 -->
<g id="node14" class="node">
<title>Node14</title>
<g id="a_node14"><a xlink:href="_defines_8h.html" target="_top" xlink:title="Internal definitions used by standard math.h functions as Macros, to use float or double precision.">
<polygon fill="white" stroke="black" points="371.5,-230 371.5,-249 473.5,-249 473.5,-230 371.5,-230"/>
<text text-anchor="middle" x="422.5" y="-237" font-family="Helvetica,sans-Serif" font-size="10.00">ifxBase/Defines.h</text>
</a>
</g>
</g>
<!-- Node13&#45;&gt;Node14 -->
<g id="edge17" class="edge">
<title>Node13&#45;&gt;Node14</title>
<path fill="none" stroke="midnightblue" d="M422.5,-291.48C422.5,-283.08 422.5,-269.98 422.5,-259.16"/>
<polygon fill="midnightblue" stroke="midnightblue" points="426,-259.01 422.5,-249.01 419,-259.01 426,-259.01"/>
</g>
<!-- Node17 -->
<g id="node17" class="node">
<title>Node17</title>
<g id="a_node17"><a xlink:href="_matrix_8h.html" target="_top" xlink:title="API for operations on Matrix data structures.">
<polygon fill="white" stroke="black" points="442,-168.5 442,-187.5 539,-187.5 539,-168.5 442,-168.5"/>
<text text-anchor="middle" x="490.5" y="-175.5" font-family="Helvetica,sans-Serif" font-size="10.00">ifxBase/Matrix.h</text>
</a>
</g>
</g>
<!-- Node13&#45;&gt;Node17 -->
<g id="edge22" class="edge">
<title>Node13&#45;&gt;Node17</title>
<path fill="none" stroke="midnightblue" d="M441.02,-291.37C454.92,-283.85 473.12,-271.53 482.5,-255 492.4,-237.54 493.4,-214.18 492.55,-197.98"/>
<polygon fill="midnightblue" stroke="midnightblue" points="496.01,-197.33 491.71,-187.65 489.03,-197.9 496.01,-197.33"/>
</g>
<!-- Node15 -->
<g id="node15" class="node">
<title>Node15</title>
<g id="a_node15"><a xlink:href="_math_8h.html" target="_top" xlink:title="API for Mathematical operations.">
<polygon fill="white" stroke="black" points="373,-168.5 373,-187.5 424,-187.5 424,-168.5 373,-168.5"/>
<text text-anchor="middle" x="398.5" y="-175.5" font-family="Helvetica,sans-Serif" font-size="10.00">math.h</text>
</a>
</g>
</g>
<!-- Node14&#45;&gt;Node15 -->
<g id="edge18" class="edge">
<title>Node14&#45;&gt;Node15</title>
<path fill="none" stroke="midnightblue" d="M419.06,-229.98C415.6,-221.4 410.17,-207.93 405.75,-196.98"/>
<polygon fill="midnightblue" stroke="midnightblue" points="408.92,-195.47 401.93,-187.51 402.43,-198.09 408.92,-195.47"/>
</g>
<!-- Node15&#45;&gt;Node3 -->
<g id="edge19" class="edge">
<title>Node15&#45;&gt;Node3</title>
<path fill="none" stroke="midnightblue" d="M394.11,-168.37C384.95,-150.38 363.65,-108.55 351.47,-84.63"/>
<polygon fill="midnightblue" stroke="midnightblue" points="354.53,-82.92 346.87,-75.59 348.29,-86.09 354.53,-82.92"/>
</g>
<!-- Node16 -->
<g id="node16" class="node">
<title>Node16</title>
<g id="a_node16"><a xlink:href="_vector_8h.html" target="_top" xlink:title="API for operations on Vector data structures.">
<polygon fill="white" stroke="black" points="406,-112.5 406,-131.5 501,-131.5 501,-112.5 406,-112.5"/>
<text text-anchor="middle" x="453.5" y="-119.5" font-family="Helvetica,sans-Serif" font-size="10.00">ifxBase/Vector.h</text>
</a>
</g>
</g>
<!-- Node15&#45;&gt;Node16 -->
<g id="edge20" class="edge">
<title>Node15&#45;&gt;Node16</title>
<path fill="none" stroke="midnightblue" d="M407.58,-168.08C415.67,-160.14 427.7,-148.34 437.41,-138.8"/>
<polygon fill="midnightblue" stroke="midnightblue" points="439.9,-141.25 444.59,-131.75 435,-136.26 439.9,-141.25"/>
</g>
<!-- Node16&#45;&gt;Node3 -->
<g id="edge21" class="edge">
<title>Node16&#45;&gt;Node3</title>
<path fill="none" stroke="midnightblue" d="M435.67,-112.32C417.78,-103.62 390.02,-90.12 369.45,-80.11"/>
<polygon fill="midnightblue" stroke="midnightblue" points="370.81,-76.88 360.29,-75.65 367.75,-83.18 370.81,-76.88"/>
</g>
<!-- Node17&#45;&gt;Node3 -->
<g id="edge23" class="edge">
<title>Node17&#45;&gt;Node3</title>
<path fill="none" stroke="midnightblue" d="M497.61,-168.1C507.42,-154.67 522.51,-128.99 509.5,-112 495.97,-94.35 442.19,-82.06 399.26,-74.83"/>
<polygon fill="midnightblue" stroke="midnightblue" points="399.61,-71.34 389.18,-73.19 398.49,-78.25 399.61,-71.34"/>
</g>
<!-- Node17&#45;&gt;Node16 -->
<g id="edge24" class="edge">
<title>Node17&#45;&gt;Node16</title>
<path fill="none" stroke="midnightblue" d="M484.39,-168.08C479.22,-160.53 471.65,-149.49 465.31,-140.23"/>
<polygon fill="midnightblue" stroke="midnightblue" points="468.04,-138.02 459.5,-131.75 462.26,-141.98 468.04,-138.02"/>
</g>
<!-- Node18&#45;&gt;Node2 -->
<g id="edge29" class="edge">
<title>Node18&#45;&gt;Node2</title>
<path fill="none" stroke="midnightblue" d="M169.71,-403.37C150.9,-384.89 106.51,-341.29 82.53,-317.74"/>
<polygon fill="midnightblue" stroke="midnightblue" points="84.83,-315.1 75.25,-310.59 79.93,-320.1 84.83,-315.1"/>
</g>
<!-- Node18&#45;&gt;Node8 -->
<g id="edge28" class="edge">
<title>Node18&#45;&gt;Node8</title>
<path fill="none" stroke="midnightblue" d="M195.21,-403.32C211.81,-394.7 237.5,-381.36 256.72,-371.39"/>
<polygon fill="midnightblue" stroke="midnightblue" points="258.57,-374.37 265.83,-366.65 255.34,-368.16 258.57,-374.37"/>
</g>
<!-- Node19&#45;&gt;Node3 -->
<g id="edge31" class="edge">
<title>Node19&#45;&gt;Node3</title>
<path fill="none" stroke="midnightblue" d="M399.26,-403.38C452.03,-384.94 567.5,-340.23 567.5,-302 567.5,-302 567.5,-302 567.5,-177 567.5,-102.14 465.74,-78.22 399.09,-70.58"/>
<polygon fill="midnightblue" stroke="midnightblue" points="399.43,-67.1 389.12,-69.53 398.7,-74.06 399.43,-67.1"/>
</g>
<!-- Node19&#45;&gt;Node8 -->
<g id="edge32" class="edge">
<title>Node19&#45;&gt;Node8</title>
<path fill="none" stroke="midnightblue" d="M358.88,-403.32C344.55,-394.82 322.49,-381.73 305.75,-371.8"/>
<polygon fill="midnightblue" stroke="midnightblue" points="307.47,-368.75 297.08,-366.65 303.9,-374.77 307.47,-368.75"/>
</g>
<!-- Node20&#45;&gt;Node3 -->
<g id="edge34" class="edge">
<title>Node20&#45;&gt;Node3</title>
<path fill="none" stroke="midnightblue" d="M514.91,-403.46C546.49,-388.11 605.5,-352.64 605.5,-302 605.5,-302 605.5,-302 605.5,-177 605.5,-88.31 476.62,-69.88 399.3,-66.81"/>
<polygon fill="midnightblue" stroke="midnightblue" points="399.32,-63.31 389.22,-66.49 399.1,-70.31 399.32,-63.31"/>
</g>
<!-- Node20&#45;&gt;Node8 -->
<g id="edge35" class="edge">
<title>Node20&#45;&gt;Node8</title>
<path fill="none" stroke="midnightblue" d="M461.75,-403.44C424.98,-394.12 366.05,-379.18 325.88,-369"/>
<polygon fill="midnightblue" stroke="midnightblue" points="326.65,-365.58 316.09,-366.52 324.93,-372.37 326.65,-365.58"/>
</g>
</g>
</svg>
