<?xml version="1.0" encoding="UTF-8" standalone="no"?>
<!DOCTYPE svg PUBLIC "-//W3C//DTD SVG 1.1//EN"
 "http://www.w3.org/Graphics/SVG/1.1/DTD/svg11.dtd">
<!-- Generated by graphviz version 2.43.0 (0)
 -->
<!-- Title: /home/build/sdk/c/ifxBase/Base.h Pages: 1 -->
<svg width="927pt" height="375pt"
 viewBox="0.00 0.00 927.48 375.00" xmlns="http://www.w3.org/2000/svg" xmlns:xlink="http://www.w3.org/1999/xlink">
<g id="graph0" class="graph" transform="scale(1 1) rotate(0) translate(4 371)">
<title>/home/build/sdk/c/ifxBase/Base.h</title>
<polygon fill="white" stroke="transparent" points="-4,4 -4,-371 923.48,-371 923.48,4 -4,4"/>
<!-- Node1 -->
<g id="node1" class="node">
<title>Node1</title>
<g id="a_node1"><a xlink:title="Header for ifxAvian.">
<polygon fill="#bfbfbf" stroke="black" points="350.48,-336.5 350.48,-366.5 493.48,-366.5 493.48,-336.5 350.48,-336.5"/>
<text text-anchor="start" x="358.48" y="-354.5" font-family="Helvetica,sans-Serif" font-size="10.00">/home/build/sdk/c/ifxBase</text>
<text text-anchor="middle" x="421.98" y="-343.5" font-family="Helvetica,sans-Serif" font-size="10.00">/Base.h</text>
</a>
</g>
</g>
<!-- Node2 -->
<g id="node2" class="node">
<title>Node2</title>
<g id="a_node2"><a xlink:href="_complex_8h.html" target="_top" xlink:title="API for operations on complex numbers.">
<polygon fill="white" stroke="black" points="29.48,-280.5 29.48,-299.5 138.48,-299.5 138.48,-280.5 29.48,-280.5"/>
<text text-anchor="middle" x="83.98" y="-287.5" font-family="Helvetica,sans-Serif" font-size="10.00">ifxBase/Complex.h</text>
</a>
</g>
</g>
<!-- Node1&#45;&gt;Node2 -->
<g id="edge1" class="edge">
<title>Node1&#45;&gt;Node2</title>
<path fill="none" stroke="midnightblue" d="M350.3,-337.88C288.42,-326.99 200.13,-311.45 142.45,-301.29"/>
<polygon fill="midnightblue" stroke="midnightblue" points="142.85,-297.81 132.4,-299.52 141.64,-304.7 142.85,-297.81"/>
</g>
<!-- Node3 -->
<g id="node3" class="node">
<title>Node3</title>
<g id="a_node3"><a xlink:href="_defines_8h.html" target="_top" xlink:title="Internal definitions used by standard math.h functions as Macros, to use float or double precision.">
<polygon fill="white" stroke="black" points="194.98,-224.5 194.98,-243.5 296.98,-243.5 296.98,-224.5 194.98,-224.5"/>
<text text-anchor="middle" x="245.98" y="-231.5" font-family="Helvetica,sans-Serif" font-size="10.00">ifxBase/Defines.h</text>
</a>
</g>
</g>
<!-- Node1&#45;&gt;Node3 -->
<g id="edge16" class="edge">
<title>Node1&#45;&gt;Node3</title>
<path fill="none" stroke="midnightblue" d="M350.44,-341.54C300.34,-333.63 239.65,-320.17 223.98,-300 213.06,-285.95 222.36,-266.18 232.01,-252.14"/>
<polygon fill="midnightblue" stroke="midnightblue" points="235.01,-253.97 238.19,-243.86 229.4,-249.78 235.01,-253.97"/>
</g>
<!-- Node4 -->
<g id="node4" class="node">
<title>Node4</title>
<g id="a_node4"><a xlink:href="_math_8h.html" target="_top" xlink:title="API for Mathematical operations.">
<polygon fill="white" stroke="black" points="222.48,-168.5 222.48,-187.5 273.48,-187.5 273.48,-168.5 222.48,-168.5"/>
<text text-anchor="middle" x="247.98" y="-175.5" font-family="Helvetica,sans-Serif" font-size="10.00">math.h</text>
</a>
</g>
</g>
<!-- Node1&#45;&gt;Node4 -->
<g id="edge27" class="edge">
<title>Node1&#45;&gt;Node4</title>
<path fill="none" stroke="midnightblue" d="M350.35,-347.67C307.2,-342.66 253.37,-330.17 214.98,-300 186.55,-277.66 169.56,-256.21 185.98,-224 192.98,-210.27 206.34,-199.75 218.88,-192.35"/>
<polygon fill="midnightblue" stroke="midnightblue" points="220.65,-195.37 227.75,-187.51 217.3,-189.22 220.65,-195.37"/>
</g>
<!-- Node5 -->
<g id="node5" class="node">
<title>Node5</title>
<g id="a_node5"><a xlink:href="_types_8h.html" target="_top" xlink:title="Definitions of data types used within the SDK.">
<polygon fill="white" stroke="black" points="429.48,-56.5 429.48,-75.5 522.48,-75.5 522.48,-56.5 429.48,-56.5"/>
<text text-anchor="middle" x="475.98" y="-63.5" font-family="Helvetica,sans-Serif" font-size="10.00">ifxBase/Types.h</text>
</a>
</g>
</g>
<!-- Node1&#45;&gt;Node5 -->
<g id="edge31" class="edge">
<title>Node1&#45;&gt;Node5</title>
<path fill="none" stroke="midnightblue" d="M350.31,-350.66C248.33,-349.39 68.3,-341.17 19.98,-300 -2.93,-280.48 0.98,-265.1 0.98,-235 0.98,-235 0.98,-235 0.98,-177 0.98,-92.09 292.67,-72.71 418.89,-68.3"/>
<polygon fill="midnightblue" stroke="midnightblue" points="419.25,-71.79 429.13,-67.96 419.02,-64.79 419.25,-71.79"/>
</g>
<!-- Node9 -->
<g id="node9" class="node">
<title>Node9</title>
<g id="a_node9"><a xlink:href="_vector_8h.html" target="_top" xlink:title="API for operations on Vector data structures.">
<polygon fill="white" stroke="black" points="295.48,-112.5 295.48,-131.5 390.48,-131.5 390.48,-112.5 295.48,-112.5"/>
<text text-anchor="middle" x="342.98" y="-119.5" font-family="Helvetica,sans-Serif" font-size="10.00">ifxBase/Vector.h</text>
</a>
</g>
</g>
<!-- Node1&#45;&gt;Node9 -->
<g id="edge34" class="edge">
<title>Node1&#45;&gt;Node9</title>
<path fill="none" stroke="midnightblue" d="M407.2,-336.31C388.58,-317.33 357.51,-281.67 344.98,-244 333.41,-209.24 336.67,-165.69 339.93,-141.45"/>
<polygon fill="midnightblue" stroke="midnightblue" points="343.4,-141.91 341.42,-131.51 336.48,-140.88 343.4,-141.91"/>
</g>
<!-- Node10 -->
<g id="node10" class="node">
<title>Node10</title>
<g id="a_node10"><a xlink:href="_cube_8h.html" target="_top" xlink:title="API for operations on Cube data structures.">
<polygon fill="white" stroke="black" points="232.98,-280.5 232.98,-299.5 322.98,-299.5 322.98,-280.5 232.98,-280.5"/>
<text text-anchor="middle" x="277.98" y="-287.5" font-family="Helvetica,sans-Serif" font-size="10.00">ifxBase/Cube.h</text>
</a>
</g>
</g>
<!-- Node1&#45;&gt;Node10 -->
<g id="edge11" class="edge">
<title>Node1&#45;&gt;Node10</title>
<path fill="none" stroke="midnightblue" d="M387.85,-336.4C363.69,-326.42 331.58,-313.15 308.31,-303.53"/>
<polygon fill="midnightblue" stroke="midnightblue" points="309.51,-300.24 298.93,-299.66 306.84,-306.71 309.51,-300.24"/>
</g>
<!-- Node11 -->
<g id="node11" class="node">
<title>Node11</title>
<g id="a_node11"><a xlink:href="_matrix_8h.html" target="_top" xlink:title="API for operations on Matrix data structures.">
<polygon fill="white" stroke="black" points="353.48,-224.5 353.48,-243.5 450.48,-243.5 450.48,-224.5 353.48,-224.5"/>
<text text-anchor="middle" x="401.98" y="-231.5" font-family="Helvetica,sans-Serif" font-size="10.00">ifxBase/Matrix.h</text>
</a>
</g>
</g>
<!-- Node1&#45;&gt;Node11 -->
<g id="edge28" class="edge">
<title>Node1&#45;&gt;Node11</title>
<path fill="none" stroke="midnightblue" d="M417.24,-336.07C414.13,-326.06 410.24,-312.35 407.98,-300 405.17,-284.65 403.64,-267.01 402.84,-253.99"/>
<polygon fill="midnightblue" stroke="midnightblue" points="406.33,-253.7 402.3,-243.9 399.34,-254.07 406.33,-253.7"/>
</g>
<!-- Node12 -->
<g id="node12" class="node">
<title>Node12</title>
<g id="a_node12"><a xlink:href="_error_8h.html" target="_top" xlink:title="API for error handling.">
<polygon fill="white" stroke="black" points="550.98,-280.5 550.98,-299.5 638.98,-299.5 638.98,-280.5 550.98,-280.5"/>
<text text-anchor="middle" x="594.98" y="-287.5" font-family="Helvetica,sans-Serif" font-size="10.00">ifxBase/Error.h</text>
</a>
</g>
</g>
<!-- Node1&#45;&gt;Node12 -->
<g id="edge17" class="edge">
<title>Node1&#45;&gt;Node12</title>
<path fill="none" stroke="midnightblue" d="M462.98,-336.4C492.61,-326.21 532.2,-312.59 560.28,-302.93"/>
<polygon fill="midnightblue" stroke="midnightblue" points="561.74,-306.13 570.06,-299.57 559.46,-299.51 561.74,-306.13"/>
</g>
<!-- Node13 -->
<g id="node13" class="node">
<title>Node13</title>
<g id="a_node13"><a xlink:href="_log_8h.html" target="_top" xlink:title="API for logging.">
<polygon fill="white" stroke="black" points="525.48,-224.5 525.48,-243.5 608.48,-243.5 608.48,-224.5 525.48,-224.5"/>
<text text-anchor="middle" x="566.98" y="-231.5" font-family="Helvetica,sans-Serif" font-size="10.00">ifxBase/Log.h</text>
</a>
</g>
</g>
<!-- Node1&#45;&gt;Node13 -->
<g id="edge26" class="edge">
<title>Node1&#45;&gt;Node13</title>
<path fill="none" stroke="midnightblue" d="M448.57,-336.37C465.18,-327.01 486.64,-313.92 503.98,-300 522.45,-285.17 541.01,-265.27 553.15,-251.41"/>
<polygon fill="midnightblue" stroke="midnightblue" points="555.95,-253.53 559.82,-243.66 550.64,-248.96 555.95,-253.53"/>
</g>
<!-- Node15 -->
<g id="node15" class="node">
<title>Node15</title>
<g id="a_node15"><a xlink:href="_l_a_8h.html" target="_top" xlink:title="API for Linear Algebra (LA)">
<polygon fill="white" stroke="black" points="416.98,-280.5 416.98,-299.5 494.98,-299.5 494.98,-280.5 416.98,-280.5"/>
<text text-anchor="middle" x="455.98" y="-287.5" font-family="Helvetica,sans-Serif" font-size="10.00">ifxBase/LA.h</text>
</a>
</g>
</g>
<!-- Node1&#45;&gt;Node15 -->
<g id="edge21" class="edge">
<title>Node1&#45;&gt;Node15</title>
<path fill="none" stroke="midnightblue" d="M430.03,-336.4C434.82,-328.02 440.93,-317.33 446.02,-308.42"/>
<polygon fill="midnightblue" stroke="midnightblue" points="449.11,-310.08 451.03,-299.66 443.03,-306.6 449.11,-310.08"/>
</g>
<!-- Node16 -->
<g id="node16" class="node">
<title>Node16</title>
<g id="a_node16"><a xlink:href="_list_8h.html" target="_top" xlink:title=" ">
<polygon fill="white" stroke="black" points="605.48,-112.5 605.48,-131.5 688.48,-131.5 688.48,-112.5 605.48,-112.5"/>
<text text-anchor="middle" x="646.98" y="-119.5" font-family="Helvetica,sans-Serif" font-size="10.00">ifxBase/List.h</text>
</a>
</g>
</g>
<!-- Node1&#45;&gt;Node16 -->
<g id="edge24" class="edge">
<title>Node1&#45;&gt;Node16</title>
<path fill="none" stroke="midnightblue" d="M493.53,-344.14C552.28,-337.27 628.81,-323.92 647.98,-300 667.12,-276.11 655.86,-182.17 649.92,-141.71"/>
<polygon fill="midnightblue" stroke="midnightblue" points="653.38,-141.18 648.42,-131.81 646.46,-142.23 653.38,-141.18"/>
</g>
<!-- Node17 -->
<g id="node17" class="node">
<title>Node17</title>
<g id="a_node17"><a xlink:href="_mem_8h.html" target="_top" xlink:title="API for memory management.">
<polygon fill="white" stroke="black" points="671.98,-168.5 671.98,-187.5 761.98,-187.5 761.98,-168.5 671.98,-168.5"/>
<text text-anchor="middle" x="716.98" y="-175.5" font-family="Helvetica,sans-Serif" font-size="10.00">ifxBase/Mem.h</text>
</a>
</g>
</g>
<!-- Node1&#45;&gt;Node17 -->
<g id="edge29" class="edge">
<title>Node1&#45;&gt;Node17</title>
<path fill="none" stroke="midnightblue" d="M493.74,-344.79C560.63,-338.03 654.01,-324.48 680.98,-300 710.1,-273.57 716.08,-224.74 717.06,-197.9"/>
<polygon fill="midnightblue" stroke="midnightblue" points="720.56,-197.63 717.22,-187.57 713.56,-197.52 720.56,-197.63"/>
</g>
<!-- Node18 -->
<g id="node18" class="node">
<title>Node18</title>
<g id="a_node18"><a xlink:href="_uuid_8h.html" target="_top" xlink:title=" ">
<polygon fill="white" stroke="black" points="744.98,-112.5 744.98,-131.5 832.98,-131.5 832.98,-112.5 744.98,-112.5"/>
<text text-anchor="middle" x="788.98" y="-119.5" font-family="Helvetica,sans-Serif" font-size="10.00">ifxBase/Uuid.h</text>
</a>
</g>
</g>
<!-- Node1&#45;&gt;Node18 -->
<g id="edge32" class="edge">
<title>Node1&#45;&gt;Node18</title>
<path fill="none" stroke="midnightblue" d="M493.48,-344.26C564.94,-336.87 668.82,-322.61 701.98,-300 757.35,-262.24 778.91,-178.73 785.99,-141.52"/>
<polygon fill="midnightblue" stroke="midnightblue" points="789.46,-142.02 787.74,-131.56 782.56,-140.8 789.46,-142.02"/>
</g>
<!-- Node19 -->
<g id="node19" class="node">
<title>Node19</title>
<g id="a_node19"><a xlink:href="_version_8h.html" target="_top" xlink:title="Version information of SDK.">
<polygon fill="white" stroke="black" points="818.48,-224.5 818.48,-243.5 919.48,-243.5 919.48,-224.5 818.48,-224.5"/>
<text text-anchor="middle" x="868.98" y="-231.5" font-family="Helvetica,sans-Serif" font-size="10.00">ifxBase/Version.h</text>
</a>
</g>
</g>
<!-- Node1&#45;&gt;Node19 -->
<g id="edge35" class="edge">
<title>Node1&#45;&gt;Node19</title>
<path fill="none" stroke="midnightblue" d="M493.49,-346.53C588.6,-340.31 750.89,-326.2 803.98,-300 826.47,-288.9 845.84,-266.93 857.45,-251.62"/>
<polygon fill="midnightblue" stroke="midnightblue" points="860.3,-253.66 863.35,-243.51 854.64,-249.54 860.3,-253.66"/>
</g>
<!-- Node2&#45;&gt;Node3 -->
<g id="edge2" class="edge">
<title>Node2&#45;&gt;Node3</title>
<path fill="none" stroke="midnightblue" d="M109.65,-280.44C136.9,-271.36 180.16,-256.94 210.63,-246.78"/>
<polygon fill="midnightblue" stroke="midnightblue" points="212.05,-250 220.43,-243.52 209.83,-243.36 212.05,-250"/>
</g>
<!-- Node2&#45;&gt;Node5 -->
<g id="edge10" class="edge">
<title>Node2&#45;&gt;Node5</title>
<path fill="none" stroke="midnightblue" d="M89.96,-280.27C110.43,-251.13 180.97,-156.6 263.98,-112 312.41,-85.98 374.62,-75 419.1,-70.37"/>
<polygon fill="midnightblue" stroke="midnightblue" points="419.54,-73.85 429.16,-69.4 418.87,-66.88 419.54,-73.85"/>
</g>
<!-- Node3&#45;&gt;Node4 -->
<g id="edge3" class="edge">
<title>Node3&#45;&gt;Node4</title>
<path fill="none" stroke="midnightblue" d="M246.31,-224.08C246.57,-217.01 246.95,-206.86 247.27,-197.99"/>
<polygon fill="midnightblue" stroke="midnightblue" points="250.78,-197.87 247.65,-187.75 243.79,-197.61 250.78,-197.87"/>
</g>
<!-- Node4&#45;&gt;Node5 -->
<g id="edge4" class="edge">
<title>Node4&#45;&gt;Node5</title>
<path fill="none" stroke="midnightblue" d="M250.7,-168.32C255.59,-154.22 267.23,-126.46 286.98,-112 325.41,-83.86 378.94,-73.07 419.23,-69.06"/>
<polygon fill="midnightblue" stroke="midnightblue" points="419.78,-72.52 429.43,-68.15 419.16,-65.55 419.78,-72.52"/>
</g>
<!-- Node4&#45;&gt;Node9 -->
<g id="edge8" class="edge">
<title>Node4&#45;&gt;Node9</title>
<path fill="none" stroke="midnightblue" d="M263.24,-168.32C278.2,-159.82 301.23,-146.73 318.7,-136.8"/>
<polygon fill="midnightblue" stroke="midnightblue" points="320.79,-139.64 327.75,-131.65 317.33,-133.55 320.79,-139.64"/>
</g>
<!-- Node6 -->
<g id="node6" class="node">
<title>Node6</title>
<g id="a_node6"><a xlink:title=" ">
<polygon fill="white" stroke="#bfbfbf" points="376.48,-0.5 376.48,-19.5 429.48,-19.5 429.48,-0.5 376.48,-0.5"/>
<text text-anchor="middle" x="402.98" y="-7.5" font-family="Helvetica,sans-Serif" font-size="10.00">stdint.h</text>
</a>
</g>
</g>
<!-- Node5&#45;&gt;Node6 -->
<g id="edge5" class="edge">
<title>Node5&#45;&gt;Node6</title>
<path fill="none" stroke="midnightblue" d="M464.25,-56.32C453.14,-48.11 436.24,-35.6 422.99,-25.81"/>
<polygon fill="midnightblue" stroke="midnightblue" points="425.04,-22.97 414.92,-19.83 420.88,-28.59 425.04,-22.97"/>
</g>
<!-- Node7 -->
<g id="node7" class="node">
<title>Node7</title>
<g id="a_node7"><a xlink:title=" ">
<polygon fill="white" stroke="#bfbfbf" points="447.98,-0.5 447.98,-19.5 503.98,-19.5 503.98,-0.5 447.98,-0.5"/>
<text text-anchor="middle" x="475.98" y="-7.5" font-family="Helvetica,sans-Serif" font-size="10.00">stddef.h</text>
</a>
</g>
</g>
<!-- Node5&#45;&gt;Node7 -->
<g id="edge6" class="edge">
<title>Node5&#45;&gt;Node7</title>
<path fill="none" stroke="midnightblue" d="M475.98,-56.08C475.98,-49.01 475.98,-38.86 475.98,-29.99"/>
<polygon fill="midnightblue" stroke="midnightblue" points="479.48,-29.75 475.98,-19.75 472.48,-29.75 479.48,-29.75"/>
</g>
<!-- Node8 -->
<g id="node8" class="node">
<title>Node8</title>
<g id="a_node8"><a xlink:title=" ">
<polygon fill="white" stroke="#bfbfbf" points="521.98,-0.5 521.98,-19.5 583.98,-19.5 583.98,-0.5 521.98,-0.5"/>
<text text-anchor="middle" x="552.98" y="-7.5" font-family="Helvetica,sans-Serif" font-size="10.00">stdbool.h</text>
</a>
</g>
</g>
<!-- Node5&#45;&gt;Node8 -->
<g id="edge7" class="edge">
<title>Node5&#45;&gt;Node8</title>
<path fill="none" stroke="midnightblue" d="M488.35,-56.32C500.14,-48.06 518.11,-35.45 532.11,-25.63"/>
<polygon fill="midnightblue" stroke="midnightblue" points="534.46,-28.26 540.64,-19.65 530.44,-22.53 534.46,-28.26"/>
</g>
<!-- Node9&#45;&gt;Node5 -->
<g id="edge9" class="edge">
<title>Node9&#45;&gt;Node5</title>
<path fill="none" stroke="midnightblue" d="M364.05,-112.44C386.04,-103.52 420.71,-89.44 445.64,-79.32"/>
<polygon fill="midnightblue" stroke="midnightblue" points="447.05,-82.52 455,-75.52 444.42,-76.04 447.05,-82.52"/>
</g>
<!-- Node10&#45;&gt;Node3 -->
<g id="edge12" class="edge">
<title>Node10&#45;&gt;Node3</title>
<path fill="none" stroke="midnightblue" d="M272.69,-280.08C268.27,-272.61 261.81,-261.72 256.36,-252.52"/>
<polygon fill="midnightblue" stroke="midnightblue" points="259.27,-250.57 251.16,-243.75 253.25,-254.14 259.27,-250.57"/>
</g>
<!-- Node10&#45;&gt;Node11 -->
<g id="edge13" class="edge">
<title>Node10&#45;&gt;Node11</title>
<path fill="none" stroke="midnightblue" d="M297.63,-280.44C317.94,-271.6 349.88,-257.69 373.08,-247.59"/>
<polygon fill="midnightblue" stroke="midnightblue" points="374.65,-250.72 382.42,-243.52 371.86,-244.3 374.65,-250.72"/>
</g>
<!-- Node11&#45;&gt;Node5 -->
<g id="edge14" class="edge">
<title>Node11&#45;&gt;Node5</title>
<path fill="none" stroke="midnightblue" d="M405.96,-224.08C417.65,-197.83 452.11,-120.55 467.9,-85.12"/>
<polygon fill="midnightblue" stroke="midnightblue" points="471.28,-86.13 472.16,-75.57 464.89,-83.28 471.28,-86.13"/>
</g>
<!-- Node11&#45;&gt;Node9 -->
<g id="edge15" class="edge">
<title>Node11&#45;&gt;Node9</title>
<path fill="none" stroke="midnightblue" d="M397.35,-224.37C387.7,-206.38 365.26,-164.55 352.43,-140.63"/>
<polygon fill="midnightblue" stroke="midnightblue" points="355.4,-138.75 347.59,-131.59 349.23,-142.06 355.4,-138.75"/>
</g>
<!-- Node12&#45;&gt;Node13 -->
<g id="edge18" class="edge">
<title>Node12&#45;&gt;Node13</title>
<path fill="none" stroke="midnightblue" d="M590.35,-280.08C586.52,-272.69 580.95,-261.95 576.21,-252.81"/>
<polygon fill="midnightblue" stroke="midnightblue" points="579.23,-251.02 571.51,-243.75 573.01,-254.24 579.23,-251.02"/>
</g>
<!-- Node13&#45;&gt;Node5 -->
<g id="edge20" class="edge">
<title>Node13&#45;&gt;Node5</title>
<path fill="none" stroke="midnightblue" d="M568.16,-224.2C569.51,-211.33 570.64,-186.85 562.98,-168 548.42,-132.2 515.83,-100.13 494.94,-82.16"/>
<polygon fill="midnightblue" stroke="midnightblue" points="496.96,-79.28 487.04,-75.56 492.47,-84.65 496.96,-79.28"/>
</g>
<!-- Node14 -->
<g id="node14" class="node">
<title>Node14</title>
<g id="a_node14"><a xlink:title=" ">
<polygon fill="white" stroke="#bfbfbf" points="503.98,-168.5 503.98,-187.5 553.98,-187.5 553.98,-168.5 503.98,-168.5"/>
<text text-anchor="middle" x="528.98" y="-175.5" font-family="Helvetica,sans-Serif" font-size="10.00">stdio.h</text>
</a>
</g>
</g>
<!-- Node13&#45;&gt;Node14 -->
<g id="edge19" class="edge">
<title>Node13&#45;&gt;Node14</title>
<path fill="none" stroke="midnightblue" d="M560.7,-224.08C555.33,-216.46 547.46,-205.26 540.9,-195.94"/>
<polygon fill="midnightblue" stroke="midnightblue" points="543.75,-193.91 535.14,-187.75 538.03,-197.94 543.75,-193.91"/>
</g>
<!-- Node15&#45;&gt;Node5 -->
<g id="edge22" class="edge">
<title>Node15&#45;&gt;Node5</title>
<path fill="none" stroke="midnightblue" d="M456.76,-280.3C459.7,-247.63 470.13,-131.87 474.27,-85.96"/>
<polygon fill="midnightblue" stroke="midnightblue" points="477.77,-86.16 475.18,-75.88 470.79,-85.53 477.77,-86.16"/>
</g>
<!-- Node15&#45;&gt;Node11 -->
<g id="edge23" class="edge">
<title>Node15&#45;&gt;Node11</title>
<path fill="none" stroke="midnightblue" d="M447.06,-280.08C439.2,-272.22 427.55,-260.57 418.06,-251.08"/>
<polygon fill="midnightblue" stroke="midnightblue" points="420.27,-248.35 410.73,-243.75 415.32,-253.3 420.27,-248.35"/>
</g>
<!-- Node16&#45;&gt;Node5 -->
<g id="edge25" class="edge">
<title>Node16&#45;&gt;Node5</title>
<path fill="none" stroke="midnightblue" d="M619.88,-112.44C590.99,-103.32 545.05,-88.81 512.87,-78.65"/>
<polygon fill="midnightblue" stroke="midnightblue" points="513.54,-75.19 502.95,-75.52 511.43,-81.87 513.54,-75.19"/>
</g>
<!-- Node17&#45;&gt;Node5 -->
<g id="edge30" class="edge">
<title>Node17&#45;&gt;Node5</title>
<path fill="none" stroke="midnightblue" d="M717.1,-168.4C716.81,-154.41 714.08,-126.8 697.98,-112 674.35,-90.29 590.62,-77.97 533.03,-71.89"/>
<polygon fill="midnightblue" stroke="midnightblue" points="533.26,-68.4 522.96,-70.87 532.55,-75.36 533.26,-68.4"/>
</g>
<!-- Node18&#45;&gt;Node5 -->
<g id="edge33" class="edge">
<title>Node18&#45;&gt;Node5</title>
<path fill="none" stroke="midnightblue" d="M744.8,-113.38C689.2,-103.79 593.64,-87.3 532.7,-76.79"/>
<polygon fill="midnightblue" stroke="midnightblue" points="532.93,-73.27 522.48,-75.02 531.74,-80.17 532.93,-73.27"/>
</g>
<!-- Node19&#45;&gt;Node5 -->
<g id="edge36" class="edge">
<title>Node19&#45;&gt;Node5</title>
<path fill="none" stroke="midnightblue" d="M870.05,-224.37C872.29,-201.99 874.82,-141.79 841.98,-112 797.81,-71.93 624.06,-66.35 532.75,-66.28"/>
<polygon fill="midnightblue" stroke="midnightblue" points="532.56,-62.78 522.57,-66.3 532.57,-69.78 532.56,-62.78"/>
</g>
</g>
</svg>
