<?xml version="1.0" encoding="UTF-8" standalone="no"?>
<!DOCTYPE svg PUBLIC "-//W3C//DTD SVG 1.1//EN"
 "http://www.w3.org/Graphics/SVG/1.1/DTD/svg11.dtd">
<!-- Generated by graphviz version 2.43.0 (0)
 -->
<!-- Title: /home/build/sdk/c/ifxAvian/ConstantWaveControl.h Pages: 1 -->
<svg width="565pt" height="442pt"
 viewBox="0.00 0.00 564.50 442.00" xmlns="http://www.w3.org/2000/svg" xmlns:xlink="http://www.w3.org/1999/xlink">
<g id="graph0" class="graph" transform="scale(1 1) rotate(0) translate(4 438)">
<title>/home/build/sdk/c/ifxAvian/ConstantWaveControl.h</title>
<polygon fill="white" stroke="transparent" points="-4,4 -4,-438 560.5,-438 560.5,4 -4,4"/>
<!-- Node1 -->
<g id="node1" class="node">
<title>Node1</title>
<g id="a_node1"><a xlink:title="Header for Constant Wave Control. It provides APIs to use an Avian device in constant wave mode....">
<polygon fill="#bfbfbf" stroke="black" points="332,-403.5 332,-433.5 478,-433.5 478,-403.5 332,-403.5"/>
<text text-anchor="start" x="340" y="-421.5" font-family="Helvetica,sans-Serif" font-size="10.00">/home/build/sdk/c/ifxAvian</text>
<text text-anchor="middle" x="405" y="-410.5" font-family="Helvetica,sans-Serif" font-size="10.00">/ConstantWaveControl.h</text>
</a>
</g>
</g>
<!-- Node2 -->
<g id="node2" class="node">
<title>Node2</title>
<g id="a_node2"><a xlink:href="_device_control_8h.html" target="_top" xlink:title="API for Radar device control operations.">
<polygon fill="white" stroke="black" points="288.5,-347.5 288.5,-366.5 425.5,-366.5 425.5,-347.5 288.5,-347.5"/>
<text text-anchor="middle" x="357" y="-354.5" font-family="Helvetica,sans-Serif" font-size="10.00">ifxAvian/DeviceControl.h</text>
</a>
</g>
</g>
<!-- Node1&#45;&gt;Node2 -->
<g id="edge1" class="edge">
<title>Node1&#45;&gt;Node2</title>
<path fill="none" stroke="midnightblue" d="M393.62,-403.4C386.65,-394.75 377.69,-383.64 370.37,-374.58"/>
<polygon fill="midnightblue" stroke="midnightblue" points="372.99,-372.24 363.98,-366.66 367.54,-376.64 372.99,-372.24"/>
</g>
<!-- Node16 -->
<g id="node16" class="node">
<title>Node16</title>
<g id="a_node16"><a xlink:href="_device_config_8h.html" target="_top" xlink:title="API for Radar device configuration.">
<polygon fill="white" stroke="black" points="423.5,-291.5 423.5,-310.5 556.5,-310.5 556.5,-291.5 423.5,-291.5"/>
<text text-anchor="middle" x="490" y="-298.5" font-family="Helvetica,sans-Serif" font-size="10.00">ifxAvian/DeviceConfig.h</text>
</a>
</g>
</g>
<!-- Node1&#45;&gt;Node16 -->
<g id="edge26" class="edge">
<title>Node1&#45;&gt;Node16</title>
<path fill="none" stroke="midnightblue" d="M415.42,-403.34C431.16,-381.96 460.91,-341.53 477.69,-318.73"/>
<polygon fill="midnightblue" stroke="midnightblue" points="480.51,-320.8 483.62,-310.67 474.87,-316.65 480.51,-320.8"/>
</g>
<!-- Node3 -->
<g id="node3" class="node">
<title>Node3</title>
<g id="a_node3"><a xlink:href="_types_8h.html" target="_top" xlink:title="Definitions of data types used within the SDK.">
<polygon fill="white" stroke="black" points="285.5,-56.5 285.5,-75.5 378.5,-75.5 378.5,-56.5 285.5,-56.5"/>
<text text-anchor="middle" x="332" y="-63.5" font-family="Helvetica,sans-Serif" font-size="10.00">ifxBase/Types.h</text>
</a>
</g>
</g>
<!-- Node2&#45;&gt;Node3 -->
<g id="edge2" class="edge">
<title>Node2&#45;&gt;Node3</title>
<path fill="none" stroke="midnightblue" d="M358.23,-347.49C362.85,-315.6 378.9,-204.08 380,-188 380.6,-179.13 381.16,-176.81 380,-168 376.64,-142.45 376.14,-135.23 365,-112 360.14,-101.86 352.9,-91.67 346.45,-83.56"/>
<polygon fill="midnightblue" stroke="midnightblue" points="348.98,-81.12 339.9,-75.67 343.59,-85.6 348.98,-81.12"/>
</g>
<!-- Node7 -->
<g id="node7" class="node">
<title>Node7</title>
<g id="a_node7"><a xlink:href="_error_8h.html" target="_top" xlink:title="API for error handling.">
<polygon fill="white" stroke="black" points="37,-291.5 37,-310.5 125,-310.5 125,-291.5 37,-291.5"/>
<text text-anchor="middle" x="81" y="-298.5" font-family="Helvetica,sans-Serif" font-size="10.00">ifxBase/Error.h</text>
</a>
</g>
</g>
<!-- Node2&#45;&gt;Node7 -->
<g id="edge6" class="edge">
<title>Node2&#45;&gt;Node7</title>
<path fill="none" stroke="midnightblue" d="M313.27,-347.44C264.82,-337.96 186.67,-322.67 134.58,-312.48"/>
<polygon fill="midnightblue" stroke="midnightblue" points="135.01,-309 124.53,-310.52 133.67,-315.87 135.01,-309"/>
</g>
<!-- Node10 -->
<g id="node10" class="node">
<title>Node10</title>
<g id="a_node10"><a xlink:href="_list_8h.html" target="_top" xlink:title=" ">
<polygon fill="white" stroke="black" points="106.5,-112.5 106.5,-131.5 189.5,-131.5 189.5,-112.5 106.5,-112.5"/>
<text text-anchor="middle" x="148" y="-119.5" font-family="Helvetica,sans-Serif" font-size="10.00">ifxBase/List.h</text>
</a>
</g>
</g>
<!-- Node2&#45;&gt;Node10 -->
<g id="edge10" class="edge">
<title>Node2&#45;&gt;Node10</title>
<path fill="none" stroke="midnightblue" d="M318.46,-347.43C292.1,-340.39 257.16,-328.67 230,-311 201.27,-292.31 193.04,-285.28 177,-255 157.39,-217.97 151.03,-168.37 148.97,-141.76"/>
<polygon fill="midnightblue" stroke="midnightblue" points="152.45,-141.32 148.31,-131.57 145.47,-141.77 152.45,-141.32"/>
</g>
<!-- Node11 -->
<g id="node11" class="node">
<title>Node11</title>
<g id="a_node11"><a xlink:href="_cube_8h.html" target="_top" xlink:title="API for operations on Cube data structures.">
<polygon fill="white" stroke="black" points="239,-291.5 239,-310.5 329,-310.5 329,-291.5 239,-291.5"/>
<text text-anchor="middle" x="284" y="-298.5" font-family="Helvetica,sans-Serif" font-size="10.00">ifxBase/Cube.h</text>
</a>
</g>
</g>
<!-- Node2&#45;&gt;Node11 -->
<g id="edge12" class="edge">
<title>Node2&#45;&gt;Node11</title>
<path fill="none" stroke="midnightblue" d="M345.27,-347.32C334.16,-339.11 317.26,-326.6 304.02,-316.81"/>
<polygon fill="midnightblue" stroke="midnightblue" points="306.06,-313.97 295.94,-310.83 301.9,-319.59 306.06,-313.97"/>
</g>
<!-- Node2&#45;&gt;Node16 -->
<g id="edge21" class="edge">
<title>Node2&#45;&gt;Node16</title>
<path fill="none" stroke="midnightblue" d="M378.07,-347.44C400.06,-338.52 434.73,-324.44 459.66,-314.32"/>
<polygon fill="midnightblue" stroke="midnightblue" points="461.08,-317.52 469.02,-310.52 458.44,-311.04 461.08,-317.52"/>
</g>
<!-- Node17 -->
<g id="node17" class="node">
<title>Node17</title>
<g id="a_node17"><a xlink:href="_radar_device_common_8h.html" target="_top" xlink:title="Header for ifxRadarDeviceCommon.">
<polygon fill="white" stroke="black" points="385,-224.5 385,-254.5 521,-254.5 521,-224.5 385,-224.5"/>
<text text-anchor="start" x="393" y="-242.5" font-family="Helvetica,sans-Serif" font-size="10.00">ifxRadarDeviceCommon</text>
<text text-anchor="middle" x="453" y="-231.5" font-family="Helvetica,sans-Serif" font-size="10.00">/RadarDeviceCommon.h</text>
</a>
</g>
</g>
<!-- Node2&#45;&gt;Node17 -->
<g id="edge25" class="edge">
<title>Node2&#45;&gt;Node17</title>
<path fill="none" stroke="midnightblue" d="M364.22,-347.32C379.09,-329.42 413.55,-287.97 434.9,-262.28"/>
<polygon fill="midnightblue" stroke="midnightblue" points="437.63,-264.47 441.33,-254.55 432.24,-260 437.63,-264.47"/>
</g>
<!-- Node4 -->
<g id="node4" class="node">
<title>Node4</title>
<g id="a_node4"><a xlink:title=" ">
<polygon fill="white" stroke="#bfbfbf" points="232.5,-0.5 232.5,-19.5 285.5,-19.5 285.5,-0.5 232.5,-0.5"/>
<text text-anchor="middle" x="259" y="-7.5" font-family="Helvetica,sans-Serif" font-size="10.00">stdint.h</text>
</a>
</g>
</g>
<!-- Node3&#45;&gt;Node4 -->
<g id="edge3" class="edge">
<title>Node3&#45;&gt;Node4</title>
<path fill="none" stroke="midnightblue" d="M320.27,-56.32C309.16,-48.11 292.26,-35.6 279.02,-25.81"/>
<polygon fill="midnightblue" stroke="midnightblue" points="281.06,-22.97 270.94,-19.83 276.9,-28.59 281.06,-22.97"/>
</g>
<!-- Node5 -->
<g id="node5" class="node">
<title>Node5</title>
<g id="a_node5"><a xlink:title=" ">
<polygon fill="white" stroke="#bfbfbf" points="304,-0.5 304,-19.5 360,-19.5 360,-0.5 304,-0.5"/>
<text text-anchor="middle" x="332" y="-7.5" font-family="Helvetica,sans-Serif" font-size="10.00">stddef.h</text>
</a>
</g>
</g>
<!-- Node3&#45;&gt;Node5 -->
<g id="edge4" class="edge">
<title>Node3&#45;&gt;Node5</title>
<path fill="none" stroke="midnightblue" d="M332,-56.08C332,-49.01 332,-38.86 332,-29.99"/>
<polygon fill="midnightblue" stroke="midnightblue" points="335.5,-29.75 332,-19.75 328.5,-29.75 335.5,-29.75"/>
</g>
<!-- Node6 -->
<g id="node6" class="node">
<title>Node6</title>
<g id="a_node6"><a xlink:title=" ">
<polygon fill="white" stroke="#bfbfbf" points="378,-0.5 378,-19.5 440,-19.5 440,-0.5 378,-0.5"/>
<text text-anchor="middle" x="409" y="-7.5" font-family="Helvetica,sans-Serif" font-size="10.00">stdbool.h</text>
</a>
</g>
</g>
<!-- Node3&#45;&gt;Node6 -->
<g id="edge5" class="edge">
<title>Node3&#45;&gt;Node6</title>
<path fill="none" stroke="midnightblue" d="M344.37,-56.32C356.16,-48.06 374.13,-35.45 388.14,-25.63"/>
<polygon fill="midnightblue" stroke="midnightblue" points="390.48,-28.26 396.66,-19.65 386.46,-22.53 390.48,-28.26"/>
</g>
<!-- Node8 -->
<g id="node8" class="node">
<title>Node8</title>
<g id="a_node8"><a xlink:href="_log_8h.html" target="_top" xlink:title="API for logging.">
<polygon fill="white" stroke="black" points="36.5,-230 36.5,-249 119.5,-249 119.5,-230 36.5,-230"/>
<text text-anchor="middle" x="78" y="-237" font-family="Helvetica,sans-Serif" font-size="10.00">ifxBase/Log.h</text>
</a>
</g>
</g>
<!-- Node7&#45;&gt;Node8 -->
<g id="edge7" class="edge">
<title>Node7&#45;&gt;Node8</title>
<path fill="none" stroke="midnightblue" d="M80.57,-291.48C80.15,-283.08 79.49,-269.98 78.94,-259.16"/>
<polygon fill="midnightblue" stroke="midnightblue" points="82.43,-258.82 78.43,-249.01 75.44,-259.17 82.43,-258.82"/>
</g>
<!-- Node8&#45;&gt;Node3 -->
<g id="edge9" class="edge">
<title>Node8&#45;&gt;Node3</title>
<path fill="none" stroke="midnightblue" d="M76.26,-229.68C72.32,-206.8 65.31,-144.99 97,-112 121.01,-87.01 213.54,-75.48 275.08,-70.48"/>
<polygon fill="midnightblue" stroke="midnightblue" points="275.73,-73.94 285.43,-69.68 275.19,-66.96 275.73,-73.94"/>
</g>
<!-- Node9 -->
<g id="node9" class="node">
<title>Node9</title>
<g id="a_node9"><a xlink:title=" ">
<polygon fill="white" stroke="#bfbfbf" points="0,-168.5 0,-187.5 50,-187.5 50,-168.5 0,-168.5"/>
<text text-anchor="middle" x="25" y="-175.5" font-family="Helvetica,sans-Serif" font-size="10.00">stdio.h</text>
</a>
</g>
</g>
<!-- Node8&#45;&gt;Node9 -->
<g id="edge8" class="edge">
<title>Node8&#45;&gt;Node9</title>
<path fill="none" stroke="midnightblue" d="M70.41,-229.98C62.3,-220.87 49.27,-206.24 39.24,-194.98"/>
<polygon fill="midnightblue" stroke="midnightblue" points="41.84,-192.65 32.58,-187.51 36.62,-197.3 41.84,-192.65"/>
</g>
<!-- Node10&#45;&gt;Node3 -->
<g id="edge11" class="edge">
<title>Node10&#45;&gt;Node3</title>
<path fill="none" stroke="midnightblue" d="M177.16,-112.44C208.51,-103.24 258.53,-88.56 293.2,-78.39"/>
<polygon fill="midnightblue" stroke="midnightblue" points="294.37,-81.69 302.98,-75.52 292.4,-74.97 294.37,-81.69"/>
</g>
<!-- Node12 -->
<g id="node12" class="node">
<title>Node12</title>
<g id="a_node12"><a xlink:href="_defines_8h.html" target="_top" xlink:title="Internal definitions used by standard math.h functions as Macros, to use float or double precision.">
<polygon fill="white" stroke="black" points="186,-230 186,-249 288,-249 288,-230 186,-230"/>
<text text-anchor="middle" x="237" y="-237" font-family="Helvetica,sans-Serif" font-size="10.00">ifxBase/Defines.h</text>
</a>
</g>
</g>
<!-- Node11&#45;&gt;Node12 -->
<g id="edge13" class="edge">
<title>Node11&#45;&gt;Node12</title>
<path fill="none" stroke="midnightblue" d="M277.27,-291.48C270.22,-282.55 258.97,-268.31 250.15,-257.14"/>
<polygon fill="midnightblue" stroke="midnightblue" points="252.67,-254.69 243.72,-249.01 247.17,-259.03 252.67,-254.69"/>
</g>
<!-- Node15 -->
<g id="node15" class="node">
<title>Node15</title>
<g id="a_node15"><a xlink:href="_matrix_8h.html" target="_top" xlink:title="API for operations on Matrix data structures.">
<polygon fill="white" stroke="black" points="274.5,-168.5 274.5,-187.5 371.5,-187.5 371.5,-168.5 274.5,-168.5"/>
<text text-anchor="middle" x="323" y="-175.5" font-family="Helvetica,sans-Serif" font-size="10.00">ifxBase/Matrix.h</text>
</a>
</g>
</g>
<!-- Node11&#45;&gt;Node15 -->
<g id="edge18" class="edge">
<title>Node11&#45;&gt;Node15</title>
<path fill="none" stroke="midnightblue" d="M286.8,-291.3C293.13,-271.68 308.61,-223.64 317.14,-197.19"/>
<polygon fill="midnightblue" stroke="midnightblue" points="320.48,-198.21 320.22,-187.62 313.82,-196.07 320.48,-198.21"/>
</g>
<!-- Node13 -->
<g id="node13" class="node">
<title>Node13</title>
<g id="a_node13"><a xlink:href="_math_8h.html" target="_top" xlink:title="API for Mathematical operations.">
<polygon fill="white" stroke="black" points="205.5,-168.5 205.5,-187.5 256.5,-187.5 256.5,-168.5 205.5,-168.5"/>
<text text-anchor="middle" x="231" y="-175.5" font-family="Helvetica,sans-Serif" font-size="10.00">math.h</text>
</a>
</g>
</g>
<!-- Node12&#45;&gt;Node13 -->
<g id="edge14" class="edge">
<title>Node12&#45;&gt;Node13</title>
<path fill="none" stroke="midnightblue" d="M236.14,-229.98C235.29,-221.58 233.97,-208.48 232.88,-197.66"/>
<polygon fill="midnightblue" stroke="midnightblue" points="236.34,-197.11 231.86,-187.51 229.38,-197.81 236.34,-197.11"/>
</g>
<!-- Node13&#45;&gt;Node3 -->
<g id="edge15" class="edge">
<title>Node13&#45;&gt;Node3</title>
<path fill="none" stroke="midnightblue" d="M229.25,-168.08C227.13,-154.63 225.18,-128.9 237,-112 248.03,-96.23 266.1,-85.81 283.53,-79.02"/>
<polygon fill="midnightblue" stroke="midnightblue" points="284.86,-82.26 293.1,-75.6 282.51,-75.67 284.86,-82.26"/>
</g>
<!-- Node14 -->
<g id="node14" class="node">
<title>Node14</title>
<g id="a_node14"><a xlink:href="_vector_8h.html" target="_top" xlink:title="API for operations on Vector data structures.">
<polygon fill="white" stroke="black" points="246.5,-112.5 246.5,-131.5 341.5,-131.5 341.5,-112.5 246.5,-112.5"/>
<text text-anchor="middle" x="294" y="-119.5" font-family="Helvetica,sans-Serif" font-size="10.00">ifxBase/Vector.h</text>
</a>
</g>
</g>
<!-- Node13&#45;&gt;Node14 -->
<g id="edge16" class="edge">
<title>Node13&#45;&gt;Node14</title>
<path fill="none" stroke="midnightblue" d="M241.12,-168.32C250.53,-160.26 264.74,-148.08 276.07,-138.37"/>
<polygon fill="midnightblue" stroke="midnightblue" points="278.38,-141 283.69,-131.83 273.82,-135.68 278.38,-141"/>
</g>
<!-- Node14&#45;&gt;Node3 -->
<g id="edge17" class="edge">
<title>Node14&#45;&gt;Node3</title>
<path fill="none" stroke="midnightblue" d="M300.27,-112.08C305.64,-104.46 313.52,-93.26 320.08,-83.94"/>
<polygon fill="midnightblue" stroke="midnightblue" points="322.95,-85.94 325.84,-75.75 317.22,-81.91 322.95,-85.94"/>
</g>
<!-- Node15&#45;&gt;Node3 -->
<g id="edge19" class="edge">
<title>Node15&#45;&gt;Node3</title>
<path fill="none" stroke="midnightblue" d="M330.15,-168.36C336.77,-159.76 346.16,-145.87 350,-132 354.43,-115.99 348.43,-97.77 342.19,-84.7"/>
<polygon fill="midnightblue" stroke="midnightblue" points="345.29,-83.07 337.54,-75.83 339.08,-86.31 345.29,-83.07"/>
</g>
<!-- Node15&#45;&gt;Node14 -->
<g id="edge20" class="edge">
<title>Node15&#45;&gt;Node14</title>
<path fill="none" stroke="midnightblue" d="M318.21,-168.08C314.24,-160.69 308.47,-149.95 303.57,-140.81"/>
<polygon fill="midnightblue" stroke="midnightblue" points="306.51,-138.91 298.7,-131.75 300.35,-142.22 306.51,-138.91"/>
</g>
<!-- Node16&#45;&gt;Node3 -->
<g id="edge22" class="edge">
<title>Node16&#45;&gt;Node3</title>
<path fill="none" stroke="midnightblue" d="M501.27,-291.43C510.97,-283.27 524.28,-270.05 530,-255 534.9,-242.12 534.5,-237.02 530,-224 509.31,-164.17 492.53,-150.14 442,-112 422.01,-96.91 396.24,-86.01 374.67,-78.72"/>
<polygon fill="midnightblue" stroke="midnightblue" points="375.68,-75.37 365.09,-75.63 373.53,-82.03 375.68,-75.37"/>
</g>
<!-- Node16&#45;&gt;Node17 -->
<g id="edge23" class="edge">
<title>Node16&#45;&gt;Node17</title>
<path fill="none" stroke="midnightblue" d="M484.7,-291.48C480.11,-284.09 473.26,-273.08 467.1,-263.17"/>
<polygon fill="midnightblue" stroke="midnightblue" points="469.97,-261.17 461.72,-254.52 464.03,-264.86 469.97,-261.17"/>
</g>
<!-- Node17&#45;&gt;Node3 -->
<g id="edge24" class="edge">
<title>Node17&#45;&gt;Node3</title>
<path fill="none" stroke="midnightblue" d="M453.23,-224.31C452.9,-198.99 448.8,-145.57 422,-112 409.77,-96.68 390.97,-86.14 373.71,-79.14"/>
<polygon fill="midnightblue" stroke="midnightblue" points="374.92,-75.86 364.33,-75.61 372.45,-82.41 374.92,-75.86"/>
</g>
</g>
</svg>
