<?xml version="1.0" encoding="UTF-8" standalone="no"?>
<!DOCTYPE svg PUBLIC "-//W3C//DTD SVG 1.1//EN"
 "http://www.w3.org/Graphics/SVG/1.1/DTD/svg11.dtd">
<!-- Generated by graphviz version 2.43.0 (0)
 -->
<!-- Title: /home/build/sdk/c/ifxBase/Cube.h Pages: 1 -->
<svg width="1147pt" height="307pt"
 viewBox="0.00 0.00 1146.54 307.00" xmlns="http://www.w3.org/2000/svg" xmlns:xlink="http://www.w3.org/1999/xlink">
<g id="graph0" class="graph" transform="scale(1 1) rotate(0) translate(4 303)">
<title>/home/build/sdk/c/ifxBase/Cube.h</title>
<polygon fill="white" stroke="transparent" points="-4,4 -4,-303 1142.54,-303 1142.54,4 -4,4"/>
<!-- Node1 -->
<g id="node1" class="node">
<title>Node1</title>
<g id="a_node1"><a xlink:title="API for operations on Cube data structures.">
<polygon fill="#bfbfbf" stroke="black" points="770.04,-268.5 770.04,-298.5 913.04,-298.5 913.04,-268.5 770.04,-268.5"/>
<text text-anchor="start" x="778.04" y="-286.5" font-family="Helvetica,sans-Serif" font-size="10.00">/home/build/sdk/c/ifxBase</text>
<text text-anchor="middle" x="841.54" y="-275.5" font-family="Helvetica,sans-Serif" font-size="10.00">/Cube.h</text>
</a>
</g>
</g>
<!-- Node2 -->
<g id="node2" class="node">
<title>Node2</title>
<g id="a_node2"><a xlink:href="_device_control_8h.html" target="_top" xlink:title="API for Radar device control operations.">
<polygon fill="white" stroke="black" points="266.54,-201.5 266.54,-231.5 412.54,-231.5 412.54,-201.5 266.54,-201.5"/>
<text text-anchor="start" x="274.54" y="-219.5" font-family="Helvetica,sans-Serif" font-size="10.00">/home/build/sdk/c/ifxAvian</text>
<text text-anchor="middle" x="339.54" y="-208.5" font-family="Helvetica,sans-Serif" font-size="10.00">/DeviceControl.h</text>
</a>
</g>
</g>
<!-- Node1&#45;&gt;Node2 -->
<g id="edge1" class="edge">
<title>Node1&#45;&gt;Node2</title>
<path fill="none" stroke="midnightblue" d="M759.9,-271.93C663.62,-259.46 505.03,-238.93 412.63,-226.96"/>
<polygon fill="midnightblue" stroke="midnightblue" points="759.51,-275.41 769.88,-273.22 760.41,-268.47 759.51,-275.41"/>
</g>
<!-- Node10 -->
<g id="node10" class="node">
<title>Node10</title>
<g id="a_node10"><a xlink:href="_base_8h.html" target="_top" xlink:title="Header for ifxAvian.">
<polygon fill="white" stroke="black" points="783.04,-67.5 783.04,-97.5 926.04,-97.5 926.04,-67.5 783.04,-67.5"/>
<text text-anchor="start" x="791.04" y="-85.5" font-family="Helvetica,sans-Serif" font-size="10.00">/home/build/sdk/c/ifxBase</text>
<text text-anchor="middle" x="854.54" y="-74.5" font-family="Helvetica,sans-Serif" font-size="10.00">/Base.h</text>
</a>
</g>
</g>
<!-- Node1&#45;&gt;Node10 -->
<g id="edge13" class="edge">
<title>Node1&#45;&gt;Node10</title>
<path fill="none" stroke="midnightblue" d="M865.13,-261.18C873.41,-252.74 882.22,-242.54 888.54,-232 904.72,-205 906.35,-196.05 911.54,-165 913.8,-151.41 917.19,-146.56 911.54,-134 904.7,-118.81 890.78,-106.34 878.41,-97.59"/>
<polygon fill="midnightblue" stroke="midnightblue" points="862.46,-258.91 857.76,-268.4 867.36,-263.91 862.46,-258.91"/>
</g>
<!-- Node11 -->
<g id="node11" class="node">
<title>Node11</title>
<g id="a_node11"><a xlink:href="_angle_capon_8h.html" target="_top" xlink:title="API for Angle Capon algorithm.">
<polygon fill="white" stroke="black" points="552.04,-201.5 552.04,-231.5 699.04,-231.5 699.04,-201.5 552.04,-201.5"/>
<text text-anchor="start" x="560.04" y="-219.5" font-family="Helvetica,sans-Serif" font-size="10.00">/home/build/sdk/c/ifxRadar</text>
<text text-anchor="middle" x="625.54" y="-208.5" font-family="Helvetica,sans-Serif" font-size="10.00">/AngleCapon.h</text>
</a>
</g>
</g>
<!-- Node1&#45;&gt;Node11 -->
<g id="edge15" class="edge">
<title>Node1&#45;&gt;Node11</title>
<path fill="none" stroke="midnightblue" d="M785.31,-265.58C750.23,-255.02 705.6,-241.59 672.43,-231.61"/>
<polygon fill="midnightblue" stroke="midnightblue" points="784.35,-268.95 794.93,-268.48 786.37,-262.24 784.35,-268.95"/>
</g>
<!-- Node12 -->
<g id="node12" class="node">
<title>Node12</title>
<g id="a_node12"><a xlink:href="_d_b_f_8h.html" target="_top" xlink:title="API for Digital Beamforming (DBF) algorithm.">
<polygon fill="white" stroke="black" points="717.04,-201.5 717.04,-231.5 864.04,-231.5 864.04,-201.5 717.04,-201.5"/>
<text text-anchor="start" x="725.04" y="-219.5" font-family="Helvetica,sans-Serif" font-size="10.00">/home/build/sdk/c/ifxRadar</text>
<text text-anchor="middle" x="790.54" y="-208.5" font-family="Helvetica,sans-Serif" font-size="10.00">/DBF.h</text>
</a>
</g>
</g>
<!-- Node1&#45;&gt;Node12 -->
<g id="edge17" class="edge">
<title>Node1&#45;&gt;Node12</title>
<path fill="none" stroke="midnightblue" d="M824.23,-260.45C816.74,-250.9 808.19,-240 801.58,-231.58"/>
<polygon fill="midnightblue" stroke="midnightblue" points="821.54,-262.69 830.47,-268.4 827.05,-258.37 821.54,-262.69"/>
</g>
<!-- Node13 -->
<g id="node13" class="node">
<title>Node13</title>
<g id="a_node13"><a xlink:href="_range_angle_image_8h.html" target="_top" xlink:title="API for Range Angle Image algorithm.">
<polygon fill="white" stroke="black" points="755.04,-134.5 755.04,-164.5 902.04,-164.5 902.04,-134.5 755.04,-134.5"/>
<text text-anchor="start" x="763.04" y="-152.5" font-family="Helvetica,sans-Serif" font-size="10.00">/home/build/sdk/c/ifxRadar</text>
<text text-anchor="middle" x="828.54" y="-141.5" font-family="Helvetica,sans-Serif" font-size="10.00">/RangeAngleImage.h</text>
</a>
</g>
</g>
<!-- Node1&#45;&gt;Node13 -->
<g id="edge21" class="edge">
<title>Node1&#45;&gt;Node13</title>
<path fill="none" stroke="midnightblue" d="M859.75,-260.03C870.7,-243.69 881.16,-221.02 873.54,-201 868.1,-186.73 856.58,-173.93 846.56,-164.79"/>
<polygon fill="midnightblue" stroke="midnightblue" points="856.72,-258.24 853.73,-268.4 862.41,-262.33 856.72,-258.24"/>
</g>
<!-- Node14 -->
<g id="node14" class="node">
<title>Node14</title>
<g id="a_node14"><a xlink:href="_segmentation_8h.html" target="_top" xlink:title="API for Segmentation algorithm.">
<polygon fill="white" stroke="black" points="959.04,-201.5 959.04,-231.5 1124.04,-231.5 1124.04,-201.5 959.04,-201.5"/>
<text text-anchor="start" x="967.04" y="-219.5" font-family="Helvetica,sans-Serif" font-size="10.00">/home/build/sdk/c/ifxRadar</text>
<text text-anchor="middle" x="1041.54" y="-208.5" font-family="Helvetica,sans-Serif" font-size="10.00">Segmentation/Segmentation.h</text>
</a>
</g>
</g>
<!-- Node1&#45;&gt;Node14 -->
<g id="edge22" class="edge">
<title>Node1&#45;&gt;Node14</title>
<path fill="none" stroke="midnightblue" d="M894.68,-265.23C927.03,-254.71 967.84,-241.45 998.22,-231.58"/>
<polygon fill="midnightblue" stroke="midnightblue" points="893.36,-261.98 884.93,-268.4 895.52,-268.63 893.36,-261.98"/>
</g>
<!-- Node3 -->
<g id="node3" class="node">
<title>Node3</title>
<g id="a_node3"><a xlink:href="_avian_8h.html" target="_top" xlink:title=" ">
<polygon fill="white" stroke="black" points="184.54,-67.5 184.54,-97.5 330.54,-97.5 330.54,-67.5 184.54,-67.5"/>
<text text-anchor="start" x="192.54" y="-85.5" font-family="Helvetica,sans-Serif" font-size="10.00">/home/build/sdk/c/ifxAvian</text>
<text text-anchor="middle" x="257.54" y="-74.5" font-family="Helvetica,sans-Serif" font-size="10.00">/Avian.h</text>
</a>
</g>
</g>
<!-- Node2&#45;&gt;Node3 -->
<g id="edge2" class="edge">
<title>Node2&#45;&gt;Node3</title>
<path fill="none" stroke="midnightblue" d="M256.35,-214.57C169.75,-211.62 42.48,-201.07 11.54,-165 -39.8,-105.15 94.43,-89.05 184.22,-84.85"/>
<polygon fill="midnightblue" stroke="midnightblue" points="256.33,-218.07 266.43,-214.88 256.55,-211.07 256.33,-218.07"/>
</g>
<!-- Node5 -->
<g id="node5" class="node">
<title>Node5</title>
<g id="a_node5"><a xlink:href="_constant_wave_control_8h.html" target="_top" xlink:title="Header for Constant Wave Control. It provides APIs to use an Avian device in constant wave mode....">
<polygon fill="white" stroke="black" points="20.54,-134.5 20.54,-164.5 166.54,-164.5 166.54,-134.5 20.54,-134.5"/>
<text text-anchor="start" x="28.54" y="-152.5" font-family="Helvetica,sans-Serif" font-size="10.00">/home/build/sdk/c/ifxAvian</text>
<text text-anchor="middle" x="93.54" y="-141.5" font-family="Helvetica,sans-Serif" font-size="10.00">/ConstantWaveControl.h</text>
</a>
</g>
</g>
<!-- Node2&#45;&gt;Node5 -->
<g id="edge4" class="edge">
<title>Node2&#45;&gt;Node5</title>
<path fill="none" stroke="midnightblue" d="M276.78,-198.92C236.63,-188.31 185.12,-174.7 146.94,-164.61"/>
<polygon fill="midnightblue" stroke="midnightblue" points="275.9,-202.31 286.46,-201.48 277.69,-195.54 275.9,-202.31"/>
</g>
<!-- Node6 -->
<g id="node6" class="node">
<title>Node6</title>
<g id="a_node6"><a xlink:href="_metrics_8h.html" target="_top" xlink:title="API for Metrics.">
<polygon fill="white" stroke="black" points="184.54,-134.5 184.54,-164.5 330.54,-164.5 330.54,-134.5 184.54,-134.5"/>
<text text-anchor="start" x="192.54" y="-152.5" font-family="Helvetica,sans-Serif" font-size="10.00">/home/build/sdk/c/ifxAvian</text>
<text text-anchor="middle" x="257.54" y="-141.5" font-family="Helvetica,sans-Serif" font-size="10.00">/Metrics.h</text>
</a>
</g>
</g>
<!-- Node2&#45;&gt;Node6 -->
<g id="edge6" class="edge">
<title>Node2&#45;&gt;Node6</title>
<path fill="none" stroke="midnightblue" d="M313.89,-195.17C301.35,-185.23 286.57,-173.51 275.29,-164.58"/>
<polygon fill="midnightblue" stroke="midnightblue" points="311.73,-197.93 321.74,-201.4 316.08,-192.44 311.73,-197.93"/>
</g>
<!-- Node7 -->
<g id="node7" class="node">
<title>Node7</title>
<g id="a_node7"><a xlink:href="_shapes_8h.html" target="_top" xlink:title=" ">
<polygon fill="white" stroke="black" points="348.54,-134.5 348.54,-164.5 494.54,-164.5 494.54,-134.5 348.54,-134.5"/>
<text text-anchor="start" x="356.54" y="-152.5" font-family="Helvetica,sans-Serif" font-size="10.00">/home/build/sdk/c/ifxAvian</text>
<text text-anchor="middle" x="421.54" y="-141.5" font-family="Helvetica,sans-Serif" font-size="10.00">/Shapes.h</text>
</a>
</g>
</g>
<!-- Node2&#45;&gt;Node7 -->
<g id="edge8" class="edge">
<title>Node2&#45;&gt;Node7</title>
<path fill="none" stroke="midnightblue" d="M365.19,-195.17C377.72,-185.23 392.5,-173.51 403.78,-164.58"/>
<polygon fill="midnightblue" stroke="midnightblue" points="362.99,-192.44 357.33,-201.4 367.34,-197.93 362.99,-192.44"/>
</g>
<!-- Node8 -->
<g id="node8" class="node">
<title>Node8</title>
<g id="a_node8"><a xlink:href="_presence_sensing_8h.html" target="_top" xlink:title="API for Presence Sensing algorithm.">
<polygon fill="white" stroke="black" points="513.04,-134.5 513.04,-164.5 660.04,-164.5 660.04,-134.5 513.04,-134.5"/>
<text text-anchor="start" x="521.04" y="-152.5" font-family="Helvetica,sans-Serif" font-size="10.00">/home/build/sdk/c/ifxRadar</text>
<text text-anchor="middle" x="586.54" y="-141.5" font-family="Helvetica,sans-Serif" font-size="10.00">/PresenceSensing.h</text>
</a>
</g>
</g>
<!-- Node2&#45;&gt;Node8 -->
<g id="edge10" class="edge">
<title>Node2&#45;&gt;Node8</title>
<path fill="none" stroke="midnightblue" d="M402.55,-198.92C442.86,-188.31 494.58,-174.7 532.91,-164.61"/>
<polygon fill="midnightblue" stroke="midnightblue" points="401.61,-195.55 392.83,-201.48 403.39,-202.32 401.61,-195.55"/>
</g>
<!-- Node4 -->
<g id="node4" class="node">
<title>Node4</title>
<g id="a_node4"><a xlink:href="_s_d_k_8h.html" target="_top" xlink:title="Master header file for Radar SDK.">
<polygon fill="white" stroke="black" points="699.04,-0.5 699.04,-30.5 846.04,-30.5 846.04,-0.5 699.04,-0.5"/>
<text text-anchor="start" x="707.04" y="-18.5" font-family="Helvetica,sans-Serif" font-size="10.00">/home/build/sdk/c/ifxRadar</text>
<text text-anchor="middle" x="772.54" y="-7.5" font-family="Helvetica,sans-Serif" font-size="10.00">/SDK.h</text>
</a>
</g>
</g>
<!-- Node3&#45;&gt;Node4 -->
<g id="edge3" class="edge">
<title>Node3&#45;&gt;Node4</title>
<path fill="none" stroke="midnightblue" d="M340.75,-71C439.88,-58.49 603.93,-37.78 698.71,-25.82"/>
<polygon fill="midnightblue" stroke="midnightblue" points="340.26,-67.53 330.78,-72.26 341.13,-74.48 340.26,-67.53"/>
</g>
<!-- Node5&#45;&gt;Node3 -->
<g id="edge5" class="edge">
<title>Node5&#45;&gt;Node3</title>
<path fill="none" stroke="midnightblue" d="M138.49,-130.68C164.8,-120.26 197.54,-107.28 222.02,-97.58"/>
<polygon fill="midnightblue" stroke="midnightblue" points="137.13,-127.46 129.12,-134.4 139.71,-133.97 137.13,-127.46"/>
</g>
<!-- Node6&#45;&gt;Node3 -->
<g id="edge7" class="edge">
<title>Node6&#45;&gt;Node3</title>
<path fill="none" stroke="midnightblue" d="M257.54,-124.11C257.54,-115.15 257.54,-105.32 257.54,-97.58"/>
<polygon fill="midnightblue" stroke="midnightblue" points="254.04,-124.4 257.54,-134.4 261.04,-124.4 254.04,-124.4"/>
</g>
<!-- Node7&#45;&gt;Node3 -->
<g id="edge9" class="edge">
<title>Node7&#45;&gt;Node3</title>
<path fill="none" stroke="midnightblue" d="M376.58,-130.68C350.28,-120.26 317.54,-107.28 293.05,-97.58"/>
<polygon fill="midnightblue" stroke="midnightblue" points="375.36,-133.97 385.95,-134.4 377.94,-127.46 375.36,-133.97"/>
</g>
<!-- Node9 -->
<g id="node9" class="node">
<title>Node9</title>
<g id="a_node9"><a xlink:href="_radar_8h.html" target="_top" xlink:title="Header for ifxRadar.">
<polygon fill="white" stroke="black" points="618.04,-67.5 618.04,-97.5 765.04,-97.5 765.04,-67.5 618.04,-67.5"/>
<text text-anchor="start" x="626.04" y="-85.5" font-family="Helvetica,sans-Serif" font-size="10.00">/home/build/sdk/c/ifxRadar</text>
<text text-anchor="middle" x="691.54" y="-74.5" font-family="Helvetica,sans-Serif" font-size="10.00">/Radar.h</text>
</a>
</g>
</g>
<!-- Node8&#45;&gt;Node9 -->
<g id="edge11" class="edge">
<title>Node8&#45;&gt;Node9</title>
<path fill="none" stroke="midnightblue" d="M618.01,-129.02C634.35,-118.9 653.95,-106.77 668.8,-97.58"/>
<polygon fill="midnightblue" stroke="midnightblue" points="615.98,-126.16 609.32,-134.4 619.66,-132.11 615.98,-126.16"/>
</g>
<!-- Node9&#45;&gt;Node4 -->
<g id="edge12" class="edge">
<title>Node9&#45;&gt;Node4</title>
<path fill="none" stroke="midnightblue" d="M717.23,-60.88C729.54,-51.01 743.96,-39.43 754.99,-30.58"/>
<polygon fill="midnightblue" stroke="midnightblue" points="714.72,-58.41 709.11,-67.4 719.1,-63.87 714.72,-58.41"/>
</g>
<!-- Node10&#45;&gt;Node4 -->
<g id="edge14" class="edge">
<title>Node10&#45;&gt;Node4</title>
<path fill="none" stroke="midnightblue" d="M828.89,-61.17C816.35,-51.23 801.57,-39.51 790.29,-30.58"/>
<polygon fill="midnightblue" stroke="midnightblue" points="826.73,-63.93 836.74,-67.4 831.08,-58.44 826.73,-63.93"/>
</g>
<!-- Node11&#45;&gt;Node9 -->
<g id="edge16" class="edge">
<title>Node11&#45;&gt;Node9</title>
<path fill="none" stroke="midnightblue" d="M647.59,-193.8C655.13,-185.39 663.03,-175.32 668.54,-165 680.23,-143.08 686.51,-114.58 689.42,-97.75"/>
<polygon fill="midnightblue" stroke="midnightblue" points="644.85,-191.61 640.58,-201.3 649.96,-196.39 644.85,-191.61"/>
</g>
<!-- Node12&#45;&gt;Node9 -->
<g id="edge18" class="edge">
<title>Node12&#45;&gt;Node9</title>
<path fill="none" stroke="midnightblue" d="M770.04,-193.87C762.1,-185.15 753.11,-174.83 745.54,-165 728.13,-142.41 710.31,-114.37 700.12,-97.76"/>
<polygon fill="midnightblue" stroke="midnightblue" points="767.62,-196.41 776.97,-201.39 772.76,-191.66 767.62,-196.41"/>
</g>
<!-- Node12&#45;&gt;Node13 -->
<g id="edge19" class="edge">
<title>Node12&#45;&gt;Node13</title>
<path fill="none" stroke="midnightblue" d="M803.94,-192.58C809.39,-183.24 815.53,-172.75 820.31,-164.58"/>
<polygon fill="midnightblue" stroke="midnightblue" points="800.81,-191 798.78,-201.4 806.85,-194.53 800.81,-191"/>
</g>
<!-- Node13&#45;&gt;Node9 -->
<g id="edge20" class="edge">
<title>Node13&#45;&gt;Node9</title>
<path fill="none" stroke="midnightblue" d="M789.53,-129.99C767.81,-119.69 741.21,-107.07 721.2,-97.58"/>
<polygon fill="midnightblue" stroke="midnightblue" points="788.27,-133.27 798.81,-134.4 791.27,-126.95 788.27,-133.27"/>
</g>
<!-- Node15 -->
<g id="node15" class="node">
<title>Node15</title>
<g id="a_node15"><a xlink:href="_radar_segmentation_8h.html" target="_top" xlink:title="Header for ifxRadarSegmentation.">
<polygon fill="white" stroke="black" points="944.54,-67.5 944.54,-97.5 1138.54,-97.5 1138.54,-67.5 944.54,-67.5"/>
<text text-anchor="start" x="952.54" y="-85.5" font-family="Helvetica,sans-Serif" font-size="10.00">/home/build/sdk/c/ifxRadar</text>
<text text-anchor="middle" x="1041.54" y="-74.5" font-family="Helvetica,sans-Serif" font-size="10.00">Segmentation/RadarSegmentation.h</text>
</a>
</g>
</g>
<!-- Node14&#45;&gt;Node15 -->
<g id="edge23" class="edge">
<title>Node14&#45;&gt;Node15</title>
<path fill="none" stroke="midnightblue" d="M1041.54,-191.02C1041.54,-163.51 1041.54,-119.79 1041.54,-97.52"/>
<polygon fill="midnightblue" stroke="midnightblue" points="1038.04,-191.37 1041.54,-201.37 1045.04,-191.37 1038.04,-191.37"/>
</g>
<!-- Node15&#45;&gt;Node4 -->
<g id="edge24" class="edge">
<title>Node15&#45;&gt;Node4</title>
<path fill="none" stroke="midnightblue" d="M973.74,-65.12C929.73,-54.48 872.95,-40.76 830.93,-30.61"/>
<polygon fill="midnightblue" stroke="midnightblue" points="972.96,-68.53 983.5,-67.48 974.6,-61.73 972.96,-68.53"/>
</g>
</g>
</svg>
