<?xml version="1.0" encoding="UTF-8" standalone="no"?>
<!DOCTYPE svg PUBLIC "-//W3C//DTD SVG 1.1//EN"
 "http://www.w3.org/Graphics/SVG/1.1/DTD/svg11.dtd">
<!-- Generated by graphviz version 2.43.0 (0)
 -->
<!-- Title: /home/build/sdk/c/ifxBase/Defines.h Pages: 1 -->
<svg width="1299pt" height="374pt"
 viewBox="0.00 0.00 1299.38 374.00" xmlns="http://www.w3.org/2000/svg" xmlns:xlink="http://www.w3.org/1999/xlink">
<g id="graph0" class="graph" transform="scale(1 1) rotate(0) translate(4 370)">
<title>/home/build/sdk/c/ifxBase/Defines.h</title>
<polygon fill="white" stroke="transparent" points="-4,4 -4,-370 1295.38,-370 1295.38,4 -4,4"/>
<!-- Node1 -->
<g id="node1" class="node">
<title>Node1</title>
<g id="a_node1"><a xlink:title="Internal definitions used by standard math.h functions as Macros, to use float or double precision.">
<polygon fill="#bfbfbf" stroke="black" points="132,-335.5 132,-365.5 275,-365.5 275,-335.5 132,-335.5"/>
<text text-anchor="start" x="140" y="-353.5" font-family="Helvetica,sans-Serif" font-size="10.00">/home/build/sdk/c/ifxBase</text>
<text text-anchor="middle" x="203.5" y="-342.5" font-family="Helvetica,sans-Serif" font-size="10.00">/Defines.h</text>
</a>
</g>
</g>
<!-- Node2 -->
<g id="node2" class="node">
<title>Node2</title>
<g id="a_node2"><a xlink:href="_base_8h.html" target="_top" xlink:title="Header for ifxAvian.">
<polygon fill="white" stroke="black" points="0,-201.5 0,-231.5 143,-231.5 143,-201.5 0,-201.5"/>
<text text-anchor="start" x="8" y="-219.5" font-family="Helvetica,sans-Serif" font-size="10.00">/home/build/sdk/c/ifxBase</text>
<text text-anchor="middle" x="71.5" y="-208.5" font-family="Helvetica,sans-Serif" font-size="10.00">/Base.h</text>
</a>
</g>
</g>
<!-- Node1&#45;&gt;Node2 -->
<g id="edge1" class="edge">
<title>Node1&#45;&gt;Node2</title>
<path fill="none" stroke="midnightblue" d="M165.47,-330.59C150.96,-322.2 134.93,-311.41 122.5,-299 102.18,-278.72 86.14,-248.9 77.81,-231.51"/>
<polygon fill="midnightblue" stroke="midnightblue" points="163.82,-333.68 174.26,-335.49 167.23,-327.56 163.82,-333.68"/>
</g>
<!-- Node4 -->
<g id="node4" class="node">
<title>Node4</title>
<g id="a_node4"><a xlink:href="_complex_8h.html" target="_top" xlink:title="API for operations on complex numbers.">
<polygon fill="white" stroke="black" points="132,-268.5 132,-298.5 275,-298.5 275,-268.5 132,-268.5"/>
<text text-anchor="start" x="140" y="-286.5" font-family="Helvetica,sans-Serif" font-size="10.00">/home/build/sdk/c/ifxBase</text>
<text text-anchor="middle" x="203.5" y="-275.5" font-family="Helvetica,sans-Serif" font-size="10.00">/Complex.h</text>
</a>
</g>
</g>
<!-- Node1&#45;&gt;Node4 -->
<g id="edge3" class="edge">
<title>Node1&#45;&gt;Node4</title>
<path fill="none" stroke="midnightblue" d="M203.5,-325.11C203.5,-316.15 203.5,-306.32 203.5,-298.58"/>
<polygon fill="midnightblue" stroke="midnightblue" points="200,-325.4 203.5,-335.4 207,-325.4 200,-325.4"/>
</g>
<!-- Node7 -->
<g id="node7" class="node">
<title>Node7</title>
<g id="a_node7"><a xlink:href="_cube_8h.html" target="_top" xlink:title="API for operations on Cube data structures.">
<polygon fill="white" stroke="black" points="493,-268.5 493,-298.5 636,-298.5 636,-268.5 493,-268.5"/>
<text text-anchor="start" x="501" y="-286.5" font-family="Helvetica,sans-Serif" font-size="10.00">/home/build/sdk/c/ifxBase</text>
<text text-anchor="middle" x="564.5" y="-275.5" font-family="Helvetica,sans-Serif" font-size="10.00">/Cube.h</text>
</a>
</g>
</g>
<!-- Node1&#45;&gt;Node7 -->
<g id="edge8" class="edge">
<title>Node1&#45;&gt;Node7</title>
<path fill="none" stroke="midnightblue" d="M285.47,-334.74C347.94,-323.49 433.12,-308.16 492.88,-297.4"/>
<polygon fill="midnightblue" stroke="midnightblue" points="284.48,-331.36 275.25,-336.58 285.72,-338.25 284.48,-331.36"/>
</g>
<!-- Node3 -->
<g id="node3" class="node">
<title>Node3</title>
<g id="a_node3"><a xlink:href="_s_d_k_8h.html" target="_top" xlink:title="Master header file for Radar SDK.">
<polygon fill="white" stroke="black" points="618,-0.5 618,-30.5 765,-30.5 765,-0.5 618,-0.5"/>
<text text-anchor="start" x="626" y="-18.5" font-family="Helvetica,sans-Serif" font-size="10.00">/home/build/sdk/c/ifxRadar</text>
<text text-anchor="middle" x="691.5" y="-7.5" font-family="Helvetica,sans-Serif" font-size="10.00">/SDK.h</text>
</a>
</g>
</g>
<!-- Node2&#45;&gt;Node3 -->
<g id="edge2" class="edge">
<title>Node2&#45;&gt;Node3</title>
<path fill="none" stroke="midnightblue" d="M102.65,-196.24C156.01,-164.17 269.26,-100.07 373.5,-67 454.89,-41.18 552.37,-28.19 617.76,-21.92"/>
<polygon fill="midnightblue" stroke="midnightblue" points="100.74,-193.3 94,-201.47 104.37,-199.29 100.74,-193.3"/>
</g>
<!-- Node4&#45;&gt;Node2 -->
<g id="edge4" class="edge">
<title>Node4&#45;&gt;Node2</title>
<path fill="none" stroke="midnightblue" d="M165.63,-263.85C144.76,-253.58 119.27,-241.03 100.09,-231.58"/>
<polygon fill="midnightblue" stroke="midnightblue" points="164.34,-267.12 174.86,-268.4 167.43,-260.84 164.34,-267.12"/>
</g>
<!-- Node5 -->
<g id="node5" class="node">
<title>Node5</title>
<g id="a_node5"><a xlink:href="_angle_monopulse_8h.html" target="_top" xlink:title="API for Phase Monopulse algorithm.">
<polygon fill="white" stroke="black" points="161,-201.5 161,-231.5 308,-231.5 308,-201.5 161,-201.5"/>
<text text-anchor="start" x="169" y="-219.5" font-family="Helvetica,sans-Serif" font-size="10.00">/home/build/sdk/c/ifxRadar</text>
<text text-anchor="middle" x="234.5" y="-208.5" font-family="Helvetica,sans-Serif" font-size="10.00">/AngleMonopulse.h</text>
</a>
</g>
</g>
<!-- Node4&#45;&gt;Node5 -->
<g id="edge5" class="edge">
<title>Node4&#45;&gt;Node5</title>
<path fill="none" stroke="midnightblue" d="M214.57,-259.28C218.99,-250.02 223.93,-239.66 227.79,-231.58"/>
<polygon fill="midnightblue" stroke="midnightblue" points="211.37,-257.86 210.23,-268.4 217.69,-260.88 211.37,-257.86"/>
</g>
<!-- Node6 -->
<g id="node6" class="node">
<title>Node6</title>
<g id="a_node6"><a xlink:href="_radar_8h.html" target="_top" xlink:title="Header for ifxRadar.">
<polygon fill="white" stroke="black" points="383,-67.5 383,-97.5 530,-97.5 530,-67.5 383,-67.5"/>
<text text-anchor="start" x="391" y="-85.5" font-family="Helvetica,sans-Serif" font-size="10.00">/home/build/sdk/c/ifxRadar</text>
<text text-anchor="middle" x="456.5" y="-74.5" font-family="Helvetica,sans-Serif" font-size="10.00">/Radar.h</text>
</a>
</g>
</g>
<!-- Node5&#45;&gt;Node6 -->
<g id="edge6" class="edge">
<title>Node5&#45;&gt;Node6</title>
<path fill="none" stroke="midnightblue" d="M267.08,-196.13C312.31,-169.24 393.05,-121.22 432.91,-97.52"/>
<polygon fill="midnightblue" stroke="midnightblue" points="265.06,-193.25 258.26,-201.37 268.64,-199.27 265.06,-193.25"/>
</g>
<!-- Node6&#45;&gt;Node3 -->
<g id="edge7" class="edge">
<title>Node6&#45;&gt;Node3</title>
<path fill="none" stroke="midnightblue" d="M517.18,-64.71C555.43,-54.14 604.24,-40.63 640.48,-30.61"/>
<polygon fill="midnightblue" stroke="midnightblue" points="515.91,-61.44 507.2,-67.48 517.77,-68.18 515.91,-61.44"/>
</g>
<!-- Node7&#45;&gt;Node2 -->
<g id="edge20" class="edge">
<title>Node7&#45;&gt;Node2</title>
<path fill="none" stroke="midnightblue" d="M482.52,-273.88C399.05,-264.78 265.99,-249.36 151.5,-232 148.85,-231.6 146.15,-231.18 143.43,-230.74"/>
<polygon fill="midnightblue" stroke="midnightblue" points="482.38,-277.39 492.7,-274.99 483.14,-270.43 482.38,-277.39"/>
</g>
<!-- Node8 -->
<g id="node8" class="node">
<title>Node8</title>
<g id="a_node8"><a xlink:href="_device_control_8h.html" target="_top" xlink:title="API for Radar device control operations.">
<polygon fill="white" stroke="black" points="752.5,-201.5 752.5,-231.5 898.5,-231.5 898.5,-201.5 752.5,-201.5"/>
<text text-anchor="start" x="760.5" y="-219.5" font-family="Helvetica,sans-Serif" font-size="10.00">/home/build/sdk/c/ifxAvian</text>
<text text-anchor="middle" x="825.5" y="-208.5" font-family="Helvetica,sans-Serif" font-size="10.00">/DeviceControl.h</text>
</a>
</g>
</g>
<!-- Node7&#45;&gt;Node8 -->
<g id="edge9" class="edge">
<title>Node7&#45;&gt;Node8</title>
<path fill="none" stroke="midnightblue" d="M630.55,-266.05C673.22,-255.43 728.16,-241.74 768.84,-231.61"/>
<polygon fill="midnightblue" stroke="midnightblue" points="629.67,-262.66 620.81,-268.48 631.36,-269.46 629.67,-262.66"/>
</g>
<!-- Node14 -->
<g id="node14" class="node">
<title>Node14</title>
<g id="a_node14"><a xlink:href="_angle_capon_8h.html" target="_top" xlink:title="API for Angle Capon algorithm.">
<polygon fill="white" stroke="black" points="326,-201.5 326,-231.5 473,-231.5 473,-201.5 326,-201.5"/>
<text text-anchor="start" x="334" y="-219.5" font-family="Helvetica,sans-Serif" font-size="10.00">/home/build/sdk/c/ifxRadar</text>
<text text-anchor="middle" x="399.5" y="-208.5" font-family="Helvetica,sans-Serif" font-size="10.00">/AngleCapon.h</text>
</a>
</g>
</g>
<!-- Node7&#45;&gt;Node14 -->
<g id="edge21" class="edge">
<title>Node7&#45;&gt;Node14</title>
<path fill="none" stroke="midnightblue" d="M519.27,-264.68C492.81,-254.26 459.87,-241.28 435.23,-231.58"/>
<polygon fill="midnightblue" stroke="midnightblue" points="518.11,-267.99 528.7,-268.4 520.68,-261.47 518.11,-267.99"/>
</g>
<!-- Node15 -->
<g id="node15" class="node">
<title>Node15</title>
<g id="a_node15"><a xlink:href="_d_b_f_8h.html" target="_top" xlink:title="API for Digital Beamforming (DBF) algorithm.">
<polygon fill="white" stroke="black" points="491,-201.5 491,-231.5 638,-231.5 638,-201.5 491,-201.5"/>
<text text-anchor="start" x="499" y="-219.5" font-family="Helvetica,sans-Serif" font-size="10.00">/home/build/sdk/c/ifxRadar</text>
<text text-anchor="middle" x="564.5" y="-208.5" font-family="Helvetica,sans-Serif" font-size="10.00">/DBF.h</text>
</a>
</g>
</g>
<!-- Node7&#45;&gt;Node15 -->
<g id="edge23" class="edge">
<title>Node7&#45;&gt;Node15</title>
<path fill="none" stroke="midnightblue" d="M564.5,-258.11C564.5,-249.15 564.5,-239.32 564.5,-231.58"/>
<polygon fill="midnightblue" stroke="midnightblue" points="561,-258.4 564.5,-268.4 568,-258.4 561,-258.4"/>
</g>
<!-- Node16 -->
<g id="node16" class="node">
<title>Node16</title>
<g id="a_node16"><a xlink:href="_range_angle_image_8h.html" target="_top" xlink:title="API for Range Angle Image algorithm.">
<polygon fill="white" stroke="black" points="434,-134.5 434,-164.5 581,-164.5 581,-134.5 434,-134.5"/>
<text text-anchor="start" x="442" y="-152.5" font-family="Helvetica,sans-Serif" font-size="10.00">/home/build/sdk/c/ifxRadar</text>
<text text-anchor="middle" x="507.5" y="-141.5" font-family="Helvetica,sans-Serif" font-size="10.00">/RangeAngleImage.h</text>
</a>
</g>
</g>
<!-- Node7&#45;&gt;Node16 -->
<g id="edge27" class="edge">
<title>Node7&#45;&gt;Node16</title>
<path fill="none" stroke="midnightblue" d="M612.45,-263.79C625.88,-256.07 638.88,-245.65 646.5,-232 653.22,-219.97 654.41,-212.28 646.5,-201 636.7,-187.02 599.57,-173.93 566.14,-164.59"/>
<polygon fill="midnightblue" stroke="midnightblue" points="610.81,-260.7 603.62,-268.48 614.09,-266.88 610.81,-260.7"/>
</g>
<!-- Node17 -->
<g id="node17" class="node">
<title>Node17</title>
<g id="a_node17"><a xlink:href="_segmentation_8h.html" target="_top" xlink:title="API for Segmentation algorithm.">
<polygon fill="white" stroke="black" points="1044,-201.5 1044,-231.5 1209,-231.5 1209,-201.5 1044,-201.5"/>
<text text-anchor="start" x="1052" y="-219.5" font-family="Helvetica,sans-Serif" font-size="10.00">/home/build/sdk/c/ifxRadar</text>
<text text-anchor="middle" x="1126.5" y="-208.5" font-family="Helvetica,sans-Serif" font-size="10.00">Segmentation/Segmentation.h</text>
</a>
</g>
</g>
<!-- Node7&#45;&gt;Node17 -->
<g id="edge28" class="edge">
<title>Node7&#45;&gt;Node17</title>
<path fill="none" stroke="midnightblue" d="M646.28,-273.04C752.54,-260.75 937.06,-239.41 1043.78,-227.07"/>
<polygon fill="midnightblue" stroke="midnightblue" points="645.78,-269.58 636.25,-274.2 646.58,-276.53 645.78,-269.58"/>
</g>
<!-- Node9 -->
<g id="node9" class="node">
<title>Node9</title>
<g id="a_node9"><a xlink:href="_avian_8h.html" target="_top" xlink:title=" ">
<polygon fill="white" stroke="black" points="802.5,-67.5 802.5,-97.5 948.5,-97.5 948.5,-67.5 802.5,-67.5"/>
<text text-anchor="start" x="810.5" y="-85.5" font-family="Helvetica,sans-Serif" font-size="10.00">/home/build/sdk/c/ifxAvian</text>
<text text-anchor="middle" x="875.5" y="-74.5" font-family="Helvetica,sans-Serif" font-size="10.00">/Avian.h</text>
</a>
</g>
</g>
<!-- Node8&#45;&gt;Node9 -->
<g id="edge10" class="edge">
<title>Node8&#45;&gt;Node9</title>
<path fill="none" stroke="midnightblue" d="M806.33,-193.29C794.27,-176.48 782.83,-153.1 793.5,-134 802.79,-117.36 820.07,-105.53 836.38,-97.52"/>
<polygon fill="midnightblue" stroke="midnightblue" points="803.72,-195.63 812.58,-201.43 809.27,-191.37 803.72,-195.63"/>
</g>
<!-- Node10 -->
<g id="node10" class="node">
<title>Node10</title>
<g id="a_node10"><a xlink:href="_constant_wave_control_8h.html" target="_top" xlink:title="Header for Constant Wave Control. It provides APIs to use an Avian device in constant wave mode....">
<polygon fill="white" stroke="black" points="802.5,-134.5 802.5,-164.5 948.5,-164.5 948.5,-134.5 802.5,-134.5"/>
<text text-anchor="start" x="810.5" y="-152.5" font-family="Helvetica,sans-Serif" font-size="10.00">/home/build/sdk/c/ifxAvian</text>
<text text-anchor="middle" x="875.5" y="-141.5" font-family="Helvetica,sans-Serif" font-size="10.00">/ConstantWaveControl.h</text>
</a>
</g>
</g>
<!-- Node8&#45;&gt;Node10 -->
<g id="edge12" class="edge">
<title>Node8&#45;&gt;Node10</title>
<path fill="none" stroke="midnightblue" d="M842.46,-193.45C849.81,-183.9 858.19,-173 864.67,-164.58"/>
<polygon fill="midnightblue" stroke="midnightblue" points="839.67,-191.34 836.35,-201.4 845.22,-195.6 839.67,-191.34"/>
</g>
<!-- Node11 -->
<g id="node11" class="node">
<title>Node11</title>
<g id="a_node11"><a xlink:href="_metrics_8h.html" target="_top" xlink:title="API for Metrics.">
<polygon fill="white" stroke="black" points="966.5,-134.5 966.5,-164.5 1112.5,-164.5 1112.5,-134.5 966.5,-134.5"/>
<text text-anchor="start" x="974.5" y="-152.5" font-family="Helvetica,sans-Serif" font-size="10.00">/home/build/sdk/c/ifxAvian</text>
<text text-anchor="middle" x="1039.5" y="-141.5" font-family="Helvetica,sans-Serif" font-size="10.00">/Metrics.h</text>
</a>
</g>
</g>
<!-- Node8&#45;&gt;Node11 -->
<g id="edge14" class="edge">
<title>Node8&#45;&gt;Node11</title>
<path fill="none" stroke="midnightblue" d="M881.65,-198.44C916.34,-187.91 960.32,-174.55 993.04,-164.61"/>
<polygon fill="midnightblue" stroke="midnightblue" points="880.22,-195.22 871.67,-201.48 882.26,-201.92 880.22,-195.22"/>
</g>
<!-- Node12 -->
<g id="node12" class="node">
<title>Node12</title>
<g id="a_node12"><a xlink:href="_shapes_8h.html" target="_top" xlink:title=" ">
<polygon fill="white" stroke="black" points="1130.5,-134.5 1130.5,-164.5 1276.5,-164.5 1276.5,-134.5 1130.5,-134.5"/>
<text text-anchor="start" x="1138.5" y="-152.5" font-family="Helvetica,sans-Serif" font-size="10.00">/home/build/sdk/c/ifxAvian</text>
<text text-anchor="middle" x="1203.5" y="-141.5" font-family="Helvetica,sans-Serif" font-size="10.00">/Shapes.h</text>
</a>
</g>
</g>
<!-- Node8&#45;&gt;Node12 -->
<g id="edge16" class="edge">
<title>Node8&#45;&gt;Node12</title>
<path fill="none" stroke="midnightblue" d="M908.58,-201.46C967.92,-191.4 1049.64,-177.48 1121.5,-165 1124.35,-164.51 1127.25,-164 1130.19,-163.49"/>
<polygon fill="midnightblue" stroke="midnightblue" points="907.78,-198.05 898.51,-203.17 908.95,-204.95 907.78,-198.05"/>
</g>
<!-- Node13 -->
<g id="node13" class="node">
<title>Node13</title>
<g id="a_node13"><a xlink:href="_presence_sensing_8h.html" target="_top" xlink:title="API for Presence Sensing algorithm.">
<polygon fill="white" stroke="black" points="599,-134.5 599,-164.5 746,-164.5 746,-134.5 599,-134.5"/>
<text text-anchor="start" x="607" y="-152.5" font-family="Helvetica,sans-Serif" font-size="10.00">/home/build/sdk/c/ifxRadar</text>
<text text-anchor="middle" x="672.5" y="-141.5" font-family="Helvetica,sans-Serif" font-size="10.00">/PresenceSensing.h</text>
</a>
</g>
</g>
<!-- Node8&#45;&gt;Node13 -->
<g id="edge18" class="edge">
<title>Node8&#45;&gt;Node13</title>
<path fill="none" stroke="midnightblue" d="M782.91,-197.41C758.48,-187.03 728.28,-174.2 705.63,-164.58"/>
<polygon fill="midnightblue" stroke="midnightblue" points="781.73,-200.71 792.3,-201.4 784.47,-194.26 781.73,-200.71"/>
</g>
<!-- Node9&#45;&gt;Node3 -->
<g id="edge11" class="edge">
<title>Node9&#45;&gt;Node3</title>
<path fill="none" stroke="midnightblue" d="M825.83,-63.96C796.2,-53.48 759.06,-40.37 731.35,-30.58"/>
<polygon fill="midnightblue" stroke="midnightblue" points="824.98,-67.37 835.57,-67.4 827.31,-60.76 824.98,-67.37"/>
</g>
<!-- Node10&#45;&gt;Node9 -->
<g id="edge13" class="edge">
<title>Node10&#45;&gt;Node9</title>
<path fill="none" stroke="midnightblue" d="M875.5,-124.11C875.5,-115.15 875.5,-105.32 875.5,-97.58"/>
<polygon fill="midnightblue" stroke="midnightblue" points="872,-124.4 875.5,-134.4 879,-124.4 872,-124.4"/>
</g>
<!-- Node11&#45;&gt;Node9 -->
<g id="edge15" class="edge">
<title>Node11&#45;&gt;Node9</title>
<path fill="none" stroke="midnightblue" d="M994.54,-130.68C968.24,-120.26 935.5,-107.28 911.02,-97.58"/>
<polygon fill="midnightblue" stroke="midnightblue" points="993.33,-133.97 1003.91,-134.4 995.91,-127.46 993.33,-133.97"/>
</g>
<!-- Node12&#45;&gt;Node9 -->
<g id="edge17" class="edge">
<title>Node12&#45;&gt;Node9</title>
<path fill="none" stroke="midnightblue" d="M1122.84,-132.52C1068.8,-121.81 998.32,-107.84 946.42,-97.55"/>
<polygon fill="midnightblue" stroke="midnightblue" points="1122.24,-135.97 1132.73,-134.48 1123.6,-129.1 1122.24,-135.97"/>
</g>
<!-- Node13&#45;&gt;Node6 -->
<g id="edge19" class="edge">
<title>Node13&#45;&gt;Node6</title>
<path fill="none" stroke="midnightblue" d="M616.27,-131.58C581.19,-121.02 536.56,-107.59 503.39,-97.61"/>
<polygon fill="midnightblue" stroke="midnightblue" points="615.31,-134.95 625.9,-134.48 617.33,-128.24 615.31,-134.95"/>
</g>
<!-- Node14&#45;&gt;Node6 -->
<g id="edge22" class="edge">
<title>Node14&#45;&gt;Node6</title>
<path fill="none" stroke="midnightblue" d="M390.75,-191.76C386,-174.83 382.7,-151.98 391.5,-134 399.16,-118.34 414.29,-106.14 428.02,-97.65"/>
<polygon fill="midnightblue" stroke="midnightblue" points="387.46,-192.95 393.8,-201.44 394.13,-190.85 387.46,-192.95"/>
</g>
<!-- Node15&#45;&gt;Node6 -->
<g id="edge24" class="edge">
<title>Node15&#45;&gt;Node6</title>
<path fill="none" stroke="midnightblue" d="M495.5,-198.63C464.74,-189.58 433.41,-177.69 424.5,-165 409.65,-143.85 428.63,-114.85 443.06,-97.75"/>
<polygon fill="midnightblue" stroke="midnightblue" points="494.86,-202.09 505.44,-201.47 496.78,-195.36 494.86,-202.09"/>
</g>
<!-- Node15&#45;&gt;Node16 -->
<g id="edge25" class="edge">
<title>Node15&#45;&gt;Node16</title>
<path fill="none" stroke="midnightblue" d="M545.41,-193.74C536.98,-184.12 527.31,-173.09 519.84,-164.58"/>
<polygon fill="midnightblue" stroke="midnightblue" points="542.91,-196.18 552.13,-201.4 548.17,-191.57 542.91,-196.18"/>
</g>
<!-- Node16&#45;&gt;Node6 -->
<g id="edge26" class="edge">
<title>Node16&#45;&gt;Node6</title>
<path fill="none" stroke="midnightblue" d="M490.2,-126.45C482.71,-116.9 474.16,-106 467.54,-97.58"/>
<polygon fill="midnightblue" stroke="midnightblue" points="487.51,-128.69 496.43,-134.4 493.01,-124.37 487.51,-128.69"/>
</g>
<!-- Node18 -->
<g id="node18" class="node">
<title>Node18</title>
<g id="a_node18"><a xlink:href="_radar_segmentation_8h.html" target="_top" xlink:title="Header for ifxRadarSegmentation.">
<polygon fill="white" stroke="black" points="1086.5,-67.5 1086.5,-97.5 1280.5,-97.5 1280.5,-67.5 1086.5,-67.5"/>
<text text-anchor="start" x="1094.5" y="-85.5" font-family="Helvetica,sans-Serif" font-size="10.00">/home/build/sdk/c/ifxRadar</text>
<text text-anchor="middle" x="1183.5" y="-74.5" font-family="Helvetica,sans-Serif" font-size="10.00">Segmentation/RadarSegmentation.h</text>
</a>
</g>
</g>
<!-- Node17&#45;&gt;Node18 -->
<g id="edge29" class="edge">
<title>Node17&#45;&gt;Node18</title>
<path fill="none" stroke="midnightblue" d="M1219.1,-206.41C1244.69,-199.14 1269.73,-186.56 1285.5,-165 1293.64,-153.88 1292.77,-145.71 1285.5,-134 1274.77,-116.71 1256.16,-105.16 1237.75,-97.52"/>
<polygon fill="midnightblue" stroke="midnightblue" points="1218.09,-203.05 1209.29,-208.94 1219.84,-209.83 1218.09,-203.05"/>
</g>
<!-- Node18&#45;&gt;Node3 -->
<g id="edge30" class="edge">
<title>Node18&#45;&gt;Node3</title>
<path fill="none" stroke="midnightblue" d="M1076.17,-67.32C982.06,-54.89 847.74,-37.14 765.26,-26.24"/>
<polygon fill="midnightblue" stroke="midnightblue" points="1075.92,-70.82 1086.3,-68.66 1076.84,-63.88 1075.92,-70.82"/>
</g>
</g>
</svg>
