<?xml version="1.0" encoding="UTF-8" standalone="no"?>
<!DOCTYPE svg PUBLIC "-//W3C//DTD SVG 1.1//EN"
 "http://www.w3.org/Graphics/SVG/1.1/DTD/svg11.dtd">
<!-- Generated by graphviz version 2.43.0 (0)
 -->
<!-- Title: /home/build/sdk/c/ifxAvian/DeviceConfig.h Pages: 1 -->
<svg width="828pt" height="307pt"
 viewBox="0.00 0.00 828.26 307.00" xmlns="http://www.w3.org/2000/svg" xmlns:xlink="http://www.w3.org/1999/xlink">
<g id="graph0" class="graph" transform="scale(1 1) rotate(0) translate(4 303)">
<title>/home/build/sdk/c/ifxAvian/DeviceConfig.h</title>
<polygon fill="white" stroke="transparent" points="-4,4 -4,-303 824.26,-303 824.26,4 -4,4"/>
<!-- Node1 -->
<g id="node1" class="node">
<title>Node1</title>
<g id="a_node1"><a xlink:title="API for Radar device configuration.">
<polygon fill="#bfbfbf" stroke="black" points="219.26,-268.5 219.26,-298.5 365.26,-298.5 365.26,-268.5 219.26,-268.5"/>
<text text-anchor="start" x="227.26" y="-286.5" font-family="Helvetica,sans-Serif" font-size="10.00">/home/build/sdk/c/ifxAvian</text>
<text text-anchor="middle" x="292.26" y="-275.5" font-family="Helvetica,sans-Serif" font-size="10.00">/DeviceConfig.h</text>
</a>
</g>
</g>
<!-- Node2 -->
<g id="node2" class="node">
<title>Node2</title>
<g id="a_node2"><a xlink:href="_avian_8h.html" target="_top" xlink:title=" ">
<polygon fill="white" stroke="black" points="169.26,-67.5 169.26,-97.5 315.26,-97.5 315.26,-67.5 169.26,-67.5"/>
<text text-anchor="start" x="177.26" y="-85.5" font-family="Helvetica,sans-Serif" font-size="10.00">/home/build/sdk/c/ifxAvian</text>
<text text-anchor="middle" x="242.26" y="-74.5" font-family="Helvetica,sans-Serif" font-size="10.00">/Avian.h</text>
</a>
</g>
</g>
<!-- Node1&#45;&gt;Node2 -->
<g id="edge1" class="edge">
<title>Node1&#45;&gt;Node2</title>
<path fill="none" stroke="midnightblue" d="M209.06,-273.24C142.03,-260.88 51.99,-232.07 8.26,-165 -31.97,-103.29 86.33,-87.67 169.08,-84.09"/>
<polygon fill="midnightblue" stroke="midnightblue" points="208.74,-276.74 219.19,-275.02 209.95,-269.85 208.74,-276.74"/>
</g>
<!-- Node4 -->
<g id="node4" class="node">
<title>Node4</title>
<g id="a_node4"><a xlink:href="_constant_wave_control_8h.html" target="_top" xlink:title="Header for Constant Wave Control. It provides APIs to use an Avian device in constant wave mode....">
<polygon fill="white" stroke="black" points="17.26,-134.5 17.26,-164.5 163.26,-164.5 163.26,-134.5 17.26,-134.5"/>
<text text-anchor="start" x="25.26" y="-152.5" font-family="Helvetica,sans-Serif" font-size="10.00">/home/build/sdk/c/ifxAvian</text>
<text text-anchor="middle" x="90.26" y="-141.5" font-family="Helvetica,sans-Serif" font-size="10.00">/ConstantWaveControl.h</text>
</a>
</g>
</g>
<!-- Node1&#45;&gt;Node4 -->
<g id="edge3" class="edge">
<title>Node1&#45;&gt;Node4</title>
<path fill="none" stroke="midnightblue" d="M260.2,-263.21C244.97,-253.93 226.57,-242.55 210.26,-232 174.74,-209.02 134.16,-181.1 110.46,-164.62"/>
<polygon fill="midnightblue" stroke="midnightblue" points="258.4,-266.21 268.76,-268.41 262.03,-260.23 258.4,-266.21"/>
</g>
<!-- Node5 -->
<g id="node5" class="node">
<title>Node5</title>
<g id="a_node5"><a xlink:href="_device_control_8h.html" target="_top" xlink:title="API for Radar device control operations.">
<polygon fill="white" stroke="black" points="219.26,-201.5 219.26,-231.5 365.26,-231.5 365.26,-201.5 219.26,-201.5"/>
<text text-anchor="start" x="227.26" y="-219.5" font-family="Helvetica,sans-Serif" font-size="10.00">/home/build/sdk/c/ifxAvian</text>
<text text-anchor="middle" x="292.26" y="-208.5" font-family="Helvetica,sans-Serif" font-size="10.00">/DeviceControl.h</text>
</a>
</g>
</g>
<!-- Node1&#45;&gt;Node5 -->
<g id="edge5" class="edge">
<title>Node1&#45;&gt;Node5</title>
<path fill="none" stroke="midnightblue" d="M292.26,-258.11C292.26,-249.15 292.26,-239.32 292.26,-231.58"/>
<polygon fill="midnightblue" stroke="midnightblue" points="288.76,-258.4 292.26,-268.4 295.76,-258.4 288.76,-258.4"/>
</g>
<!-- Node8 -->
<g id="node8" class="node">
<title>Node8</title>
<g id="a_node8"><a xlink:href="_presence_sensing_8h.html" target="_top" xlink:title="API for Presence Sensing algorithm.">
<polygon fill="white" stroke="black" points="547.76,-134.5 547.76,-164.5 694.76,-164.5 694.76,-134.5 547.76,-134.5"/>
<text text-anchor="start" x="555.76" y="-152.5" font-family="Helvetica,sans-Serif" font-size="10.00">/home/build/sdk/c/ifxRadar</text>
<text text-anchor="middle" x="621.26" y="-141.5" font-family="Helvetica,sans-Serif" font-size="10.00">/PresenceSensing.h</text>
</a>
</g>
</g>
<!-- Node1&#45;&gt;Node8 -->
<g id="edge15" class="edge">
<title>Node1&#45;&gt;Node8</title>
<path fill="none" stroke="midnightblue" d="M336.49,-264.76C402.62,-238.23 525.92,-188.75 586.23,-164.56"/>
<polygon fill="midnightblue" stroke="midnightblue" points="335.14,-261.53 327.16,-268.5 337.75,-268.02 335.14,-261.53"/>
</g>
<!-- Node10 -->
<g id="node10" class="node">
<title>Node10</title>
<g id="a_node10"><a xlink:href="_segmentation_8h.html" target="_top" xlink:title="API for Segmentation algorithm.">
<polygon fill="white" stroke="black" points="585.76,-201.5 585.76,-231.5 750.76,-231.5 750.76,-201.5 585.76,-201.5"/>
<text text-anchor="start" x="593.76" y="-219.5" font-family="Helvetica,sans-Serif" font-size="10.00">/home/build/sdk/c/ifxRadar</text>
<text text-anchor="middle" x="668.26" y="-208.5" font-family="Helvetica,sans-Serif" font-size="10.00">Segmentation/Segmentation.h</text>
</a>
</g>
</g>
<!-- Node1&#45;&gt;Node10 -->
<g id="edge16" class="edge">
<title>Node1&#45;&gt;Node10</title>
<path fill="none" stroke="midnightblue" d="M375.57,-268.1C438.62,-257.2 524.75,-242.31 587.24,-231.51"/>
<polygon fill="midnightblue" stroke="midnightblue" points="374.91,-264.66 365.65,-269.81 376.1,-271.56 374.91,-264.66"/>
</g>
<!-- Node3 -->
<g id="node3" class="node">
<title>Node3</title>
<g id="a_node3"><a xlink:href="_s_d_k_8h.html" target="_top" xlink:title="Master header file for Radar SDK.">
<polygon fill="white" stroke="black" points="460.76,-0.5 460.76,-30.5 607.76,-30.5 607.76,-0.5 460.76,-0.5"/>
<text text-anchor="start" x="468.76" y="-18.5" font-family="Helvetica,sans-Serif" font-size="10.00">/home/build/sdk/c/ifxRadar</text>
<text text-anchor="middle" x="534.26" y="-7.5" font-family="Helvetica,sans-Serif" font-size="10.00">/SDK.h</text>
</a>
</g>
</g>
<!-- Node2&#45;&gt;Node3 -->
<g id="edge2" class="edge">
<title>Node2&#45;&gt;Node3</title>
<path fill="none" stroke="midnightblue" d="M315.27,-65.25C363.22,-54.58 425.31,-40.75 471.12,-30.55"/>
<polygon fill="midnightblue" stroke="midnightblue" points="314.26,-61.89 305.26,-67.48 315.79,-68.72 314.26,-61.89"/>
</g>
<!-- Node4&#45;&gt;Node2 -->
<g id="edge4" class="edge">
<title>Node4&#45;&gt;Node2</title>
<path fill="none" stroke="midnightblue" d="M132.57,-130.41C156.84,-120.03 186.85,-107.2 209.35,-97.58"/>
<polygon fill="midnightblue" stroke="midnightblue" points="131.06,-127.25 123.25,-134.4 133.82,-133.68 131.06,-127.25"/>
</g>
<!-- Node5&#45;&gt;Node2 -->
<g id="edge6" class="edge">
<title>Node5&#45;&gt;Node2</title>
<path fill="none" stroke="midnightblue" d="M244.31,-196.79C230.88,-189.07 217.89,-178.65 210.26,-165 197.74,-142.57 215.69,-114.24 229.35,-97.57"/>
<polygon fill="midnightblue" stroke="midnightblue" points="242.67,-199.88 253.14,-201.48 245.95,-193.7 242.67,-199.88"/>
</g>
<!-- Node5&#45;&gt;Node4 -->
<g id="edge7" class="edge">
<title>Node5&#45;&gt;Node4</title>
<path fill="none" stroke="midnightblue" d="M238.59,-198.23C205.91,-187.71 164.7,-174.45 134.01,-164.58"/>
<polygon fill="midnightblue" stroke="midnightblue" points="237.84,-201.66 248.43,-201.4 239.99,-195 237.84,-201.66"/>
</g>
<!-- Node6 -->
<g id="node6" class="node">
<title>Node6</title>
<g id="a_node6"><a xlink:href="_metrics_8h.html" target="_top" xlink:title="API for Metrics.">
<polygon fill="white" stroke="black" points="219.26,-134.5 219.26,-164.5 365.26,-164.5 365.26,-134.5 219.26,-134.5"/>
<text text-anchor="start" x="227.26" y="-152.5" font-family="Helvetica,sans-Serif" font-size="10.00">/home/build/sdk/c/ifxAvian</text>
<text text-anchor="middle" x="292.26" y="-141.5" font-family="Helvetica,sans-Serif" font-size="10.00">/Metrics.h</text>
</a>
</g>
</g>
<!-- Node5&#45;&gt;Node6 -->
<g id="edge8" class="edge">
<title>Node5&#45;&gt;Node6</title>
<path fill="none" stroke="midnightblue" d="M292.26,-191.11C292.26,-182.15 292.26,-172.32 292.26,-164.58"/>
<polygon fill="midnightblue" stroke="midnightblue" points="288.76,-191.4 292.26,-201.4 295.76,-191.4 288.76,-191.4"/>
</g>
<!-- Node7 -->
<g id="node7" class="node">
<title>Node7</title>
<g id="a_node7"><a xlink:href="_shapes_8h.html" target="_top" xlink:title=" ">
<polygon fill="white" stroke="black" points="383.26,-134.5 383.26,-164.5 529.26,-164.5 529.26,-134.5 383.26,-134.5"/>
<text text-anchor="start" x="391.26" y="-152.5" font-family="Helvetica,sans-Serif" font-size="10.00">/home/build/sdk/c/ifxAvian</text>
<text text-anchor="middle" x="456.26" y="-141.5" font-family="Helvetica,sans-Serif" font-size="10.00">/Shapes.h</text>
</a>
</g>
</g>
<!-- Node5&#45;&gt;Node7 -->
<g id="edge10" class="edge">
<title>Node5&#45;&gt;Node7</title>
<path fill="none" stroke="midnightblue" d="M337.22,-197.68C363.52,-187.26 396.26,-174.28 420.75,-164.58"/>
<polygon fill="midnightblue" stroke="midnightblue" points="335.86,-194.46 327.85,-201.4 338.44,-200.97 335.86,-194.46"/>
</g>
<!-- Node5&#45;&gt;Node8 -->
<g id="edge12" class="edge">
<title>Node5&#45;&gt;Node8</title>
<path fill="none" stroke="midnightblue" d="M373.17,-199.52C427.37,-188.81 498.07,-174.84 550.12,-164.55"/>
<polygon fill="midnightblue" stroke="midnightblue" points="372.38,-196.1 363.25,-201.48 373.74,-202.97 372.38,-196.1"/>
</g>
<!-- Node6&#45;&gt;Node2 -->
<g id="edge9" class="edge">
<title>Node6&#45;&gt;Node2</title>
<path fill="none" stroke="midnightblue" d="M275.3,-126.45C267.95,-116.9 259.57,-106 253.09,-97.58"/>
<polygon fill="midnightblue" stroke="midnightblue" points="272.54,-128.6 281.41,-134.4 278.09,-124.34 272.54,-128.6"/>
</g>
<!-- Node7&#45;&gt;Node2 -->
<g id="edge11" class="edge">
<title>Node7&#45;&gt;Node2</title>
<path fill="none" stroke="midnightblue" d="M400.11,-131.44C365.42,-120.91 321.44,-107.55 288.72,-97.61"/>
<polygon fill="midnightblue" stroke="midnightblue" points="399.51,-134.92 410.09,-134.48 401.54,-128.22 399.51,-134.92"/>
</g>
<!-- Node9 -->
<g id="node9" class="node">
<title>Node9</title>
<g id="a_node9"><a xlink:href="_radar_8h.html" target="_top" xlink:title="Header for ifxRadar.">
<polygon fill="white" stroke="black" points="460.76,-67.5 460.76,-97.5 607.76,-97.5 607.76,-67.5 460.76,-67.5"/>
<text text-anchor="start" x="468.76" y="-85.5" font-family="Helvetica,sans-Serif" font-size="10.00">/home/build/sdk/c/ifxRadar</text>
<text text-anchor="middle" x="534.26" y="-74.5" font-family="Helvetica,sans-Serif" font-size="10.00">/Radar.h</text>
</a>
</g>
</g>
<!-- Node8&#45;&gt;Node9 -->
<g id="edge13" class="edge">
<title>Node8&#45;&gt;Node9</title>
<path fill="none" stroke="midnightblue" d="M594.05,-128.17C580.75,-118.23 565.07,-106.51 553.1,-97.58"/>
<polygon fill="midnightblue" stroke="midnightblue" points="592.28,-131.21 602.39,-134.4 596.47,-125.61 592.28,-131.21"/>
</g>
<!-- Node9&#45;&gt;Node3 -->
<g id="edge14" class="edge">
<title>Node9&#45;&gt;Node3</title>
<path fill="none" stroke="midnightblue" d="M534.26,-57.11C534.26,-48.15 534.26,-38.32 534.26,-30.58"/>
<polygon fill="midnightblue" stroke="midnightblue" points="530.76,-57.4 534.26,-67.4 537.76,-57.4 530.76,-57.4"/>
</g>
<!-- Node11 -->
<g id="node11" class="node">
<title>Node11</title>
<g id="a_node11"><a xlink:href="_radar_segmentation_8h.html" target="_top" xlink:title="Header for ifxRadarSegmentation.">
<polygon fill="white" stroke="black" points="626.26,-67.5 626.26,-97.5 820.26,-97.5 820.26,-67.5 626.26,-67.5"/>
<text text-anchor="start" x="634.26" y="-85.5" font-family="Helvetica,sans-Serif" font-size="10.00">/home/build/sdk/c/ifxRadar</text>
<text text-anchor="middle" x="723.26" y="-74.5" font-family="Helvetica,sans-Serif" font-size="10.00">Segmentation/RadarSegmentation.h</text>
</a>
</g>
</g>
<!-- Node10&#45;&gt;Node11 -->
<g id="edge17" class="edge">
<title>Node10&#45;&gt;Node11</title>
<path fill="none" stroke="midnightblue" d="M686.77,-193.53C693.11,-185.06 699.74,-175.01 704.26,-165 714.37,-142.62 719.41,-114.27 721.67,-97.59"/>
<polygon fill="midnightblue" stroke="midnightblue" points="684.01,-191.38 680.61,-201.41 689.52,-195.69 684.01,-191.38"/>
</g>
<!-- Node11&#45;&gt;Node3 -->
<g id="edge18" class="edge">
<title>Node11&#45;&gt;Node3</title>
<path fill="none" stroke="midnightblue" d="M672.65,-64.09C642.14,-53.6 603.78,-40.41 575.19,-30.58"/>
<polygon fill="midnightblue" stroke="midnightblue" points="671.66,-67.45 682.25,-67.4 673.94,-60.83 671.66,-67.45"/>
</g>
</g>
</svg>
