<?xml version="1.0" encoding="UTF-8" standalone="no"?>
<!DOCTYPE svg PUBLIC "-//W3C//DTD SVG 1.1//EN"
 "http://www.w3.org/Graphics/SVG/1.1/DTD/svg11.dtd">
<!-- Generated by graphviz version 2.43.0 (0)
 -->
<!-- Title: /home/build/sdk/c/ifxAvian/DeviceControl.h Pages: 1 -->
<svg width="541pt" height="386pt"
 viewBox="0.00 0.00 540.88 386.00" xmlns="http://www.w3.org/2000/svg" xmlns:xlink="http://www.w3.org/1999/xlink">
<g id="graph0" class="graph" transform="scale(1 1) rotate(0) translate(4 382)">
<title>/home/build/sdk/c/ifxAvian/DeviceControl.h</title>
<polygon fill="white" stroke="transparent" points="-4,4 -4,-382 536.88,-382 536.88,4 -4,4"/>
<!-- Node1 -->
<g id="node1" class="node">
<title>Node1</title>
<g id="a_node1"><a xlink:title="API for Radar device control operations.">
<polygon fill="#bfbfbf" stroke="black" points="110.88,-347.5 110.88,-377.5 256.88,-377.5 256.88,-347.5 110.88,-347.5"/>
<text text-anchor="start" x="118.88" y="-365.5" font-family="Helvetica,sans-Serif" font-size="10.00">/home/build/sdk/c/ifxAvian</text>
<text text-anchor="middle" x="183.88" y="-354.5" font-family="Helvetica,sans-Serif" font-size="10.00">/DeviceControl.h</text>
</a>
</g>
</g>
<!-- Node2 -->
<g id="node2" class="node">
<title>Node2</title>
<g id="a_node2"><a xlink:href="_types_8h.html" target="_top" xlink:title="Definitions of data types used within the SDK.">
<polygon fill="white" stroke="black" points="170.38,-56.5 170.38,-75.5 263.38,-75.5 263.38,-56.5 170.38,-56.5"/>
<text text-anchor="middle" x="216.88" y="-63.5" font-family="Helvetica,sans-Serif" font-size="10.00">ifxBase/Types.h</text>
</a>
</g>
</g>
<!-- Node1&#45;&gt;Node2 -->
<g id="edge1" class="edge">
<title>Node1&#45;&gt;Node2</title>
<path fill="none" stroke="midnightblue" d="M110.67,-354.77C78.88,-348.24 43.57,-335.54 19.88,-311 -2.65,-287.65 0.88,-272.95 0.88,-240.5 0.88,-240.5 0.88,-240.5 0.88,-177 0.88,-105.4 96.3,-80.38 160.3,-71.66"/>
<polygon fill="midnightblue" stroke="midnightblue" points="160.8,-75.12 170.28,-70.39 159.92,-68.18 160.8,-75.12"/>
</g>
<!-- Node6 -->
<g id="node6" class="node">
<title>Node6</title>
<g id="a_node6"><a xlink:href="_error_8h.html" target="_top" xlink:title="API for error handling.">
<polygon fill="white" stroke="black" points="28.88,-291.5 28.88,-310.5 116.88,-310.5 116.88,-291.5 28.88,-291.5"/>
<text text-anchor="middle" x="72.88" y="-298.5" font-family="Helvetica,sans-Serif" font-size="10.00">ifxBase/Error.h</text>
</a>
</g>
</g>
<!-- Node1&#45;&gt;Node6 -->
<g id="edge5" class="edge">
<title>Node1&#45;&gt;Node6</title>
<path fill="none" stroke="midnightblue" d="M157.58,-347.4C139.62,-337.77 115.96,-325.09 98.21,-315.58"/>
<polygon fill="midnightblue" stroke="midnightblue" points="99.5,-312.3 89.04,-310.66 96.2,-318.47 99.5,-312.3"/>
</g>
<!-- Node9 -->
<g id="node9" class="node">
<title>Node9</title>
<g id="a_node9"><a xlink:href="_list_8h.html" target="_top" xlink:title=" ">
<polygon fill="white" stroke="black" points="67.38,-112.5 67.38,-131.5 150.38,-131.5 150.38,-112.5 67.38,-112.5"/>
<text text-anchor="middle" x="108.88" y="-119.5" font-family="Helvetica,sans-Serif" font-size="10.00">ifxBase/List.h</text>
</a>
</g>
</g>
<!-- Node1&#45;&gt;Node9 -->
<g id="edge9" class="edge">
<title>Node1&#45;&gt;Node9</title>
<path fill="none" stroke="midnightblue" d="M180,-347.31C171.12,-315.17 148.36,-234.44 125.88,-168 122.87,-159.09 119.22,-149.31 116.07,-141.15"/>
<polygon fill="midnightblue" stroke="midnightblue" points="119.22,-139.6 112.32,-131.56 112.7,-142.15 119.22,-139.6"/>
</g>
<!-- Node10 -->
<g id="node10" class="node">
<title>Node10</title>
<g id="a_node10"><a xlink:href="_cube_8h.html" target="_top" xlink:title="API for operations on Cube data structures.">
<polygon fill="white" stroke="black" points="178.88,-291.5 178.88,-310.5 268.88,-310.5 268.88,-291.5 178.88,-291.5"/>
<text text-anchor="middle" x="223.88" y="-298.5" font-family="Helvetica,sans-Serif" font-size="10.00">ifxBase/Cube.h</text>
</a>
</g>
</g>
<!-- Node1&#45;&gt;Node10 -->
<g id="edge11" class="edge">
<title>Node1&#45;&gt;Node10</title>
<path fill="none" stroke="midnightblue" d="M193.36,-347.4C199.06,-338.93 206.34,-328.1 212.36,-319.14"/>
<polygon fill="midnightblue" stroke="midnightblue" points="215.39,-320.91 218.06,-310.66 209.58,-317 215.39,-320.91"/>
</g>
<!-- Node15 -->
<g id="node15" class="node">
<title>Node15</title>
<g id="a_node15"><a xlink:href="_device_config_8h.html" target="_top" xlink:title="API for Radar device configuration.">
<polygon fill="white" stroke="black" points="302.38,-291.5 302.38,-310.5 435.38,-310.5 435.38,-291.5 302.38,-291.5"/>
<text text-anchor="middle" x="368.88" y="-298.5" font-family="Helvetica,sans-Serif" font-size="10.00">ifxAvian/DeviceConfig.h</text>
</a>
</g>
</g>
<!-- Node1&#45;&gt;Node15 -->
<g id="edge20" class="edge">
<title>Node1&#45;&gt;Node15</title>
<path fill="none" stroke="midnightblue" d="M227.73,-347.4C259.69,-337.12 302.5,-323.35 332.56,-313.68"/>
<polygon fill="midnightblue" stroke="midnightblue" points="333.79,-316.96 342.23,-310.57 331.64,-310.3 333.79,-316.96"/>
</g>
<!-- Node16 -->
<g id="node16" class="node">
<title>Node16</title>
<g id="a_node16"><a xlink:href="_radar_device_common_8h.html" target="_top" xlink:title="Header for ifxRadarDeviceCommon.">
<polygon fill="white" stroke="black" points="396.88,-224.5 396.88,-254.5 532.88,-254.5 532.88,-224.5 396.88,-224.5"/>
<text text-anchor="start" x="404.88" y="-242.5" font-family="Helvetica,sans-Serif" font-size="10.00">ifxRadarDeviceCommon</text>
<text text-anchor="middle" x="464.88" y="-231.5" font-family="Helvetica,sans-Serif" font-size="10.00">/RadarDeviceCommon.h</text>
</a>
</g>
</g>
<!-- Node1&#45;&gt;Node16 -->
<g id="edge24" class="edge">
<title>Node1&#45;&gt;Node16</title>
<path fill="none" stroke="midnightblue" d="M256.9,-355.87C324.31,-349.2 417.94,-335.74 444.88,-311 457.55,-299.37 462.42,-280.36 464.19,-265.01"/>
<polygon fill="midnightblue" stroke="midnightblue" points="467.71,-264.88 465,-254.64 460.73,-264.34 467.71,-264.88"/>
</g>
<!-- Node3 -->
<g id="node3" class="node">
<title>Node3</title>
<g id="a_node3"><a xlink:title=" ">
<polygon fill="white" stroke="#bfbfbf" points="117.38,-0.5 117.38,-19.5 170.38,-19.5 170.38,-0.5 117.38,-0.5"/>
<text text-anchor="middle" x="143.88" y="-7.5" font-family="Helvetica,sans-Serif" font-size="10.00">stdint.h</text>
</a>
</g>
</g>
<!-- Node2&#45;&gt;Node3 -->
<g id="edge2" class="edge">
<title>Node2&#45;&gt;Node3</title>
<path fill="none" stroke="midnightblue" d="M205.16,-56.32C194.05,-48.11 177.14,-35.6 163.9,-25.81"/>
<polygon fill="midnightblue" stroke="midnightblue" points="165.95,-22.97 155.83,-19.83 161.78,-28.59 165.95,-22.97"/>
</g>
<!-- Node4 -->
<g id="node4" class="node">
<title>Node4</title>
<g id="a_node4"><a xlink:title=" ">
<polygon fill="white" stroke="#bfbfbf" points="188.88,-0.5 188.88,-19.5 244.88,-19.5 244.88,-0.5 188.88,-0.5"/>
<text text-anchor="middle" x="216.88" y="-7.5" font-family="Helvetica,sans-Serif" font-size="10.00">stddef.h</text>
</a>
</g>
</g>
<!-- Node2&#45;&gt;Node4 -->
<g id="edge3" class="edge">
<title>Node2&#45;&gt;Node4</title>
<path fill="none" stroke="midnightblue" d="M216.88,-56.08C216.88,-49.01 216.88,-38.86 216.88,-29.99"/>
<polygon fill="midnightblue" stroke="midnightblue" points="220.38,-29.75 216.88,-19.75 213.38,-29.75 220.38,-29.75"/>
</g>
<!-- Node5 -->
<g id="node5" class="node">
<title>Node5</title>
<g id="a_node5"><a xlink:title=" ">
<polygon fill="white" stroke="#bfbfbf" points="262.88,-0.5 262.88,-19.5 324.88,-19.5 324.88,-0.5 262.88,-0.5"/>
<text text-anchor="middle" x="293.88" y="-7.5" font-family="Helvetica,sans-Serif" font-size="10.00">stdbool.h</text>
</a>
</g>
</g>
<!-- Node2&#45;&gt;Node5 -->
<g id="edge4" class="edge">
<title>Node2&#45;&gt;Node5</title>
<path fill="none" stroke="midnightblue" d="M229.26,-56.32C241.04,-48.06 259.02,-35.45 273.02,-25.63"/>
<polygon fill="midnightblue" stroke="midnightblue" points="275.37,-28.26 281.54,-19.65 271.35,-22.53 275.37,-28.26"/>
</g>
<!-- Node7 -->
<g id="node7" class="node">
<title>Node7</title>
<g id="a_node7"><a xlink:href="_log_8h.html" target="_top" xlink:title="API for logging.">
<polygon fill="white" stroke="black" points="31.38,-230 31.38,-249 114.38,-249 114.38,-230 31.38,-230"/>
<text text-anchor="middle" x="72.88" y="-237" font-family="Helvetica,sans-Serif" font-size="10.00">ifxBase/Log.h</text>
</a>
</g>
</g>
<!-- Node6&#45;&gt;Node7 -->
<g id="edge6" class="edge">
<title>Node6&#45;&gt;Node7</title>
<path fill="none" stroke="midnightblue" d="M72.88,-291.48C72.88,-283.08 72.88,-269.98 72.88,-259.16"/>
<polygon fill="midnightblue" stroke="midnightblue" points="76.38,-259.01 72.88,-249.01 69.38,-259.01 76.38,-259.01"/>
</g>
<!-- Node7&#45;&gt;Node2 -->
<g id="edge8" class="edge">
<title>Node7&#45;&gt;Node2</title>
<path fill="none" stroke="midnightblue" d="M68.15,-229.71C56.86,-207.42 31.27,-147.91 58.88,-112 71.43,-95.69 120.01,-83.47 160.04,-75.91"/>
<polygon fill="midnightblue" stroke="midnightblue" points="160.79,-79.33 170,-74.09 159.53,-72.45 160.79,-79.33"/>
</g>
<!-- Node8 -->
<g id="node8" class="node">
<title>Node8</title>
<g id="a_node8"><a xlink:title=" ">
<polygon fill="white" stroke="#bfbfbf" points="66.88,-168.5 66.88,-187.5 116.88,-187.5 116.88,-168.5 66.88,-168.5"/>
<text text-anchor="middle" x="91.88" y="-175.5" font-family="Helvetica,sans-Serif" font-size="10.00">stdio.h</text>
</a>
</g>
</g>
<!-- Node7&#45;&gt;Node8 -->
<g id="edge7" class="edge">
<title>Node7&#45;&gt;Node8</title>
<path fill="none" stroke="midnightblue" d="M75.61,-229.98C78.32,-221.49 82.56,-208.2 86.03,-197.32"/>
<polygon fill="midnightblue" stroke="midnightblue" points="89.46,-198.1 89.17,-187.51 82.79,-195.97 89.46,-198.1"/>
</g>
<!-- Node9&#45;&gt;Node2 -->
<g id="edge10" class="edge">
<title>Node9&#45;&gt;Node2</title>
<path fill="none" stroke="midnightblue" d="M126.24,-112.32C143.56,-103.66 170.4,-90.24 190.39,-80.25"/>
<polygon fill="midnightblue" stroke="midnightblue" points="192.2,-83.26 199.58,-75.65 189.07,-77 192.2,-83.26"/>
</g>
<!-- Node11 -->
<g id="node11" class="node">
<title>Node11</title>
<g id="a_node11"><a xlink:href="_defines_8h.html" target="_top" xlink:title="Internal definitions used by standard math.h functions as Macros, to use float or double precision.">
<polygon fill="white" stroke="black" points="172.88,-230 172.88,-249 274.88,-249 274.88,-230 172.88,-230"/>
<text text-anchor="middle" x="223.88" y="-237" font-family="Helvetica,sans-Serif" font-size="10.00">ifxBase/Defines.h</text>
</a>
</g>
</g>
<!-- Node10&#45;&gt;Node11 -->
<g id="edge12" class="edge">
<title>Node10&#45;&gt;Node11</title>
<path fill="none" stroke="midnightblue" d="M223.88,-291.48C223.88,-283.08 223.88,-269.98 223.88,-259.16"/>
<polygon fill="midnightblue" stroke="midnightblue" points="227.38,-259.01 223.88,-249.01 220.38,-259.01 227.38,-259.01"/>
</g>
<!-- Node14 -->
<g id="node14" class="node">
<title>Node14</title>
<g id="a_node14"><a xlink:href="_matrix_8h.html" target="_top" xlink:title="API for operations on Matrix data structures.">
<polygon fill="white" stroke="black" points="243.38,-168.5 243.38,-187.5 340.38,-187.5 340.38,-168.5 243.38,-168.5"/>
<text text-anchor="middle" x="291.88" y="-175.5" font-family="Helvetica,sans-Serif" font-size="10.00">ifxBase/Matrix.h</text>
</a>
</g>
</g>
<!-- Node10&#45;&gt;Node14 -->
<g id="edge17" class="edge">
<title>Node10&#45;&gt;Node14</title>
<path fill="none" stroke="midnightblue" d="M242.4,-291.37C256.31,-283.85 274.5,-271.53 283.88,-255 293.79,-237.54 294.78,-214.18 293.94,-197.98"/>
<polygon fill="midnightblue" stroke="midnightblue" points="297.39,-197.33 293.1,-187.65 290.42,-197.9 297.39,-197.33"/>
</g>
<!-- Node12 -->
<g id="node12" class="node">
<title>Node12</title>
<g id="a_node12"><a xlink:href="_math_8h.html" target="_top" xlink:title="API for Mathematical operations.">
<polygon fill="white" stroke="black" points="174.38,-168.5 174.38,-187.5 225.38,-187.5 225.38,-168.5 174.38,-168.5"/>
<text text-anchor="middle" x="199.88" y="-175.5" font-family="Helvetica,sans-Serif" font-size="10.00">math.h</text>
</a>
</g>
</g>
<!-- Node11&#45;&gt;Node12 -->
<g id="edge13" class="edge">
<title>Node11&#45;&gt;Node12</title>
<path fill="none" stroke="midnightblue" d="M220.45,-229.98C216.99,-221.4 211.55,-207.93 207.14,-196.98"/>
<polygon fill="midnightblue" stroke="midnightblue" points="210.3,-195.47 203.32,-187.51 203.81,-198.09 210.3,-195.47"/>
</g>
<!-- Node12&#45;&gt;Node2 -->
<g id="edge14" class="edge">
<title>Node12&#45;&gt;Node2</title>
<path fill="none" stroke="midnightblue" d="M198.66,-168.49C197.1,-155.98 195.04,-131.95 198.88,-112 200.67,-102.7 204.37,-92.89 207.94,-84.8"/>
<polygon fill="midnightblue" stroke="midnightblue" points="211.16,-86.2 212.26,-75.66 204.83,-83.21 211.16,-86.2"/>
</g>
<!-- Node13 -->
<g id="node13" class="node">
<title>Node13</title>
<g id="a_node13"><a xlink:href="_vector_8h.html" target="_top" xlink:title="API for operations on Vector data structures.">
<polygon fill="white" stroke="black" points="207.38,-112.5 207.38,-131.5 302.38,-131.5 302.38,-112.5 207.38,-112.5"/>
<text text-anchor="middle" x="254.88" y="-119.5" font-family="Helvetica,sans-Serif" font-size="10.00">ifxBase/Vector.h</text>
</a>
</g>
</g>
<!-- Node12&#45;&gt;Node13 -->
<g id="edge15" class="edge">
<title>Node12&#45;&gt;Node13</title>
<path fill="none" stroke="midnightblue" d="M208.97,-168.08C217.06,-160.14 229.08,-148.34 238.79,-138.8"/>
<polygon fill="midnightblue" stroke="midnightblue" points="241.29,-141.25 245.97,-131.75 236.38,-136.26 241.29,-141.25"/>
</g>
<!-- Node13&#45;&gt;Node2 -->
<g id="edge16" class="edge">
<title>Node13&#45;&gt;Node2</title>
<path fill="none" stroke="midnightblue" d="M248.61,-112.08C243.24,-104.46 235.37,-93.26 228.81,-83.94"/>
<polygon fill="midnightblue" stroke="midnightblue" points="231.66,-81.91 223.04,-75.75 225.93,-85.94 231.66,-81.91"/>
</g>
<!-- Node14&#45;&gt;Node2 -->
<g id="edge18" class="edge">
<title>Node14&#45;&gt;Node2</title>
<path fill="none" stroke="midnightblue" d="M298.81,-168.4C308.42,-155.35 323.37,-130.16 311.88,-112 301.84,-96.13 284.51,-85.74 267.38,-79"/>
<polygon fill="midnightblue" stroke="midnightblue" points="268.53,-75.69 257.94,-75.62 266.17,-82.28 268.53,-75.69"/>
</g>
<!-- Node14&#45;&gt;Node13 -->
<g id="edge19" class="edge">
<title>Node14&#45;&gt;Node13</title>
<path fill="none" stroke="midnightblue" d="M285.77,-168.08C280.6,-160.53 273.04,-149.49 266.69,-140.23"/>
<polygon fill="midnightblue" stroke="midnightblue" points="269.42,-138.02 260.88,-131.75 263.65,-141.98 269.42,-138.02"/>
</g>
<!-- Node15&#45;&gt;Node2 -->
<g id="edge21" class="edge">
<title>Node15&#45;&gt;Node2</title>
<path fill="none" stroke="midnightblue" d="M369.91,-291.42C372.93,-261.87 378.63,-163.3 327.88,-112 311.91,-95.86 289.37,-85.3 268.77,-78.5"/>
<polygon fill="midnightblue" stroke="midnightblue" points="269.75,-75.13 259.16,-75.54 267.69,-81.83 269.75,-75.13"/>
</g>
<!-- Node15&#45;&gt;Node16 -->
<g id="edge22" class="edge">
<title>Node15&#45;&gt;Node16</title>
<path fill="none" stroke="midnightblue" d="M382.64,-291.48C395.88,-283.27 416.39,-270.56 433.61,-259.88"/>
<polygon fill="midnightblue" stroke="midnightblue" points="435.6,-262.77 442.26,-254.52 431.92,-256.82 435.6,-262.77"/>
</g>
<!-- Node16&#45;&gt;Node2 -->
<g id="edge23" class="edge">
<title>Node16&#45;&gt;Node2</title>
<path fill="none" stroke="midnightblue" d="M459.68,-224.29C449.31,-197.96 423.48,-141.61 382.88,-112 351.18,-88.88 308.29,-77.64 274.04,-72.17"/>
<polygon fill="midnightblue" stroke="midnightblue" points="274.12,-68.64 263.72,-70.65 273.1,-75.57 274.12,-68.64"/>
</g>
</g>
</svg>
