<?xml version="1.0" encoding="UTF-8" standalone="no"?>
<!DOCTYPE svg PUBLIC "-//W3C//DTD SVG 1.1//EN"
 "http://www.w3.org/Graphics/SVG/1.1/DTD/svg11.dtd">
<!-- Generated by graphviz version 2.43.0 (0)
 -->
<!-- Title: /home/build/sdk/c/ifxAvian/DeviceControl.h Pages: 1 -->
<svg width="667pt" height="240pt"
 viewBox="0.00 0.00 667.50 240.00" xmlns="http://www.w3.org/2000/svg" xmlns:xlink="http://www.w3.org/1999/xlink">
<g id="graph0" class="graph" transform="scale(1 1) rotate(0) translate(4 236)">
<title>/home/build/sdk/c/ifxAvian/DeviceControl.h</title>
<polygon fill="white" stroke="transparent" points="-4,4 -4,-236 663.5,-236 663.5,4 -4,4"/>
<!-- Node1 -->
<g id="node1" class="node">
<title>Node1</title>
<g id="a_node1"><a xlink:title="API for Radar device control operations.">
<polygon fill="#bfbfbf" stroke="black" points="184,-201.5 184,-231.5 330,-231.5 330,-201.5 184,-201.5"/>
<text text-anchor="start" x="192" y="-219.5" font-family="Helvetica,sans-Serif" font-size="10.00">/home/build/sdk/c/ifxAvian</text>
<text text-anchor="middle" x="257" y="-208.5" font-family="Helvetica,sans-Serif" font-size="10.00">/DeviceControl.h</text>
</a>
</g>
</g>
<!-- Node2 -->
<g id="node2" class="node">
<title>Node2</title>
<g id="a_node2"><a xlink:href="_avian_8h.html" target="_top" xlink:title=" ">
<polygon fill="white" stroke="black" points="184,-67.5 184,-97.5 330,-97.5 330,-67.5 184,-67.5"/>
<text text-anchor="start" x="192" y="-85.5" font-family="Helvetica,sans-Serif" font-size="10.00">/home/build/sdk/c/ifxAvian</text>
<text text-anchor="middle" x="257" y="-74.5" font-family="Helvetica,sans-Serif" font-size="10.00">/Avian.h</text>
</a>
</g>
</g>
<!-- Node1&#45;&gt;Node2 -->
<g id="edge1" class="edge">
<title>Node1&#45;&gt;Node2</title>
<path fill="none" stroke="midnightblue" d="M173.88,-209.51C110.76,-203.03 31.43,-190.06 11,-165 -38.76,-103.98 94.46,-88.3 183.75,-84.49"/>
<polygon fill="midnightblue" stroke="midnightblue" points="173.57,-213 183.86,-210.5 174.26,-206.03 173.57,-213"/>
</g>
<!-- Node4 -->
<g id="node4" class="node">
<title>Node4</title>
<g id="a_node4"><a xlink:href="_constant_wave_control_8h.html" target="_top" xlink:title="Header for Constant Wave Control. It provides APIs to use an Avian device in constant wave mode....">
<polygon fill="white" stroke="black" points="20,-134.5 20,-164.5 166,-164.5 166,-134.5 20,-134.5"/>
<text text-anchor="start" x="28" y="-152.5" font-family="Helvetica,sans-Serif" font-size="10.00">/home/build/sdk/c/ifxAvian</text>
<text text-anchor="middle" x="93" y="-141.5" font-family="Helvetica,sans-Serif" font-size="10.00">/ConstantWaveControl.h</text>
</a>
</g>
</g>
<!-- Node1&#45;&gt;Node4 -->
<g id="edge3" class="edge">
<title>Node1&#45;&gt;Node4</title>
<path fill="none" stroke="midnightblue" d="M212.04,-197.68C185.74,-187.26 153,-174.28 128.51,-164.58"/>
<polygon fill="midnightblue" stroke="midnightblue" points="210.83,-200.97 221.41,-201.4 213.41,-194.46 210.83,-200.97"/>
</g>
<!-- Node5 -->
<g id="node5" class="node">
<title>Node5</title>
<g id="a_node5"><a xlink:href="_metrics_8h.html" target="_top" xlink:title="API for Metrics.">
<polygon fill="white" stroke="black" points="184,-134.5 184,-164.5 330,-164.5 330,-134.5 184,-134.5"/>
<text text-anchor="start" x="192" y="-152.5" font-family="Helvetica,sans-Serif" font-size="10.00">/home/build/sdk/c/ifxAvian</text>
<text text-anchor="middle" x="257" y="-141.5" font-family="Helvetica,sans-Serif" font-size="10.00">/Metrics.h</text>
</a>
</g>
</g>
<!-- Node1&#45;&gt;Node5 -->
<g id="edge5" class="edge">
<title>Node1&#45;&gt;Node5</title>
<path fill="none" stroke="midnightblue" d="M257,-191.11C257,-182.15 257,-172.32 257,-164.58"/>
<polygon fill="midnightblue" stroke="midnightblue" points="253.5,-191.4 257,-201.4 260.5,-191.4 253.5,-191.4"/>
</g>
<!-- Node6 -->
<g id="node6" class="node">
<title>Node6</title>
<g id="a_node6"><a xlink:href="_shapes_8h.html" target="_top" xlink:title=" ">
<polygon fill="white" stroke="black" points="348,-134.5 348,-164.5 494,-164.5 494,-134.5 348,-134.5"/>
<text text-anchor="start" x="356" y="-152.5" font-family="Helvetica,sans-Serif" font-size="10.00">/home/build/sdk/c/ifxAvian</text>
<text text-anchor="middle" x="421" y="-141.5" font-family="Helvetica,sans-Serif" font-size="10.00">/Shapes.h</text>
</a>
</g>
</g>
<!-- Node1&#45;&gt;Node6 -->
<g id="edge7" class="edge">
<title>Node1&#45;&gt;Node6</title>
<path fill="none" stroke="midnightblue" d="M301.96,-197.68C328.26,-187.26 361,-174.28 385.48,-164.58"/>
<polygon fill="midnightblue" stroke="midnightblue" points="300.59,-194.46 292.58,-201.4 303.17,-200.97 300.59,-194.46"/>
</g>
<!-- Node7 -->
<g id="node7" class="node">
<title>Node7</title>
<g id="a_node7"><a xlink:href="_presence_sensing_8h.html" target="_top" xlink:title="API for Presence Sensing algorithm.">
<polygon fill="white" stroke="black" points="512.5,-134.5 512.5,-164.5 659.5,-164.5 659.5,-134.5 512.5,-134.5"/>
<text text-anchor="start" x="520.5" y="-152.5" font-family="Helvetica,sans-Serif" font-size="10.00">/home/build/sdk/c/ifxRadar</text>
<text text-anchor="middle" x="586" y="-141.5" font-family="Helvetica,sans-Serif" font-size="10.00">/PresenceSensing.h</text>
</a>
</g>
</g>
<!-- Node1&#45;&gt;Node7 -->
<g id="edge9" class="edge">
<title>Node1&#45;&gt;Node7</title>
<path fill="none" stroke="midnightblue" d="M337.9,-199.52C392.11,-188.81 462.81,-174.84 514.86,-164.55"/>
<polygon fill="midnightblue" stroke="midnightblue" points="337.11,-196.1 327.98,-201.48 338.47,-202.97 337.11,-196.1"/>
</g>
<!-- Node3 -->
<g id="node3" class="node">
<title>Node3</title>
<g id="a_node3"><a xlink:href="_s_d_k_8h.html" target="_top" xlink:title="Master header file for Radar SDK.">
<polygon fill="white" stroke="black" points="265.5,-0.5 265.5,-30.5 412.5,-30.5 412.5,-0.5 265.5,-0.5"/>
<text text-anchor="start" x="273.5" y="-18.5" font-family="Helvetica,sans-Serif" font-size="10.00">/home/build/sdk/c/ifxRadar</text>
<text text-anchor="middle" x="339" y="-7.5" font-family="Helvetica,sans-Serif" font-size="10.00">/SDK.h</text>
</a>
</g>
</g>
<!-- Node2&#45;&gt;Node3 -->
<g id="edge2" class="edge">
<title>Node2&#45;&gt;Node3</title>
<path fill="none" stroke="midnightblue" d="M282.65,-61.17C295.19,-51.23 309.97,-39.51 321.24,-30.58"/>
<polygon fill="midnightblue" stroke="midnightblue" points="280.45,-58.44 274.79,-67.4 284.8,-63.93 280.45,-58.44"/>
</g>
<!-- Node4&#45;&gt;Node2 -->
<g id="edge4" class="edge">
<title>Node4&#45;&gt;Node2</title>
<path fill="none" stroke="midnightblue" d="M137.96,-130.68C164.26,-120.26 197,-107.28 221.48,-97.58"/>
<polygon fill="midnightblue" stroke="midnightblue" points="136.59,-127.46 128.58,-134.4 139.17,-133.97 136.59,-127.46"/>
</g>
<!-- Node5&#45;&gt;Node2 -->
<g id="edge6" class="edge">
<title>Node5&#45;&gt;Node2</title>
<path fill="none" stroke="midnightblue" d="M257,-124.11C257,-115.15 257,-105.32 257,-97.58"/>
<polygon fill="midnightblue" stroke="midnightblue" points="253.5,-124.4 257,-134.4 260.5,-124.4 253.5,-124.4"/>
</g>
<!-- Node6&#45;&gt;Node2 -->
<g id="edge8" class="edge">
<title>Node6&#45;&gt;Node2</title>
<path fill="none" stroke="midnightblue" d="M376.04,-130.68C349.74,-120.26 317,-107.28 292.51,-97.58"/>
<polygon fill="midnightblue" stroke="midnightblue" points="374.83,-133.97 385.41,-134.4 377.41,-127.46 374.83,-133.97"/>
</g>
<!-- Node8 -->
<g id="node8" class="node">
<title>Node8</title>
<g id="a_node8"><a xlink:href="_radar_8h.html" target="_top" xlink:title="Header for ifxRadar.">
<polygon fill="white" stroke="black" points="430.5,-67.5 430.5,-97.5 577.5,-97.5 577.5,-67.5 430.5,-67.5"/>
<text text-anchor="start" x="438.5" y="-85.5" font-family="Helvetica,sans-Serif" font-size="10.00">/home/build/sdk/c/ifxRadar</text>
<text text-anchor="middle" x="504" y="-74.5" font-family="Helvetica,sans-Serif" font-size="10.00">/Radar.h</text>
</a>
</g>
</g>
<!-- Node7&#45;&gt;Node8 -->
<g id="edge10" class="edge">
<title>Node7&#45;&gt;Node8</title>
<path fill="none" stroke="midnightblue" d="M560.35,-128.17C547.81,-118.23 533.03,-106.51 521.76,-97.58"/>
<polygon fill="midnightblue" stroke="midnightblue" points="558.2,-130.93 568.21,-134.4 562.54,-125.44 558.2,-130.93"/>
</g>
<!-- Node8&#45;&gt;Node3 -->
<g id="edge11" class="edge">
<title>Node8&#45;&gt;Node3</title>
<path fill="none" stroke="midnightblue" d="M458.77,-63.68C432.3,-53.26 399.36,-40.28 374.73,-30.58"/>
<polygon fill="midnightblue" stroke="midnightblue" points="457.61,-66.99 468.2,-67.4 460.18,-60.47 457.61,-66.99"/>
</g>
</g>
</svg>
