<?xml version="1.0" encoding="UTF-8" standalone="no"?>
<!DOCTYPE svg PUBLIC "-//W3C//DTD SVG 1.1//EN"
 "http://www.w3.org/Graphics/SVG/1.1/DTD/svg11.dtd">
<!-- Generated by graphviz version 2.43.0 (0)
 -->
<!-- Title: /home/build/sdk/c/ifxBase/List.h Pages: 1 -->
<svg width="693pt" height="307pt"
 viewBox="0.00 0.00 693.23 307.00" xmlns="http://www.w3.org/2000/svg" xmlns:xlink="http://www.w3.org/1999/xlink">
<g id="graph0" class="graph" transform="scale(1 1) rotate(0) translate(4 303)">
<title>/home/build/sdk/c/ifxBase/List.h</title>
<polygon fill="white" stroke="transparent" points="-4,4 -4,-303 689.23,-303 689.23,4 -4,4"/>
<!-- Node1 -->
<g id="node1" class="node">
<title>Node1</title>
<g id="a_node1"><a xlink:title=" ">
<polygon fill="#bfbfbf" stroke="black" points="349.04,-268.5 349.04,-298.5 492.04,-298.5 492.04,-268.5 349.04,-268.5"/>
<text text-anchor="start" x="357.04" y="-286.5" font-family="Helvetica,sans-Serif" font-size="10.00">/home/build/sdk/c/ifxBase</text>
<text text-anchor="middle" x="420.54" y="-275.5" font-family="Helvetica,sans-Serif" font-size="10.00">/List.h</text>
</a>
</g>
</g>
<!-- Node2 -->
<g id="node2" class="node">
<title>Node2</title>
<g id="a_node2"><a xlink:href="_device_control_8h.html" target="_top" xlink:title="API for Radar device control operations.">
<polygon fill="white" stroke="black" points="266.54,-201.5 266.54,-231.5 412.54,-231.5 412.54,-201.5 266.54,-201.5"/>
<text text-anchor="start" x="274.54" y="-219.5" font-family="Helvetica,sans-Serif" font-size="10.00">/home/build/sdk/c/ifxAvian</text>
<text text-anchor="middle" x="339.54" y="-208.5" font-family="Helvetica,sans-Serif" font-size="10.00">/DeviceControl.h</text>
</a>
</g>
</g>
<!-- Node1&#45;&gt;Node2 -->
<g id="edge1" class="edge">
<title>Node1&#45;&gt;Node2</title>
<path fill="none" stroke="midnightblue" d="M394.84,-261.88C382.53,-252.01 368.11,-240.43 357.08,-231.58"/>
<polygon fill="midnightblue" stroke="midnightblue" points="392.97,-264.87 402.96,-268.4 397.35,-259.41 392.97,-264.87"/>
</g>
<!-- Node10 -->
<g id="node10" class="node">
<title>Node10</title>
<g id="a_node10"><a xlink:href="_base_8h.html" target="_top" xlink:title="Header for ifxAvian.">
<polygon fill="white" stroke="black" points="524.04,-201.5 524.04,-231.5 667.04,-231.5 667.04,-201.5 524.04,-201.5"/>
<text text-anchor="start" x="532.04" y="-219.5" font-family="Helvetica,sans-Serif" font-size="10.00">/home/build/sdk/c/ifxBase</text>
<text text-anchor="middle" x="595.54" y="-208.5" font-family="Helvetica,sans-Serif" font-size="10.00">/Base.h</text>
</a>
</g>
</g>
<!-- Node1&#45;&gt;Node10 -->
<g id="edge13" class="edge">
<title>Node1&#45;&gt;Node10</title>
<path fill="none" stroke="midnightblue" d="M468.14,-264.82C496.27,-254.37 531.4,-241.32 557.64,-231.58"/>
<polygon fill="midnightblue" stroke="midnightblue" points="466.66,-261.63 458.51,-268.4 469.1,-268.2 466.66,-261.63"/>
</g>
<!-- Node3 -->
<g id="node3" class="node">
<title>Node3</title>
<g id="a_node3"><a xlink:href="_avian_8h.html" target="_top" xlink:title=" ">
<polygon fill="white" stroke="black" points="184.54,-67.5 184.54,-97.5 330.54,-97.5 330.54,-67.5 184.54,-67.5"/>
<text text-anchor="start" x="192.54" y="-85.5" font-family="Helvetica,sans-Serif" font-size="10.00">/home/build/sdk/c/ifxAvian</text>
<text text-anchor="middle" x="257.54" y="-74.5" font-family="Helvetica,sans-Serif" font-size="10.00">/Avian.h</text>
</a>
</g>
</g>
<!-- Node2&#45;&gt;Node3 -->
<g id="edge2" class="edge">
<title>Node2&#45;&gt;Node3</title>
<path fill="none" stroke="midnightblue" d="M256.35,-214.57C169.75,-211.62 42.48,-201.07 11.54,-165 -39.8,-105.15 94.43,-89.05 184.22,-84.85"/>
<polygon fill="midnightblue" stroke="midnightblue" points="256.33,-218.07 266.43,-214.88 256.55,-211.07 256.33,-218.07"/>
</g>
<!-- Node5 -->
<g id="node5" class="node">
<title>Node5</title>
<g id="a_node5"><a xlink:href="_constant_wave_control_8h.html" target="_top" xlink:title="Header for Constant Wave Control. It provides APIs to use an Avian device in constant wave mode....">
<polygon fill="white" stroke="black" points="20.54,-134.5 20.54,-164.5 166.54,-164.5 166.54,-134.5 20.54,-134.5"/>
<text text-anchor="start" x="28.54" y="-152.5" font-family="Helvetica,sans-Serif" font-size="10.00">/home/build/sdk/c/ifxAvian</text>
<text text-anchor="middle" x="93.54" y="-141.5" font-family="Helvetica,sans-Serif" font-size="10.00">/ConstantWaveControl.h</text>
</a>
</g>
</g>
<!-- Node2&#45;&gt;Node5 -->
<g id="edge4" class="edge">
<title>Node2&#45;&gt;Node5</title>
<path fill="none" stroke="midnightblue" d="M276.78,-198.92C236.63,-188.31 185.12,-174.7 146.94,-164.61"/>
<polygon fill="midnightblue" stroke="midnightblue" points="275.9,-202.31 286.46,-201.48 277.69,-195.54 275.9,-202.31"/>
</g>
<!-- Node6 -->
<g id="node6" class="node">
<title>Node6</title>
<g id="a_node6"><a xlink:href="_metrics_8h.html" target="_top" xlink:title="API for Metrics.">
<polygon fill="white" stroke="black" points="184.54,-134.5 184.54,-164.5 330.54,-164.5 330.54,-134.5 184.54,-134.5"/>
<text text-anchor="start" x="192.54" y="-152.5" font-family="Helvetica,sans-Serif" font-size="10.00">/home/build/sdk/c/ifxAvian</text>
<text text-anchor="middle" x="257.54" y="-141.5" font-family="Helvetica,sans-Serif" font-size="10.00">/Metrics.h</text>
</a>
</g>
</g>
<!-- Node2&#45;&gt;Node6 -->
<g id="edge6" class="edge">
<title>Node2&#45;&gt;Node6</title>
<path fill="none" stroke="midnightblue" d="M313.89,-195.17C301.35,-185.23 286.57,-173.51 275.29,-164.58"/>
<polygon fill="midnightblue" stroke="midnightblue" points="311.73,-197.93 321.74,-201.4 316.08,-192.44 311.73,-197.93"/>
</g>
<!-- Node7 -->
<g id="node7" class="node">
<title>Node7</title>
<g id="a_node7"><a xlink:href="_shapes_8h.html" target="_top" xlink:title=" ">
<polygon fill="white" stroke="black" points="348.54,-134.5 348.54,-164.5 494.54,-164.5 494.54,-134.5 348.54,-134.5"/>
<text text-anchor="start" x="356.54" y="-152.5" font-family="Helvetica,sans-Serif" font-size="10.00">/home/build/sdk/c/ifxAvian</text>
<text text-anchor="middle" x="421.54" y="-141.5" font-family="Helvetica,sans-Serif" font-size="10.00">/Shapes.h</text>
</a>
</g>
</g>
<!-- Node2&#45;&gt;Node7 -->
<g id="edge8" class="edge">
<title>Node2&#45;&gt;Node7</title>
<path fill="none" stroke="midnightblue" d="M365.19,-195.17C377.72,-185.23 392.5,-173.51 403.78,-164.58"/>
<polygon fill="midnightblue" stroke="midnightblue" points="362.99,-192.44 357.33,-201.4 367.34,-197.93 362.99,-192.44"/>
</g>
<!-- Node8 -->
<g id="node8" class="node">
<title>Node8</title>
<g id="a_node8"><a xlink:href="_presence_sensing_8h.html" target="_top" xlink:title="API for Presence Sensing algorithm.">
<polygon fill="white" stroke="black" points="513.04,-134.5 513.04,-164.5 660.04,-164.5 660.04,-134.5 513.04,-134.5"/>
<text text-anchor="start" x="521.04" y="-152.5" font-family="Helvetica,sans-Serif" font-size="10.00">/home/build/sdk/c/ifxRadar</text>
<text text-anchor="middle" x="586.54" y="-141.5" font-family="Helvetica,sans-Serif" font-size="10.00">/PresenceSensing.h</text>
</a>
</g>
</g>
<!-- Node2&#45;&gt;Node8 -->
<g id="edge10" class="edge">
<title>Node2&#45;&gt;Node8</title>
<path fill="none" stroke="midnightblue" d="M402.55,-198.92C442.86,-188.31 494.58,-174.7 532.91,-164.61"/>
<polygon fill="midnightblue" stroke="midnightblue" points="401.61,-195.55 392.83,-201.48 403.39,-202.32 401.61,-195.55"/>
</g>
<!-- Node4 -->
<g id="node4" class="node">
<title>Node4</title>
<g id="a_node4"><a xlink:href="_s_d_k_8h.html" target="_top" xlink:title="Master header file for Radar SDK.">
<polygon fill="white" stroke="black" points="513.04,-0.5 513.04,-30.5 660.04,-30.5 660.04,-0.5 513.04,-0.5"/>
<text text-anchor="start" x="521.04" y="-18.5" font-family="Helvetica,sans-Serif" font-size="10.00">/home/build/sdk/c/ifxRadar</text>
<text text-anchor="middle" x="586.54" y="-7.5" font-family="Helvetica,sans-Serif" font-size="10.00">/SDK.h</text>
</a>
</g>
</g>
<!-- Node3&#45;&gt;Node4 -->
<g id="edge3" class="edge">
<title>Node3&#45;&gt;Node4</title>
<path fill="none" stroke="midnightblue" d="M338.44,-65.52C392.64,-54.81 463.34,-40.84 515.4,-30.55"/>
<polygon fill="midnightblue" stroke="midnightblue" points="337.65,-62.1 328.52,-67.48 339.01,-68.97 337.65,-62.1"/>
</g>
<!-- Node5&#45;&gt;Node3 -->
<g id="edge5" class="edge">
<title>Node5&#45;&gt;Node3</title>
<path fill="none" stroke="midnightblue" d="M138.49,-130.68C164.8,-120.26 197.54,-107.28 222.02,-97.58"/>
<polygon fill="midnightblue" stroke="midnightblue" points="137.13,-127.46 129.12,-134.4 139.71,-133.97 137.13,-127.46"/>
</g>
<!-- Node6&#45;&gt;Node3 -->
<g id="edge7" class="edge">
<title>Node6&#45;&gt;Node3</title>
<path fill="none" stroke="midnightblue" d="M257.54,-124.11C257.54,-115.15 257.54,-105.32 257.54,-97.58"/>
<polygon fill="midnightblue" stroke="midnightblue" points="254.04,-124.4 257.54,-134.4 261.04,-124.4 254.04,-124.4"/>
</g>
<!-- Node7&#45;&gt;Node3 -->
<g id="edge9" class="edge">
<title>Node7&#45;&gt;Node3</title>
<path fill="none" stroke="midnightblue" d="M376.58,-130.68C350.28,-120.26 317.54,-107.28 293.05,-97.58"/>
<polygon fill="midnightblue" stroke="midnightblue" points="375.36,-133.97 385.95,-134.4 377.94,-127.46 375.36,-133.97"/>
</g>
<!-- Node9 -->
<g id="node9" class="node">
<title>Node9</title>
<g id="a_node9"><a xlink:href="_radar_8h.html" target="_top" xlink:title="Header for ifxRadar.">
<polygon fill="white" stroke="black" points="513.04,-67.5 513.04,-97.5 660.04,-97.5 660.04,-67.5 513.04,-67.5"/>
<text text-anchor="start" x="521.04" y="-85.5" font-family="Helvetica,sans-Serif" font-size="10.00">/home/build/sdk/c/ifxRadar</text>
<text text-anchor="middle" x="586.54" y="-74.5" font-family="Helvetica,sans-Serif" font-size="10.00">/Radar.h</text>
</a>
</g>
</g>
<!-- Node8&#45;&gt;Node9 -->
<g id="edge11" class="edge">
<title>Node8&#45;&gt;Node9</title>
<path fill="none" stroke="midnightblue" d="M586.54,-124.11C586.54,-115.15 586.54,-105.32 586.54,-97.58"/>
<polygon fill="midnightblue" stroke="midnightblue" points="583.04,-124.4 586.54,-134.4 590.04,-124.4 583.04,-124.4"/>
</g>
<!-- Node9&#45;&gt;Node4 -->
<g id="edge12" class="edge">
<title>Node9&#45;&gt;Node4</title>
<path fill="none" stroke="midnightblue" d="M586.54,-57.11C586.54,-48.15 586.54,-38.32 586.54,-30.58"/>
<polygon fill="midnightblue" stroke="midnightblue" points="583.04,-57.4 586.54,-67.4 590.04,-57.4 583.04,-57.4"/>
</g>
<!-- Node10&#45;&gt;Node4 -->
<g id="edge14" class="edge">
<title>Node10&#45;&gt;Node4</title>
<path fill="none" stroke="midnightblue" d="M638.36,-196.19C650.68,-188.38 662.64,-178.06 669.54,-165 689.88,-126.49 690.88,-104.97 669.54,-67 660.2,-50.38 642.93,-38.6 626.55,-30.62"/>
<polygon fill="midnightblue" stroke="midnightblue" points="636.25,-193.37 629.39,-201.44 639.79,-199.41 636.25,-193.37"/>
</g>
</g>
</svg>
