<?xml version="1.0" encoding="UTF-8" standalone="no"?>
<!DOCTYPE svg PUBLIC "-//W3C//DTD SVG 1.1//EN"
 "http://www.w3.org/Graphics/SVG/1.1/DTD/svg11.dtd">
<!-- Generated by graphviz version 2.43.0 (0)
 -->
<!-- Title: /home/build/sdk/c/ifxBase/Log.h Pages: 1 -->
<svg width="233pt" height="151pt"
 viewBox="0.00 0.00 232.50 151.00" xmlns="http://www.w3.org/2000/svg" xmlns:xlink="http://www.w3.org/1999/xlink">
<g id="graph0" class="graph" transform="scale(1 1) rotate(0) translate(4 147)">
<title>/home/build/sdk/c/ifxBase/Log.h</title>
<polygon fill="white" stroke="transparent" points="-4,4 -4,-147 228.5,-147 228.5,4 -4,4"/>
<!-- Node1 -->
<g id="node1" class="node">
<title>Node1</title>
<g id="a_node1"><a xlink:title="API for logging.">
<polygon fill="#bfbfbf" stroke="black" points="0,-112.5 0,-142.5 143,-142.5 143,-112.5 0,-112.5"/>
<text text-anchor="start" x="8" y="-130.5" font-family="Helvetica,sans-Serif" font-size="10.00">/home/build/sdk/c/ifxBase</text>
<text text-anchor="middle" x="71.5" y="-119.5" font-family="Helvetica,sans-Serif" font-size="10.00">/Log.h</text>
</a>
</g>
</g>
<!-- Node2 -->
<g id="node2" class="node">
<title>Node2</title>
<g id="a_node2"><a xlink:title=" ">
<polygon fill="white" stroke="#bfbfbf" points="1.5,-56.5 1.5,-75.5 51.5,-75.5 51.5,-56.5 1.5,-56.5"/>
<text text-anchor="middle" x="26.5" y="-63.5" font-family="Helvetica,sans-Serif" font-size="10.00">stdio.h</text>
</a>
</g>
</g>
<!-- Node1&#45;&gt;Node2 -->
<g id="edge1" class="edge">
<title>Node1&#45;&gt;Node2</title>
<path fill="none" stroke="midnightblue" d="M60.84,-112.4C54.36,-103.84 46.07,-92.87 39.25,-83.86"/>
<polygon fill="midnightblue" stroke="midnightblue" points="41.87,-81.52 33.05,-75.66 36.29,-85.74 41.87,-81.52"/>
</g>
<!-- Node3 -->
<g id="node3" class="node">
<title>Node3</title>
<g id="a_node3"><a xlink:href="_types_8h.html" target="_top" xlink:title="Definitions of data types used within the SDK.">
<polygon fill="white" stroke="black" points="70,-56.5 70,-75.5 163,-75.5 163,-56.5 70,-56.5"/>
<text text-anchor="middle" x="116.5" y="-63.5" font-family="Helvetica,sans-Serif" font-size="10.00">ifxBase/Types.h</text>
</a>
</g>
</g>
<!-- Node1&#45;&gt;Node3 -->
<g id="edge2" class="edge">
<title>Node1&#45;&gt;Node3</title>
<path fill="none" stroke="midnightblue" d="M82.16,-112.4C88.64,-103.84 96.93,-92.87 103.75,-83.86"/>
<polygon fill="midnightblue" stroke="midnightblue" points="106.71,-85.74 109.95,-75.66 101.13,-81.52 106.71,-85.74"/>
</g>
<!-- Node4 -->
<g id="node4" class="node">
<title>Node4</title>
<g id="a_node4"><a xlink:title=" ">
<polygon fill="white" stroke="#bfbfbf" points="17,-0.5 17,-19.5 70,-19.5 70,-0.5 17,-0.5"/>
<text text-anchor="middle" x="43.5" y="-7.5" font-family="Helvetica,sans-Serif" font-size="10.00">stdint.h</text>
</a>
</g>
</g>
<!-- Node3&#45;&gt;Node4 -->
<g id="edge3" class="edge">
<title>Node3&#45;&gt;Node4</title>
<path fill="none" stroke="midnightblue" d="M104.77,-56.32C93.66,-48.11 76.76,-35.6 63.52,-25.81"/>
<polygon fill="midnightblue" stroke="midnightblue" points="65.56,-22.97 55.44,-19.83 61.4,-28.59 65.56,-22.97"/>
</g>
<!-- Node5 -->
<g id="node5" class="node">
<title>Node5</title>
<g id="a_node5"><a xlink:title=" ">
<polygon fill="white" stroke="#bfbfbf" points="88.5,-0.5 88.5,-19.5 144.5,-19.5 144.5,-0.5 88.5,-0.5"/>
<text text-anchor="middle" x="116.5" y="-7.5" font-family="Helvetica,sans-Serif" font-size="10.00">stddef.h</text>
</a>
</g>
</g>
<!-- Node3&#45;&gt;Node5 -->
<g id="edge4" class="edge">
<title>Node3&#45;&gt;Node5</title>
<path fill="none" stroke="midnightblue" d="M116.5,-56.08C116.5,-49.01 116.5,-38.86 116.5,-29.99"/>
<polygon fill="midnightblue" stroke="midnightblue" points="120,-29.75 116.5,-19.75 113,-29.75 120,-29.75"/>
</g>
<!-- Node6 -->
<g id="node6" class="node">
<title>Node6</title>
<g id="a_node6"><a xlink:title=" ">
<polygon fill="white" stroke="#bfbfbf" points="162.5,-0.5 162.5,-19.5 224.5,-19.5 224.5,-0.5 162.5,-0.5"/>
<text text-anchor="middle" x="193.5" y="-7.5" font-family="Helvetica,sans-Serif" font-size="10.00">stdbool.h</text>
</a>
</g>
</g>
<!-- Node3&#45;&gt;Node6 -->
<g id="edge5" class="edge">
<title>Node3&#45;&gt;Node6</title>
<path fill="none" stroke="midnightblue" d="M128.87,-56.32C140.66,-48.06 158.63,-35.45 172.64,-25.63"/>
<polygon fill="midnightblue" stroke="midnightblue" points="174.98,-28.26 181.16,-19.65 170.96,-22.53 174.98,-28.26"/>
</g>
</g>
</svg>
