<?xml version="1.0" encoding="UTF-8" standalone="no"?>
<!DOCTYPE svg PUBLIC "-//W3C//DTD SVG 1.1//EN"
 "http://www.w3.org/Graphics/SVG/1.1/DTD/svg11.dtd">
<!-- Generated by graphviz version 2.43.0 (0)
 -->
<!-- Title: /home/build/sdk/c/ifxBase/Log.h Pages: 1 -->
<svg width="715pt" height="374pt"
 viewBox="0.00 0.00 715.00 374.00" xmlns="http://www.w3.org/2000/svg" xmlns:xlink="http://www.w3.org/1999/xlink">
<g id="graph0" class="graph" transform="scale(1 1) rotate(0) translate(4 370)">
<title>/home/build/sdk/c/ifxBase/Log.h</title>
<polygon fill="white" stroke="transparent" points="-4,4 -4,-370 711,-370 711,4 -4,4"/>
<!-- Node1 -->
<g id="node1" class="node">
<title>Node1</title>
<g id="a_node1"><a xlink:title="API for logging.">
<polygon fill="#bfbfbf" stroke="black" points="50,-335.5 50,-365.5 193,-365.5 193,-335.5 50,-335.5"/>
<text text-anchor="start" x="58" y="-353.5" font-family="Helvetica,sans-Serif" font-size="10.00">/home/build/sdk/c/ifxBase</text>
<text text-anchor="middle" x="121.5" y="-342.5" font-family="Helvetica,sans-Serif" font-size="10.00">/Log.h</text>
</a>
</g>
</g>
<!-- Node2 -->
<g id="node2" class="node">
<title>Node2</title>
<g id="a_node2"><a xlink:href="_base_8h.html" target="_top" xlink:title="Header for ifxAvian.">
<polygon fill="white" stroke="black" points="0,-201.5 0,-231.5 143,-231.5 143,-201.5 0,-201.5"/>
<text text-anchor="start" x="8" y="-219.5" font-family="Helvetica,sans-Serif" font-size="10.00">/home/build/sdk/c/ifxBase</text>
<text text-anchor="middle" x="71.5" y="-208.5" font-family="Helvetica,sans-Serif" font-size="10.00">/Base.h</text>
</a>
</g>
</g>
<!-- Node1&#45;&gt;Node2 -->
<g id="edge1" class="edge">
<title>Node1&#45;&gt;Node2</title>
<path fill="none" stroke="midnightblue" d="M105.94,-326.58C100.77,-318.18 95.36,-308.43 91.5,-299 82.23,-276.35 76.51,-248.33 73.68,-231.74"/>
<polygon fill="midnightblue" stroke="midnightblue" points="103.03,-328.53 111.37,-335.08 108.93,-324.76 103.03,-328.53"/>
</g>
<!-- Node4 -->
<g id="node4" class="node">
<title>Node4</title>
<g id="a_node4"><a xlink:href="_error_8h.html" target="_top" xlink:title="API for error handling.">
<polygon fill="white" stroke="black" points="100,-268.5 100,-298.5 243,-298.5 243,-268.5 100,-268.5"/>
<text text-anchor="start" x="108" y="-286.5" font-family="Helvetica,sans-Serif" font-size="10.00">/home/build/sdk/c/ifxBase</text>
<text text-anchor="middle" x="171.5" y="-275.5" font-family="Helvetica,sans-Serif" font-size="10.00">/Error.h</text>
</a>
</g>
</g>
<!-- Node1&#45;&gt;Node4 -->
<g id="edge3" class="edge">
<title>Node1&#45;&gt;Node4</title>
<path fill="none" stroke="midnightblue" d="M138.46,-327.45C145.81,-317.9 154.19,-307 160.67,-298.58"/>
<polygon fill="midnightblue" stroke="midnightblue" points="135.67,-325.34 132.35,-335.4 141.22,-329.6 135.67,-325.34"/>
</g>
<!-- Node3 -->
<g id="node3" class="node">
<title>Node3</title>
<g id="a_node3"><a xlink:href="_s_d_k_8h.html" target="_top" xlink:title="Master header file for Radar SDK.">
<polygon fill="white" stroke="black" points="149,-0.5 149,-30.5 296,-30.5 296,-0.5 149,-0.5"/>
<text text-anchor="start" x="157" y="-18.5" font-family="Helvetica,sans-Serif" font-size="10.00">/home/build/sdk/c/ifxRadar</text>
<text text-anchor="middle" x="222.5" y="-7.5" font-family="Helvetica,sans-Serif" font-size="10.00">/SDK.h</text>
</a>
</g>
</g>
<!-- Node2&#45;&gt;Node3 -->
<g id="edge2" class="edge">
<title>Node2&#45;&gt;Node3</title>
<path fill="none" stroke="midnightblue" d="M55.9,-192.71C46.45,-175.87 37.91,-152.72 47.5,-134 74.77,-80.74 138.59,-47.59 181.15,-30.58"/>
<polygon fill="midnightblue" stroke="midnightblue" points="52.96,-194.61 61.13,-201.35 58.94,-190.98 52.96,-194.61"/>
</g>
<!-- Node4&#45;&gt;Node2 -->
<g id="edge16" class="edge">
<title>Node4&#45;&gt;Node2</title>
<path fill="none" stroke="midnightblue" d="M141.09,-262.73C125.62,-252.68 107.17,-240.68 93.16,-231.58"/>
<polygon fill="midnightblue" stroke="midnightblue" points="139.51,-265.88 149.8,-268.4 143.32,-260.01 139.51,-265.88"/>
</g>
<!-- Node5 -->
<g id="node5" class="node">
<title>Node5</title>
<g id="a_node5"><a xlink:href="_device_control_8h.html" target="_top" xlink:title="API for Radar device control operations.">
<polygon fill="white" stroke="black" points="196.5,-201.5 196.5,-231.5 342.5,-231.5 342.5,-201.5 196.5,-201.5"/>
<text text-anchor="start" x="204.5" y="-219.5" font-family="Helvetica,sans-Serif" font-size="10.00">/home/build/sdk/c/ifxAvian</text>
<text text-anchor="middle" x="269.5" y="-208.5" font-family="Helvetica,sans-Serif" font-size="10.00">/DeviceControl.h</text>
</a>
</g>
</g>
<!-- Node4&#45;&gt;Node5 -->
<g id="edge4" class="edge">
<title>Node4&#45;&gt;Node5</title>
<path fill="none" stroke="midnightblue" d="M201.3,-262.73C216.47,-252.68 234.54,-240.68 248.28,-231.58"/>
<polygon fill="midnightblue" stroke="midnightblue" points="199.16,-259.95 192.76,-268.4 203.03,-265.79 199.16,-259.95"/>
</g>
<!-- Node6 -->
<g id="node6" class="node">
<title>Node6</title>
<g id="a_node6"><a xlink:href="_avian_8h.html" target="_top" xlink:title=" ">
<polygon fill="white" stroke="black" points="149.5,-67.5 149.5,-97.5 295.5,-97.5 295.5,-67.5 149.5,-67.5"/>
<text text-anchor="start" x="157.5" y="-85.5" font-family="Helvetica,sans-Serif" font-size="10.00">/home/build/sdk/c/ifxAvian</text>
<text text-anchor="middle" x="222.5" y="-74.5" font-family="Helvetica,sans-Serif" font-size="10.00">/Avian.h</text>
</a>
</g>
</g>
<!-- Node5&#45;&gt;Node6 -->
<g id="edge5" class="edge">
<title>Node5&#45;&gt;Node6</title>
<path fill="none" stroke="midnightblue" d="M186.45,-206.19C134.54,-198.46 74.58,-185.38 58.5,-165 28.42,-126.87 92.62,-105.23 149.31,-93.97"/>
<polygon fill="midnightblue" stroke="midnightblue" points="185.97,-209.65 196.37,-207.61 186.97,-202.73 185.97,-209.65"/>
</g>
<!-- Node7 -->
<g id="node7" class="node">
<title>Node7</title>
<g id="a_node7"><a xlink:href="_constant_wave_control_8h.html" target="_top" xlink:title="Header for Constant Wave Control. It provides APIs to use an Avian device in constant wave mode....">
<polygon fill="white" stroke="black" points="67.5,-134.5 67.5,-164.5 213.5,-164.5 213.5,-134.5 67.5,-134.5"/>
<text text-anchor="start" x="75.5" y="-152.5" font-family="Helvetica,sans-Serif" font-size="10.00">/home/build/sdk/c/ifxAvian</text>
<text text-anchor="middle" x="140.5" y="-141.5" font-family="Helvetica,sans-Serif" font-size="10.00">/ConstantWaveControl.h</text>
</a>
</g>
</g>
<!-- Node5&#45;&gt;Node7 -->
<g id="edge7" class="edge">
<title>Node5&#45;&gt;Node7</title>
<path fill="none" stroke="midnightblue" d="M232.49,-196.85C212.1,-186.58 187.19,-174.03 168.44,-164.58"/>
<polygon fill="midnightblue" stroke="midnightblue" points="231,-200.02 241.51,-201.4 234.15,-193.77 231,-200.02"/>
</g>
<!-- Node8 -->
<g id="node8" class="node">
<title>Node8</title>
<g id="a_node8"><a xlink:href="_metrics_8h.html" target="_top" xlink:title="API for Metrics.">
<polygon fill="white" stroke="black" points="231.5,-134.5 231.5,-164.5 377.5,-164.5 377.5,-134.5 231.5,-134.5"/>
<text text-anchor="start" x="239.5" y="-152.5" font-family="Helvetica,sans-Serif" font-size="10.00">/home/build/sdk/c/ifxAvian</text>
<text text-anchor="middle" x="304.5" y="-141.5" font-family="Helvetica,sans-Serif" font-size="10.00">/Metrics.h</text>
</a>
</g>
</g>
<!-- Node5&#45;&gt;Node8 -->
<g id="edge9" class="edge">
<title>Node5&#45;&gt;Node8</title>
<path fill="none" stroke="midnightblue" d="M281.84,-192.58C286.87,-183.24 292.52,-172.75 296.92,-164.58"/>
<polygon fill="midnightblue" stroke="midnightblue" points="278.75,-190.93 277.09,-201.4 284.92,-194.25 278.75,-190.93"/>
</g>
<!-- Node9 -->
<g id="node9" class="node">
<title>Node9</title>
<g id="a_node9"><a xlink:href="_shapes_8h.html" target="_top" xlink:title=" ">
<polygon fill="white" stroke="black" points="395.5,-134.5 395.5,-164.5 541.5,-164.5 541.5,-134.5 395.5,-134.5"/>
<text text-anchor="start" x="403.5" y="-152.5" font-family="Helvetica,sans-Serif" font-size="10.00">/home/build/sdk/c/ifxAvian</text>
<text text-anchor="middle" x="468.5" y="-141.5" font-family="Helvetica,sans-Serif" font-size="10.00">/Shapes.h</text>
</a>
</g>
</g>
<!-- Node5&#45;&gt;Node9 -->
<g id="edge11" class="edge">
<title>Node5&#45;&gt;Node9</title>
<path fill="none" stroke="midnightblue" d="M322.38,-198.23C354.57,-187.71 395.17,-174.45 425.4,-164.58"/>
<polygon fill="midnightblue" stroke="midnightblue" points="321.1,-194.96 312.68,-201.4 323.27,-201.62 321.1,-194.96"/>
</g>
<!-- Node10 -->
<g id="node10" class="node">
<title>Node10</title>
<g id="a_node10"><a xlink:href="_presence_sensing_8h.html" target="_top" xlink:title="API for Presence Sensing algorithm.">
<polygon fill="white" stroke="black" points="560,-134.5 560,-164.5 707,-164.5 707,-134.5 560,-134.5"/>
<text text-anchor="start" x="568" y="-152.5" font-family="Helvetica,sans-Serif" font-size="10.00">/home/build/sdk/c/ifxRadar</text>
<text text-anchor="middle" x="633.5" y="-141.5" font-family="Helvetica,sans-Serif" font-size="10.00">/PresenceSensing.h</text>
</a>
</g>
</g>
<!-- Node5&#45;&gt;Node10 -->
<g id="edge13" class="edge">
<title>Node5&#45;&gt;Node10</title>
<path fill="none" stroke="midnightblue" d="M352.93,-200.6C415.32,-189.46 499.85,-174.37 559.77,-163.67"/>
<polygon fill="midnightblue" stroke="midnightblue" points="351.95,-197.22 342.72,-202.42 353.18,-204.11 351.95,-197.22"/>
</g>
<!-- Node6&#45;&gt;Node3 -->
<g id="edge6" class="edge">
<title>Node6&#45;&gt;Node3</title>
<path fill="none" stroke="midnightblue" d="M222.5,-57.11C222.5,-48.15 222.5,-38.32 222.5,-30.58"/>
<polygon fill="midnightblue" stroke="midnightblue" points="219,-57.4 222.5,-67.4 226,-57.4 219,-57.4"/>
</g>
<!-- Node7&#45;&gt;Node6 -->
<g id="edge8" class="edge">
<title>Node7&#45;&gt;Node6</title>
<path fill="none" stroke="midnightblue" d="M166.15,-128.17C178.69,-118.23 193.47,-106.51 204.74,-97.58"/>
<polygon fill="midnightblue" stroke="midnightblue" points="163.96,-125.44 158.29,-134.4 168.3,-130.93 163.96,-125.44"/>
</g>
<!-- Node8&#45;&gt;Node6 -->
<g id="edge10" class="edge">
<title>Node8&#45;&gt;Node6</title>
<path fill="none" stroke="midnightblue" d="M278.85,-128.17C266.31,-118.23 251.53,-106.51 240.26,-97.58"/>
<polygon fill="midnightblue" stroke="midnightblue" points="276.7,-130.93 286.71,-134.4 281.04,-125.44 276.7,-130.93"/>
</g>
<!-- Node9&#45;&gt;Node6 -->
<g id="edge12" class="edge">
<title>Node9&#45;&gt;Node6</title>
<path fill="none" stroke="midnightblue" d="M405.74,-131.92C365.6,-121.31 314.08,-107.7 275.9,-97.61"/>
<polygon fill="midnightblue" stroke="midnightblue" points="404.86,-135.31 415.42,-134.48 406.65,-128.54 404.86,-135.31"/>
</g>
<!-- Node11 -->
<g id="node11" class="node">
<title>Node11</title>
<g id="a_node11"><a xlink:href="_radar_8h.html" target="_top" xlink:title="Header for ifxRadar.">
<polygon fill="white" stroke="black" points="478,-67.5 478,-97.5 625,-97.5 625,-67.5 478,-67.5"/>
<text text-anchor="start" x="486" y="-85.5" font-family="Helvetica,sans-Serif" font-size="10.00">/home/build/sdk/c/ifxRadar</text>
<text text-anchor="middle" x="551.5" y="-74.5" font-family="Helvetica,sans-Serif" font-size="10.00">/Radar.h</text>
</a>
</g>
</g>
<!-- Node10&#45;&gt;Node11 -->
<g id="edge14" class="edge">
<title>Node10&#45;&gt;Node11</title>
<path fill="none" stroke="midnightblue" d="M607.85,-128.17C595.31,-118.23 580.53,-106.51 569.26,-97.58"/>
<polygon fill="midnightblue" stroke="midnightblue" points="605.7,-130.93 615.71,-134.4 610.04,-125.44 605.7,-130.93"/>
</g>
<!-- Node11&#45;&gt;Node3 -->
<g id="edge15" class="edge">
<title>Node11&#45;&gt;Node3</title>
<path fill="none" stroke="midnightblue" d="M470.6,-65.52C416.39,-54.81 345.69,-40.84 293.64,-30.55"/>
<polygon fill="midnightblue" stroke="midnightblue" points="470.03,-68.97 480.52,-67.48 471.38,-62.1 470.03,-68.97"/>
</g>
</g>
</svg>
