<?xml version="1.0" encoding="UTF-8" standalone="no"?>
<!DOCTYPE svg PUBLIC "-//W3C//DTD SVG 1.1//EN"
 "http://www.w3.org/Graphics/SVG/1.1/DTD/svg11.dtd">
<!-- Generated by graphviz version 2.43.0 (0)
 -->
<!-- Title: /home/build/sdk/c/ifxBase/Math.h Pages: 1 -->
<svg width="1613pt" height="441pt"
 viewBox="0.00 0.00 1612.67 441.00" xmlns="http://www.w3.org/2000/svg" xmlns:xlink="http://www.w3.org/1999/xlink">
<g id="graph0" class="graph" transform="scale(1 1) rotate(0) translate(4 437)">
<title>/home/build/sdk/c/ifxBase/Math.h</title>
<polygon fill="white" stroke="transparent" points="-4,4 -4,-437 1608.67,-437 1608.67,4 -4,4"/>
<!-- Node1 -->
<g id="node1" class="node">
<title>Node1</title>
<g id="a_node1"><a xlink:title="API for Mathematical operations.">
<polygon fill="#bfbfbf" stroke="black" points="659.17,-402.5 659.17,-432.5 802.17,-432.5 802.17,-402.5 659.17,-402.5"/>
<text text-anchor="start" x="667.17" y="-420.5" font-family="Helvetica,sans-Serif" font-size="10.00">/home/build/sdk/c/ifxBase</text>
<text text-anchor="middle" x="730.67" y="-409.5" font-family="Helvetica,sans-Serif" font-size="10.00">/Math.h</text>
</a>
</g>
</g>
<!-- Node2 -->
<g id="node2" class="node">
<title>Node2</title>
<g id="a_node2"><a xlink:href="_preprocessed_f_f_t_8h.html" target="_top" xlink:title="API for Pre&#45;processed FFT.">
<polygon fill="white" stroke="black" points="1139.67,-268.5 1139.67,-298.5 1279.67,-298.5 1279.67,-268.5 1139.67,-268.5"/>
<text text-anchor="start" x="1147.67" y="-286.5" font-family="Helvetica,sans-Serif" font-size="10.00">/home/build/sdk/c/ifxAlgo</text>
<text text-anchor="middle" x="1209.67" y="-275.5" font-family="Helvetica,sans-Serif" font-size="10.00">/PreprocessedFFT.h</text>
</a>
</g>
</g>
<!-- Node1&#45;&gt;Node2 -->
<g id="edge1" class="edge">
<title>Node1&#45;&gt;Node2</title>
<path fill="none" stroke="midnightblue" d="M812.59,-410.2C877.11,-403.62 968.69,-390.66 1045.67,-366 1098.8,-348.97 1156.16,-316.99 1186.98,-298.56"/>
<polygon fill="midnightblue" stroke="midnightblue" points="812.08,-406.73 802.47,-411.2 812.77,-413.7 812.08,-406.73"/>
</g>
<!-- Node10 -->
<g id="node10" class="node">
<title>Node10</title>
<g id="a_node10"><a xlink:href="_base_8h.html" target="_top" xlink:title="Header for ifxAvian.">
<polygon fill="white" stroke="black" points="283.17,-201.5 283.17,-231.5 426.17,-231.5 426.17,-201.5 283.17,-201.5"/>
<text text-anchor="start" x="291.17" y="-219.5" font-family="Helvetica,sans-Serif" font-size="10.00">/home/build/sdk/c/ifxBase</text>
<text text-anchor="middle" x="354.67" y="-208.5" font-family="Helvetica,sans-Serif" font-size="10.00">/Base.h</text>
</a>
</g>
</g>
<!-- Node1&#45;&gt;Node10 -->
<g id="edge13" class="edge">
<title>Node1&#45;&gt;Node10</title>
<path fill="none" stroke="midnightblue" d="M666.49,-399.59C636.31,-390.86 600.13,-379.26 568.67,-366 510.94,-341.68 495.81,-335.17 444.67,-299 415.24,-278.18 384.97,-248.81 368.11,-231.6"/>
<polygon fill="midnightblue" stroke="midnightblue" points="665.9,-403.06 676.47,-402.44 667.82,-396.33 665.9,-403.06"/>
</g>
<!-- Node11 -->
<g id="node11" class="node">
<title>Node11</title>
<g id="a_node11"><a xlink:href="_defines_8h.html" target="_top" xlink:title="Internal definitions used by standard math.h functions as Macros, to use float or double precision.">
<polygon fill="white" stroke="black" points="578.17,-335.5 578.17,-365.5 721.17,-365.5 721.17,-335.5 578.17,-335.5"/>
<text text-anchor="start" x="586.17" y="-353.5" font-family="Helvetica,sans-Serif" font-size="10.00">/home/build/sdk/c/ifxBase</text>
<text text-anchor="middle" x="649.67" y="-342.5" font-family="Helvetica,sans-Serif" font-size="10.00">/Defines.h</text>
</a>
</g>
</g>
<!-- Node1&#45;&gt;Node11 -->
<g id="edge15" class="edge">
<title>Node1&#45;&gt;Node11</title>
<path fill="none" stroke="midnightblue" d="M704.98,-395.88C692.67,-386.01 678.24,-374.43 667.21,-365.58"/>
<polygon fill="midnightblue" stroke="midnightblue" points="703.1,-398.87 713.09,-402.4 707.48,-393.41 703.1,-398.87"/>
</g>
<!-- Node24 -->
<g id="node24" class="node">
<title>Node24</title>
<g id="a_node24"><a xlink:href="_spectrum_axis_8h.html" target="_top" xlink:title="API for Spectrum Axis used by Range spectrum, Range Doppler and Range Angle Map modules.">
<polygon fill="white" stroke="black" points="890.17,-335.5 890.17,-365.5 1037.17,-365.5 1037.17,-335.5 890.17,-335.5"/>
<text text-anchor="start" x="898.17" y="-353.5" font-family="Helvetica,sans-Serif" font-size="10.00">/home/build/sdk/c/ifxRadar</text>
<text text-anchor="middle" x="963.67" y="-342.5" font-family="Helvetica,sans-Serif" font-size="10.00">/SpectrumAxis.h</text>
</a>
</g>
</g>
<!-- Node1&#45;&gt;Node24 -->
<g id="edge42" class="edge">
<title>Node1&#45;&gt;Node24</title>
<path fill="none" stroke="midnightblue" d="M790.84,-399.71C828.75,-389.14 877.15,-375.63 913.09,-365.61"/>
<polygon fill="midnightblue" stroke="midnightblue" points="789.63,-396.42 780.94,-402.48 791.51,-403.16 789.63,-396.42"/>
</g>
<!-- Node3 -->
<g id="node3" class="node">
<title>Node3</title>
<g id="a_node3"><a xlink:href="_algo_8h.html" target="_top" xlink:title="Header for ifxAlgo.">
<polygon fill="white" stroke="black" points="1464.67,-67.5 1464.67,-97.5 1604.67,-97.5 1604.67,-67.5 1464.67,-67.5"/>
<text text-anchor="start" x="1472.67" y="-85.5" font-family="Helvetica,sans-Serif" font-size="10.00">/home/build/sdk/c/ifxAlgo</text>
<text text-anchor="middle" x="1534.67" y="-74.5" font-family="Helvetica,sans-Serif" font-size="10.00">/Algo.h</text>
</a>
</g>
</g>
<!-- Node2&#45;&gt;Node3 -->
<g id="edge2" class="edge">
<title>Node2&#45;&gt;Node3</title>
<path fill="none" stroke="midnightblue" d="M1290.02,-282.55C1382.08,-280.69 1524.63,-271.32 1558.67,-232 1592.17,-193.3 1560.3,-126.81 1543.53,-97.77"/>
<polygon fill="midnightblue" stroke="midnightblue" points="1289.83,-279.05 1279.89,-282.73 1289.95,-286.05 1289.83,-279.05"/>
</g>
<!-- Node5 -->
<g id="node5" class="node">
<title>Node5</title>
<g id="a_node5"><a xlink:href="_range_doppler_map_8h.html" target="_top" xlink:title="API for Range Doppler Map.">
<polygon fill="white" stroke="black" points="1219.17,-201.5 1219.17,-231.5 1366.17,-231.5 1366.17,-201.5 1219.17,-201.5"/>
<text text-anchor="start" x="1227.17" y="-219.5" font-family="Helvetica,sans-Serif" font-size="10.00">/home/build/sdk/c/ifxRadar</text>
<text text-anchor="middle" x="1292.67" y="-208.5" font-family="Helvetica,sans-Serif" font-size="10.00">/RangeDopplerMap.h</text>
</a>
</g>
</g>
<!-- Node2&#45;&gt;Node5 -->
<g id="edge4" class="edge">
<title>Node2&#45;&gt;Node5</title>
<path fill="none" stroke="midnightblue" d="M1235.63,-262.17C1248.32,-252.23 1263.28,-240.51 1274.69,-231.58"/>
<polygon fill="midnightblue" stroke="midnightblue" points="1233.39,-259.47 1227.68,-268.4 1237.71,-264.99 1233.39,-259.47"/>
</g>
<!-- Node8 -->
<g id="node8" class="node">
<title>Node8</title>
<g id="a_node8"><a xlink:href="_range_spectrum_8h.html" target="_top" xlink:title="API for Range Spectrum.">
<polygon fill="white" stroke="black" points="1054.17,-201.5 1054.17,-231.5 1201.17,-231.5 1201.17,-201.5 1054.17,-201.5"/>
<text text-anchor="start" x="1062.17" y="-219.5" font-family="Helvetica,sans-Serif" font-size="10.00">/home/build/sdk/c/ifxRadar</text>
<text text-anchor="middle" x="1127.67" y="-208.5" font-family="Helvetica,sans-Serif" font-size="10.00">/RangeSpectrum.h</text>
</a>
</g>
</g>
<!-- Node2&#45;&gt;Node8 -->
<g id="edge9" class="edge">
<title>Node2&#45;&gt;Node8</title>
<path fill="none" stroke="midnightblue" d="M1184.02,-262.17C1171.48,-252.23 1156.7,-240.51 1145.43,-231.58"/>
<polygon fill="midnightblue" stroke="midnightblue" points="1181.86,-264.93 1191.87,-268.4 1186.21,-259.44 1181.86,-264.93"/>
</g>
<!-- Node4 -->
<g id="node4" class="node">
<title>Node4</title>
<g id="a_node4"><a xlink:href="_s_d_k_8h.html" target="_top" xlink:title="Master header file for Radar SDK.">
<polygon fill="white" stroke="black" points="831.17,-0.5 831.17,-30.5 978.17,-30.5 978.17,-0.5 831.17,-0.5"/>
<text text-anchor="start" x="839.17" y="-18.5" font-family="Helvetica,sans-Serif" font-size="10.00">/home/build/sdk/c/ifxRadar</text>
<text text-anchor="middle" x="904.67" y="-7.5" font-family="Helvetica,sans-Serif" font-size="10.00">/SDK.h</text>
</a>
</g>
</g>
<!-- Node3&#45;&gt;Node4 -->
<g id="edge3" class="edge">
<title>Node3&#45;&gt;Node4</title>
<path fill="none" stroke="midnightblue" d="M1454.42,-73.22C1331.36,-60.52 1097.79,-36.43 978.62,-24.13"/>
<polygon fill="midnightblue" stroke="midnightblue" points="1454.23,-76.72 1464.54,-74.26 1454.95,-69.76 1454.23,-76.72"/>
</g>
<!-- Node6 -->
<g id="node6" class="node">
<title>Node6</title>
<g id="a_node6"><a xlink:href="_radar_8h.html" target="_top" xlink:title="Header for ifxRadar.">
<polygon fill="white" stroke="black" points="831.17,-67.5 831.17,-97.5 978.17,-97.5 978.17,-67.5 831.17,-67.5"/>
<text text-anchor="start" x="839.17" y="-85.5" font-family="Helvetica,sans-Serif" font-size="10.00">/home/build/sdk/c/ifxRadar</text>
<text text-anchor="middle" x="904.67" y="-74.5" font-family="Helvetica,sans-Serif" font-size="10.00">/Radar.h</text>
</a>
</g>
</g>
<!-- Node5&#45;&gt;Node6 -->
<g id="edge5" class="edge">
<title>Node5&#45;&gt;Node6</title>
<path fill="none" stroke="midnightblue" d="M1266.26,-195.39C1240.44,-176.7 1199.32,-149.5 1159.67,-134 1100.93,-111.04 1030.33,-98.1 978.32,-91.08"/>
<polygon fill="midnightblue" stroke="midnightblue" points="1264.27,-198.27 1274.4,-201.37 1268.41,-192.63 1264.27,-198.27"/>
</g>
<!-- Node7 -->
<g id="node7" class="node">
<title>Node7</title>
<g id="a_node7"><a xlink:href="_range_angle_image_8h.html" target="_top" xlink:title="API for Range Angle Image algorithm.">
<polygon fill="white" stroke="black" points="953.17,-134.5 953.17,-164.5 1100.17,-164.5 1100.17,-134.5 953.17,-134.5"/>
<text text-anchor="start" x="961.17" y="-152.5" font-family="Helvetica,sans-Serif" font-size="10.00">/home/build/sdk/c/ifxRadar</text>
<text text-anchor="middle" x="1026.67" y="-141.5" font-family="Helvetica,sans-Serif" font-size="10.00">/RangeAngleImage.h</text>
</a>
</g>
</g>
<!-- Node5&#45;&gt;Node7 -->
<g id="edge7" class="edge">
<title>Node5&#45;&gt;Node7</title>
<path fill="none" stroke="midnightblue" d="M1225.35,-199.05C1181.87,-188.43 1125.87,-174.74 1084.41,-164.61"/>
<polygon fill="midnightblue" stroke="midnightblue" points="1224.73,-202.5 1235.28,-201.48 1226.39,-195.7 1224.73,-202.5"/>
</g>
<!-- Node6&#45;&gt;Node4 -->
<g id="edge6" class="edge">
<title>Node6&#45;&gt;Node4</title>
<path fill="none" stroke="midnightblue" d="M904.67,-57.11C904.67,-48.15 904.67,-38.32 904.67,-30.58"/>
<polygon fill="midnightblue" stroke="midnightblue" points="901.17,-57.4 904.67,-67.4 908.17,-57.4 901.17,-57.4"/>
</g>
<!-- Node7&#45;&gt;Node6 -->
<g id="edge8" class="edge">
<title>Node7&#45;&gt;Node6</title>
<path fill="none" stroke="midnightblue" d="M991.15,-129.57C971.96,-119.35 948.66,-106.94 931.09,-97.58"/>
<polygon fill="midnightblue" stroke="midnightblue" points="989.72,-132.78 1000.2,-134.4 993.02,-126.6 989.72,-132.78"/>
</g>
<!-- Node8&#45;&gt;Node6 -->
<g id="edge12" class="edge">
<title>Node8&#45;&gt;Node6</title>
<path fill="none" stroke="midnightblue" d="M1140.92,-192.32C1149.15,-174.52 1155.89,-150.32 1142.67,-134 1122.23,-108.77 1040.49,-95.63 978.46,-89.16"/>
<polygon fill="midnightblue" stroke="midnightblue" points="1137.7,-190.95 1136.32,-201.45 1143.94,-194.1 1137.7,-190.95"/>
</g>
<!-- Node9 -->
<g id="node9" class="node">
<title>Node9</title>
<g id="a_node9"><a xlink:href="_presence_sensing_8h.html" target="_top" xlink:title="API for Presence Sensing algorithm.">
<polygon fill="white" stroke="black" points="788.17,-134.5 788.17,-164.5 935.17,-164.5 935.17,-134.5 788.17,-134.5"/>
<text text-anchor="start" x="796.17" y="-152.5" font-family="Helvetica,sans-Serif" font-size="10.00">/home/build/sdk/c/ifxRadar</text>
<text text-anchor="middle" x="861.67" y="-141.5" font-family="Helvetica,sans-Serif" font-size="10.00">/PresenceSensing.h</text>
</a>
</g>
</g>
<!-- Node8&#45;&gt;Node9 -->
<g id="edge10" class="edge">
<title>Node8&#45;&gt;Node9</title>
<path fill="none" stroke="midnightblue" d="M1060.35,-199.05C1016.87,-188.43 960.87,-174.74 919.41,-164.61"/>
<polygon fill="midnightblue" stroke="midnightblue" points="1059.73,-202.5 1070.28,-201.48 1061.39,-195.7 1059.73,-202.5"/>
</g>
<!-- Node9&#45;&gt;Node6 -->
<g id="edge11" class="edge">
<title>Node9&#45;&gt;Node6</title>
<path fill="none" stroke="midnightblue" d="M876.64,-125.87C882.86,-116.46 889.89,-105.83 895.36,-97.58"/>
<polygon fill="midnightblue" stroke="midnightblue" points="873.6,-124.12 871,-134.4 879.43,-127.99 873.6,-124.12"/>
</g>
<!-- Node10&#45;&gt;Node4 -->
<g id="edge14" class="edge">
<title>Node10&#45;&gt;Node4</title>
<path fill="none" stroke="midnightblue" d="M272.97,-215.48C181.13,-213.51 40.41,-203.99 6.67,-165 -2.35,-154.58 -2.05,-144.67 6.67,-134 58.68,-70.28 625.63,-32.23 830.97,-20.45"/>
<polygon fill="midnightblue" stroke="midnightblue" points="273.02,-218.98 283.09,-215.67 273.15,-211.98 273.02,-218.98"/>
</g>
<!-- Node11&#45;&gt;Node10 -->
<g id="edge16" class="edge">
<title>Node11&#45;&gt;Node10</title>
<path fill="none" stroke="midnightblue" d="M595.3,-332.27C568.54,-323.26 536.02,-311.51 507.67,-299 460.58,-278.22 408.13,-248.84 378.5,-231.62"/>
<polygon fill="midnightblue" stroke="midnightblue" points="594.28,-335.62 604.87,-335.46 596.49,-328.98 594.28,-335.62"/>
</g>
<!-- Node12 -->
<g id="node12" class="node">
<title>Node12</title>
<g id="a_node12"><a xlink:href="_complex_8h.html" target="_top" xlink:title="API for operations on complex numbers.">
<polygon fill="white" stroke="black" points="517.17,-268.5 517.17,-298.5 660.17,-298.5 660.17,-268.5 517.17,-268.5"/>
<text text-anchor="start" x="525.17" y="-286.5" font-family="Helvetica,sans-Serif" font-size="10.00">/home/build/sdk/c/ifxBase</text>
<text text-anchor="middle" x="588.67" y="-275.5" font-family="Helvetica,sans-Serif" font-size="10.00">/Complex.h</text>
</a>
</g>
</g>
<!-- Node11&#45;&gt;Node12 -->
<g id="edge17" class="edge">
<title>Node11&#45;&gt;Node12</title>
<path fill="none" stroke="midnightblue" d="M629.51,-328.02C620.42,-318.34 609.95,-307.17 601.88,-298.58"/>
<polygon fill="midnightblue" stroke="midnightblue" points="627.04,-330.5 636.43,-335.4 632.14,-325.71 627.04,-330.5"/>
</g>
<!-- Node14 -->
<g id="node14" class="node">
<title>Node14</title>
<g id="a_node14"><a xlink:href="_cube_8h.html" target="_top" xlink:title="API for operations on Cube data structures.">
<polygon fill="white" stroke="black" points="678.17,-268.5 678.17,-298.5 821.17,-298.5 821.17,-268.5 678.17,-268.5"/>
<text text-anchor="start" x="686.17" y="-286.5" font-family="Helvetica,sans-Serif" font-size="10.00">/home/build/sdk/c/ifxBase</text>
<text text-anchor="middle" x="749.67" y="-275.5" font-family="Helvetica,sans-Serif" font-size="10.00">/Cube.h</text>
</a>
</g>
</g>
<!-- Node11&#45;&gt;Node14 -->
<g id="edge21" class="edge">
<title>Node11&#45;&gt;Node14</title>
<path fill="none" stroke="midnightblue" d="M680.08,-329.73C695.55,-319.68 714,-307.68 728.01,-298.58"/>
<polygon fill="midnightblue" stroke="midnightblue" points="677.84,-327.01 671.37,-335.4 681.66,-332.88 677.84,-327.01"/>
</g>
<!-- Node12&#45;&gt;Node10 -->
<g id="edge18" class="edge">
<title>Node12&#45;&gt;Node10</title>
<path fill="none" stroke="midnightblue" d="M528.24,-265.71C490.16,-255.14 441.55,-241.63 405.47,-231.61"/>
<polygon fill="midnightblue" stroke="midnightblue" points="527.61,-269.17 538.18,-268.48 529.48,-262.43 527.61,-269.17"/>
</g>
<!-- Node13 -->
<g id="node13" class="node">
<title>Node13</title>
<g id="a_node13"><a xlink:href="_angle_monopulse_8h.html" target="_top" xlink:title="API for Phase Monopulse algorithm.">
<polygon fill="white" stroke="black" points="546.17,-134.5 546.17,-164.5 693.17,-164.5 693.17,-134.5 546.17,-134.5"/>
<text text-anchor="start" x="554.17" y="-152.5" font-family="Helvetica,sans-Serif" font-size="10.00">/home/build/sdk/c/ifxRadar</text>
<text text-anchor="middle" x="619.67" y="-141.5" font-family="Helvetica,sans-Serif" font-size="10.00">/AngleMonopulse.h</text>
</a>
</g>
</g>
<!-- Node12&#45;&gt;Node13 -->
<g id="edge19" class="edge">
<title>Node12&#45;&gt;Node13</title>
<path fill="none" stroke="midnightblue" d="M594.33,-258.39C600.79,-230.9 611.12,-186.89 616.37,-164.52"/>
<polygon fill="midnightblue" stroke="midnightblue" points="590.86,-257.84 591.98,-268.37 597.68,-259.44 590.86,-257.84"/>
</g>
<!-- Node13&#45;&gt;Node6 -->
<g id="edge20" class="edge">
<title>Node13&#45;&gt;Node6</title>
<path fill="none" stroke="midnightblue" d="M691.2,-132.19C737.88,-121.54 798.19,-107.78 842.8,-97.61"/>
<polygon fill="midnightblue" stroke="midnightblue" points="690.13,-128.84 681.16,-134.48 691.69,-135.66 690.13,-128.84"/>
</g>
<!-- Node14&#45;&gt;Node7 -->
<g id="edge38" class="edge">
<title>Node14&#45;&gt;Node7</title>
<path fill="none" stroke="midnightblue" d="M831.19,-277.39C874.66,-271.43 927.35,-258.76 967.67,-232 993.14,-215.1 1011.36,-183.22 1020.33,-164.74"/>
<polygon fill="midnightblue" stroke="midnightblue" points="830.68,-273.93 821.2,-278.67 831.57,-280.87 830.68,-273.93"/>
</g>
<!-- Node14&#45;&gt;Node10 -->
<g id="edge32" class="edge">
<title>Node14&#45;&gt;Node10</title>
<path fill="none" stroke="midnightblue" d="M668.12,-267.93C563.65,-250.66 535.9,-248.71 435.67,-232 432.57,-231.48 429.4,-230.95 426.2,-230.4"/>
<polygon fill="midnightblue" stroke="midnightblue" points="667.69,-271.41 678.13,-269.6 668.84,-264.51 667.69,-271.41"/>
</g>
<!-- Node15 -->
<g id="node15" class="node">
<title>Node15</title>
<g id="a_node15"><a xlink:href="_device_control_8h.html" target="_top" xlink:title="API for Radar device control operations.">
<polygon fill="white" stroke="black" points="444.67,-201.5 444.67,-231.5 590.67,-231.5 590.67,-201.5 444.67,-201.5"/>
<text text-anchor="start" x="452.67" y="-219.5" font-family="Helvetica,sans-Serif" font-size="10.00">/home/build/sdk/c/ifxAvian</text>
<text text-anchor="middle" x="517.67" y="-208.5" font-family="Helvetica,sans-Serif" font-size="10.00">/DeviceControl.h</text>
</a>
</g>
</g>
<!-- Node14&#45;&gt;Node15 -->
<g id="edge22" class="edge">
<title>Node14&#45;&gt;Node15</title>
<path fill="none" stroke="midnightblue" d="M689.76,-265.71C652,-255.14 603.81,-241.63 568.03,-231.61"/>
<polygon fill="midnightblue" stroke="midnightblue" points="689.04,-269.15 699.61,-268.48 690.93,-262.41 689.04,-269.15"/>
</g>
<!-- Node20 -->
<g id="node20" class="node">
<title>Node20</title>
<g id="a_node20"><a xlink:href="_angle_capon_8h.html" target="_top" xlink:title="API for Angle Capon algorithm.">
<polygon fill="white" stroke="black" points="647.17,-201.5 647.17,-231.5 794.17,-231.5 794.17,-201.5 647.17,-201.5"/>
<text text-anchor="start" x="655.17" y="-219.5" font-family="Helvetica,sans-Serif" font-size="10.00">/home/build/sdk/c/ifxRadar</text>
<text text-anchor="middle" x="720.67" y="-208.5" font-family="Helvetica,sans-Serif" font-size="10.00">/AngleCapon.h</text>
</a>
</g>
</g>
<!-- Node14&#45;&gt;Node20 -->
<g id="edge33" class="edge">
<title>Node14&#45;&gt;Node20</title>
<path fill="none" stroke="midnightblue" d="M739.18,-258.99C735.08,-249.8 730.52,-239.58 726.95,-231.58"/>
<polygon fill="midnightblue" stroke="midnightblue" points="736.1,-260.69 743.37,-268.4 742.5,-257.84 736.1,-260.69"/>
</g>
<!-- Node21 -->
<g id="node21" class="node">
<title>Node21</title>
<g id="a_node21"><a xlink:href="_d_b_f_8h.html" target="_top" xlink:title="API for Digital Beamforming (DBF) algorithm.">
<polygon fill="white" stroke="black" points="812.17,-201.5 812.17,-231.5 959.17,-231.5 959.17,-201.5 812.17,-201.5"/>
<text text-anchor="start" x="820.17" y="-219.5" font-family="Helvetica,sans-Serif" font-size="10.00">/home/build/sdk/c/ifxRadar</text>
<text text-anchor="middle" x="885.67" y="-208.5" font-family="Helvetica,sans-Serif" font-size="10.00">/DBF.h</text>
</a>
</g>
</g>
<!-- Node14&#45;&gt;Node21 -->
<g id="edge35" class="edge">
<title>Node14&#45;&gt;Node21</title>
<path fill="none" stroke="midnightblue" d="M788.39,-263.99C809.95,-253.69 836.36,-241.07 856.21,-231.58"/>
<polygon fill="midnightblue" stroke="midnightblue" points="786.69,-260.93 779.18,-268.4 789.71,-267.24 786.69,-260.93"/>
</g>
<!-- Node22 -->
<g id="node22" class="node">
<title>Node22</title>
<g id="a_node22"><a xlink:href="_segmentation_8h.html" target="_top" xlink:title="API for Segmentation algorithm.">
<polygon fill="white" stroke="black" points="1384.17,-201.5 1384.17,-231.5 1549.17,-231.5 1549.17,-201.5 1384.17,-201.5"/>
<text text-anchor="start" x="1392.17" y="-219.5" font-family="Helvetica,sans-Serif" font-size="10.00">/home/build/sdk/c/ifxRadar</text>
<text text-anchor="middle" x="1466.67" y="-208.5" font-family="Helvetica,sans-Serif" font-size="10.00">Segmentation/Segmentation.h</text>
</a>
</g>
</g>
<!-- Node14&#45;&gt;Node22 -->
<g id="edge39" class="edge">
<title>Node14&#45;&gt;Node22</title>
<path fill="none" stroke="midnightblue" d="M831.38,-277.94C951.09,-270.79 1181.06,-255.32 1375.67,-232 1378.37,-231.68 1381.11,-231.33 1383.88,-230.97"/>
<polygon fill="midnightblue" stroke="midnightblue" points="830.97,-274.45 821.2,-278.54 831.39,-281.44 830.97,-274.45"/>
</g>
<!-- Node15&#45;&gt;Node9 -->
<g id="edge31" class="edge">
<title>Node15&#45;&gt;Node9</title>
<path fill="none" stroke="midnightblue" d="M601.13,-199.73C658.23,-188.94 733.24,-174.77 788.11,-164.4"/>
<polygon fill="midnightblue" stroke="midnightblue" points="600.22,-196.34 591.04,-201.64 601.52,-203.22 600.22,-196.34"/>
</g>
<!-- Node16 -->
<g id="node16" class="node">
<title>Node16</title>
<g id="a_node16"><a xlink:href="_avian_8h.html" target="_top" xlink:title=" ">
<polygon fill="white" stroke="black" points="343.67,-67.5 343.67,-97.5 489.67,-97.5 489.67,-67.5 343.67,-67.5"/>
<text text-anchor="start" x="351.67" y="-85.5" font-family="Helvetica,sans-Serif" font-size="10.00">/home/build/sdk/c/ifxAvian</text>
<text text-anchor="middle" x="416.67" y="-74.5" font-family="Helvetica,sans-Serif" font-size="10.00">/Avian.h</text>
</a>
</g>
</g>
<!-- Node15&#45;&gt;Node16 -->
<g id="edge23" class="edge">
<title>Node15&#45;&gt;Node16</title>
<path fill="none" stroke="midnightblue" d="M516.86,-191.04C515.19,-173.69 510.64,-150.64 498.67,-134 487.04,-117.85 468.51,-105.81 452,-97.54"/>
<polygon fill="midnightblue" stroke="midnightblue" points="513.4,-191.75 517.59,-201.48 520.38,-191.27 513.4,-191.75"/>
</g>
<!-- Node17 -->
<g id="node17" class="node">
<title>Node17</title>
<g id="a_node17"><a xlink:href="_constant_wave_control_8h.html" target="_top" xlink:title="Header for Constant Wave Control. It provides APIs to use an Avian device in constant wave mode....">
<polygon fill="white" stroke="black" points="15.67,-134.5 15.67,-164.5 161.67,-164.5 161.67,-134.5 15.67,-134.5"/>
<text text-anchor="start" x="23.67" y="-152.5" font-family="Helvetica,sans-Serif" font-size="10.00">/home/build/sdk/c/ifxAvian</text>
<text text-anchor="middle" x="88.67" y="-141.5" font-family="Helvetica,sans-Serif" font-size="10.00">/ConstantWaveControl.h</text>
</a>
</g>
</g>
<!-- Node15&#45;&gt;Node17 -->
<g id="edge25" class="edge">
<title>Node15&#45;&gt;Node17</title>
<path fill="none" stroke="midnightblue" d="M434.19,-200.97C315.95,-182.82 284.46,-182.81 170.67,-165 167.81,-164.55 164.9,-164.09 161.96,-163.61"/>
<polygon fill="midnightblue" stroke="midnightblue" points="433.95,-204.47 444.37,-202.54 435.02,-197.56 433.95,-204.47"/>
</g>
<!-- Node18 -->
<g id="node18" class="node">
<title>Node18</title>
<g id="a_node18"><a xlink:href="_metrics_8h.html" target="_top" xlink:title="API for Metrics.">
<polygon fill="white" stroke="black" points="179.67,-134.5 179.67,-164.5 325.67,-164.5 325.67,-134.5 179.67,-134.5"/>
<text text-anchor="start" x="187.67" y="-152.5" font-family="Helvetica,sans-Serif" font-size="10.00">/home/build/sdk/c/ifxAvian</text>
<text text-anchor="middle" x="252.67" y="-141.5" font-family="Helvetica,sans-Serif" font-size="10.00">/Metrics.h</text>
</a>
</g>
</g>
<!-- Node15&#45;&gt;Node18 -->
<g id="edge27" class="edge">
<title>Node15&#45;&gt;Node18</title>
<path fill="none" stroke="midnightblue" d="M450.61,-199.05C407.28,-188.43 351.5,-174.74 310.2,-164.61"/>
<polygon fill="midnightblue" stroke="midnightblue" points="449.95,-202.49 460.49,-201.48 451.61,-195.69 449.95,-202.49"/>
</g>
<!-- Node19 -->
<g id="node19" class="node">
<title>Node19</title>
<g id="a_node19"><a xlink:href="_shapes_8h.html" target="_top" xlink:title=" ">
<polygon fill="white" stroke="black" points="343.67,-134.5 343.67,-164.5 489.67,-164.5 489.67,-134.5 343.67,-134.5"/>
<text text-anchor="start" x="351.67" y="-152.5" font-family="Helvetica,sans-Serif" font-size="10.00">/home/build/sdk/c/ifxAvian</text>
<text text-anchor="middle" x="416.67" y="-141.5" font-family="Helvetica,sans-Serif" font-size="10.00">/Shapes.h</text>
</a>
</g>
</g>
<!-- Node15&#45;&gt;Node19 -->
<g id="edge29" class="edge">
<title>Node15&#45;&gt;Node19</title>
<path fill="none" stroke="midnightblue" d="M486.95,-195.73C471.32,-185.68 452.69,-173.68 438.54,-164.58"/>
<polygon fill="midnightblue" stroke="midnightblue" points="485.45,-198.93 495.75,-201.4 489.24,-193.04 485.45,-198.93"/>
</g>
<!-- Node16&#45;&gt;Node4 -->
<g id="edge24" class="edge">
<title>Node16&#45;&gt;Node4</title>
<path fill="none" stroke="midnightblue" d="M499.66,-70.45C592.69,-58.05 742.12,-38.15 831.11,-26.3"/>
<polygon fill="midnightblue" stroke="midnightblue" points="499.18,-66.98 489.73,-71.77 500.1,-73.92 499.18,-66.98"/>
</g>
<!-- Node17&#45;&gt;Node16 -->
<g id="edge26" class="edge">
<title>Node17&#45;&gt;Node16</title>
<path fill="none" stroke="midnightblue" d="M169.33,-132.52C223.37,-121.81 293.85,-107.84 345.74,-97.55"/>
<polygon fill="midnightblue" stroke="midnightblue" points="168.56,-129.1 159.43,-134.48 169.92,-135.97 168.56,-129.1"/>
</g>
<!-- Node18&#45;&gt;Node16 -->
<g id="edge28" class="edge">
<title>Node18&#45;&gt;Node16</title>
<path fill="none" stroke="midnightblue" d="M297.62,-130.68C323.93,-120.26 356.67,-107.28 381.15,-97.58"/>
<polygon fill="midnightblue" stroke="midnightblue" points="296.26,-127.46 288.25,-134.4 298.84,-133.97 296.26,-127.46"/>
</g>
<!-- Node19&#45;&gt;Node16 -->
<g id="edge30" class="edge">
<title>Node19&#45;&gt;Node16</title>
<path fill="none" stroke="midnightblue" d="M416.67,-124.11C416.67,-115.15 416.67,-105.32 416.67,-97.58"/>
<polygon fill="midnightblue" stroke="midnightblue" points="413.17,-124.4 416.67,-134.4 420.17,-124.4 413.17,-124.4"/>
</g>
<!-- Node20&#45;&gt;Node6 -->
<g id="edge34" class="edge">
<title>Node20&#45;&gt;Node6</title>
<path fill="none" stroke="midnightblue" d="M729.63,-192.13C737.65,-174.02 751.03,-149.5 769.67,-134 790.25,-116.88 817.22,-105.25 841.63,-97.51"/>
<polygon fill="midnightblue" stroke="midnightblue" points="726.37,-190.85 725.73,-201.42 732.83,-193.56 726.37,-190.85"/>
</g>
<!-- Node21&#45;&gt;Node6 -->
<g id="edge36" class="edge">
<title>Node21&#45;&gt;Node6</title>
<path fill="none" stroke="midnightblue" d="M817.95,-197.37C802.46,-189.92 787.86,-179.5 778.67,-165 771.29,-153.36 770.95,-145.41 778.67,-134 790.88,-115.94 810.72,-104.34 831.08,-96.89"/>
<polygon fill="midnightblue" stroke="midnightblue" points="816.58,-200.59 827.14,-201.43 819.41,-194.19 816.58,-200.59"/>
</g>
<!-- Node21&#45;&gt;Node7 -->
<g id="edge37" class="edge">
<title>Node21&#45;&gt;Node7</title>
<path fill="none" stroke="midnightblue" d="M925.51,-197.13C947.92,-186.8 975.45,-174.11 996.13,-164.58"/>
<polygon fill="midnightblue" stroke="midnightblue" points="923.88,-194.03 916.26,-201.4 926.81,-200.39 923.88,-194.03"/>
</g>
<!-- Node23 -->
<g id="node23" class="node">
<title>Node23</title>
<g id="a_node23"><a xlink:href="_radar_segmentation_8h.html" target="_top" xlink:title="Header for ifxRadarSegmentation.">
<polygon fill="white" stroke="black" points="1167.67,-67.5 1167.67,-97.5 1361.67,-97.5 1361.67,-67.5 1167.67,-67.5"/>
<text text-anchor="start" x="1175.67" y="-85.5" font-family="Helvetica,sans-Serif" font-size="10.00">/home/build/sdk/c/ifxRadar</text>
<text text-anchor="middle" x="1264.67" y="-74.5" font-family="Helvetica,sans-Serif" font-size="10.00">Segmentation/RadarSegmentation.h</text>
</a>
</g>
</g>
<!-- Node22&#45;&gt;Node23 -->
<g id="edge40" class="edge">
<title>Node22&#45;&gt;Node23</title>
<path fill="none" stroke="midnightblue" d="M1436.51,-195.79C1395.26,-168.84 1322.25,-121.13 1286.13,-97.52"/>
<polygon fill="midnightblue" stroke="midnightblue" points="1434.76,-198.83 1445.05,-201.37 1438.59,-192.97 1434.76,-198.83"/>
</g>
<!-- Node23&#45;&gt;Node4 -->
<g id="edge41" class="edge">
<title>Node23&#45;&gt;Node4</title>
<path fill="none" stroke="midnightblue" d="M1177.01,-65.67C1116.08,-54.67 1035.8,-40.18 978.21,-29.78"/>
<polygon fill="midnightblue" stroke="midnightblue" points="1176.53,-69.14 1187,-67.48 1177.78,-62.25 1176.53,-69.14"/>
</g>
<!-- Node24&#45;&gt;Node6 -->
<g id="edge43" class="edge">
<title>Node24&#45;&gt;Node6</title>
<path fill="none" stroke="midnightblue" d="M971.94,-325.36C983.84,-293.59 1008.4,-237.5 1044.67,-201 1067.94,-177.57 1092.9,-193.45 1109.67,-165 1116.66,-153.13 1118.16,-144.85 1109.67,-134 1093.36,-113.19 1030.34,-99.8 978.43,-92.07"/>
<polygon fill="midnightblue" stroke="midnightblue" points="968.52,-324.55 968.4,-335.14 975.1,-326.94 968.52,-324.55"/>
</g>
</g>
</svg>
