<?xml version="1.0" encoding="UTF-8" standalone="no"?>
<!DOCTYPE svg PUBLIC "-//W3C//DTD SVG 1.1//EN"
 "http://www.w3.org/Graphics/SVG/1.1/DTD/svg11.dtd">
<!-- Generated by graphviz version 2.43.0 (0)
 -->
<!-- Title: /home/build/sdk/c/ifxBase/Matrix.h Pages: 1 -->
<svg width="1481pt" height="374pt"
 viewBox="0.00 0.00 1480.50 374.00" xmlns="http://www.w3.org/2000/svg" xmlns:xlink="http://www.w3.org/1999/xlink">
<g id="graph0" class="graph" transform="scale(1 1) rotate(0) translate(4 370)">
<title>/home/build/sdk/c/ifxBase/Matrix.h</title>
<polygon fill="white" stroke="transparent" points="-4,4 -4,-370 1476.5,-370 1476.5,4 -4,4"/>
<!-- Node1 -->
<g id="node1" class="node">
<title>Node1</title>
<g id="a_node1"><a xlink:title="API for operations on Matrix data structures.">
<polygon fill="#bfbfbf" stroke="black" points="578.5,-335.5 578.5,-365.5 721.5,-365.5 721.5,-335.5 578.5,-335.5"/>
<text text-anchor="start" x="586.5" y="-353.5" font-family="Helvetica,sans-Serif" font-size="10.00">/home/build/sdk/c/ifxBase</text>
<text text-anchor="middle" x="650" y="-342.5" font-family="Helvetica,sans-Serif" font-size="10.00">/Matrix.h</text>
</a>
</g>
</g>
<!-- Node2 -->
<g id="node2" class="node">
<title>Node2</title>
<g id="a_node2"><a xlink:href="2_d_m_t_i_8h.html" target="_top" xlink:title="API for 2D Moving Target Indicator filter (2DMTI)">
<polygon fill="white" stroke="black" points="0,-268.5 0,-298.5 140,-298.5 140,-268.5 0,-268.5"/>
<text text-anchor="start" x="8" y="-286.5" font-family="Helvetica,sans-Serif" font-size="10.00">/home/build/sdk/c/ifxAlgo</text>
<text text-anchor="middle" x="70" y="-275.5" font-family="Helvetica,sans-Serif" font-size="10.00">/2DMTI.h</text>
</a>
</g>
</g>
<!-- Node1&#45;&gt;Node2 -->
<g id="edge1" class="edge">
<title>Node1&#45;&gt;Node2</title>
<path fill="none" stroke="midnightblue" d="M568.46,-343.32C469.11,-335.33 296.27,-319.9 149,-299 146.1,-298.59 143.15,-298.15 140.16,-297.68"/>
<polygon fill="midnightblue" stroke="midnightblue" points="568.18,-346.81 578.43,-344.12 568.74,-339.84 568.18,-346.81"/>
</g>
<!-- Node5 -->
<g id="node5" class="node">
<title>Node5</title>
<g id="a_node5"><a xlink:href="_o_s_c_f_a_r_8h.html" target="_top" xlink:title="API for 2D ordered statistic constant false alarm rate (OS&#45;CFAR) algorithm.">
<polygon fill="white" stroke="black" points="158,-268.5 158,-298.5 298,-298.5 298,-268.5 158,-268.5"/>
<text text-anchor="start" x="166" y="-286.5" font-family="Helvetica,sans-Serif" font-size="10.00">/home/build/sdk/c/ifxAlgo</text>
<text text-anchor="middle" x="228" y="-275.5" font-family="Helvetica,sans-Serif" font-size="10.00">/OSCFAR.h</text>
</a>
</g>
</g>
<!-- Node1&#45;&gt;Node5 -->
<g id="edge4" class="edge">
<title>Node1&#45;&gt;Node5</title>
<path fill="none" stroke="midnightblue" d="M568.26,-338.29C498.69,-328.56 396.15,-313.74 307,-299 304.11,-298.52 301.16,-298.03 298.19,-297.52"/>
<polygon fill="midnightblue" stroke="midnightblue" points="567.89,-341.78 578.28,-339.69 568.86,-334.84 567.89,-341.78"/>
</g>
<!-- Node6 -->
<g id="node6" class="node">
<title>Node6</title>
<g id="a_node6"><a xlink:href="_signal_8h.html" target="_top" xlink:title="API for digital filtering operations.">
<polygon fill="white" stroke="black" points="316,-268.5 316,-298.5 456,-298.5 456,-268.5 316,-268.5"/>
<text text-anchor="start" x="324" y="-286.5" font-family="Helvetica,sans-Serif" font-size="10.00">/home/build/sdk/c/ifxAlgo</text>
<text text-anchor="middle" x="386" y="-275.5" font-family="Helvetica,sans-Serif" font-size="10.00">/Signal.h</text>
</a>
</g>
</g>
<!-- Node1&#45;&gt;Node6 -->
<g id="edge6" class="edge">
<title>Node1&#45;&gt;Node6</title>
<path fill="none" stroke="midnightblue" d="M583.19,-333.05C540.03,-322.43 484.46,-308.74 443.31,-298.61"/>
<polygon fill="midnightblue" stroke="midnightblue" points="582.49,-336.48 593.04,-335.48 584.17,-329.69 582.49,-336.48"/>
</g>
<!-- Node7 -->
<g id="node7" class="node">
<title>Node7</title>
<g id="a_node7"><a xlink:href="_base_8h.html" target="_top" xlink:title="Header for ifxAvian.">
<polygon fill="white" stroke="black" points="370.5,-201.5 370.5,-231.5 513.5,-231.5 513.5,-201.5 370.5,-201.5"/>
<text text-anchor="start" x="378.5" y="-219.5" font-family="Helvetica,sans-Serif" font-size="10.00">/home/build/sdk/c/ifxBase</text>
<text text-anchor="middle" x="442" y="-208.5" font-family="Helvetica,sans-Serif" font-size="10.00">/Base.h</text>
</a>
</g>
</g>
<!-- Node1&#45;&gt;Node7 -->
<g id="edge8" class="edge">
<title>Node1&#45;&gt;Node7</title>
<path fill="none" stroke="midnightblue" d="M572.9,-332.49C549.03,-324.82 523.61,-314.01 503,-299 478.14,-280.89 458.9,-249.75 449.12,-231.66"/>
<polygon fill="midnightblue" stroke="midnightblue" points="572.08,-335.89 582.66,-335.48 574.13,-329.2 572.08,-335.89"/>
</g>
<!-- Node8 -->
<g id="node8" class="node">
<title>Node8</title>
<g id="a_node8"><a xlink:href="_cube_8h.html" target="_top" xlink:title="API for operations on Cube data structures.">
<polygon fill="white" stroke="black" points="838.5,-268.5 838.5,-298.5 981.5,-298.5 981.5,-268.5 838.5,-268.5"/>
<text text-anchor="start" x="846.5" y="-286.5" font-family="Helvetica,sans-Serif" font-size="10.00">/home/build/sdk/c/ifxBase</text>
<text text-anchor="middle" x="910" y="-275.5" font-family="Helvetica,sans-Serif" font-size="10.00">/Cube.h</text>
</a>
</g>
</g>
<!-- Node1&#45;&gt;Node8 -->
<g id="edge10" class="edge">
<title>Node1&#45;&gt;Node8</title>
<path fill="none" stroke="midnightblue" d="M716.06,-332.98C758.53,-322.37 813.12,-308.72 853.56,-298.61"/>
<polygon fill="midnightblue" stroke="midnightblue" points="714.95,-329.66 706.1,-335.48 716.65,-336.45 714.95,-329.66"/>
</g>
<!-- Node14 -->
<g id="node14" class="node">
<title>Node14</title>
<g id="a_node14"><a xlink:href="_presence_sensing_8h.html" target="_top" xlink:title="API for Presence Sensing algorithm.">
<polygon fill="white" stroke="black" points="696.5,-134.5 696.5,-164.5 843.5,-164.5 843.5,-134.5 696.5,-134.5"/>
<text text-anchor="start" x="704.5" y="-152.5" font-family="Helvetica,sans-Serif" font-size="10.00">/home/build/sdk/c/ifxRadar</text>
<text text-anchor="middle" x="770" y="-141.5" font-family="Helvetica,sans-Serif" font-size="10.00">/PresenceSensing.h</text>
</a>
</g>
</g>
<!-- Node1&#45;&gt;Node14 -->
<g id="edge36" class="edge">
<title>Node1&#45;&gt;Node14</title>
<path fill="none" stroke="midnightblue" d="M668.8,-327.28C675.42,-318.78 682.56,-308.78 688,-299 710.7,-258.17 701.85,-240.99 726,-201 734.06,-187.66 745.73,-174.45 755.03,-164.89"/>
<polygon fill="midnightblue" stroke="midnightblue" points="665.97,-325.22 662.44,-335.21 671.43,-329.6 665.97,-325.22"/>
</g>
<!-- Node19 -->
<g id="node19" class="node">
<title>Node19</title>
<g id="a_node19"><a xlink:href="_segmentation_8h.html" target="_top" xlink:title="API for Segmentation algorithm.">
<polygon fill="white" stroke="black" points="1307.5,-201.5 1307.5,-231.5 1472.5,-231.5 1472.5,-201.5 1307.5,-201.5"/>
<text text-anchor="start" x="1315.5" y="-219.5" font-family="Helvetica,sans-Serif" font-size="10.00">/home/build/sdk/c/ifxRadar</text>
<text text-anchor="middle" x="1390" y="-208.5" font-family="Helvetica,sans-Serif" font-size="10.00">Segmentation/Segmentation.h</text>
</a>
</g>
</g>
<!-- Node1&#45;&gt;Node19 -->
<g id="edge43" class="edge">
<title>Node1&#45;&gt;Node19</title>
<path fill="none" stroke="midnightblue" d="M731.73,-341.93C813.24,-333.76 941.85,-319.13 1052,-299 1155.02,-280.17 1273.65,-249.43 1339.41,-231.57"/>
<polygon fill="midnightblue" stroke="midnightblue" points="731.14,-338.48 721.53,-342.95 731.83,-345.44 731.14,-338.48"/>
</g>
<!-- Node21 -->
<g id="node21" class="node">
<title>Node21</title>
<g id="a_node21"><a xlink:href="_l_a_8h.html" target="_top" xlink:title="API for Linear Algebra (LA)">
<polygon fill="white" stroke="black" points="511.5,-274 511.5,-293 678.5,-293 678.5,-274 511.5,-274"/>
<text text-anchor="middle" x="595" y="-281" font-family="Helvetica,sans-Serif" font-size="10.00">/home/build/sdk/c/ifxBase/LA.h</text>
</a>
</g>
</g>
<!-- Node1&#45;&gt;Node21 -->
<g id="edge34" class="edge">
<title>Node1&#45;&gt;Node21</title>
<path fill="none" stroke="midnightblue" d="M631.52,-327.66C621.54,-315.86 609.78,-301.97 602.36,-293.19"/>
<polygon fill="midnightblue" stroke="midnightblue" points="628.93,-330.02 638.07,-335.4 634.28,-325.5 628.93,-330.02"/>
</g>
<!-- Node22 -->
<g id="node22" class="node">
<title>Node22</title>
<g id="a_node22"><a xlink:href="_range_doppler_map_8h.html" target="_top" xlink:title="API for Range Doppler Map.">
<polygon fill="white" stroke="black" points="1142.5,-201.5 1142.5,-231.5 1289.5,-231.5 1289.5,-201.5 1142.5,-201.5"/>
<text text-anchor="start" x="1150.5" y="-219.5" font-family="Helvetica,sans-Serif" font-size="10.00">/home/build/sdk/c/ifxRadar</text>
<text text-anchor="middle" x="1216" y="-208.5" font-family="Helvetica,sans-Serif" font-size="10.00">/RangeDopplerMap.h</text>
</a>
</g>
</g>
<!-- Node1&#45;&gt;Node22 -->
<g id="edge37" class="edge">
<title>Node1&#45;&gt;Node22</title>
<path fill="none" stroke="midnightblue" d="M731.71,-342.05C801.36,-334.6 903.75,-321.02 991,-299 1061.29,-281.26 1140.3,-249.83 1183.48,-231.63"/>
<polygon fill="midnightblue" stroke="midnightblue" points="731.26,-338.58 721.68,-343.11 731.99,-345.54 731.26,-338.58"/>
</g>
<!-- Node23 -->
<g id="node23" class="node">
<title>Node23</title>
<g id="a_node23"><a xlink:href="_range_spectrum_8h.html" target="_top" xlink:title="API for Range Spectrum.">
<polygon fill="white" stroke="black" points="734.5,-201.5 734.5,-231.5 881.5,-231.5 881.5,-201.5 734.5,-201.5"/>
<text text-anchor="start" x="742.5" y="-219.5" font-family="Helvetica,sans-Serif" font-size="10.00">/home/build/sdk/c/ifxRadar</text>
<text text-anchor="middle" x="808" y="-208.5" font-family="Helvetica,sans-Serif" font-size="10.00">/RangeSpectrum.h</text>
</a>
</g>
</g>
<!-- Node1&#45;&gt;Node23 -->
<g id="edge40" class="edge">
<title>Node1&#45;&gt;Node23</title>
<path fill="none" stroke="midnightblue" d="M679.44,-329.47C692.18,-320.49 707.09,-309.57 720,-299 747.23,-276.71 776.86,-248.33 793.85,-231.62"/>
<polygon fill="midnightblue" stroke="midnightblue" points="677.22,-326.75 671.02,-335.34 681.22,-332.49 677.22,-326.75"/>
</g>
<!-- Node3 -->
<g id="node3" class="node">
<title>Node3</title>
<g id="a_node3"><a xlink:href="_algo_8h.html" target="_top" xlink:title="Header for ifxAlgo.">
<polygon fill="white" stroke="black" points="94,-201.5 94,-231.5 234,-231.5 234,-201.5 94,-201.5"/>
<text text-anchor="start" x="102" y="-219.5" font-family="Helvetica,sans-Serif" font-size="10.00">/home/build/sdk/c/ifxAlgo</text>
<text text-anchor="middle" x="164" y="-208.5" font-family="Helvetica,sans-Serif" font-size="10.00">/Algo.h</text>
</a>
</g>
</g>
<!-- Node2&#45;&gt;Node3 -->
<g id="edge2" class="edge">
<title>Node2&#45;&gt;Node3</title>
<path fill="none" stroke="midnightblue" d="M98.99,-262.45C113.45,-252.45 130.59,-240.6 143.64,-231.58"/>
<polygon fill="midnightblue" stroke="midnightblue" points="96.63,-259.83 90.4,-268.4 100.61,-265.59 96.63,-259.83"/>
</g>
<!-- Node4 -->
<g id="node4" class="node">
<title>Node4</title>
<g id="a_node4"><a xlink:href="_s_d_k_8h.html" target="_top" xlink:title="Master header file for Radar SDK.">
<polygon fill="white" stroke="black" points="285.5,-0.5 285.5,-30.5 432.5,-30.5 432.5,-0.5 285.5,-0.5"/>
<text text-anchor="start" x="293.5" y="-18.5" font-family="Helvetica,sans-Serif" font-size="10.00">/home/build/sdk/c/ifxRadar</text>
<text text-anchor="middle" x="359" y="-7.5" font-family="Helvetica,sans-Serif" font-size="10.00">/SDK.h</text>
</a>
</g>
</g>
<!-- Node3&#45;&gt;Node4 -->
<g id="edge3" class="edge">
<title>Node3&#45;&gt;Node4</title>
<path fill="none" stroke="midnightblue" d="M160.74,-190.94C157.85,-157.73 158.35,-99 192,-67 217.13,-43.1 253.19,-30.48 285.37,-23.83"/>
<polygon fill="midnightblue" stroke="midnightblue" points="157.29,-191.57 161.81,-201.15 164.25,-190.84 157.29,-191.57"/>
</g>
<!-- Node5&#45;&gt;Node3 -->
<g id="edge5" class="edge">
<title>Node5&#45;&gt;Node3</title>
<path fill="none" stroke="midnightblue" d="M206.85,-261.02C197.32,-251.34 186.33,-240.17 177.86,-231.58"/>
<polygon fill="midnightblue" stroke="midnightblue" points="204.6,-263.73 214.11,-268.4 209.59,-258.81 204.6,-263.73"/>
</g>
<!-- Node6&#45;&gt;Node3 -->
<g id="edge7" class="edge">
<title>Node6&#45;&gt;Node3</title>
<path fill="none" stroke="midnightblue" d="M328.21,-265.58C292.15,-255.02 246.28,-241.59 212.19,-231.61"/>
<polygon fill="midnightblue" stroke="midnightblue" points="327.52,-269.02 338.1,-268.48 329.49,-262.31 327.52,-269.02"/>
</g>
<!-- Node7&#45;&gt;Node4 -->
<g id="edge9" class="edge">
<title>Node7&#45;&gt;Node4</title>
<path fill="none" stroke="midnightblue" d="M360.02,-210.62C292.78,-204.71 205.2,-191.95 183,-165 135.53,-107.38 250.98,-54.8 316.91,-30.57"/>
<polygon fill="midnightblue" stroke="midnightblue" points="359.94,-214.13 370.2,-211.48 360.53,-207.15 359.94,-214.13"/>
</g>
<!-- Node8&#45;&gt;Node7 -->
<g id="edge23" class="edge">
<title>Node8&#45;&gt;Node7</title>
<path fill="none" stroke="midnightblue" d="M827.87,-272.93C749.42,-263.51 627.94,-248.23 523,-232 519.89,-231.52 516.72,-231.01 513.52,-230.49"/>
<polygon fill="midnightblue" stroke="midnightblue" points="827.83,-276.45 838.17,-274.16 828.66,-269.5 827.83,-276.45"/>
</g>
<!-- Node9 -->
<g id="node9" class="node">
<title>Node9</title>
<g id="a_node9"><a xlink:href="_device_control_8h.html" target="_top" xlink:title="API for Radar device control operations.">
<polygon fill="white" stroke="black" points="532,-201.5 532,-231.5 678,-231.5 678,-201.5 532,-201.5"/>
<text text-anchor="start" x="540" y="-219.5" font-family="Helvetica,sans-Serif" font-size="10.00">/home/build/sdk/c/ifxAvian</text>
<text text-anchor="middle" x="605" y="-208.5" font-family="Helvetica,sans-Serif" font-size="10.00">/DeviceControl.h</text>
</a>
</g>
</g>
<!-- Node8&#45;&gt;Node9 -->
<g id="edge11" class="edge">
<title>Node8&#45;&gt;Node9</title>
<path fill="none" stroke="midnightblue" d="M834.37,-266.38C784.2,-255.69 719.01,-241.8 670.95,-231.55"/>
<polygon fill="midnightblue" stroke="midnightblue" points="833.69,-269.81 844.2,-268.48 835.14,-262.97 833.69,-269.81"/>
</g>
<!-- Node16 -->
<g id="node16" class="node">
<title>Node16</title>
<g id="a_node16"><a xlink:href="_angle_capon_8h.html" target="_top" xlink:title="API for Angle Capon algorithm.">
<polygon fill="white" stroke="black" points="900.5,-134.5 900.5,-164.5 1047.5,-164.5 1047.5,-134.5 900.5,-134.5"/>
<text text-anchor="start" x="908.5" y="-152.5" font-family="Helvetica,sans-Serif" font-size="10.00">/home/build/sdk/c/ifxRadar</text>
<text text-anchor="middle" x="974" y="-141.5" font-family="Helvetica,sans-Serif" font-size="10.00">/AngleCapon.h</text>
</a>
</g>
</g>
<!-- Node8&#45;&gt;Node16 -->
<g id="edge24" class="edge">
<title>Node8&#45;&gt;Node16</title>
<path fill="none" stroke="midnightblue" d="M912.89,-258.12C915.6,-241.34 920.7,-218.93 930,-201 937.18,-187.17 948.9,-173.98 958.44,-164.55"/>
<polygon fill="midnightblue" stroke="midnightblue" points="909.4,-257.83 911.43,-268.23 916.32,-258.83 909.4,-257.83"/>
</g>
<!-- Node17 -->
<g id="node17" class="node">
<title>Node17</title>
<g id="a_node17"><a xlink:href="_d_b_f_8h.html" target="_top" xlink:title="API for Digital Beamforming (DBF) algorithm.">
<polygon fill="white" stroke="black" points="938.5,-201.5 938.5,-231.5 1085.5,-231.5 1085.5,-201.5 938.5,-201.5"/>
<text text-anchor="start" x="946.5" y="-219.5" font-family="Helvetica,sans-Serif" font-size="10.00">/home/build/sdk/c/ifxRadar</text>
<text text-anchor="middle" x="1012" y="-208.5" font-family="Helvetica,sans-Serif" font-size="10.00">/DBF.h</text>
</a>
</g>
</g>
<!-- Node8&#45;&gt;Node17 -->
<g id="edge26" class="edge">
<title>Node8&#45;&gt;Node17</title>
<path fill="none" stroke="midnightblue" d="M940.58,-263.02C956.45,-252.9 975.48,-240.77 989.91,-231.58"/>
<polygon fill="midnightblue" stroke="midnightblue" points="938.68,-260.07 932.13,-268.4 942.45,-265.97 938.68,-260.07"/>
</g>
<!-- Node18 -->
<g id="node18" class="node">
<title>Node18</title>
<g id="a_node18"><a xlink:href="_range_angle_image_8h.html" target="_top" xlink:title="API for Range Angle Image algorithm.">
<polygon fill="white" stroke="black" points="1104.5,-134.5 1104.5,-164.5 1251.5,-164.5 1251.5,-134.5 1104.5,-134.5"/>
<text text-anchor="start" x="1112.5" y="-152.5" font-family="Helvetica,sans-Serif" font-size="10.00">/home/build/sdk/c/ifxRadar</text>
<text text-anchor="middle" x="1178" y="-141.5" font-family="Helvetica,sans-Serif" font-size="10.00">/RangeAngleImage.h</text>
</a>
</g>
</g>
<!-- Node8&#45;&gt;Node18 -->
<g id="edge30" class="edge">
<title>Node8&#45;&gt;Node18</title>
<path fill="none" stroke="midnightblue" d="M991.62,-269.59C1025.17,-261.96 1063.47,-250.11 1095,-232 1110.94,-222.85 1146.16,-185.52 1165.2,-164.7"/>
<polygon fill="midnightblue" stroke="midnightblue" points="990.85,-266.18 981.83,-271.73 992.35,-273.02 990.85,-266.18"/>
</g>
<!-- Node8&#45;&gt;Node19 -->
<g id="edge31" class="edge">
<title>Node8&#45;&gt;Node19</title>
<path fill="none" stroke="midnightblue" d="M992.13,-272.54C1070.92,-262.82 1193.21,-247.29 1299,-232 1301.69,-231.61 1304.43,-231.21 1307.19,-230.8"/>
<polygon fill="midnightblue" stroke="midnightblue" points="991.28,-269.12 981.78,-273.81 992.13,-276.06 991.28,-269.12"/>
</g>
<!-- Node10 -->
<g id="node10" class="node">
<title>Node10</title>
<g id="a_node10"><a xlink:href="_avian_8h.html" target="_top" xlink:title=" ">
<polygon fill="white" stroke="black" points="286,-67.5 286,-97.5 432,-97.5 432,-67.5 286,-67.5"/>
<text text-anchor="start" x="294" y="-85.5" font-family="Helvetica,sans-Serif" font-size="10.00">/home/build/sdk/c/ifxAvian</text>
<text text-anchor="middle" x="359" y="-74.5" font-family="Helvetica,sans-Serif" font-size="10.00">/Avian.h</text>
</a>
</g>
</g>
<!-- Node9&#45;&gt;Node10 -->
<g id="edge12" class="edge">
<title>Node9&#45;&gt;Node10</title>
<path fill="none" stroke="midnightblue" d="M521.64,-201.11C434.52,-192.75 242.03,-217.47 195,-165 162.37,-128.6 228.09,-106.52 285.8,-94.7"/>
<polygon fill="midnightblue" stroke="midnightblue" points="521.38,-204.6 531.72,-202.3 522.2,-197.65 521.38,-204.6"/>
</g>
<!-- Node11 -->
<g id="node11" class="node">
<title>Node11</title>
<g id="a_node11"><a xlink:href="_constant_wave_control_8h.html" target="_top" xlink:title="Header for Constant Wave Control. It provides APIs to use an Avian device in constant wave mode....">
<polygon fill="white" stroke="black" points="204,-134.5 204,-164.5 350,-164.5 350,-134.5 204,-134.5"/>
<text text-anchor="start" x="212" y="-152.5" font-family="Helvetica,sans-Serif" font-size="10.00">/home/build/sdk/c/ifxAvian</text>
<text text-anchor="middle" x="277" y="-141.5" font-family="Helvetica,sans-Serif" font-size="10.00">/ConstantWaveControl.h</text>
</a>
</g>
</g>
<!-- Node9&#45;&gt;Node11 -->
<g id="edge14" class="edge">
<title>Node9&#45;&gt;Node11</title>
<path fill="none" stroke="midnightblue" d="M524.34,-199.52C470.3,-188.81 399.82,-174.84 347.92,-164.55"/>
<polygon fill="midnightblue" stroke="midnightblue" points="523.74,-202.97 534.23,-201.48 525.1,-196.1 523.74,-202.97"/>
</g>
<!-- Node12 -->
<g id="node12" class="node">
<title>Node12</title>
<g id="a_node12"><a xlink:href="_metrics_8h.html" target="_top" xlink:title="API for Metrics.">
<polygon fill="white" stroke="black" points="368,-134.5 368,-164.5 514,-164.5 514,-134.5 368,-134.5"/>
<text text-anchor="start" x="376" y="-152.5" font-family="Helvetica,sans-Serif" font-size="10.00">/home/build/sdk/c/ifxAvian</text>
<text text-anchor="middle" x="441" y="-141.5" font-family="Helvetica,sans-Serif" font-size="10.00">/Metrics.h</text>
</a>
</g>
</g>
<!-- Node9&#45;&gt;Node12 -->
<g id="edge16" class="edge">
<title>Node9&#45;&gt;Node12</title>
<path fill="none" stroke="midnightblue" d="M560.04,-197.68C533.74,-187.26 501,-174.28 476.52,-164.58"/>
<polygon fill="midnightblue" stroke="midnightblue" points="558.83,-200.97 569.41,-201.4 561.41,-194.46 558.83,-200.97"/>
</g>
<!-- Node13 -->
<g id="node13" class="node">
<title>Node13</title>
<g id="a_node13"><a xlink:href="_shapes_8h.html" target="_top" xlink:title=" ">
<polygon fill="white" stroke="black" points="532,-134.5 532,-164.5 678,-164.5 678,-134.5 532,-134.5"/>
<text text-anchor="start" x="540" y="-152.5" font-family="Helvetica,sans-Serif" font-size="10.00">/home/build/sdk/c/ifxAvian</text>
<text text-anchor="middle" x="605" y="-141.5" font-family="Helvetica,sans-Serif" font-size="10.00">/Shapes.h</text>
</a>
</g>
</g>
<!-- Node9&#45;&gt;Node13 -->
<g id="edge18" class="edge">
<title>Node9&#45;&gt;Node13</title>
<path fill="none" stroke="midnightblue" d="M605,-191.11C605,-182.15 605,-172.32 605,-164.58"/>
<polygon fill="midnightblue" stroke="midnightblue" points="601.5,-191.4 605,-201.4 608.5,-191.4 601.5,-191.4"/>
</g>
<!-- Node9&#45;&gt;Node14 -->
<g id="edge20" class="edge">
<title>Node9&#45;&gt;Node14</title>
<path fill="none" stroke="midnightblue" d="M650.23,-197.68C676.69,-187.26 709.63,-174.28 734.27,-164.58"/>
<polygon fill="midnightblue" stroke="midnightblue" points="648.82,-194.47 640.8,-201.4 651.39,-200.99 648.82,-194.47"/>
</g>
<!-- Node10&#45;&gt;Node4 -->
<g id="edge13" class="edge">
<title>Node10&#45;&gt;Node4</title>
<path fill="none" stroke="midnightblue" d="M359,-57.11C359,-48.15 359,-38.32 359,-30.58"/>
<polygon fill="midnightblue" stroke="midnightblue" points="355.5,-57.4 359,-67.4 362.5,-57.4 355.5,-57.4"/>
</g>
<!-- Node11&#45;&gt;Node10 -->
<g id="edge15" class="edge">
<title>Node11&#45;&gt;Node10</title>
<path fill="none" stroke="midnightblue" d="M302.65,-128.17C315.19,-118.23 329.97,-106.51 341.24,-97.58"/>
<polygon fill="midnightblue" stroke="midnightblue" points="300.46,-125.44 294.79,-134.4 304.8,-130.93 300.46,-125.44"/>
</g>
<!-- Node12&#45;&gt;Node10 -->
<g id="edge17" class="edge">
<title>Node12&#45;&gt;Node10</title>
<path fill="none" stroke="midnightblue" d="M415.35,-128.17C402.81,-118.23 388.03,-106.51 376.76,-97.58"/>
<polygon fill="midnightblue" stroke="midnightblue" points="413.2,-130.93 423.21,-134.4 417.54,-125.44 413.2,-130.93"/>
</g>
<!-- Node13&#45;&gt;Node10 -->
<g id="edge19" class="edge">
<title>Node13&#45;&gt;Node10</title>
<path fill="none" stroke="midnightblue" d="M542.24,-131.92C502.1,-121.31 450.58,-107.7 412.4,-97.61"/>
<polygon fill="midnightblue" stroke="midnightblue" points="541.36,-135.31 551.92,-134.48 543.15,-128.54 541.36,-135.31"/>
</g>
<!-- Node15 -->
<g id="node15" class="node">
<title>Node15</title>
<g id="a_node15"><a xlink:href="_radar_8h.html" target="_top" xlink:title="Header for ifxRadar.">
<polygon fill="white" stroke="black" points="900.5,-67.5 900.5,-97.5 1047.5,-97.5 1047.5,-67.5 900.5,-67.5"/>
<text text-anchor="start" x="908.5" y="-85.5" font-family="Helvetica,sans-Serif" font-size="10.00">/home/build/sdk/c/ifxRadar</text>
<text text-anchor="middle" x="974" y="-74.5" font-family="Helvetica,sans-Serif" font-size="10.00">/Radar.h</text>
</a>
</g>
</g>
<!-- Node14&#45;&gt;Node15 -->
<g id="edge21" class="edge">
<title>Node14&#45;&gt;Node15</title>
<path fill="none" stroke="midnightblue" d="M823.96,-131.31C856.96,-120.79 898.66,-107.51 929.71,-97.61"/>
<polygon fill="midnightblue" stroke="midnightblue" points="822.48,-128.11 814.01,-134.48 824.6,-134.77 822.48,-128.11"/>
</g>
<!-- Node15&#45;&gt;Node4 -->
<g id="edge22" class="edge">
<title>Node15&#45;&gt;Node4</title>
<path fill="none" stroke="midnightblue" d="M890.48,-72.67C769.59,-59.9 547.76,-36.45 432.66,-24.28"/>
<polygon fill="midnightblue" stroke="midnightblue" points="890.11,-76.15 900.43,-73.72 890.85,-69.19 890.11,-76.15"/>
</g>
<!-- Node16&#45;&gt;Node15 -->
<g id="edge25" class="edge">
<title>Node16&#45;&gt;Node15</title>
<path fill="none" stroke="midnightblue" d="M974,-124.11C974,-115.15 974,-105.32 974,-97.58"/>
<polygon fill="midnightblue" stroke="midnightblue" points="970.5,-124.4 974,-134.4 977.5,-124.4 970.5,-124.4"/>
</g>
<!-- Node17&#45;&gt;Node15 -->
<g id="edge27" class="edge">
<title>Node17&#45;&gt;Node15</title>
<path fill="none" stroke="midnightblue" d="M1036.58,-194.28C1052.56,-177.8 1068.47,-154.4 1057,-134 1047.66,-117.38 1030.39,-105.6 1014.02,-97.62"/>
<polygon fill="midnightblue" stroke="midnightblue" points="1034.06,-191.85 1029.33,-201.33 1038.94,-196.87 1034.06,-191.85"/>
</g>
<!-- Node17&#45;&gt;Node18 -->
<g id="edge28" class="edge">
<title>Node17&#45;&gt;Node18</title>
<path fill="none" stroke="midnightblue" d="M1057.51,-197.68C1084.13,-187.26 1117.27,-174.28 1142.05,-164.58"/>
<polygon fill="midnightblue" stroke="midnightblue" points="1056.05,-194.49 1048.02,-201.4 1058.61,-201.01 1056.05,-194.49"/>
</g>
<!-- Node18&#45;&gt;Node15 -->
<g id="edge29" class="edge">
<title>Node18&#45;&gt;Node15</title>
<path fill="none" stroke="midnightblue" d="M1124.04,-131.31C1091.04,-120.79 1049.34,-107.51 1018.29,-97.61"/>
<polygon fill="midnightblue" stroke="midnightblue" points="1123.4,-134.77 1133.99,-134.48 1125.52,-128.11 1123.4,-134.77"/>
</g>
<!-- Node20 -->
<g id="node20" class="node">
<title>Node20</title>
<g id="a_node20"><a xlink:href="_radar_segmentation_8h.html" target="_top" xlink:title="Header for ifxRadarSegmentation.">
<polygon fill="white" stroke="black" points="1179,-67.5 1179,-97.5 1373,-97.5 1373,-67.5 1179,-67.5"/>
<text text-anchor="start" x="1187" y="-85.5" font-family="Helvetica,sans-Serif" font-size="10.00">/home/build/sdk/c/ifxRadar</text>
<text text-anchor="middle" x="1276" y="-74.5" font-family="Helvetica,sans-Serif" font-size="10.00">Segmentation/RadarSegmentation.h</text>
</a>
</g>
</g>
<!-- Node19&#45;&gt;Node20 -->
<g id="edge32" class="edge">
<title>Node19&#45;&gt;Node20</title>
<path fill="none" stroke="midnightblue" d="M1371.04,-193.54C1347.47,-166.25 1307.94,-120.48 1288.11,-97.52"/>
<polygon fill="midnightblue" stroke="midnightblue" points="1368.61,-196.09 1377.8,-201.37 1373.91,-191.52 1368.61,-196.09"/>
</g>
<!-- Node20&#45;&gt;Node4 -->
<g id="edge33" class="edge">
<title>Node20&#45;&gt;Node4</title>
<path fill="none" stroke="midnightblue" d="M1168.53,-73.88C979.97,-60.52 594.28,-33.18 432.74,-21.73"/>
<polygon fill="midnightblue" stroke="midnightblue" points="1168.51,-77.39 1178.73,-74.61 1169.01,-70.41 1168.51,-77.39"/>
</g>
<!-- Node21&#45;&gt;Node7 -->
<g id="edge35" class="edge">
<title>Node21&#45;&gt;Node7</title>
<path fill="none" stroke="midnightblue" d="M565.37,-269.91C539.46,-258.91 501.89,-242.94 475.02,-231.53"/>
<polygon fill="midnightblue" stroke="midnightblue" points="564.11,-273.18 574.68,-273.87 566.85,-266.74 564.11,-273.18"/>
</g>
<!-- Node22&#45;&gt;Node15 -->
<g id="edge38" class="edge">
<title>Node22&#45;&gt;Node15</title>
<path fill="none" stroke="midnightblue" d="M1241.22,-194.27C1258.76,-176.95 1276.46,-152.41 1261,-134 1234.25,-102.13 1123.37,-90.36 1047.53,-86.03"/>
<polygon fill="midnightblue" stroke="midnightblue" points="1238.71,-191.82 1233.8,-201.21 1243.49,-196.93 1238.71,-191.82"/>
</g>
<!-- Node22&#45;&gt;Node18 -->
<g id="edge39" class="edge">
<title>Node22&#45;&gt;Node18</title>
<path fill="none" stroke="midnightblue" d="M1202.6,-192.58C1197.14,-183.24 1191.01,-172.75 1186.23,-164.58"/>
<polygon fill="midnightblue" stroke="midnightblue" points="1199.69,-194.53 1207.75,-201.4 1205.73,-191 1199.69,-194.53"/>
</g>
<!-- Node23&#45;&gt;Node14 -->
<g id="edge41" class="edge">
<title>Node23&#45;&gt;Node14</title>
<path fill="none" stroke="midnightblue" d="M794.6,-192.58C789.14,-183.24 783.01,-172.75 778.23,-164.58"/>
<polygon fill="midnightblue" stroke="midnightblue" points="791.69,-194.53 799.75,-201.4 797.73,-191 791.69,-194.53"/>
</g>
<!-- Node23&#45;&gt;Node15 -->
<g id="edge42" class="edge">
<title>Node23&#45;&gt;Node15</title>
<path fill="none" stroke="midnightblue" d="M827.75,-193.88C844.09,-176.63 868.36,-152.39 892,-134 909.68,-120.24 931.32,-107.05 947.93,-97.6"/>
<polygon fill="midnightblue" stroke="midnightblue" points="825.12,-191.58 820.84,-201.27 830.23,-196.36 825.12,-191.58"/>
</g>
</g>
</svg>
