<?xml version="1.0" encoding="UTF-8" standalone="no"?>
<!DOCTYPE svg PUBLIC "-//W3C//DTD SVG 1.1//EN"
 "http://www.w3.org/Graphics/SVG/1.1/DTD/svg11.dtd">
<!-- Generated by graphviz version 2.43.0 (0)
 -->
<!-- Title: /home/build/sdk/c/ifxAvian/Metrics.h Pages: 1 -->
<svg width="578pt" height="442pt"
 viewBox="0.00 0.00 578.00 442.00" xmlns="http://www.w3.org/2000/svg" xmlns:xlink="http://www.w3.org/1999/xlink">
<g id="graph0" class="graph" transform="scale(1 1) rotate(0) translate(4 438)">
<title>/home/build/sdk/c/ifxAvian/Metrics.h</title>
<polygon fill="white" stroke="transparent" points="-4,4 -4,-438 574,-438 574,4 -4,4"/>
<!-- Node1 -->
<g id="node1" class="node">
<title>Node1</title>
<g id="a_node1"><a xlink:title="API for Metrics.">
<polygon fill="#bfbfbf" stroke="black" points="18,-403.5 18,-433.5 164,-433.5 164,-403.5 18,-403.5"/>
<text text-anchor="start" x="26" y="-421.5" font-family="Helvetica,sans-Serif" font-size="10.00">/home/build/sdk/c/ifxAvian</text>
<text text-anchor="middle" x="91" y="-410.5" font-family="Helvetica,sans-Serif" font-size="10.00">/Metrics.h</text>
</a>
</g>
</g>
<!-- Node2 -->
<g id="node2" class="node">
<title>Node2</title>
<g id="a_node2"><a xlink:href="_types_8h.html" target="_top" xlink:title="Definitions of data types used within the SDK.">
<polygon fill="white" stroke="black" points="169.5,-56.5 169.5,-75.5 262.5,-75.5 262.5,-56.5 169.5,-56.5"/>
<text text-anchor="middle" x="216" y="-63.5" font-family="Helvetica,sans-Serif" font-size="10.00">ifxBase/Types.h</text>
</a>
</g>
</g>
<!-- Node1&#45;&gt;Node2 -->
<g id="edge1" class="edge">
<title>Node1&#45;&gt;Node2</title>
<path fill="none" stroke="midnightblue" d="M68.97,-403.21C42.04,-383.81 0,-346.42 0,-302 0,-302 0,-302 0,-177 0,-105.4 95.42,-80.38 159.42,-71.66"/>
<polygon fill="midnightblue" stroke="midnightblue" points="159.92,-75.12 169.4,-70.39 159.04,-68.18 159.92,-75.12"/>
</g>
<!-- Node6 -->
<g id="node6" class="node">
<title>Node6</title>
<g id="a_node6"><a xlink:href="_device_control_8h.html" target="_top" xlink:title="API for Radar device control operations.">
<polygon fill="white" stroke="black" points="134.5,-347.5 134.5,-366.5 229.5,-366.5 229.5,-347.5 134.5,-347.5"/>
<text text-anchor="middle" x="182" y="-354.5" font-family="Helvetica,sans-Serif" font-size="10.00">DeviceControl.h</text>
</a>
</g>
</g>
<!-- Node1&#45;&gt;Node6 -->
<g id="edge5" class="edge">
<title>Node1&#45;&gt;Node6</title>
<path fill="none" stroke="midnightblue" d="M112.57,-403.4C126.88,-394.04 145.61,-381.79 160.01,-372.38"/>
<polygon fill="midnightblue" stroke="midnightblue" points="162.3,-375.06 168.76,-366.66 158.47,-369.2 162.3,-375.06"/>
</g>
<!-- Node3 -->
<g id="node3" class="node">
<title>Node3</title>
<g id="a_node3"><a xlink:title=" ">
<polygon fill="white" stroke="#bfbfbf" points="116.5,-0.5 116.5,-19.5 169.5,-19.5 169.5,-0.5 116.5,-0.5"/>
<text text-anchor="middle" x="143" y="-7.5" font-family="Helvetica,sans-Serif" font-size="10.00">stdint.h</text>
</a>
</g>
</g>
<!-- Node2&#45;&gt;Node3 -->
<g id="edge2" class="edge">
<title>Node2&#45;&gt;Node3</title>
<path fill="none" stroke="midnightblue" d="M204.27,-56.32C193.16,-48.11 176.26,-35.6 163.02,-25.81"/>
<polygon fill="midnightblue" stroke="midnightblue" points="165.06,-22.97 154.94,-19.83 160.9,-28.59 165.06,-22.97"/>
</g>
<!-- Node4 -->
<g id="node4" class="node">
<title>Node4</title>
<g id="a_node4"><a xlink:title=" ">
<polygon fill="white" stroke="#bfbfbf" points="188,-0.5 188,-19.5 244,-19.5 244,-0.5 188,-0.5"/>
<text text-anchor="middle" x="216" y="-7.5" font-family="Helvetica,sans-Serif" font-size="10.00">stddef.h</text>
</a>
</g>
</g>
<!-- Node2&#45;&gt;Node4 -->
<g id="edge3" class="edge">
<title>Node2&#45;&gt;Node4</title>
<path fill="none" stroke="midnightblue" d="M216,-56.08C216,-49.01 216,-38.86 216,-29.99"/>
<polygon fill="midnightblue" stroke="midnightblue" points="219.5,-29.75 216,-19.75 212.5,-29.75 219.5,-29.75"/>
</g>
<!-- Node5 -->
<g id="node5" class="node">
<title>Node5</title>
<g id="a_node5"><a xlink:title=" ">
<polygon fill="white" stroke="#bfbfbf" points="262,-0.5 262,-19.5 324,-19.5 324,-0.5 262,-0.5"/>
<text text-anchor="middle" x="293" y="-7.5" font-family="Helvetica,sans-Serif" font-size="10.00">stdbool.h</text>
</a>
</g>
</g>
<!-- Node2&#45;&gt;Node5 -->
<g id="edge4" class="edge">
<title>Node2&#45;&gt;Node5</title>
<path fill="none" stroke="midnightblue" d="M228.37,-56.32C240.16,-48.06 258.13,-35.45 272.14,-25.63"/>
<polygon fill="midnightblue" stroke="midnightblue" points="274.48,-28.26 280.66,-19.65 270.46,-22.53 274.48,-28.26"/>
</g>
<!-- Node6&#45;&gt;Node2 -->
<g id="edge6" class="edge">
<title>Node6&#45;&gt;Node2</title>
<path fill="none" stroke="midnightblue" d="M134.5,-349.79C108.25,-343.97 77,-332.72 57,-311 35.02,-287.13 38,-272.95 38,-240.5 38,-240.5 38,-240.5 38,-177 38,-118.98 107.28,-90.54 159.39,-77.36"/>
<polygon fill="midnightblue" stroke="midnightblue" points="160.33,-80.73 169.23,-74.99 158.69,-73.93 160.33,-80.73"/>
</g>
<!-- Node7 -->
<g id="node7" class="node">
<title>Node7</title>
<g id="a_node7"><a xlink:href="_error_8h.html" target="_top" xlink:title="API for error handling.">
<polygon fill="white" stroke="black" points="66,-291.5 66,-310.5 154,-310.5 154,-291.5 66,-291.5"/>
<text text-anchor="middle" x="110" y="-298.5" font-family="Helvetica,sans-Serif" font-size="10.00">ifxBase/Error.h</text>
</a>
</g>
</g>
<!-- Node6&#45;&gt;Node7 -->
<g id="edge7" class="edge">
<title>Node6&#45;&gt;Node7</title>
<path fill="none" stroke="midnightblue" d="M170.43,-347.32C159.58,-339.18 143.12,-326.84 130.12,-317.09"/>
<polygon fill="midnightblue" stroke="midnightblue" points="131.88,-314.03 121.78,-310.83 127.68,-319.63 131.88,-314.03"/>
</g>
<!-- Node10 -->
<g id="node10" class="node">
<title>Node10</title>
<g id="a_node10"><a xlink:href="_list_8h.html" target="_top" xlink:title=" ">
<polygon fill="white" stroke="black" points="104.5,-112.5 104.5,-131.5 187.5,-131.5 187.5,-112.5 104.5,-112.5"/>
<text text-anchor="middle" x="146" y="-119.5" font-family="Helvetica,sans-Serif" font-size="10.00">ifxBase/List.h</text>
</a>
</g>
</g>
<!-- Node6&#45;&gt;Node10 -->
<g id="edge11" class="edge">
<title>Node6&#45;&gt;Node10</title>
<path fill="none" stroke="midnightblue" d="M181.92,-347.25C181.5,-320.2 178.92,-235.7 163,-168 160.87,-158.96 157.38,-149.27 154.12,-141.22"/>
<polygon fill="midnightblue" stroke="midnightblue" points="157.23,-139.58 150.09,-131.75 150.79,-142.32 157.23,-139.58"/>
</g>
<!-- Node11 -->
<g id="node11" class="node">
<title>Node11</title>
<g id="a_node11"><a xlink:href="_cube_8h.html" target="_top" xlink:title="API for operations on Cube data structures.">
<polygon fill="white" stroke="black" points="216,-291.5 216,-310.5 306,-310.5 306,-291.5 216,-291.5"/>
<text text-anchor="middle" x="261" y="-298.5" font-family="Helvetica,sans-Serif" font-size="10.00">ifxBase/Cube.h</text>
</a>
</g>
</g>
<!-- Node6&#45;&gt;Node11 -->
<g id="edge13" class="edge">
<title>Node6&#45;&gt;Node11</title>
<path fill="none" stroke="midnightblue" d="M194.69,-347.32C206.9,-338.98 225.58,-326.21 240,-316.35"/>
<polygon fill="midnightblue" stroke="midnightblue" points="242.06,-319.19 248.34,-310.65 238.11,-313.41 242.06,-319.19"/>
</g>
<!-- Node16 -->
<g id="node16" class="node">
<title>Node16</title>
<g id="a_node16"><a xlink:href="_device_config_8h.html" target="_top" xlink:title="API for Radar device configuration.">
<polygon fill="white" stroke="black" points="339.5,-291.5 339.5,-310.5 472.5,-310.5 472.5,-291.5 339.5,-291.5"/>
<text text-anchor="middle" x="406" y="-298.5" font-family="Helvetica,sans-Serif" font-size="10.00">ifxAvian/DeviceConfig.h</text>
</a>
</g>
</g>
<!-- Node6&#45;&gt;Node16 -->
<g id="edge22" class="edge">
<title>Node6&#45;&gt;Node16</title>
<path fill="none" stroke="midnightblue" d="M217.49,-347.44C256.32,-338.08 318.66,-323.06 360.92,-312.87"/>
<polygon fill="midnightblue" stroke="midnightblue" points="361.77,-316.26 370.67,-310.52 360.13,-309.46 361.77,-316.26"/>
</g>
<!-- Node17 -->
<g id="node17" class="node">
<title>Node17</title>
<g id="a_node17"><a xlink:href="_radar_device_common_8h.html" target="_top" xlink:title="Header for ifxRadarDeviceCommon.">
<polygon fill="white" stroke="black" points="434,-224.5 434,-254.5 570,-254.5 570,-224.5 434,-224.5"/>
<text text-anchor="start" x="442" y="-242.5" font-family="Helvetica,sans-Serif" font-size="10.00">ifxRadarDeviceCommon</text>
<text text-anchor="middle" x="502" y="-231.5" font-family="Helvetica,sans-Serif" font-size="10.00">/RadarDeviceCommon.h</text>
</a>
</g>
</g>
<!-- Node6&#45;&gt;Node17 -->
<g id="edge26" class="edge">
<title>Node6&#45;&gt;Node17</title>
<path fill="none" stroke="midnightblue" d="M229.68,-354.97C304.66,-352.38 445.38,-343.23 482,-311 495.04,-299.53 499.86,-280.25 501.52,-264.74"/>
<polygon fill="midnightblue" stroke="midnightblue" points="505.01,-264.98 502.22,-254.76 498.03,-264.49 505.01,-264.98"/>
</g>
<!-- Node8 -->
<g id="node8" class="node">
<title>Node8</title>
<g id="a_node8"><a xlink:href="_log_8h.html" target="_top" xlink:title="API for logging.">
<polygon fill="white" stroke="black" points="68.5,-230 68.5,-249 151.5,-249 151.5,-230 68.5,-230"/>
<text text-anchor="middle" x="110" y="-237" font-family="Helvetica,sans-Serif" font-size="10.00">ifxBase/Log.h</text>
</a>
</g>
</g>
<!-- Node7&#45;&gt;Node8 -->
<g id="edge8" class="edge">
<title>Node7&#45;&gt;Node8</title>
<path fill="none" stroke="midnightblue" d="M110,-291.48C110,-283.08 110,-269.98 110,-259.16"/>
<polygon fill="midnightblue" stroke="midnightblue" points="113.5,-259.01 110,-249.01 106.5,-259.01 113.5,-259.01"/>
</g>
<!-- Node8&#45;&gt;Node2 -->
<g id="edge10" class="edge">
<title>Node8&#45;&gt;Node2</title>
<path fill="none" stroke="midnightblue" d="M105.44,-229.84C94.57,-207.86 69.87,-149 96,-112 110.55,-91.41 135.72,-80.23 159.27,-74.16"/>
<polygon fill="midnightblue" stroke="midnightblue" points="160.27,-77.52 169.23,-71.86 158.7,-70.7 160.27,-77.52"/>
</g>
<!-- Node9 -->
<g id="node9" class="node">
<title>Node9</title>
<g id="a_node9"><a xlink:title=" ">
<polygon fill="white" stroke="#bfbfbf" points="104,-168.5 104,-187.5 154,-187.5 154,-168.5 104,-168.5"/>
<text text-anchor="middle" x="129" y="-175.5" font-family="Helvetica,sans-Serif" font-size="10.00">stdio.h</text>
</a>
</g>
</g>
<!-- Node8&#45;&gt;Node9 -->
<g id="edge9" class="edge">
<title>Node8&#45;&gt;Node9</title>
<path fill="none" stroke="midnightblue" d="M112.72,-229.98C115.43,-221.49 119.67,-208.2 123.15,-197.32"/>
<polygon fill="midnightblue" stroke="midnightblue" points="126.57,-198.1 126.28,-187.51 119.91,-195.97 126.57,-198.1"/>
</g>
<!-- Node10&#45;&gt;Node2 -->
<g id="edge12" class="edge">
<title>Node10&#45;&gt;Node2</title>
<path fill="none" stroke="midnightblue" d="M157.25,-112.32C167.8,-104.18 183.8,-91.84 196.44,-82.09"/>
<polygon fill="midnightblue" stroke="midnightblue" points="198.77,-84.71 204.55,-75.83 194.49,-79.17 198.77,-84.71"/>
</g>
<!-- Node12 -->
<g id="node12" class="node">
<title>Node12</title>
<g id="a_node12"><a xlink:href="_defines_8h.html" target="_top" xlink:title="Internal definitions used by standard math.h functions as Macros, to use float or double precision.">
<polygon fill="white" stroke="black" points="210,-230 210,-249 312,-249 312,-230 210,-230"/>
<text text-anchor="middle" x="261" y="-237" font-family="Helvetica,sans-Serif" font-size="10.00">ifxBase/Defines.h</text>
</a>
</g>
</g>
<!-- Node11&#45;&gt;Node12 -->
<g id="edge14" class="edge">
<title>Node11&#45;&gt;Node12</title>
<path fill="none" stroke="midnightblue" d="M261,-291.48C261,-283.08 261,-269.98 261,-259.16"/>
<polygon fill="midnightblue" stroke="midnightblue" points="264.5,-259.01 261,-249.01 257.5,-259.01 264.5,-259.01"/>
</g>
<!-- Node15 -->
<g id="node15" class="node">
<title>Node15</title>
<g id="a_node15"><a xlink:href="_matrix_8h.html" target="_top" xlink:title="API for operations on Matrix data structures.">
<polygon fill="white" stroke="black" points="280.5,-168.5 280.5,-187.5 377.5,-187.5 377.5,-168.5 280.5,-168.5"/>
<text text-anchor="middle" x="329" y="-175.5" font-family="Helvetica,sans-Serif" font-size="10.00">ifxBase/Matrix.h</text>
</a>
</g>
</g>
<!-- Node11&#45;&gt;Node15 -->
<g id="edge19" class="edge">
<title>Node11&#45;&gt;Node15</title>
<path fill="none" stroke="midnightblue" d="M279.52,-291.37C293.42,-283.85 311.62,-271.53 321,-255 330.9,-237.54 331.9,-214.18 331.05,-197.98"/>
<polygon fill="midnightblue" stroke="midnightblue" points="334.51,-197.33 330.21,-187.65 327.53,-197.9 334.51,-197.33"/>
</g>
<!-- Node13 -->
<g id="node13" class="node">
<title>Node13</title>
<g id="a_node13"><a xlink:href="_math_8h.html" target="_top" xlink:title="API for Mathematical operations.">
<polygon fill="white" stroke="black" points="211.5,-168.5 211.5,-187.5 262.5,-187.5 262.5,-168.5 211.5,-168.5"/>
<text text-anchor="middle" x="237" y="-175.5" font-family="Helvetica,sans-Serif" font-size="10.00">math.h</text>
</a>
</g>
</g>
<!-- Node12&#45;&gt;Node13 -->
<g id="edge15" class="edge">
<title>Node12&#45;&gt;Node13</title>
<path fill="none" stroke="midnightblue" d="M257.56,-229.98C254.1,-221.4 248.67,-207.93 244.25,-196.98"/>
<polygon fill="midnightblue" stroke="midnightblue" points="247.42,-195.47 240.43,-187.51 240.93,-198.09 247.42,-195.47"/>
</g>
<!-- Node13&#45;&gt;Node2 -->
<g id="edge16" class="edge">
<title>Node13&#45;&gt;Node2</title>
<path fill="none" stroke="midnightblue" d="M235.35,-168.37C231.96,-150.62 224.15,-109.67 219.55,-85.6"/>
<polygon fill="midnightblue" stroke="midnightblue" points="222.95,-84.76 217.64,-75.59 216.08,-86.07 222.95,-84.76"/>
</g>
<!-- Node14 -->
<g id="node14" class="node">
<title>Node14</title>
<g id="a_node14"><a xlink:href="_vector_8h.html" target="_top" xlink:title="API for operations on Vector data structures.">
<polygon fill="white" stroke="black" points="244.5,-112.5 244.5,-131.5 339.5,-131.5 339.5,-112.5 244.5,-112.5"/>
<text text-anchor="middle" x="292" y="-119.5" font-family="Helvetica,sans-Serif" font-size="10.00">ifxBase/Vector.h</text>
</a>
</g>
</g>
<!-- Node13&#45;&gt;Node14 -->
<g id="edge17" class="edge">
<title>Node13&#45;&gt;Node14</title>
<path fill="none" stroke="midnightblue" d="M246.08,-168.08C254.17,-160.14 266.2,-148.34 275.91,-138.8"/>
<polygon fill="midnightblue" stroke="midnightblue" points="278.4,-141.25 283.09,-131.75 273.5,-136.26 278.4,-141.25"/>
</g>
<!-- Node14&#45;&gt;Node2 -->
<g id="edge18" class="edge">
<title>Node14&#45;&gt;Node2</title>
<path fill="none" stroke="midnightblue" d="M279.79,-112.32C268.22,-104.11 250.62,-91.6 236.84,-81.81"/>
<polygon fill="midnightblue" stroke="midnightblue" points="238.61,-78.77 228.43,-75.83 234.56,-84.48 238.61,-78.77"/>
</g>
<!-- Node15&#45;&gt;Node2 -->
<g id="edge20" class="edge">
<title>Node15&#45;&gt;Node2</title>
<path fill="none" stroke="midnightblue" d="M336.19,-168.22C346.13,-154.95 361.53,-129.46 349,-112 331.6,-87.74 300.41,-76.4 272.61,-71.16"/>
<polygon fill="midnightblue" stroke="midnightblue" points="272.99,-67.67 262.55,-69.49 271.85,-74.58 272.99,-67.67"/>
</g>
<!-- Node15&#45;&gt;Node14 -->
<g id="edge21" class="edge">
<title>Node15&#45;&gt;Node14</title>
<path fill="none" stroke="midnightblue" d="M322.89,-168.08C317.72,-160.53 310.15,-149.49 303.81,-140.23"/>
<polygon fill="midnightblue" stroke="midnightblue" points="306.54,-138.02 298,-131.75 300.76,-141.98 306.54,-138.02"/>
</g>
<!-- Node16&#45;&gt;Node2 -->
<g id="edge23" class="edge">
<title>Node16&#45;&gt;Node2</title>
<path fill="none" stroke="midnightblue" d="M407.2,-291.25C410.77,-261.13 418.05,-160.91 365,-112 339.92,-88.88 303.35,-77.62 272.71,-72.14"/>
<polygon fill="midnightblue" stroke="midnightblue" points="273.01,-68.64 262.58,-70.5 271.89,-75.55 273.01,-68.64"/>
</g>
<!-- Node16&#45;&gt;Node17 -->
<g id="edge24" class="edge">
<title>Node16&#45;&gt;Node17</title>
<path fill="none" stroke="midnightblue" d="M419.75,-291.48C433,-283.27 453.5,-270.56 470.72,-259.88"/>
<polygon fill="midnightblue" stroke="midnightblue" points="472.72,-262.77 479.37,-254.52 469.03,-256.82 472.72,-262.77"/>
</g>
<!-- Node17&#45;&gt;Node2 -->
<g id="edge25" class="edge">
<title>Node17&#45;&gt;Node2</title>
<path fill="none" stroke="midnightblue" d="M496.93,-224.1C486.77,-197.48 461.29,-140.64 420,-112 376.55,-81.86 316.41,-71.46 272.7,-68.08"/>
<polygon fill="midnightblue" stroke="midnightblue" points="272.73,-64.58 262.52,-67.4 272.26,-71.56 272.73,-64.58"/>
</g>
</g>
</svg>
