<?xml version="1.0" encoding="UTF-8" standalone="no"?>
<!DOCTYPE svg PUBLIC "-//W3C//DTD SVG 1.1//EN"
 "http://www.w3.org/Graphics/SVG/1.1/DTD/svg11.dtd">
<!-- Generated by graphviz version 2.43.0 (0)
 -->
<!-- Title: /home/build/sdk/c/ifxRadar/PresenceSensing.h Pages: 1 -->
<svg width="958pt" height="442pt"
 viewBox="0.00 0.00 957.50 442.00" xmlns="http://www.w3.org/2000/svg" xmlns:xlink="http://www.w3.org/1999/xlink">
<g id="graph0" class="graph" transform="scale(1 1) rotate(0) translate(4 438)">
<title>/home/build/sdk/c/ifxRadar/PresenceSensing.h</title>
<polygon fill="white" stroke="transparent" points="-4,4 -4,-438 953.5,-438 953.5,4 -4,4"/>
<!-- Node1 -->
<g id="node1" class="node">
<title>Node1</title>
<g id="a_node1"><a xlink:title="API for Presence Sensing algorithm.">
<polygon fill="#bfbfbf" stroke="black" points="255.5,-403.5 255.5,-433.5 402.5,-433.5 402.5,-403.5 255.5,-403.5"/>
<text text-anchor="start" x="263.5" y="-421.5" font-family="Helvetica,sans-Serif" font-size="10.00">/home/build/sdk/c/ifxRadar</text>
<text text-anchor="middle" x="329" y="-410.5" font-family="Helvetica,sans-Serif" font-size="10.00">/PresenceSensing.h</text>
</a>
</g>
</g>
<!-- Node2 -->
<g id="node2" class="node">
<title>Node2</title>
<g id="a_node2"><a xlink:href="_window_8h.html" target="_top" xlink:title="API for Window function processing.">
<polygon fill="white" stroke="black" points="66.5,-168.5 66.5,-187.5 167.5,-187.5 167.5,-168.5 66.5,-168.5"/>
<text text-anchor="middle" x="117" y="-175.5" font-family="Helvetica,sans-Serif" font-size="10.00">ifxAlgo/Window.h</text>
</a>
</g>
</g>
<!-- Node1&#45;&gt;Node2 -->
<g id="edge1" class="edge">
<title>Node1&#45;&gt;Node2</title>
<path fill="none" stroke="midnightblue" d="M295.67,-403.42C257.35,-385.99 194.19,-353.36 151,-311 130.05,-290.45 124.09,-283.21 116,-255 112.2,-241.76 115.85,-237.78 116,-224 116.1,-215.4 116.29,-205.87 116.49,-197.8"/>
<polygon fill="midnightblue" stroke="midnightblue" points="119.99,-197.71 116.75,-187.63 112.99,-197.53 119.99,-197.71"/>
</g>
<!-- Node3 -->
<g id="node3" class="node">
<title>Node3</title>
<g id="a_node3"><a xlink:href="_types_8h.html" target="_top" xlink:title="Definitions of data types used within the SDK.">
<polygon fill="white" stroke="black" points="377.5,-56.5 377.5,-75.5 470.5,-75.5 470.5,-56.5 377.5,-56.5"/>
<text text-anchor="middle" x="424" y="-63.5" font-family="Helvetica,sans-Serif" font-size="10.00">ifxBase/Types.h</text>
</a>
</g>
</g>
<!-- Node1&#45;&gt;Node3 -->
<g id="edge8" class="edge">
<title>Node1&#45;&gt;Node3</title>
<path fill="none" stroke="midnightblue" d="M255.17,-406.73C158.17,-390.48 0,-355.73 0,-302 0,-302 0,-302 0,-177 0,-101.98 251.84,-77.26 367.34,-69.87"/>
<polygon fill="midnightblue" stroke="midnightblue" points="367.65,-73.35 377.41,-69.24 367.21,-66.37 367.65,-73.35"/>
</g>
<!-- Node8 -->
<g id="node8" class="node">
<title>Node8</title>
<g id="a_node8"><a xlink:href="_matrix_8h.html" target="_top" xlink:title="API for operations on Matrix data structures.">
<polygon fill="white" stroke="black" points="344.5,-230 344.5,-249 441.5,-249 441.5,-230 344.5,-230"/>
<text text-anchor="middle" x="393" y="-237" font-family="Helvetica,sans-Serif" font-size="10.00">ifxBase/Matrix.h</text>
</a>
</g>
</g>
<!-- Node1&#45;&gt;Node8 -->
<g id="edge9" class="edge">
<title>Node1&#45;&gt;Node8</title>
<path fill="none" stroke="midnightblue" d="M334.13,-403.31C345.63,-371.5 373.49,-294.45 386.33,-258.96"/>
<polygon fill="midnightblue" stroke="midnightblue" points="389.68,-259.97 389.79,-249.37 383.1,-257.59 389.68,-259.97"/>
</g>
<!-- Node9 -->
<g id="node9" class="node">
<title>Node9</title>
<g id="a_node9"><a xlink:href="_device_config_8h.html" target="_top" xlink:title="API for Radar device configuration.">
<polygon fill="white" stroke="black" points="549.5,-291.5 549.5,-310.5 682.5,-310.5 682.5,-291.5 549.5,-291.5"/>
<text text-anchor="middle" x="616" y="-298.5" font-family="Helvetica,sans-Serif" font-size="10.00">ifxAvian/DeviceConfig.h</text>
</a>
</g>
</g>
<!-- Node1&#45;&gt;Node9 -->
<g id="edge12" class="edge">
<title>Node1&#45;&gt;Node9</title>
<path fill="none" stroke="midnightblue" d="M363.9,-403.45C420.58,-380.64 531.68,-335.93 585.43,-314.3"/>
<polygon fill="midnightblue" stroke="midnightblue" points="586.8,-317.52 594.77,-310.54 584.19,-311.03 586.8,-317.52"/>
</g>
<!-- Node11 -->
<g id="node11" class="node">
<title>Node11</title>
<g id="a_node11"><a xlink:href="_device_control_8h.html" target="_top" xlink:title="API for Radar device control operations.">
<polygon fill="white" stroke="black" points="642.5,-347.5 642.5,-366.5 779.5,-366.5 779.5,-347.5 642.5,-347.5"/>
<text text-anchor="middle" x="711" y="-354.5" font-family="Helvetica,sans-Serif" font-size="10.00">ifxAvian/DeviceControl.h</text>
</a>
</g>
</g>
<!-- Node1&#45;&gt;Node11 -->
<g id="edge16" class="edge">
<title>Node1&#45;&gt;Node11</title>
<path fill="none" stroke="midnightblue" d="M402.65,-406.03C473.28,-395.03 578.87,-378.58 646.33,-368.07"/>
<polygon fill="midnightblue" stroke="midnightblue" points="647.07,-371.5 656.41,-366.5 645.99,-364.58 647.07,-371.5"/>
</g>
<!-- Node19 -->
<g id="node19" class="node">
<title>Node19</title>
<g id="a_node19"><a xlink:href="_range_spectrum_8h.html" target="_top" xlink:title="API for Range Spectrum.">
<polygon fill="white" stroke="black" points="160.5,-291.5 160.5,-310.5 307.5,-310.5 307.5,-291.5 160.5,-291.5"/>
<text text-anchor="middle" x="234" y="-298.5" font-family="Helvetica,sans-Serif" font-size="10.00">ifxRadar/RangeSpectrum.h</text>
</a>
</g>
</g>
<!-- Node1&#45;&gt;Node19 -->
<g id="edge32" class="edge">
<title>Node1&#45;&gt;Node19</title>
<path fill="none" stroke="midnightblue" d="M317.35,-403.34C299.69,-381.86 266.22,-341.17 247.51,-318.43"/>
<polygon fill="midnightblue" stroke="midnightblue" points="250.19,-316.17 241.13,-310.67 244.78,-320.62 250.19,-316.17"/>
</g>
<!-- Node2&#45;&gt;Node3 -->
<g id="edge2" class="edge">
<title>Node2&#45;&gt;Node3</title>
<path fill="none" stroke="midnightblue" d="M123.03,-168.18C133.32,-153.88 155.73,-125.83 182,-112 240.19,-81.36 315.88,-71.3 366.99,-68.14"/>
<polygon fill="midnightblue" stroke="midnightblue" points="367.4,-71.63 377.19,-67.59 367.02,-64.64 367.4,-71.63"/>
</g>
<!-- Node7 -->
<g id="node7" class="node">
<title>Node7</title>
<g id="a_node7"><a xlink:href="_vector_8h.html" target="_top" xlink:title="API for operations on Vector data structures.">
<polygon fill="white" stroke="black" points="298.5,-112.5 298.5,-131.5 393.5,-131.5 393.5,-112.5 298.5,-112.5"/>
<text text-anchor="middle" x="346" y="-119.5" font-family="Helvetica,sans-Serif" font-size="10.00">ifxBase/Vector.h</text>
</a>
</g>
</g>
<!-- Node2&#45;&gt;Node7 -->
<g id="edge6" class="edge">
<title>Node2&#45;&gt;Node7</title>
<path fill="none" stroke="midnightblue" d="M153.29,-168.44C192.98,-159.08 256.71,-144.06 299.91,-133.87"/>
<polygon fill="midnightblue" stroke="midnightblue" points="300.95,-137.22 309.88,-131.52 299.35,-130.41 300.95,-137.22"/>
</g>
<!-- Node4 -->
<g id="node4" class="node">
<title>Node4</title>
<g id="a_node4"><a xlink:title=" ">
<polygon fill="white" stroke="#bfbfbf" points="324.5,-0.5 324.5,-19.5 377.5,-19.5 377.5,-0.5 324.5,-0.5"/>
<text text-anchor="middle" x="351" y="-7.5" font-family="Helvetica,sans-Serif" font-size="10.00">stdint.h</text>
</a>
</g>
</g>
<!-- Node3&#45;&gt;Node4 -->
<g id="edge3" class="edge">
<title>Node3&#45;&gt;Node4</title>
<path fill="none" stroke="midnightblue" d="M412.27,-56.32C401.16,-48.11 384.26,-35.6 371.02,-25.81"/>
<polygon fill="midnightblue" stroke="midnightblue" points="373.06,-22.97 362.94,-19.83 368.9,-28.59 373.06,-22.97"/>
</g>
<!-- Node5 -->
<g id="node5" class="node">
<title>Node5</title>
<g id="a_node5"><a xlink:title=" ">
<polygon fill="white" stroke="#bfbfbf" points="396,-0.5 396,-19.5 452,-19.5 452,-0.5 396,-0.5"/>
<text text-anchor="middle" x="424" y="-7.5" font-family="Helvetica,sans-Serif" font-size="10.00">stddef.h</text>
</a>
</g>
</g>
<!-- Node3&#45;&gt;Node5 -->
<g id="edge4" class="edge">
<title>Node3&#45;&gt;Node5</title>
<path fill="none" stroke="midnightblue" d="M424,-56.08C424,-49.01 424,-38.86 424,-29.99"/>
<polygon fill="midnightblue" stroke="midnightblue" points="427.5,-29.75 424,-19.75 420.5,-29.75 427.5,-29.75"/>
</g>
<!-- Node6 -->
<g id="node6" class="node">
<title>Node6</title>
<g id="a_node6"><a xlink:title=" ">
<polygon fill="white" stroke="#bfbfbf" points="470,-0.5 470,-19.5 532,-19.5 532,-0.5 470,-0.5"/>
<text text-anchor="middle" x="501" y="-7.5" font-family="Helvetica,sans-Serif" font-size="10.00">stdbool.h</text>
</a>
</g>
</g>
<!-- Node3&#45;&gt;Node6 -->
<g id="edge5" class="edge">
<title>Node3&#45;&gt;Node6</title>
<path fill="none" stroke="midnightblue" d="M436.37,-56.32C448.16,-48.06 466.13,-35.45 480.14,-25.63"/>
<polygon fill="midnightblue" stroke="midnightblue" points="482.48,-28.26 488.66,-19.65 478.46,-22.53 482.48,-28.26"/>
</g>
<!-- Node7&#45;&gt;Node3 -->
<g id="edge7" class="edge">
<title>Node7&#45;&gt;Node3</title>
<path fill="none" stroke="midnightblue" d="M358.53,-112.32C370.59,-103.98 389.03,-91.21 403.27,-81.35"/>
<polygon fill="midnightblue" stroke="midnightblue" points="405.27,-84.22 411.5,-75.65 401.28,-78.47 405.27,-84.22"/>
</g>
<!-- Node8&#45;&gt;Node3 -->
<g id="edge10" class="edge">
<title>Node8&#45;&gt;Node3</title>
<path fill="none" stroke="midnightblue" d="M411.74,-229.93C427.33,-221.66 448.45,-207.51 458,-188 475.11,-153.05 451.88,-108.08 436.21,-84"/>
<polygon fill="midnightblue" stroke="midnightblue" points="439.01,-81.89 430.49,-75.6 433.22,-85.83 439.01,-81.89"/>
</g>
<!-- Node8&#45;&gt;Node7 -->
<g id="edge11" class="edge">
<title>Node8&#45;&gt;Node7</title>
<path fill="none" stroke="midnightblue" d="M389.47,-229.82C381.85,-211.09 363.72,-166.55 353.44,-141.29"/>
<polygon fill="midnightblue" stroke="midnightblue" points="356.58,-139.73 349.57,-131.78 350.1,-142.36 356.58,-139.73"/>
</g>
<!-- Node9&#45;&gt;Node3 -->
<g id="edge13" class="edge">
<title>Node9&#45;&gt;Node3</title>
<path fill="none" stroke="midnightblue" d="M611.54,-291.21C604,-276.68 587.9,-246.98 571,-224 531.28,-170.01 516.42,-160.35 470,-112 460.52,-102.13 449.58,-91.4 440.75,-82.9"/>
<polygon fill="midnightblue" stroke="midnightblue" points="442.98,-80.18 433.33,-75.8 438.14,-85.24 442.98,-80.18"/>
</g>
<!-- Node10 -->
<g id="node10" class="node">
<title>Node10</title>
<g id="a_node10"><a xlink:href="_radar_device_common_8h.html" target="_top" xlink:title="Header for ifxRadarDeviceCommon.">
<polygon fill="white" stroke="black" points="618,-224.5 618,-254.5 754,-254.5 754,-224.5 618,-224.5"/>
<text text-anchor="start" x="626" y="-242.5" font-family="Helvetica,sans-Serif" font-size="10.00">ifxRadarDeviceCommon</text>
<text text-anchor="middle" x="686" y="-231.5" font-family="Helvetica,sans-Serif" font-size="10.00">/RadarDeviceCommon.h</text>
</a>
</g>
</g>
<!-- Node9&#45;&gt;Node10 -->
<g id="edge14" class="edge">
<title>Node9&#45;&gt;Node10</title>
<path fill="none" stroke="midnightblue" d="M626.03,-291.48C635.33,-283.57 649.55,-271.48 661.8,-261.07"/>
<polygon fill="midnightblue" stroke="midnightblue" points="664.15,-263.67 669.5,-254.52 659.62,-258.33 664.15,-263.67"/>
</g>
<!-- Node10&#45;&gt;Node3 -->
<g id="edge15" class="edge">
<title>Node10&#45;&gt;Node3</title>
<path fill="none" stroke="midnightblue" d="M680.85,-224.21C670.57,-197.76 644.89,-141.21 604,-112 568.06,-86.33 518.99,-75.25 481.16,-70.49"/>
<polygon fill="midnightblue" stroke="midnightblue" points="481.14,-66.97 470.8,-69.31 480.34,-73.92 481.14,-66.97"/>
</g>
<!-- Node11&#45;&gt;Node3 -->
<g id="edge17" class="edge">
<title>Node11&#45;&gt;Node3</title>
<path fill="none" stroke="midnightblue" d="M721.17,-347.27C740.8,-329.39 782,-286.4 782,-240.5 782,-240.5 782,-240.5 782,-177 782,-114.77 581.83,-84.1 480.84,-72.59"/>
<polygon fill="midnightblue" stroke="midnightblue" points="481.13,-69.1 470.8,-71.47 480.35,-76.05 481.13,-69.1"/>
</g>
<!-- Node11&#45;&gt;Node9 -->
<g id="edge30" class="edge">
<title>Node11&#45;&gt;Node9</title>
<path fill="none" stroke="midnightblue" d="M695.74,-347.32C680.78,-338.82 657.75,-325.73 640.27,-315.8"/>
<polygon fill="midnightblue" stroke="midnightblue" points="641.65,-312.55 631.23,-310.65 638.19,-318.64 641.65,-312.55"/>
</g>
<!-- Node11&#45;&gt;Node10 -->
<g id="edge31" class="edge">
<title>Node11&#45;&gt;Node10</title>
<path fill="none" stroke="midnightblue" d="M709.12,-347.32C705.37,-329.97 696.81,-290.46 691.23,-264.66"/>
<polygon fill="midnightblue" stroke="midnightblue" points="694.58,-263.58 689.04,-254.55 687.73,-265.06 694.58,-263.58"/>
</g>
<!-- Node12 -->
<g id="node12" class="node">
<title>Node12</title>
<g id="a_node12"><a xlink:href="_error_8h.html" target="_top" xlink:title="API for error handling.">
<polygon fill="white" stroke="black" points="810,-291.5 810,-310.5 898,-310.5 898,-291.5 810,-291.5"/>
<text text-anchor="middle" x="854" y="-298.5" font-family="Helvetica,sans-Serif" font-size="10.00">ifxBase/Error.h</text>
</a>
</g>
</g>
<!-- Node11&#45;&gt;Node12 -->
<g id="edge18" class="edge">
<title>Node11&#45;&gt;Node12</title>
<path fill="none" stroke="midnightblue" d="M733.66,-347.44C757.4,-338.48 794.91,-324.31 821.74,-314.18"/>
<polygon fill="midnightblue" stroke="midnightblue" points="823.33,-317.32 831.45,-310.52 820.86,-310.77 823.33,-317.32"/>
</g>
<!-- Node15 -->
<g id="node15" class="node">
<title>Node15</title>
<g id="a_node15"><a xlink:href="_list_8h.html" target="_top" xlink:title=" ">
<polygon fill="white" stroke="black" points="866.5,-112.5 866.5,-131.5 949.5,-131.5 949.5,-112.5 866.5,-112.5"/>
<text text-anchor="middle" x="908" y="-119.5" font-family="Helvetica,sans-Serif" font-size="10.00">ifxBase/List.h</text>
</a>
</g>
</g>
<!-- Node11&#45;&gt;Node15 -->
<g id="edge22" class="edge">
<title>Node11&#45;&gt;Node15</title>
<path fill="none" stroke="midnightblue" d="M779.64,-349.23C829.56,-342.73 891.07,-330.89 907,-311 946.75,-261.36 926.57,-178.38 914.66,-141.56"/>
<polygon fill="midnightblue" stroke="midnightblue" points="917.84,-140.05 911.31,-131.71 911.22,-142.3 917.84,-140.05"/>
</g>
<!-- Node16 -->
<g id="node16" class="node">
<title>Node16</title>
<g id="a_node16"><a xlink:href="_cube_8h.html" target="_top" xlink:title="API for operations on Cube data structures.">
<polygon fill="white" stroke="black" points="441,-291.5 441,-310.5 531,-310.5 531,-291.5 441,-291.5"/>
<text text-anchor="middle" x="486" y="-298.5" font-family="Helvetica,sans-Serif" font-size="10.00">ifxBase/Cube.h</text>
</a>
</g>
</g>
<!-- Node11&#45;&gt;Node16 -->
<g id="edge24" class="edge">
<title>Node11&#45;&gt;Node16</title>
<path fill="none" stroke="midnightblue" d="M675.35,-347.44C636.34,-338.08 573.73,-323.06 531.28,-312.87"/>
<polygon fill="midnightblue" stroke="midnightblue" points="532.03,-309.45 521.49,-310.52 530.39,-316.25 532.03,-309.45"/>
</g>
<!-- Node13 -->
<g id="node13" class="node">
<title>Node13</title>
<g id="a_node13"><a xlink:href="_log_8h.html" target="_top" xlink:title="API for logging.">
<polygon fill="white" stroke="black" points="812.5,-230 812.5,-249 895.5,-249 895.5,-230 812.5,-230"/>
<text text-anchor="middle" x="854" y="-237" font-family="Helvetica,sans-Serif" font-size="10.00">ifxBase/Log.h</text>
</a>
</g>
</g>
<!-- Node12&#45;&gt;Node13 -->
<g id="edge19" class="edge">
<title>Node12&#45;&gt;Node13</title>
<path fill="none" stroke="midnightblue" d="M854,-291.48C854,-283.08 854,-269.98 854,-259.16"/>
<polygon fill="midnightblue" stroke="midnightblue" points="857.5,-259.01 854,-249.01 850.5,-259.01 857.5,-259.01"/>
</g>
<!-- Node13&#45;&gt;Node3 -->
<g id="edge21" class="edge">
<title>Node13&#45;&gt;Node3</title>
<path fill="none" stroke="midnightblue" d="M851.28,-229.91C842.89,-203.94 816.68,-127.1 796,-112 747.05,-76.26 572.3,-68.71 480.8,-67.24"/>
<polygon fill="midnightblue" stroke="midnightblue" points="480.65,-63.74 470.6,-67.1 480.55,-70.74 480.65,-63.74"/>
</g>
<!-- Node14 -->
<g id="node14" class="node">
<title>Node14</title>
<g id="a_node14"><a xlink:title=" ">
<polygon fill="white" stroke="#bfbfbf" points="848,-168.5 848,-187.5 898,-187.5 898,-168.5 848,-168.5"/>
<text text-anchor="middle" x="873" y="-175.5" font-family="Helvetica,sans-Serif" font-size="10.00">stdio.h</text>
</a>
</g>
</g>
<!-- Node13&#45;&gt;Node14 -->
<g id="edge20" class="edge">
<title>Node13&#45;&gt;Node14</title>
<path fill="none" stroke="midnightblue" d="M856.72,-229.98C859.43,-221.49 863.67,-208.2 867.15,-197.32"/>
<polygon fill="midnightblue" stroke="midnightblue" points="870.57,-198.1 870.28,-187.51 863.91,-195.97 870.57,-198.1"/>
</g>
<!-- Node15&#45;&gt;Node3 -->
<g id="edge23" class="edge">
<title>Node15&#45;&gt;Node3</title>
<path fill="none" stroke="midnightblue" d="M866.14,-115.82C855.65,-114.55 844.41,-113.2 834,-112 708.06,-97.43 560.21,-81.49 481,-73.04"/>
<polygon fill="midnightblue" stroke="midnightblue" points="481.07,-69.53 470.75,-71.95 480.32,-76.49 481.07,-69.53"/>
</g>
<!-- Node16&#45;&gt;Node8 -->
<g id="edge29" class="edge">
<title>Node16&#45;&gt;Node8</title>
<path fill="none" stroke="midnightblue" d="M472.68,-291.48C457.62,-281.84 432.88,-266.02 414.96,-254.55"/>
<polygon fill="midnightblue" stroke="midnightblue" points="416.61,-251.45 406.3,-249.01 412.84,-257.35 416.61,-251.45"/>
</g>
<!-- Node17 -->
<g id="node17" class="node">
<title>Node17</title>
<g id="a_node17"><a xlink:href="_defines_8h.html" target="_top" xlink:title="Internal definitions used by standard math.h functions as Macros, to use float or double precision.">
<polygon fill="white" stroke="black" points="460,-230 460,-249 562,-249 562,-230 460,-230"/>
<text text-anchor="middle" x="511" y="-237" font-family="Helvetica,sans-Serif" font-size="10.00">ifxBase/Defines.h</text>
</a>
</g>
</g>
<!-- Node16&#45;&gt;Node17 -->
<g id="edge25" class="edge">
<title>Node16&#45;&gt;Node17</title>
<path fill="none" stroke="midnightblue" d="M489.58,-291.48C493.18,-282.9 498.85,-269.43 503.44,-258.48"/>
<polygon fill="midnightblue" stroke="midnightblue" points="506.78,-259.58 507.42,-249.01 500.32,-256.87 506.78,-259.58"/>
</g>
<!-- Node18 -->
<g id="node18" class="node">
<title>Node18</title>
<g id="a_node18"><a xlink:href="_math_8h.html" target="_top" xlink:title="API for Mathematical operations.">
<polygon fill="white" stroke="black" points="398.5,-168.5 398.5,-187.5 449.5,-187.5 449.5,-168.5 398.5,-168.5"/>
<text text-anchor="middle" x="424" y="-175.5" font-family="Helvetica,sans-Serif" font-size="10.00">math.h</text>
</a>
</g>
</g>
<!-- Node17&#45;&gt;Node18 -->
<g id="edge26" class="edge">
<title>Node17&#45;&gt;Node18</title>
<path fill="none" stroke="midnightblue" d="M498.54,-229.98C484.58,-220.43 461.74,-204.81 445.01,-193.37"/>
<polygon fill="midnightblue" stroke="midnightblue" points="446.67,-190.27 436.44,-187.51 442.72,-196.04 446.67,-190.27"/>
</g>
<!-- Node18&#45;&gt;Node3 -->
<g id="edge27" class="edge">
<title>Node18&#45;&gt;Node3</title>
<path fill="none" stroke="midnightblue" d="M424,-168.37C424,-150.62 424,-109.67 424,-85.6"/>
<polygon fill="midnightblue" stroke="midnightblue" points="427.5,-85.59 424,-75.59 420.5,-85.59 427.5,-85.59"/>
</g>
<!-- Node18&#45;&gt;Node7 -->
<g id="edge28" class="edge">
<title>Node18&#45;&gt;Node7</title>
<path fill="none" stroke="midnightblue" d="M411.47,-168.32C399.41,-159.98 380.97,-147.21 366.73,-137.35"/>
<polygon fill="midnightblue" stroke="midnightblue" points="368.72,-134.47 358.5,-131.65 364.73,-140.22 368.72,-134.47"/>
</g>
<!-- Node19&#45;&gt;Node2 -->
<g id="edge40" class="edge">
<title>Node19&#45;&gt;Node2</title>
<path fill="none" stroke="midnightblue" d="M193.82,-291.45C172.71,-284.92 148.14,-273.74 133,-255 119.92,-238.81 116.8,-214.51 116.38,-197.77"/>
<polygon fill="midnightblue" stroke="midnightblue" points="119.88,-197.59 116.43,-187.58 112.88,-197.56 119.88,-197.59"/>
</g>
<!-- Node19&#45;&gt;Node3 -->
<g id="edge41" class="edge">
<title>Node19&#45;&gt;Node3</title>
<path fill="none" stroke="midnightblue" d="M199.97,-291.49C138.92,-274.42 20.39,-232.07 57,-168 81.31,-125.44 105.93,-128.73 152,-112 223.58,-86.01 311.24,-74.94 367.35,-70.29"/>
<polygon fill="midnightblue" stroke="midnightblue" points="367.76,-73.77 377.45,-69.49 367.21,-66.79 367.76,-73.77"/>
</g>
<!-- Node19&#45;&gt;Node7 -->
<g id="edge43" class="edge">
<title>Node19&#45;&gt;Node7</title>
<path fill="none" stroke="midnightblue" d="M250.86,-291.4C264.68,-283.58 283.89,-270.85 296,-255 322.82,-219.9 336.66,-168.79 342.5,-141.61"/>
<polygon fill="midnightblue" stroke="midnightblue" points="345.99,-142.04 344.53,-131.55 339.12,-140.66 345.99,-142.04"/>
</g>
<!-- Node19&#45;&gt;Node8 -->
<g id="edge42" class="edge">
<title>Node19&#45;&gt;Node8</title>
<path fill="none" stroke="midnightblue" d="M256.78,-291.48C284.05,-281.27 329.91,-264.11 360.8,-252.55"/>
<polygon fill="midnightblue" stroke="midnightblue" points="362.12,-255.79 370.26,-249.01 359.67,-249.24 362.12,-255.79"/>
</g>
<!-- Node20 -->
<g id="node20" class="node">
<title>Node20</title>
<g id="a_node20"><a xlink:href="_preprocessed_f_f_t_8h.html" target="_top" xlink:title="API for Pre&#45;processed FFT.">
<polygon fill="white" stroke="black" points="142.5,-230 142.5,-249 287.5,-249 287.5,-230 142.5,-230"/>
<text text-anchor="middle" x="215" y="-237" font-family="Helvetica,sans-Serif" font-size="10.00">ifxAlgo/PreprocessedFFT.h</text>
</a>
</g>
</g>
<!-- Node19&#45;&gt;Node20 -->
<g id="edge33" class="edge">
<title>Node19&#45;&gt;Node20</title>
<path fill="none" stroke="midnightblue" d="M231.28,-291.48C228.57,-282.99 224.33,-269.7 220.85,-258.82"/>
<polygon fill="midnightblue" stroke="midnightblue" points="224.09,-257.47 217.72,-249.01 217.43,-259.6 224.09,-257.47"/>
</g>
<!-- Node20&#45;&gt;Node2 -->
<g id="edge37" class="edge">
<title>Node20&#45;&gt;Node2</title>
<path fill="none" stroke="midnightblue" d="M200.96,-229.98C184.95,-220.25 158.55,-204.23 139.63,-192.74"/>
<polygon fill="midnightblue" stroke="midnightblue" points="141.38,-189.71 131.01,-187.51 137.75,-195.69 141.38,-189.71"/>
</g>
<!-- Node20&#45;&gt;Node3 -->
<g id="edge38" class="edge">
<title>Node20&#45;&gt;Node3</title>
<path fill="none" stroke="midnightblue" d="M212.91,-229.83C210.05,-216.08 206.2,-188.73 215,-168 229,-135.02 242.06,-130.08 273,-112 302.07,-95.02 338.1,-83.96 367.66,-77.06"/>
<polygon fill="midnightblue" stroke="midnightblue" points="368.43,-80.47 377.43,-74.88 366.9,-73.64 368.43,-80.47"/>
</g>
<!-- Node20&#45;&gt;Node18 -->
<g id="edge39" class="edge">
<title>Node20&#45;&gt;Node18</title>
<path fill="none" stroke="midnightblue" d="M244.94,-229.98C282.92,-219.16 348.32,-200.55 388.69,-189.05"/>
<polygon fill="midnightblue" stroke="midnightblue" points="389.72,-192.4 398.38,-186.29 387.81,-185.66 389.72,-192.4"/>
</g>
<!-- Node21 -->
<g id="node21" class="node">
<title>Node21</title>
<g id="a_node21"><a xlink:href="_f_f_t_8h.html" target="_top" xlink:title="API for Fast Fourier Transform (FFT)">
<polygon fill="white" stroke="black" points="224,-168.5 224,-187.5 304,-187.5 304,-168.5 224,-168.5"/>
<text text-anchor="middle" x="264" y="-175.5" font-family="Helvetica,sans-Serif" font-size="10.00">ifxAlgo/FFT.h</text>
</a>
</g>
</g>
<!-- Node20&#45;&gt;Node21 -->
<g id="edge34" class="edge">
<title>Node20&#45;&gt;Node21</title>
<path fill="none" stroke="midnightblue" d="M222.02,-229.98C229.44,-220.96 241.33,-206.52 250.57,-195.31"/>
<polygon fill="midnightblue" stroke="midnightblue" points="253.34,-197.45 256.99,-187.51 247.93,-193 253.34,-197.45"/>
</g>
<!-- Node21&#45;&gt;Node3 -->
<g id="edge35" class="edge">
<title>Node21&#45;&gt;Node3</title>
<path fill="none" stroke="midnightblue" d="M265,-168.11C267.04,-154.22 272.92,-127.37 289,-112 310.14,-91.8 340.6,-80.65 367.23,-74.51"/>
<polygon fill="midnightblue" stroke="midnightblue" points="368.17,-77.89 377.23,-72.4 366.72,-71.05 368.17,-77.89"/>
</g>
<!-- Node21&#45;&gt;Node7 -->
<g id="edge36" class="edge">
<title>Node21&#45;&gt;Node7</title>
<path fill="none" stroke="midnightblue" d="M277.17,-168.32C289.85,-159.98 309.23,-147.21 324.21,-137.35"/>
<polygon fill="midnightblue" stroke="midnightblue" points="326.43,-140.08 332.86,-131.65 322.58,-134.23 326.43,-140.08"/>
</g>
</g>
</svg>
