<?xml version="1.0" encoding="UTF-8" standalone="no"?>
<!DOCTYPE svg PUBLIC "-//W3C//DTD SVG 1.1//EN"
 "http://www.w3.org/Graphics/SVG/1.1/DTD/svg11.dtd">
<!-- Generated by graphviz version 2.43.0 (0)
 -->
<!-- Title: /home/build/sdk/c/ifxRadarDeviceCommon/RadarDeviceCommon.h Pages: 1 -->
<svg width="849pt" height="374pt"
 viewBox="0.00 0.00 849.00 374.00" xmlns="http://www.w3.org/2000/svg" xmlns:xlink="http://www.w3.org/1999/xlink">
<g id="graph0" class="graph" transform="scale(1 1) rotate(0) translate(4 370)">
<title>/home/build/sdk/c/ifxRadarDeviceCommon/RadarDeviceCommon.h</title>
<polygon fill="white" stroke="transparent" points="-4,4 -4,-370 845,-370 845,4 -4,4"/>
<!-- Node1 -->
<g id="node1" class="node">
<title>Node1</title>
<g id="a_node1"><a xlink:title="Header for ifxRadarDeviceCommon.">
<polygon fill="#bfbfbf" stroke="black" points="263.5,-335.5 263.5,-365.5 476.5,-365.5 476.5,-335.5 263.5,-335.5"/>
<text text-anchor="start" x="271.5" y="-353.5" font-family="Helvetica,sans-Serif" font-size="10.00">/home/build/sdk/c/ifxRadar</text>
<text text-anchor="middle" x="370" y="-342.5" font-family="Helvetica,sans-Serif" font-size="10.00">DeviceCommon/RadarDeviceCommon.h</text>
</a>
</g>
</g>
<!-- Node2 -->
<g id="node2" class="node">
<title>Node2</title>
<g id="a_node2"><a xlink:href="_device_config_8h.html" target="_top" xlink:title="API for Radar device configuration.">
<polygon fill="white" stroke="black" points="247,-268.5 247,-298.5 393,-298.5 393,-268.5 247,-268.5"/>
<text text-anchor="start" x="255" y="-286.5" font-family="Helvetica,sans-Serif" font-size="10.00">/home/build/sdk/c/ifxAvian</text>
<text text-anchor="middle" x="320" y="-275.5" font-family="Helvetica,sans-Serif" font-size="10.00">/DeviceConfig.h</text>
</a>
</g>
</g>
<!-- Node1&#45;&gt;Node2 -->
<g id="edge1" class="edge">
<title>Node1&#45;&gt;Node2</title>
<path fill="none" stroke="midnightblue" d="M353.04,-327.45C345.69,-317.9 337.31,-307 330.83,-298.58"/>
<polygon fill="midnightblue" stroke="midnightblue" points="350.28,-329.6 359.15,-335.4 355.83,-325.34 350.28,-329.6"/>
</g>
<!-- Node6 -->
<g id="node6" class="node">
<title>Node6</title>
<g id="a_node6"><a xlink:href="_device_control_8h.html" target="_top" xlink:title="API for Radar device control operations.">
<polygon fill="white" stroke="black" points="367,-201.5 367,-231.5 513,-231.5 513,-201.5 367,-201.5"/>
<text text-anchor="start" x="375" y="-219.5" font-family="Helvetica,sans-Serif" font-size="10.00">/home/build/sdk/c/ifxAvian</text>
<text text-anchor="middle" x="440" y="-208.5" font-family="Helvetica,sans-Serif" font-size="10.00">/DeviceControl.h</text>
</a>
</g>
</g>
<!-- Node1&#45;&gt;Node6 -->
<g id="edge20" class="edge">
<title>Node1&#45;&gt;Node6</title>
<path fill="none" stroke="midnightblue" d="M385.4,-326.58C390.89,-318.06 396.95,-308.23 402,-299 414.59,-275.99 427.02,-248.08 434.08,-231.61"/>
<polygon fill="midnightblue" stroke="midnightblue" points="382.3,-324.93 379.75,-335.21 388.15,-328.76 382.3,-324.93"/>
</g>
<!-- Node3 -->
<g id="node3" class="node">
<title>Node3</title>
<g id="a_node3"><a xlink:href="_avian_8h.html" target="_top" xlink:title=" ">
<polygon fill="white" stroke="black" points="404,-67.5 404,-97.5 550,-97.5 550,-67.5 404,-67.5"/>
<text text-anchor="start" x="412" y="-85.5" font-family="Helvetica,sans-Serif" font-size="10.00">/home/build/sdk/c/ifxAvian</text>
<text text-anchor="middle" x="477" y="-74.5" font-family="Helvetica,sans-Serif" font-size="10.00">/Avian.h</text>
</a>
</g>
</g>
<!-- Node2&#45;&gt;Node3 -->
<g id="edge2" class="edge">
<title>Node2&#45;&gt;Node3</title>
<path fill="none" stroke="midnightblue" d="M312.05,-258.36C303.21,-226.59 293.4,-170.5 320,-134 339.31,-107.51 372.75,-94.61 403.82,-88.45"/>
<polygon fill="midnightblue" stroke="midnightblue" points="308.75,-259.56 314.96,-268.14 315.46,-257.56 308.75,-259.56"/>
</g>
<!-- Node5 -->
<g id="node5" class="node">
<title>Node5</title>
<g id="a_node5"><a xlink:href="_constant_wave_control_8h.html" target="_top" xlink:title="Header for Constant Wave Control. It provides APIs to use an Avian device in constant wave mode....">
<polygon fill="white" stroke="black" points="329,-134.5 329,-164.5 475,-164.5 475,-134.5 329,-134.5"/>
<text text-anchor="start" x="337" y="-152.5" font-family="Helvetica,sans-Serif" font-size="10.00">/home/build/sdk/c/ifxAvian</text>
<text text-anchor="middle" x="402" y="-141.5" font-family="Helvetica,sans-Serif" font-size="10.00">/ConstantWaveControl.h</text>
</a>
</g>
</g>
<!-- Node2&#45;&gt;Node5 -->
<g id="edge4" class="edge">
<title>Node2&#45;&gt;Node5</title>
<path fill="none" stroke="midnightblue" d="M329,-258.73C335.85,-241.97 346.09,-219.32 358,-201 366.62,-187.74 378.5,-174.32 387.74,-164.65"/>
<polygon fill="midnightblue" stroke="midnightblue" points="325.63,-257.74 325.2,-268.32 332.14,-260.32 325.63,-257.74"/>
</g>
<!-- Node2&#45;&gt;Node6 -->
<g id="edge6" class="edge">
<title>Node2&#45;&gt;Node6</title>
<path fill="none" stroke="midnightblue" d="M354.94,-263.57C373.82,-253.35 396.73,-240.94 414.01,-231.58"/>
<polygon fill="midnightblue" stroke="midnightblue" points="353.16,-260.56 346.04,-268.4 356.5,-266.71 353.16,-260.56"/>
</g>
<!-- Node9 -->
<g id="node9" class="node">
<title>Node9</title>
<g id="a_node9"><a xlink:href="_presence_sensing_8h.html" target="_top" xlink:title="API for Presence Sensing algorithm.">
<polygon fill="white" stroke="black" points="125.5,-134.5 125.5,-164.5 272.5,-164.5 272.5,-134.5 125.5,-134.5"/>
<text text-anchor="start" x="133.5" y="-152.5" font-family="Helvetica,sans-Serif" font-size="10.00">/home/build/sdk/c/ifxRadar</text>
<text text-anchor="middle" x="199" y="-141.5" font-family="Helvetica,sans-Serif" font-size="10.00">/PresenceSensing.h</text>
</a>
</g>
</g>
<!-- Node2&#45;&gt;Node9 -->
<g id="edge16" class="edge">
<title>Node2&#45;&gt;Node9</title>
<path fill="none" stroke="midnightblue" d="M300.2,-260.9C275.22,-233.65 232.99,-187.58 211.86,-164.52"/>
<polygon fill="midnightblue" stroke="midnightblue" points="297.71,-263.37 307.05,-268.37 302.87,-258.64 297.71,-263.37"/>
</g>
<!-- Node11 -->
<g id="node11" class="node">
<title>Node11</title>
<g id="a_node11"><a xlink:href="_segmentation_8h.html" target="_top" xlink:title="API for Segmentation algorithm.">
<polygon fill="white" stroke="black" points="28.5,-201.5 28.5,-231.5 193.5,-231.5 193.5,-201.5 28.5,-201.5"/>
<text text-anchor="start" x="36.5" y="-219.5" font-family="Helvetica,sans-Serif" font-size="10.00">/home/build/sdk/c/ifxRadar</text>
<text text-anchor="middle" x="111" y="-208.5" font-family="Helvetica,sans-Serif" font-size="10.00">Segmentation/Segmentation.h</text>
</a>
</g>
</g>
<!-- Node2&#45;&gt;Node11 -->
<g id="edge17" class="edge">
<title>Node2&#45;&gt;Node11</title>
<path fill="none" stroke="midnightblue" d="M265.16,-265.44C231.28,-254.91 188.33,-241.55 156.37,-231.61"/>
<polygon fill="midnightblue" stroke="midnightblue" points="264.32,-268.85 274.91,-268.48 266.4,-262.16 264.32,-268.85"/>
</g>
<!-- Node4 -->
<g id="node4" class="node">
<title>Node4</title>
<g id="a_node4"><a xlink:href="_s_d_k_8h.html" target="_top" xlink:title="Master header file for Radar SDK.">
<polygon fill="white" stroke="black" points="212.5,-0.5 212.5,-30.5 359.5,-30.5 359.5,-0.5 212.5,-0.5"/>
<text text-anchor="start" x="220.5" y="-18.5" font-family="Helvetica,sans-Serif" font-size="10.00">/home/build/sdk/c/ifxRadar</text>
<text text-anchor="middle" x="286" y="-7.5" font-family="Helvetica,sans-Serif" font-size="10.00">/SDK.h</text>
</a>
</g>
</g>
<!-- Node3&#45;&gt;Node4 -->
<g id="edge3" class="edge">
<title>Node3&#45;&gt;Node4</title>
<path fill="none" stroke="midnightblue" d="M425.85,-64.09C395.01,-53.6 356.25,-40.41 327.36,-30.58"/>
<polygon fill="midnightblue" stroke="midnightblue" points="424.96,-67.49 435.56,-67.4 427.22,-60.86 424.96,-67.49"/>
</g>
<!-- Node5&#45;&gt;Node3 -->
<g id="edge5" class="edge">
<title>Node5&#45;&gt;Node3</title>
<path fill="none" stroke="midnightblue" d="M426.12,-127.6C437.44,-117.78 450.64,-106.34 460.76,-97.58"/>
<polygon fill="midnightblue" stroke="midnightblue" points="423.54,-125.2 418.27,-134.4 428.12,-130.49 423.54,-125.2"/>
</g>
<!-- Node6&#45;&gt;Node3 -->
<g id="edge7" class="edge">
<title>Node6&#45;&gt;Node3</title>
<path fill="none" stroke="midnightblue" d="M464.91,-193.86C472.54,-185.68 479.98,-175.73 484,-165 492.42,-142.52 486.67,-114.21 481.79,-97.55"/>
<polygon fill="midnightblue" stroke="midnightblue" points="462.23,-191.59 457.63,-201.13 467.18,-196.54 462.23,-191.59"/>
</g>
<!-- Node6&#45;&gt;Node5 -->
<g id="edge8" class="edge">
<title>Node6&#45;&gt;Node5</title>
<path fill="none" stroke="midnightblue" d="M426.6,-192.58C421.14,-183.24 415.01,-172.75 410.23,-164.58"/>
<polygon fill="midnightblue" stroke="midnightblue" points="423.69,-194.53 431.75,-201.4 429.73,-191 423.69,-194.53"/>
</g>
<!-- Node7 -->
<g id="node7" class="node">
<title>Node7</title>
<g id="a_node7"><a xlink:href="_metrics_8h.html" target="_top" xlink:title="API for Metrics.">
<polygon fill="white" stroke="black" points="531,-134.5 531,-164.5 677,-164.5 677,-134.5 531,-134.5"/>
<text text-anchor="start" x="539" y="-152.5" font-family="Helvetica,sans-Serif" font-size="10.00">/home/build/sdk/c/ifxAvian</text>
<text text-anchor="middle" x="604" y="-141.5" font-family="Helvetica,sans-Serif" font-size="10.00">/Metrics.h</text>
</a>
</g>
</g>
<!-- Node6&#45;&gt;Node7 -->
<g id="edge9" class="edge">
<title>Node6&#45;&gt;Node7</title>
<path fill="none" stroke="midnightblue" d="M484.96,-197.68C511.26,-187.26 544,-174.28 568.48,-164.58"/>
<polygon fill="midnightblue" stroke="midnightblue" points="483.59,-194.46 475.59,-201.4 486.17,-200.97 483.59,-194.46"/>
</g>
<!-- Node8 -->
<g id="node8" class="node">
<title>Node8</title>
<g id="a_node8"><a xlink:href="_shapes_8h.html" target="_top" xlink:title=" ">
<polygon fill="white" stroke="black" points="695,-134.5 695,-164.5 841,-164.5 841,-134.5 695,-134.5"/>
<text text-anchor="start" x="703" y="-152.5" font-family="Helvetica,sans-Serif" font-size="10.00">/home/build/sdk/c/ifxAvian</text>
<text text-anchor="middle" x="768" y="-141.5" font-family="Helvetica,sans-Serif" font-size="10.00">/Shapes.h</text>
</a>
</g>
</g>
<!-- Node6&#45;&gt;Node8 -->
<g id="edge11" class="edge">
<title>Node6&#45;&gt;Node8</title>
<path fill="none" stroke="midnightblue" d="M520.66,-199.52C574.7,-188.81 645.18,-174.84 697.08,-164.55"/>
<polygon fill="midnightblue" stroke="midnightblue" points="519.9,-196.1 510.77,-201.48 521.26,-202.97 519.9,-196.1"/>
</g>
<!-- Node6&#45;&gt;Node9 -->
<g id="edge13" class="edge">
<title>Node6&#45;&gt;Node9</title>
<path fill="none" stroke="midnightblue" d="M378.27,-198.85C338.97,-188.25 288.64,-174.68 251.32,-164.61"/>
<polygon fill="midnightblue" stroke="midnightblue" points="377.44,-202.25 388,-201.48 379.26,-195.49 377.44,-202.25"/>
</g>
<!-- Node7&#45;&gt;Node3 -->
<g id="edge10" class="edge">
<title>Node7&#45;&gt;Node3</title>
<path fill="none" stroke="midnightblue" d="M567.3,-129.71C547.27,-119.46 522.88,-106.98 504.5,-97.58"/>
<polygon fill="midnightblue" stroke="midnightblue" points="565.95,-132.96 576.44,-134.4 569.14,-126.72 565.95,-132.96"/>
</g>
<!-- Node8&#45;&gt;Node3 -->
<g id="edge12" class="edge">
<title>Node8&#45;&gt;Node3</title>
<path fill="none" stroke="midnightblue" d="M695.24,-132.25C647.46,-121.58 585.58,-107.75 539.92,-97.55"/>
<polygon fill="midnightblue" stroke="midnightblue" points="694.69,-135.71 705.22,-134.48 696.22,-128.88 694.69,-135.71"/>
</g>
<!-- Node10 -->
<g id="node10" class="node">
<title>Node10</title>
<g id="a_node10"><a xlink:href="_radar_8h.html" target="_top" xlink:title="Header for ifxRadar.">
<polygon fill="white" stroke="black" points="212.5,-67.5 212.5,-97.5 359.5,-97.5 359.5,-67.5 212.5,-67.5"/>
<text text-anchor="start" x="220.5" y="-85.5" font-family="Helvetica,sans-Serif" font-size="10.00">/home/build/sdk/c/ifxRadar</text>
<text text-anchor="middle" x="286" y="-74.5" font-family="Helvetica,sans-Serif" font-size="10.00">/Radar.h</text>
</a>
</g>
</g>
<!-- Node9&#45;&gt;Node10 -->
<g id="edge14" class="edge">
<title>Node9&#45;&gt;Node10</title>
<path fill="none" stroke="midnightblue" d="M226.21,-128.17C239.52,-118.23 255.2,-106.51 267.16,-97.58"/>
<polygon fill="midnightblue" stroke="midnightblue" points="223.79,-125.61 217.88,-134.4 227.98,-131.21 223.79,-125.61"/>
</g>
<!-- Node10&#45;&gt;Node4 -->
<g id="edge15" class="edge">
<title>Node10&#45;&gt;Node4</title>
<path fill="none" stroke="midnightblue" d="M286,-57.11C286,-48.15 286,-38.32 286,-30.58"/>
<polygon fill="midnightblue" stroke="midnightblue" points="282.5,-57.4 286,-67.4 289.5,-57.4 282.5,-57.4"/>
</g>
<!-- Node12 -->
<g id="node12" class="node">
<title>Node12</title>
<g id="a_node12"><a xlink:href="_radar_segmentation_8h.html" target="_top" xlink:title="Header for ifxRadarSegmentation.">
<polygon fill="white" stroke="black" points="0,-67.5 0,-97.5 194,-97.5 194,-67.5 0,-67.5"/>
<text text-anchor="start" x="8" y="-85.5" font-family="Helvetica,sans-Serif" font-size="10.00">/home/build/sdk/c/ifxRadar</text>
<text text-anchor="middle" x="97" y="-74.5" font-family="Helvetica,sans-Serif" font-size="10.00">Segmentation/RadarSegmentation.h</text>
</a>
</g>
</g>
<!-- Node11&#45;&gt;Node12 -->
<g id="edge18" class="edge">
<title>Node11&#45;&gt;Node12</title>
<path fill="none" stroke="midnightblue" d="M108.44,-191.39C105.53,-163.9 100.86,-119.89 98.49,-97.52"/>
<polygon fill="midnightblue" stroke="midnightblue" points="104.97,-191.8 109.5,-201.37 111.93,-191.06 104.97,-191.8"/>
</g>
<!-- Node12&#45;&gt;Node4 -->
<g id="edge19" class="edge">
<title>Node12&#45;&gt;Node4</title>
<path fill="none" stroke="midnightblue" d="M147.62,-64.09C178.13,-53.6 216.48,-40.41 245.07,-30.58"/>
<polygon fill="midnightblue" stroke="midnightblue" points="146.33,-60.83 138.01,-67.4 148.6,-67.45 146.33,-60.83"/>
</g>
</g>
</svg>
