<?xml version="1.0" encoding="UTF-8" standalone="no"?>
<!DOCTYPE svg PUBLIC "-//W3C//DTD SVG 1.1//EN"
 "http://www.w3.org/Graphics/SVG/1.1/DTD/svg11.dtd">
<!-- Generated by graphviz version 2.43.0 (0)
 -->
<!-- Title: /home/build/sdk/c/ifxRadar/Radar.h Pages: 1 -->
<svg width="1538pt" height="498pt"
 viewBox="0.00 0.00 1537.50 498.00" xmlns="http://www.w3.org/2000/svg" xmlns:xlink="http://www.w3.org/1999/xlink">
<g id="graph0" class="graph" transform="scale(1 1) rotate(0) translate(4 494)">
<title>/home/build/sdk/c/ifxRadar/Radar.h</title>
<polygon fill="white" stroke="transparent" points="-4,4 -4,-494 1533.5,-494 1533.5,4 -4,4"/>
<!-- Node1 -->
<g id="node1" class="node">
<title>Node1</title>
<g id="a_node1"><a xlink:title="Header for ifxRadar.">
<polygon fill="#bfbfbf" stroke="black" points="477,-459.5 477,-489.5 624,-489.5 624,-459.5 477,-459.5"/>
<text text-anchor="start" x="485" y="-477.5" font-family="Helvetica,sans-Serif" font-size="10.00">/home/build/sdk/c/ifxRadar</text>
<text text-anchor="middle" x="550.5" y="-466.5" font-family="Helvetica,sans-Serif" font-size="10.00">/Radar.h</text>
</a>
</g>
</g>
<!-- Node2 -->
<g id="node2" class="node">
<title>Node2</title>
<g id="a_node2"><a xlink:href="_angle_monopulse_8h.html" target="_top" xlink:title="API for Phase Monopulse algorithm.">
<polygon fill="white" stroke="black" points="0,-347.5 0,-366.5 151,-366.5 151,-347.5 0,-347.5"/>
<text text-anchor="middle" x="75.5" y="-354.5" font-family="Helvetica,sans-Serif" font-size="10.00">ifxRadar/AngleMonopulse.h</text>
</a>
</g>
</g>
<!-- Node1&#45;&gt;Node2 -->
<g id="edge1" class="edge">
<title>Node1&#45;&gt;Node2</title>
<path fill="none" stroke="midnightblue" d="M476.99,-467.76C409.72,-461.21 307.94,-447.99 222.5,-423 177.74,-409.91 128.78,-386.21 100.17,-371.33"/>
<polygon fill="midnightblue" stroke="midnightblue" points="101.77,-368.22 91.29,-366.65 98.51,-374.41 101.77,-368.22"/>
</g>
<!-- Node11 -->
<g id="node11" class="node">
<title>Node11</title>
<g id="a_node11"><a xlink:href="_d_b_f_8h.html" target="_top" xlink:title="API for Digital Beamforming (DBF) algorithm.">
<polygon fill="white" stroke="black" points="173,-347.5 173,-366.5 262,-366.5 262,-347.5 173,-347.5"/>
<text text-anchor="middle" x="217.5" y="-354.5" font-family="Helvetica,sans-Serif" font-size="10.00">ifxRadar/DBF.h</text>
</a>
</g>
</g>
<!-- Node1&#45;&gt;Node11 -->
<g id="edge14" class="edge">
<title>Node1&#45;&gt;Node11</title>
<path fill="none" stroke="midnightblue" d="M476.87,-470.16C396.45,-465.05 274.41,-452.56 239.5,-423 226.03,-411.59 220.78,-391.6 218.75,-376.79"/>
<polygon fill="midnightblue" stroke="midnightblue" points="222.22,-376.31 217.74,-366.71 215.25,-377.01 222.22,-376.31"/>
</g>
<!-- Node14 -->
<g id="node14" class="node">
<title>Node14</title>
<g id="a_node14"><a xlink:href="_presence_sensing_8h.html" target="_top" xlink:title="API for Presence Sensing algorithm.">
<polygon fill="white" stroke="black" points="989.5,-403.5 989.5,-422.5 1141.5,-422.5 1141.5,-403.5 989.5,-403.5"/>
<text text-anchor="middle" x="1065.5" y="-410.5" font-family="Helvetica,sans-Serif" font-size="10.00">ifxRadar/PresenceSensing.h</text>
</a>
</g>
</g>
<!-- Node1&#45;&gt;Node14 -->
<g id="edge21" class="edge">
<title>Node1&#45;&gt;Node14</title>
<path fill="none" stroke="midnightblue" d="M624.01,-465.01C718.59,-454.08 882.49,-435.14 981.77,-423.67"/>
<polygon fill="midnightblue" stroke="midnightblue" points="982.23,-427.14 991.76,-422.52 981.43,-420.19 982.23,-427.14"/>
</g>
<!-- Node23 -->
<g id="node23" class="node">
<title>Node23</title>
<g id="a_node23"><a xlink:href="_range_spectrum_8h.html" target="_top" xlink:title="API for Range Spectrum.">
<polygon fill="white" stroke="black" points="890,-291.5 890,-310.5 1037,-310.5 1037,-291.5 890,-291.5"/>
<text text-anchor="middle" x="963.5" y="-298.5" font-family="Helvetica,sans-Serif" font-size="10.00">ifxRadar/RangeSpectrum.h</text>
</a>
</g>
</g>
<!-- Node1&#45;&gt;Node23 -->
<g id="edge58" class="edge">
<title>Node1&#45;&gt;Node23</title>
<path fill="none" stroke="midnightblue" d="M624.08,-472.27C684.37,-468.59 770.39,-457.06 837.5,-423 887.55,-397.6 931.09,-345.68 951.37,-318.87"/>
<polygon fill="midnightblue" stroke="midnightblue" points="954.2,-320.93 957.33,-310.81 948.57,-316.76 954.2,-320.93"/>
</g>
<!-- Node26 -->
<g id="node26" class="node">
<title>Node26</title>
<g id="a_node26"><a xlink:href="_range_doppler_map_8h.html" target="_top" xlink:title="API for Range Doppler Map.">
<polygon fill="white" stroke="black" points="440.5,-291.5 440.5,-310.5 600.5,-310.5 600.5,-291.5 440.5,-291.5"/>
<text text-anchor="middle" x="520.5" y="-298.5" font-family="Helvetica,sans-Serif" font-size="10.00">ifxRadar/RangeDopplerMap.h</text>
</a>
</g>
</g>
<!-- Node1&#45;&gt;Node26 -->
<g id="edge54" class="edge">
<title>Node1&#45;&gt;Node26</title>
<path fill="none" stroke="midnightblue" d="M548.04,-459.47C542.66,-428.7 529.83,-355.33 523.77,-320.7"/>
<polygon fill="midnightblue" stroke="midnightblue" points="527.17,-319.81 522,-310.56 520.27,-321.01 527.17,-319.81"/>
</g>
<!-- Node27 -->
<g id="node27" class="node">
<title>Node27</title>
<g id="a_node27"><a xlink:href="_spectrum_axis_8h.html" target="_top" xlink:title="API for Spectrum Axis used by Range spectrum, Range Doppler and Range Angle Map modules.">
<polygon fill="white" stroke="black" points="479,-230 479,-249 616,-249 616,-230 479,-230"/>
<text text-anchor="middle" x="547.5" y="-237" font-family="Helvetica,sans-Serif" font-size="10.00">ifxRadar/SpectrumAxis.h</text>
</a>
</g>
</g>
<!-- Node1&#45;&gt;Node27 -->
<g id="edge59" class="edge">
<title>Node1&#45;&gt;Node27</title>
<path fill="none" stroke="midnightblue" d="M562.2,-459.29C586.51,-427.93 637.94,-350.85 609.5,-291 602.09,-275.41 587.26,-263.06 573.96,-254.47"/>
<polygon fill="midnightblue" stroke="midnightblue" points="575.48,-251.3 565.11,-249.13 571.86,-257.29 575.48,-251.3"/>
</g>
<!-- Node28 -->
<g id="node28" class="node">
<title>Node28</title>
<g id="a_node28"><a xlink:href="_peak_search_8h.html" target="_top" xlink:title="API for Peak Search preprocessing.">
<polygon fill="white" stroke="black" points="808,-168.5 808,-187.5 935,-187.5 935,-168.5 808,-168.5"/>
<text text-anchor="middle" x="871.5" y="-175.5" font-family="Helvetica,sans-Serif" font-size="10.00">ifxRadar/PeakSearch.h</text>
</a>
</g>
</g>
<!-- Node1&#45;&gt;Node28 -->
<g id="edge63" class="edge">
<title>Node1&#45;&gt;Node28</title>
<path fill="none" stroke="midnightblue" d="M601.13,-459.44C681.96,-433.95 837.64,-371.6 902.5,-255 913.37,-235.46 899.26,-211.31 886.72,-195.55"/>
<polygon fill="midnightblue" stroke="midnightblue" points="889.22,-193.1 880.08,-187.74 883.89,-197.63 889.22,-193.1"/>
</g>
<!-- Node29 -->
<g id="node29" class="node">
<title>Node29</title>
<g id="a_node29"><a xlink:href="_angle_capon_8h.html" target="_top" xlink:title="API for Angle Capon algorithm.">
<polygon fill="white" stroke="black" points="356.5,-347.5 356.5,-366.5 484.5,-366.5 484.5,-347.5 356.5,-347.5"/>
<text text-anchor="middle" x="420.5" y="-354.5" font-family="Helvetica,sans-Serif" font-size="10.00">ifxRadar/AngleCapon.h</text>
</a>
</g>
</g>
<!-- Node1&#45;&gt;Node29 -->
<g id="edge66" class="edge">
<title>Node1&#45;&gt;Node29</title>
<path fill="none" stroke="midnightblue" d="M534.56,-459.34C510.07,-437.58 463.38,-396.09 437.99,-373.54"/>
<polygon fill="midnightblue" stroke="midnightblue" points="440.06,-370.69 430.26,-366.67 435.41,-375.93 440.06,-370.69"/>
</g>
<!-- Node30 -->
<g id="node30" class="node">
<title>Node30</title>
<g id="a_node30"><a xlink:href="_range_angle_image_8h.html" target="_top" xlink:title="API for Range Angle Image algorithm.">
<polygon fill="white" stroke="black" points="249,-403.5 249,-422.5 408,-422.5 408,-403.5 249,-403.5"/>
<text text-anchor="middle" x="328.5" y="-410.5" font-family="Helvetica,sans-Serif" font-size="10.00">ifxRadar/RangeAngleImage.h</text>
</a>
</g>
</g>
<!-- Node1&#45;&gt;Node30 -->
<g id="edge69" class="edge">
<title>Node1&#45;&gt;Node30</title>
<path fill="none" stroke="midnightblue" d="M498.17,-459.47C459.03,-448.99 406.24,-434.84 370,-425.12"/>
<polygon fill="midnightblue" stroke="midnightblue" points="370.8,-421.71 360.24,-422.51 368.99,-428.48 370.8,-421.71"/>
</g>
<!-- Node3 -->
<g id="node3" class="node">
<title>Node3</title>
<g id="a_node3"><a xlink:href="_types_8h.html" target="_top" xlink:title="Definitions of data types used within the SDK.">
<polygon fill="white" stroke="black" points="695,-56.5 695,-75.5 788,-75.5 788,-56.5 695,-56.5"/>
<text text-anchor="middle" x="741.5" y="-63.5" font-family="Helvetica,sans-Serif" font-size="10.00">ifxBase/Types.h</text>
</a>
</g>
</g>
<!-- Node2&#45;&gt;Node3 -->
<g id="edge2" class="edge">
<title>Node2&#45;&gt;Node3</title>
<path fill="none" stroke="midnightblue" d="M68.62,-347.3C54.7,-328.8 24.5,-283.68 24.5,-240.5 24.5,-240.5 24.5,-240.5 24.5,-177 24.5,-115.95 86.9,-129.11 145.5,-112 245.63,-82.76 556.1,-71.69 684.76,-68.29"/>
<polygon fill="midnightblue" stroke="midnightblue" points="684.9,-71.79 694.8,-68.03 684.72,-64.79 684.9,-71.79"/>
</g>
<!-- Node7 -->
<g id="node7" class="node">
<title>Node7</title>
<g id="a_node7"><a xlink:href="_complex_8h.html" target="_top" xlink:title="API for operations on complex numbers.">
<polygon fill="white" stroke="black" points="91,-291.5 91,-310.5 200,-310.5 200,-291.5 91,-291.5"/>
<text text-anchor="middle" x="145.5" y="-298.5" font-family="Helvetica,sans-Serif" font-size="10.00">ifxBase/Complex.h</text>
</a>
</g>
</g>
<!-- Node2&#45;&gt;Node7 -->
<g id="edge6" class="edge">
<title>Node2&#45;&gt;Node7</title>
<path fill="none" stroke="midnightblue" d="M86.75,-347.32C97.3,-339.18 113.3,-326.84 125.94,-317.09"/>
<polygon fill="midnightblue" stroke="midnightblue" points="128.27,-319.71 134.05,-310.83 123.99,-314.17 128.27,-319.71"/>
</g>
<!-- Node10 -->
<g id="node10" class="node">
<title>Node10</title>
<g id="a_node10"><a xlink:href="_vector_8h.html" target="_top" xlink:title="API for operations on Vector data structures.">
<polygon fill="white" stroke="black" points="770,-112.5 770,-131.5 865,-131.5 865,-112.5 770,-112.5"/>
<text text-anchor="middle" x="817.5" y="-119.5" font-family="Helvetica,sans-Serif" font-size="10.00">ifxBase/Vector.h</text>
</a>
</g>
</g>
<!-- Node2&#45;&gt;Node10 -->
<g id="edge13" class="edge">
<title>Node2&#45;&gt;Node10</title>
<path fill="none" stroke="midnightblue" d="M73.61,-347.37C71.18,-333.82 68.66,-307.43 81.5,-291 205.25,-132.72 319.11,-205.44 516.5,-168 600.66,-152.04 698.94,-138.24 759.71,-130.28"/>
<polygon fill="midnightblue" stroke="midnightblue" points="760.4,-133.72 769.87,-128.95 759.5,-126.77 760.4,-133.72"/>
</g>
<!-- Node4 -->
<g id="node4" class="node">
<title>Node4</title>
<g id="a_node4"><a xlink:title=" ">
<polygon fill="white" stroke="#bfbfbf" points="642,-0.5 642,-19.5 695,-19.5 695,-0.5 642,-0.5"/>
<text text-anchor="middle" x="668.5" y="-7.5" font-family="Helvetica,sans-Serif" font-size="10.00">stdint.h</text>
</a>
</g>
</g>
<!-- Node3&#45;&gt;Node4 -->
<g id="edge3" class="edge">
<title>Node3&#45;&gt;Node4</title>
<path fill="none" stroke="midnightblue" d="M729.77,-56.32C718.66,-48.11 701.76,-35.6 688.52,-25.81"/>
<polygon fill="midnightblue" stroke="midnightblue" points="690.56,-22.97 680.44,-19.83 686.4,-28.59 690.56,-22.97"/>
</g>
<!-- Node5 -->
<g id="node5" class="node">
<title>Node5</title>
<g id="a_node5"><a xlink:title=" ">
<polygon fill="white" stroke="#bfbfbf" points="713.5,-0.5 713.5,-19.5 769.5,-19.5 769.5,-0.5 713.5,-0.5"/>
<text text-anchor="middle" x="741.5" y="-7.5" font-family="Helvetica,sans-Serif" font-size="10.00">stddef.h</text>
</a>
</g>
</g>
<!-- Node3&#45;&gt;Node5 -->
<g id="edge4" class="edge">
<title>Node3&#45;&gt;Node5</title>
<path fill="none" stroke="midnightblue" d="M741.5,-56.08C741.5,-49.01 741.5,-38.86 741.5,-29.99"/>
<polygon fill="midnightblue" stroke="midnightblue" points="745,-29.75 741.5,-19.75 738,-29.75 745,-29.75"/>
</g>
<!-- Node6 -->
<g id="node6" class="node">
<title>Node6</title>
<g id="a_node6"><a xlink:title=" ">
<polygon fill="white" stroke="#bfbfbf" points="787.5,-0.5 787.5,-19.5 849.5,-19.5 849.5,-0.5 787.5,-0.5"/>
<text text-anchor="middle" x="818.5" y="-7.5" font-family="Helvetica,sans-Serif" font-size="10.00">stdbool.h</text>
</a>
</g>
</g>
<!-- Node3&#45;&gt;Node6 -->
<g id="edge5" class="edge">
<title>Node3&#45;&gt;Node6</title>
<path fill="none" stroke="midnightblue" d="M753.87,-56.32C765.66,-48.06 783.63,-35.45 797.64,-25.63"/>
<polygon fill="midnightblue" stroke="midnightblue" points="799.98,-28.26 806.16,-19.65 795.96,-22.53 799.98,-28.26"/>
</g>
<!-- Node7&#45;&gt;Node3 -->
<g id="edge12" class="edge">
<title>Node7&#45;&gt;Node3</title>
<path fill="none" stroke="midnightblue" d="M143.04,-291.29C135.14,-261.32 113.82,-161.53 164.5,-112 201.14,-76.19 545.58,-68.88 684.16,-67.38"/>
<polygon fill="midnightblue" stroke="midnightblue" points="684.6,-70.88 694.56,-67.28 684.53,-63.88 684.6,-70.88"/>
</g>
<!-- Node8 -->
<g id="node8" class="node">
<title>Node8</title>
<g id="a_node8"><a xlink:href="_defines_8h.html" target="_top" xlink:title="Internal definitions used by standard math.h functions as Macros, to use float or double precision.">
<polygon fill="white" stroke="black" points="282.5,-230 282.5,-249 384.5,-249 384.5,-230 282.5,-230"/>
<text text-anchor="middle" x="333.5" y="-237" font-family="Helvetica,sans-Serif" font-size="10.00">ifxBase/Defines.h</text>
</a>
</g>
</g>
<!-- Node7&#45;&gt;Node8 -->
<g id="edge7" class="edge">
<title>Node7&#45;&gt;Node8</title>
<path fill="none" stroke="midnightblue" d="M172.44,-291.48C205.1,-281.14 260.32,-263.66 296.84,-252.1"/>
<polygon fill="midnightblue" stroke="midnightblue" points="298.14,-255.36 306.61,-249.01 296.02,-248.69 298.14,-255.36"/>
</g>
<!-- Node9 -->
<g id="node9" class="node">
<title>Node9</title>
<g id="a_node9"><a xlink:href="_math_8h.html" target="_top" xlink:title="API for Mathematical operations.">
<polygon fill="white" stroke="black" points="526,-168.5 526,-187.5 577,-187.5 577,-168.5 526,-168.5"/>
<text text-anchor="middle" x="551.5" y="-175.5" font-family="Helvetica,sans-Serif" font-size="10.00">math.h</text>
</a>
</g>
</g>
<!-- Node8&#45;&gt;Node9 -->
<g id="edge8" class="edge">
<title>Node8&#45;&gt;Node9</title>
<path fill="none" stroke="midnightblue" d="M364.73,-229.98C404.76,-219.05 473.98,-200.16 515.97,-188.7"/>
<polygon fill="midnightblue" stroke="midnightblue" points="517.05,-192.03 525.77,-186.02 515.2,-185.28 517.05,-192.03"/>
</g>
<!-- Node9&#45;&gt;Node3 -->
<g id="edge9" class="edge">
<title>Node9&#45;&gt;Node3</title>
<path fill="none" stroke="midnightblue" d="M566.41,-168.37C599.29,-149.33 678.26,-103.62 717.92,-80.65"/>
<polygon fill="midnightblue" stroke="midnightblue" points="719.76,-83.63 726.66,-75.59 716.25,-77.57 719.76,-83.63"/>
</g>
<!-- Node9&#45;&gt;Node10 -->
<g id="edge10" class="edge">
<title>Node9&#45;&gt;Node10</title>
<path fill="none" stroke="midnightblue" d="M577.07,-170.24C580.24,-169.46 583.44,-168.69 586.5,-168 645.35,-154.71 713.17,-141.78 760.03,-133.22"/>
<polygon fill="midnightblue" stroke="midnightblue" points="760.78,-136.64 769.99,-131.4 759.53,-129.75 760.78,-136.64"/>
</g>
<!-- Node10&#45;&gt;Node3 -->
<g id="edge11" class="edge">
<title>Node10&#45;&gt;Node3</title>
<path fill="none" stroke="midnightblue" d="M805.29,-112.32C793.72,-104.11 776.12,-91.6 762.34,-81.81"/>
<polygon fill="midnightblue" stroke="midnightblue" points="764.11,-78.77 753.93,-75.83 760.06,-84.48 764.11,-78.77"/>
</g>
<!-- Node11&#45;&gt;Node3 -->
<g id="edge15" class="edge">
<title>Node11&#45;&gt;Node3</title>
<path fill="none" stroke="midnightblue" d="M216.35,-347.16C214.71,-334.64 211.56,-311.05 208.5,-291 196.5,-212.31 148.61,-170.58 202.5,-112 234.65,-77.05 552.49,-69.24 684.49,-67.5"/>
<polygon fill="midnightblue" stroke="midnightblue" points="684.84,-70.99 694.8,-67.37 684.75,-63.99 684.84,-70.99"/>
</g>
<!-- Node12 -->
<g id="node12" class="node">
<title>Node12</title>
<g id="a_node12"><a xlink:href="_cube_8h.html" target="_top" xlink:title="API for operations on Cube data structures.">
<polygon fill="white" stroke="black" points="294.5,-291.5 294.5,-310.5 384.5,-310.5 384.5,-291.5 294.5,-291.5"/>
<text text-anchor="middle" x="339.5" y="-298.5" font-family="Helvetica,sans-Serif" font-size="10.00">ifxBase/Cube.h</text>
</a>
</g>
</g>
<!-- Node11&#45;&gt;Node12 -->
<g id="edge16" class="edge">
<title>Node11&#45;&gt;Node12</title>
<path fill="none" stroke="midnightblue" d="M236.83,-347.44C256.82,-338.6 288.24,-324.69 311.06,-314.59"/>
<polygon fill="midnightblue" stroke="midnightblue" points="312.53,-317.76 320.26,-310.52 309.7,-311.36 312.53,-317.76"/>
</g>
<!-- Node12&#45;&gt;Node8 -->
<g id="edge17" class="edge">
<title>Node12&#45;&gt;Node8</title>
<path fill="none" stroke="midnightblue" d="M338.64,-291.48C337.79,-283.08 336.47,-269.98 335.38,-259.16"/>
<polygon fill="midnightblue" stroke="midnightblue" points="338.84,-258.61 334.36,-249.01 331.88,-259.31 338.84,-258.61"/>
</g>
<!-- Node13 -->
<g id="node13" class="node">
<title>Node13</title>
<g id="a_node13"><a xlink:href="_matrix_8h.html" target="_top" xlink:title="API for operations on Matrix data structures.">
<polygon fill="white" stroke="black" points="797,-230 797,-249 894,-249 894,-230 797,-230"/>
<text text-anchor="middle" x="845.5" y="-237" font-family="Helvetica,sans-Serif" font-size="10.00">ifxBase/Matrix.h</text>
</a>
</g>
</g>
<!-- Node12&#45;&gt;Node13 -->
<g id="edge18" class="edge">
<title>Node12&#45;&gt;Node13</title>
<path fill="none" stroke="midnightblue" d="M384.58,-295.56C496.29,-284.54 777.63,-256.72 787.5,-255 793.26,-254 799.3,-252.73 805.21,-251.37"/>
<polygon fill="midnightblue" stroke="midnightblue" points="806.07,-254.76 814.97,-249.01 804.43,-247.96 806.07,-254.76"/>
</g>
<!-- Node13&#45;&gt;Node3 -->
<g id="edge19" class="edge">
<title>Node13&#45;&gt;Node3</title>
<path fill="none" stroke="midnightblue" d="M834.86,-229.98C823.49,-220.52 805.35,-204.41 792.5,-188 774.83,-165.43 771.71,-158.38 760.5,-132 754.03,-116.78 748.94,-98.67 745.66,-85.43"/>
<polygon fill="midnightblue" stroke="midnightblue" points="749.05,-84.56 743.34,-75.63 742.24,-86.17 749.05,-84.56"/>
</g>
<!-- Node13&#45;&gt;Node10 -->
<g id="edge20" class="edge">
<title>Node13&#45;&gt;Node10</title>
<path fill="none" stroke="midnightblue" d="M833.16,-229.71C821.71,-220.72 805.43,-205.61 798.5,-188 792.33,-172.31 799.04,-153.79 806.13,-140.55"/>
<polygon fill="midnightblue" stroke="midnightblue" points="809.35,-141.97 811.42,-131.58 803.33,-138.41 809.35,-141.97"/>
</g>
<!-- Node14&#45;&gt;Node3 -->
<g id="edge25" class="edge">
<title>Node14&#45;&gt;Node3</title>
<path fill="none" stroke="midnightblue" d="M1141.6,-409.54C1273.24,-403.21 1529.5,-380.75 1529.5,-302 1529.5,-302 1529.5,-302 1529.5,-177 1529.5,-141.86 1515.12,-129.24 1484.5,-112 1425.31,-78.67 962.14,-69.73 798.52,-67.6"/>
<polygon fill="midnightblue" stroke="midnightblue" points="798.22,-64.1 788.18,-67.47 798.13,-71.1 798.22,-64.1"/>
</g>
<!-- Node14&#45;&gt;Node13 -->
<g id="edge26" class="edge">
<title>Node14&#45;&gt;Node13</title>
<path fill="none" stroke="midnightblue" d="M1039.31,-403.48C1000.29,-389.63 926.54,-358.87 880.5,-311 866.32,-296.26 856.76,-274.66 851.26,-259.25"/>
<polygon fill="midnightblue" stroke="midnightblue" points="854.44,-257.71 847.97,-249.32 847.79,-259.92 854.44,-257.71"/>
</g>
<!-- Node15 -->
<g id="node15" class="node">
<title>Node15</title>
<g id="a_node15"><a xlink:href="_window_8h.html" target="_top" xlink:title="API for Window function processing.">
<polygon fill="white" stroke="black" points="992,-168.5 992,-187.5 1093,-187.5 1093,-168.5 992,-168.5"/>
<text text-anchor="middle" x="1042.5" y="-175.5" font-family="Helvetica,sans-Serif" font-size="10.00">ifxAlgo/Window.h</text>
</a>
</g>
</g>
<!-- Node14&#45;&gt;Node15 -->
<g id="edge22" class="edge">
<title>Node14&#45;&gt;Node15</title>
<path fill="none" stroke="midnightblue" d="M1064.65,-403.43C1061.33,-369.75 1049.11,-245.99 1044.39,-198.1"/>
<polygon fill="midnightblue" stroke="midnightblue" points="1047.84,-197.5 1043.38,-187.9 1040.88,-198.19 1047.84,-197.5"/>
</g>
<!-- Node16 -->
<g id="node16" class="node">
<title>Node16</title>
<g id="a_node16"><a xlink:href="_device_config_8h.html" target="_top" xlink:title="API for Radar device configuration.">
<polygon fill="white" stroke="black" points="1094,-291.5 1094,-310.5 1227,-310.5 1227,-291.5 1094,-291.5"/>
<text text-anchor="middle" x="1160.5" y="-298.5" font-family="Helvetica,sans-Serif" font-size="10.00">ifxAvian/DeviceConfig.h</text>
</a>
</g>
</g>
<!-- Node14&#45;&gt;Node16 -->
<g id="edge27" class="edge">
<title>Node14&#45;&gt;Node16</title>
<path fill="none" stroke="midnightblue" d="M1072.95,-403.37C1088.77,-385.05 1125.91,-342.05 1146.37,-318.36"/>
<polygon fill="midnightblue" stroke="midnightblue" points="1149.19,-320.45 1153.08,-310.59 1143.9,-315.87 1149.19,-320.45"/>
</g>
<!-- Node18 -->
<g id="node18" class="node">
<title>Node18</title>
<g id="a_node18"><a xlink:href="_device_control_8h.html" target="_top" xlink:title="API for Radar device control operations.">
<polygon fill="white" stroke="black" points="1221,-347.5 1221,-366.5 1358,-366.5 1358,-347.5 1221,-347.5"/>
<text text-anchor="middle" x="1289.5" y="-354.5" font-family="Helvetica,sans-Serif" font-size="10.00">ifxAvian/DeviceControl.h</text>
</a>
</g>
</g>
<!-- Node14&#45;&gt;Node18 -->
<g id="edge31" class="edge">
<title>Node14&#45;&gt;Node18</title>
<path fill="none" stroke="midnightblue" d="M1100.99,-403.44C1139.82,-394.08 1202.16,-379.06 1244.42,-368.87"/>
<polygon fill="midnightblue" stroke="midnightblue" points="1245.27,-372.26 1254.17,-366.52 1243.63,-365.46 1245.27,-372.26"/>
</g>
<!-- Node14&#45;&gt;Node23 -->
<g id="edge42" class="edge">
<title>Node14&#45;&gt;Node23</title>
<path fill="none" stroke="midnightblue" d="M1057.5,-403.37C1040.44,-384.97 1000.29,-341.67 978.38,-318.05"/>
<polygon fill="midnightblue" stroke="midnightblue" points="980.83,-315.54 971.47,-310.59 975.7,-320.3 980.83,-315.54"/>
</g>
<!-- Node15&#45;&gt;Node3 -->
<g id="edge23" class="edge">
<title>Node15&#45;&gt;Node3</title>
<path fill="none" stroke="midnightblue" d="M1024.18,-168.3C996.04,-155.12 940.31,-129.76 891.5,-112 855.58,-98.93 813.86,-86.64 783.56,-78.22"/>
<polygon fill="midnightblue" stroke="midnightblue" points="784.31,-74.8 773.74,-75.52 782.46,-81.55 784.31,-74.8"/>
</g>
<!-- Node15&#45;&gt;Node10 -->
<g id="edge24" class="edge">
<title>Node15&#45;&gt;Node10</title>
<path fill="none" stroke="midnightblue" d="M1006.85,-168.44C967.84,-159.08 905.23,-144.06 862.78,-133.87"/>
<polygon fill="midnightblue" stroke="midnightblue" points="863.53,-130.45 852.99,-131.52 861.89,-137.25 863.53,-130.45"/>
</g>
<!-- Node16&#45;&gt;Node3 -->
<g id="edge28" class="edge">
<title>Node16&#45;&gt;Node3</title>
<path fill="none" stroke="midnightblue" d="M1159.84,-291.36C1157.73,-268.84 1149.42,-207.35 1119.5,-168 1091.67,-131.39 1075.49,-128.31 1032.5,-112 954.67,-82.47 858.12,-72.3 798.15,-68.81"/>
<polygon fill="midnightblue" stroke="midnightblue" points="798.3,-65.31 788.12,-68.27 797.92,-72.3 798.3,-65.31"/>
</g>
<!-- Node17 -->
<g id="node17" class="node">
<title>Node17</title>
<g id="a_node17"><a xlink:href="_radar_device_common_8h.html" target="_top" xlink:title="Header for ifxRadarDeviceCommon.">
<polygon fill="white" stroke="black" points="1289.5,-224.5 1289.5,-254.5 1425.5,-254.5 1425.5,-224.5 1289.5,-224.5"/>
<text text-anchor="start" x="1297.5" y="-242.5" font-family="Helvetica,sans-Serif" font-size="10.00">ifxRadarDeviceCommon</text>
<text text-anchor="middle" x="1357.5" y="-231.5" font-family="Helvetica,sans-Serif" font-size="10.00">/RadarDeviceCommon.h</text>
</a>
</g>
</g>
<!-- Node16&#45;&gt;Node17 -->
<g id="edge29" class="edge">
<title>Node16&#45;&gt;Node17</title>
<path fill="none" stroke="midnightblue" d="M1188.73,-291.48C1218.02,-282.63 1264.63,-268.55 1301.45,-257.43"/>
<polygon fill="midnightblue" stroke="midnightblue" points="1302.51,-260.76 1311.07,-254.52 1300.49,-254.06 1302.51,-260.76"/>
</g>
<!-- Node17&#45;&gt;Node3 -->
<g id="edge30" class="edge">
<title>Node17&#45;&gt;Node3</title>
<path fill="none" stroke="midnightblue" d="M1346.18,-224.35C1323.44,-197.06 1269.13,-137.63 1208.5,-112 1135.91,-81.31 906.23,-71.31 798.42,-68.25"/>
<polygon fill="midnightblue" stroke="midnightblue" points="798.47,-64.75 788.38,-67.97 798.28,-71.75 798.47,-64.75"/>
</g>
<!-- Node18&#45;&gt;Node3 -->
<g id="edge32" class="edge">
<title>Node18&#45;&gt;Node3</title>
<path fill="none" stroke="midnightblue" d="M1349.83,-347.47C1409.36,-335.26 1491.5,-306.45 1491.5,-240.5 1491.5,-240.5 1491.5,-240.5 1491.5,-177 1491.5,-144.99 1487.02,-129.92 1460.5,-112 1406.18,-75.3 958.63,-68.53 798.34,-67.28"/>
<polygon fill="midnightblue" stroke="midnightblue" points="798.23,-63.78 788.2,-67.21 798.18,-70.78 798.23,-63.78"/>
</g>
<!-- Node18&#45;&gt;Node12 -->
<g id="edge39" class="edge">
<title>Node18&#45;&gt;Node12</title>
<path fill="none" stroke="midnightblue" d="M1220.76,-353.45C1075.1,-347.81 724.71,-333.02 431.5,-311 419.62,-310.11 406.9,-308.98 394.82,-307.82"/>
<polygon fill="midnightblue" stroke="midnightblue" points="395.15,-304.34 384.86,-306.85 394.47,-311.3 395.15,-304.34"/>
</g>
<!-- Node18&#45;&gt;Node16 -->
<g id="edge40" class="edge">
<title>Node18&#45;&gt;Node16</title>
<path fill="none" stroke="midnightblue" d="M1269.06,-347.44C1247.83,-338.56 1214.4,-324.56 1190.25,-314.45"/>
<polygon fill="midnightblue" stroke="midnightblue" points="1191.42,-311.15 1180.84,-310.52 1188.72,-317.61 1191.42,-311.15"/>
</g>
<!-- Node18&#45;&gt;Node17 -->
<g id="edge41" class="edge">
<title>Node18&#45;&gt;Node17</title>
<path fill="none" stroke="midnightblue" d="M1304.46,-347.24C1316.62,-339.32 1333.22,-326.55 1342.5,-311 1350.83,-297.04 1354.57,-279.1 1356.23,-264.81"/>
<polygon fill="midnightblue" stroke="midnightblue" points="1359.73,-264.99 1357.14,-254.72 1352.76,-264.36 1359.73,-264.99"/>
</g>
<!-- Node19 -->
<g id="node19" class="node">
<title>Node19</title>
<g id="a_node19"><a xlink:href="_error_8h.html" target="_top" xlink:title="API for error handling.">
<polygon fill="white" stroke="black" points="1245.5,-291.5 1245.5,-310.5 1333.5,-310.5 1333.5,-291.5 1245.5,-291.5"/>
<text text-anchor="middle" x="1289.5" y="-298.5" font-family="Helvetica,sans-Serif" font-size="10.00">ifxBase/Error.h</text>
</a>
</g>
</g>
<!-- Node18&#45;&gt;Node19 -->
<g id="edge33" class="edge">
<title>Node18&#45;&gt;Node19</title>
<path fill="none" stroke="midnightblue" d="M1289.5,-347.08C1289.5,-340.01 1289.5,-329.86 1289.5,-320.99"/>
<polygon fill="midnightblue" stroke="midnightblue" points="1293,-320.75 1289.5,-310.75 1286,-320.75 1293,-320.75"/>
</g>
<!-- Node22 -->
<g id="node22" class="node">
<title>Node22</title>
<g id="a_node22"><a xlink:href="_list_8h.html" target="_top" xlink:title=" ">
<polygon fill="white" stroke="black" points="1368,-112.5 1368,-131.5 1451,-131.5 1451,-112.5 1368,-112.5"/>
<text text-anchor="middle" x="1409.5" y="-119.5" font-family="Helvetica,sans-Serif" font-size="10.00">ifxBase/List.h</text>
</a>
</g>
</g>
<!-- Node18&#45;&gt;Node22 -->
<g id="edge37" class="edge">
<title>Node18&#45;&gt;Node22</title>
<path fill="none" stroke="midnightblue" d="M1314.33,-347.43C1348.9,-333.96 1410.05,-304.17 1434.5,-255 1453.3,-217.2 1433.02,-166.88 1419.53,-140.63"/>
<polygon fill="midnightblue" stroke="midnightblue" points="1422.45,-138.67 1414.62,-131.53 1416.29,-141.99 1422.45,-138.67"/>
</g>
<!-- Node20 -->
<g id="node20" class="node">
<title>Node20</title>
<g id="a_node20"><a xlink:href="_log_8h.html" target="_top" xlink:title="API for logging.">
<polygon fill="white" stroke="black" points="1188,-230 1188,-249 1271,-249 1271,-230 1188,-230"/>
<text text-anchor="middle" x="1229.5" y="-237" font-family="Helvetica,sans-Serif" font-size="10.00">ifxBase/Log.h</text>
</a>
</g>
</g>
<!-- Node19&#45;&gt;Node20 -->
<g id="edge34" class="edge">
<title>Node19&#45;&gt;Node20</title>
<path fill="none" stroke="midnightblue" d="M1280.9,-291.48C1271.64,-282.28 1256.68,-267.46 1245.29,-256.16"/>
<polygon fill="midnightblue" stroke="midnightblue" points="1247.65,-253.57 1238.08,-249.01 1242.72,-258.54 1247.65,-253.57"/>
</g>
<!-- Node20&#45;&gt;Node3 -->
<g id="edge36" class="edge">
<title>Node20&#45;&gt;Node3</title>
<path fill="none" stroke="midnightblue" d="M1235.21,-229.84C1243.48,-216.11 1256.75,-188.78 1246.5,-168 1228.41,-131.33 1211.49,-127.13 1173.5,-112 1106.62,-85.36 899.18,-73.42 798.06,-69.08"/>
<polygon fill="midnightblue" stroke="midnightblue" points="798.17,-65.58 788.03,-68.66 797.87,-72.58 798.17,-65.58"/>
</g>
<!-- Node21 -->
<g id="node21" class="node">
<title>Node21</title>
<g id="a_node21"><a xlink:title=" ">
<polygon fill="white" stroke="#bfbfbf" points="1187.5,-168.5 1187.5,-187.5 1237.5,-187.5 1237.5,-168.5 1187.5,-168.5"/>
<text text-anchor="middle" x="1212.5" y="-175.5" font-family="Helvetica,sans-Serif" font-size="10.00">stdio.h</text>
</a>
</g>
</g>
<!-- Node20&#45;&gt;Node21 -->
<g id="edge35" class="edge">
<title>Node20&#45;&gt;Node21</title>
<path fill="none" stroke="midnightblue" d="M1227.06,-229.98C1224.64,-221.49 1220.84,-208.2 1217.73,-197.32"/>
<polygon fill="midnightblue" stroke="midnightblue" points="1221.04,-196.16 1214.93,-187.51 1214.31,-198.09 1221.04,-196.16"/>
</g>
<!-- Node22&#45;&gt;Node3 -->
<g id="edge38" class="edge">
<title>Node22&#45;&gt;Node3</title>
<path fill="none" stroke="midnightblue" d="M1367.59,-116C1355.33,-114.61 1341.88,-113.17 1329.5,-112 1134.68,-93.59 903,-77.59 798.1,-70.66"/>
<polygon fill="midnightblue" stroke="midnightblue" points="798.25,-67.16 788.05,-70 797.79,-74.15 798.25,-67.16"/>
</g>
<!-- Node23&#45;&gt;Node3 -->
<g id="edge51" class="edge">
<title>Node23&#45;&gt;Node3</title>
<path fill="none" stroke="midnightblue" d="M986.52,-291.4C1035.28,-271.89 1141.46,-221.76 1102.5,-168 1066.79,-118.73 890.64,-87.55 798.27,-74.32"/>
<polygon fill="midnightblue" stroke="midnightblue" points="798.64,-70.84 788.25,-72.91 797.66,-77.77 798.64,-70.84"/>
</g>
<!-- Node23&#45;&gt;Node10 -->
<g id="edge53" class="edge">
<title>Node23&#45;&gt;Node10</title>
<path fill="none" stroke="midnightblue" d="M964.94,-291.41C968.25,-268.48 974.01,-205.03 943.5,-168 926.63,-147.52 899.71,-136.35 875.09,-130.27"/>
<polygon fill="midnightblue" stroke="midnightblue" points="875.59,-126.8 865.07,-128.03 874.07,-133.63 875.59,-126.8"/>
</g>
<!-- Node23&#45;&gt;Node13 -->
<g id="edge52" class="edge">
<title>Node23&#45;&gt;Node13</title>
<path fill="none" stroke="midnightblue" d="M946.59,-291.48C926.97,-281.58 894.37,-265.14 871.51,-253.62"/>
<polygon fill="midnightblue" stroke="midnightblue" points="872.88,-250.39 862.38,-249.01 869.73,-256.64 872.88,-250.39"/>
</g>
<!-- Node23&#45;&gt;Node15 -->
<g id="edge50" class="edge">
<title>Node23&#45;&gt;Node15</title>
<path fill="none" stroke="midnightblue" d="M969.18,-291.3C982.16,-271.41 1014.2,-222.35 1031.3,-196.15"/>
<polygon fill="midnightblue" stroke="midnightblue" points="1034.33,-197.91 1036.87,-187.62 1028.47,-194.08 1034.33,-197.91"/>
</g>
<!-- Node24 -->
<g id="node24" class="node">
<title>Node24</title>
<g id="a_node24"><a xlink:href="_preprocessed_f_f_t_8h.html" target="_top" xlink:title="API for Pre&#45;processed FFT.">
<polygon fill="white" stroke="black" points="634,-230 634,-249 779,-249 779,-230 634,-230"/>
<text text-anchor="middle" x="706.5" y="-237" font-family="Helvetica,sans-Serif" font-size="10.00">ifxAlgo/PreprocessedFFT.h</text>
</a>
</g>
</g>
<!-- Node23&#45;&gt;Node24 -->
<g id="edge43" class="edge">
<title>Node23&#45;&gt;Node24</title>
<path fill="none" stroke="midnightblue" d="M926.68,-291.48C880.97,-280.89 802.97,-262.84 753.13,-251.3"/>
<polygon fill="midnightblue" stroke="midnightblue" points="753.79,-247.85 743.25,-249.01 752.21,-254.67 753.79,-247.85"/>
</g>
<!-- Node24&#45;&gt;Node3 -->
<g id="edge48" class="edge">
<title>Node24&#45;&gt;Node3</title>
<path fill="none" stroke="midnightblue" d="M707.52,-229.83C710.04,-209.22 717.11,-155.75 727.5,-112 729.63,-103.03 732.59,-93.24 735.25,-85.09"/>
<polygon fill="midnightblue" stroke="midnightblue" points="738.59,-86.12 738.46,-75.53 731.96,-83.89 738.59,-86.12"/>
</g>
<!-- Node24&#45;&gt;Node9 -->
<g id="edge49" class="edge">
<title>Node24&#45;&gt;Node9</title>
<path fill="none" stroke="midnightblue" d="M684.29,-229.98C657.82,-219.81 613.39,-202.76 583.28,-191.2"/>
<polygon fill="midnightblue" stroke="midnightblue" points="584.26,-187.83 573.67,-187.51 581.75,-194.36 584.26,-187.83"/>
</g>
<!-- Node24&#45;&gt;Node15 -->
<g id="edge47" class="edge">
<title>Node24&#45;&gt;Node15</title>
<path fill="none" stroke="midnightblue" d="M754.04,-229.97C765.03,-228 776.67,-225.93 787.5,-224 854.93,-212.02 932.41,-198.36 984.1,-189.26"/>
<polygon fill="midnightblue" stroke="midnightblue" points="984.84,-192.69 994.08,-187.51 983.63,-185.79 984.84,-192.69"/>
</g>
<!-- Node25 -->
<g id="node25" class="node">
<title>Node25</title>
<g id="a_node25"><a xlink:href="_f_f_t_8h.html" target="_top" xlink:title="API for Fast Fourier Transform (FFT)">
<polygon fill="white" stroke="black" points="595.5,-168.5 595.5,-187.5 675.5,-187.5 675.5,-168.5 595.5,-168.5"/>
<text text-anchor="middle" x="635.5" y="-175.5" font-family="Helvetica,sans-Serif" font-size="10.00">ifxAlgo/FFT.h</text>
</a>
</g>
</g>
<!-- Node24&#45;&gt;Node25 -->
<g id="edge44" class="edge">
<title>Node24&#45;&gt;Node25</title>
<path fill="none" stroke="midnightblue" d="M696.33,-229.98C685.15,-220.61 666.98,-205.38 653.41,-194.01"/>
<polygon fill="midnightblue" stroke="midnightblue" points="655.57,-191.25 645.65,-187.51 651.07,-196.61 655.57,-191.25"/>
</g>
<!-- Node25&#45;&gt;Node3 -->
<g id="edge45" class="edge">
<title>Node25&#45;&gt;Node3</title>
<path fill="none" stroke="midnightblue" d="M642.06,-168.2C651.83,-155.33 671.02,-130.86 689.5,-112 699.82,-101.47 712.27,-90.64 722.41,-82.24"/>
<polygon fill="midnightblue" stroke="midnightblue" points="724.74,-84.85 730.28,-75.81 720.32,-79.42 724.74,-84.85"/>
</g>
<!-- Node25&#45;&gt;Node10 -->
<g id="edge46" class="edge">
<title>Node25&#45;&gt;Node10</title>
<path fill="none" stroke="midnightblue" d="M664.34,-168.44C695.36,-159.24 744.83,-144.56 779.12,-134.39"/>
<polygon fill="midnightblue" stroke="midnightblue" points="780.21,-137.72 788.8,-131.52 778.21,-131.01 780.21,-137.72"/>
</g>
<!-- Node26&#45;&gt;Node3 -->
<g id="edge56" class="edge">
<title>Node26&#45;&gt;Node3</title>
<path fill="none" stroke="midnightblue" d="M504.77,-291.24C492.61,-283.48 476.69,-270.93 469.5,-255 463.83,-242.44 465.37,-237.15 469.5,-224 487.67,-166.12 497.27,-146.01 547.5,-112 588.14,-84.48 643.37,-73.64 684.51,-69.45"/>
<polygon fill="midnightblue" stroke="midnightblue" points="685.01,-72.92 694.65,-68.52 684.37,-65.95 685.01,-72.92"/>
</g>
<!-- Node26&#45;&gt;Node13 -->
<g id="edge57" class="edge">
<title>Node26&#45;&gt;Node13</title>
<path fill="none" stroke="midnightblue" d="M579.08,-291.47C633.34,-283.26 716.18,-269.9 787.5,-255 792.64,-253.93 798.01,-252.71 803.32,-251.45"/>
<polygon fill="midnightblue" stroke="midnightblue" points="804.5,-254.77 813.39,-249 802.85,-247.97 804.5,-254.77"/>
</g>
<!-- Node26&#45;&gt;Node24 -->
<g id="edge55" class="edge">
<title>Node26&#45;&gt;Node24</title>
<path fill="none" stroke="midnightblue" d="M547.15,-291.48C579.47,-281.14 634.1,-263.66 670.23,-252.1"/>
<polygon fill="midnightblue" stroke="midnightblue" points="671.44,-255.39 679.9,-249.01 669.31,-248.72 671.44,-255.39"/>
</g>
<!-- Node27&#45;&gt;Node3 -->
<g id="edge60" class="edge">
<title>Node27&#45;&gt;Node3</title>
<path fill="none" stroke="midnightblue" d="M538.48,-229.89C525.3,-216.23 503.68,-189 516.5,-168 552.03,-109.81 630.41,-84.93 684.59,-74.44"/>
<polygon fill="midnightblue" stroke="midnightblue" points="685.54,-77.82 694.75,-72.58 684.28,-70.94 685.54,-77.82"/>
</g>
<!-- Node27&#45;&gt;Node9 -->
<g id="edge61" class="edge">
<title>Node27&#45;&gt;Node9</title>
<path fill="none" stroke="midnightblue" d="M548.07,-229.98C548.64,-221.58 549.52,-208.48 550.25,-197.66"/>
<polygon fill="midnightblue" stroke="midnightblue" points="553.75,-197.72 550.93,-187.51 546.76,-197.25 553.75,-197.72"/>
</g>
<!-- Node27&#45;&gt;Node25 -->
<g id="edge62" class="edge">
<title>Node27&#45;&gt;Node25</title>
<path fill="none" stroke="midnightblue" d="M560.11,-229.98C574.22,-220.43 597.33,-204.81 614.25,-193.37"/>
<polygon fill="midnightblue" stroke="midnightblue" points="616.59,-196.01 622.92,-187.51 612.67,-190.21 616.59,-196.01"/>
</g>
<!-- Node28&#45;&gt;Node3 -->
<g id="edge64" class="edge">
<title>Node28&#45;&gt;Node3</title>
<path fill="none" stroke="midnightblue" d="M874.75,-168.48C879.27,-155.08 885.59,-128.89 873.5,-112 856.31,-87.98 825.52,-76.63 798,-71.33"/>
<polygon fill="midnightblue" stroke="midnightblue" points="798.48,-67.87 788.04,-69.64 797.31,-74.77 798.48,-67.87"/>
</g>
<!-- Node28&#45;&gt;Node10 -->
<g id="edge65" class="edge">
<title>Node28&#45;&gt;Node10</title>
<path fill="none" stroke="midnightblue" d="M862.58,-168.08C854.72,-160.22 843.07,-148.57 833.58,-139.08"/>
<polygon fill="midnightblue" stroke="midnightblue" points="835.8,-136.35 826.25,-131.75 830.85,-141.3 835.8,-136.35"/>
</g>
<!-- Node29&#45;&gt;Node3 -->
<g id="edge67" class="edge">
<title>Node29&#45;&gt;Node3</title>
<path fill="none" stroke="midnightblue" d="M420.73,-347.15C422.21,-310.13 433.44,-167.1 518.5,-112 568.37,-79.69 636.65,-69.82 684.48,-67.16"/>
<polygon fill="midnightblue" stroke="midnightblue" points="684.83,-70.65 694.66,-66.69 684.51,-63.66 684.83,-70.65"/>
</g>
<!-- Node29&#45;&gt;Node12 -->
<g id="edge68" class="edge">
<title>Node29&#45;&gt;Node12</title>
<path fill="none" stroke="midnightblue" d="M407.49,-347.32C394.97,-338.98 375.82,-326.21 361.03,-316.35"/>
<polygon fill="midnightblue" stroke="midnightblue" points="362.74,-313.29 352.48,-310.65 358.86,-319.11 362.74,-313.29"/>
</g>
<!-- Node30&#45;&gt;Node3 -->
<g id="edge70" class="edge">
<title>Node30&#45;&gt;Node3</title>
<path fill="none" stroke="midnightblue" d="M321.48,-403.49C299.47,-375.74 235.52,-286.08 273.5,-224 330.55,-130.74 388.93,-146.99 492.5,-112 556.36,-90.43 633.11,-78.55 684.37,-72.49"/>
<polygon fill="midnightblue" stroke="midnightblue" points="685.05,-75.94 694.58,-71.32 684.25,-68.99 685.05,-75.94"/>
</g>
<!-- Node30&#45;&gt;Node11 -->
<g id="edge72" class="edge">
<title>Node30&#45;&gt;Node11</title>
<path fill="none" stroke="midnightblue" d="M310.67,-403.32C292.78,-394.62 265.02,-381.12 244.45,-371.11"/>
<polygon fill="midnightblue" stroke="midnightblue" points="245.81,-367.88 235.29,-366.65 242.75,-374.18 245.81,-367.88"/>
</g>
<!-- Node30&#45;&gt;Node12 -->
<g id="edge71" class="edge">
<title>Node30&#45;&gt;Node12</title>
<path fill="none" stroke="midnightblue" d="M329.36,-403.37C331.14,-385.62 335.23,-344.67 337.64,-320.6"/>
<polygon fill="midnightblue" stroke="midnightblue" points="341.13,-320.89 338.64,-310.59 334.16,-320.19 341.13,-320.89"/>
</g>
<!-- Node30&#45;&gt;Node26 -->
<g id="edge73" class="edge">
<title>Node30&#45;&gt;Node26</title>
<path fill="none" stroke="midnightblue" d="M408.15,-405.09C437.83,-398.98 469.98,-387.69 493.5,-367 507.1,-355.03 514,-335.14 517.4,-320.5"/>
<polygon fill="midnightblue" stroke="midnightblue" points="520.86,-321.04 519.37,-310.55 514,-319.68 520.86,-321.04"/>
</g>
</g>
</svg>
