<?xml version="1.0" encoding="UTF-8" standalone="no"?>
<!DOCTYPE svg PUBLIC "-//W3C//DTD SVG 1.1//EN"
 "http://www.w3.org/Graphics/SVG/1.1/DTD/svg11.dtd">
<!-- Generated by graphviz version 2.43.0 (0)
 -->
<!-- Title: /home/build/sdk/c/ifxRadar/RangeDopplerMap.h Pages: 1 -->
<svg width="449pt" height="319pt"
 viewBox="0.00 0.00 449.31 319.00" xmlns="http://www.w3.org/2000/svg" xmlns:xlink="http://www.w3.org/1999/xlink">
<g id="graph0" class="graph" transform="scale(1 1) rotate(0) translate(4 315)">
<title>/home/build/sdk/c/ifxRadar/RangeDopplerMap.h</title>
<polygon fill="white" stroke="transparent" points="-4,4 -4,-315 445.31,-315 445.31,4 -4,4"/>
<!-- Node1 -->
<g id="node1" class="node">
<title>Node1</title>
<g id="a_node1"><a xlink:title="API for Range Doppler Map.">
<polygon fill="#bfbfbf" stroke="black" points="38.31,-280.5 38.31,-310.5 185.31,-310.5 185.31,-280.5 38.31,-280.5"/>
<text text-anchor="start" x="46.31" y="-298.5" font-family="Helvetica,sans-Serif" font-size="10.00">/home/build/sdk/c/ifxRadar</text>
<text text-anchor="middle" x="111.81" y="-287.5" font-family="Helvetica,sans-Serif" font-size="10.00">/RangeDopplerMap.h</text>
</a>
</g>
</g>
<!-- Node2 -->
<g id="node2" class="node">
<title>Node2</title>
<g id="a_node2"><a xlink:href="_preprocessed_f_f_t_8h.html" target="_top" xlink:title="API for Pre&#45;processed FFT.">
<polygon fill="white" stroke="black" points="39.31,-224.5 39.31,-243.5 184.31,-243.5 184.31,-224.5 39.31,-224.5"/>
<text text-anchor="middle" x="111.81" y="-231.5" font-family="Helvetica,sans-Serif" font-size="10.00">ifxAlgo/PreprocessedFFT.h</text>
</a>
</g>
</g>
<!-- Node1&#45;&gt;Node2 -->
<g id="edge1" class="edge">
<title>Node1&#45;&gt;Node2</title>
<path fill="none" stroke="midnightblue" d="M111.81,-280.4C111.81,-272.47 111.81,-262.46 111.81,-253.86"/>
<polygon fill="midnightblue" stroke="midnightblue" points="115.31,-253.66 111.81,-243.66 108.31,-253.66 115.31,-253.66"/>
</g>
<!-- Node4 -->
<g id="node4" class="node">
<title>Node4</title>
<g id="a_node4"><a xlink:href="_types_8h.html" target="_top" xlink:title="Definitions of data types used within the SDK.">
<polygon fill="white" stroke="black" points="69.31,-56.5 69.31,-75.5 162.31,-75.5 162.31,-56.5 69.31,-56.5"/>
<text text-anchor="middle" x="115.81" y="-63.5" font-family="Helvetica,sans-Serif" font-size="10.00">ifxBase/Types.h</text>
</a>
</g>
</g>
<!-- Node1&#45;&gt;Node4 -->
<g id="edge16" class="edge">
<title>Node1&#45;&gt;Node4</title>
<path fill="none" stroke="midnightblue" d="M79.96,-280.34C63.37,-271.72 43.7,-259.39 29.81,-244 5.8,-217.39 -5.18,-202.95 2.81,-168 8.96,-141.06 10.59,-131.86 29.81,-112 43.72,-97.63 63.22,-86.91 80.13,-79.54"/>
<polygon fill="midnightblue" stroke="midnightblue" points="81.82,-82.64 89.73,-75.59 79.15,-76.16 81.82,-82.64"/>
</g>
<!-- Node11 -->
<g id="node11" class="node">
<title>Node11</title>
<g id="a_node11"><a xlink:href="_matrix_8h.html" target="_top" xlink:title="API for operations on Matrix data structures.">
<polygon fill="white" stroke="black" points="344.31,-168.5 344.31,-187.5 441.31,-187.5 441.31,-168.5 344.31,-168.5"/>
<text text-anchor="middle" x="392.81" y="-175.5" font-family="Helvetica,sans-Serif" font-size="10.00">ifxBase/Matrix.h</text>
</a>
</g>
</g>
<!-- Node1&#45;&gt;Node11 -->
<g id="edge17" class="edge">
<title>Node1&#45;&gt;Node11</title>
<path fill="none" stroke="midnightblue" d="M145.98,-280.45C201.36,-257.69 309.8,-213.12 362.55,-191.44"/>
<polygon fill="midnightblue" stroke="midnightblue" points="364.11,-194.58 372.02,-187.54 361.45,-188.11 364.11,-194.58"/>
</g>
<!-- Node3 -->
<g id="node3" class="node">
<title>Node3</title>
<g id="a_node3"><a xlink:href="_f_f_t_8h.html" target="_top" xlink:title="API for Fast Fourier Transform (FFT)">
<polygon fill="white" stroke="black" points="17.81,-168.5 17.81,-187.5 97.81,-187.5 97.81,-168.5 17.81,-168.5"/>
<text text-anchor="middle" x="57.81" y="-175.5" font-family="Helvetica,sans-Serif" font-size="10.00">ifxAlgo/FFT.h</text>
</a>
</g>
</g>
<!-- Node2&#45;&gt;Node3 -->
<g id="edge2" class="edge">
<title>Node2&#45;&gt;Node3</title>
<path fill="none" stroke="midnightblue" d="M102.89,-224.08C95.03,-216.22 83.38,-204.57 73.89,-195.08"/>
<polygon fill="midnightblue" stroke="midnightblue" points="76.1,-192.35 66.56,-187.75 71.15,-197.3 76.1,-192.35"/>
</g>
<!-- Node2&#45;&gt;Node4 -->
<g id="edge12" class="edge">
<title>Node2&#45;&gt;Node4</title>
<path fill="none" stroke="midnightblue" d="M69.31,-224.42C35.55,-215.24 -4.04,-197.8 8.81,-168 25.64,-128.97 65.79,-98.01 91.84,-81.12"/>
<polygon fill="midnightblue" stroke="midnightblue" points="93.8,-84.02 100.4,-75.74 90.07,-78.09 93.8,-84.02"/>
</g>
<!-- Node9 -->
<g id="node9" class="node">
<title>Node9</title>
<g id="a_node9"><a xlink:href="_window_8h.html" target="_top" xlink:title="API for Window function processing.">
<polygon fill="white" stroke="black" points="116.31,-168.5 116.31,-187.5 217.31,-187.5 217.31,-168.5 116.31,-168.5"/>
<text text-anchor="middle" x="166.81" y="-175.5" font-family="Helvetica,sans-Serif" font-size="10.00">ifxAlgo/Window.h</text>
</a>
</g>
</g>
<!-- Node2&#45;&gt;Node9 -->
<g id="edge9" class="edge">
<title>Node2&#45;&gt;Node9</title>
<path fill="none" stroke="midnightblue" d="M120.89,-224.08C128.98,-216.14 141,-204.34 150.72,-194.8"/>
<polygon fill="midnightblue" stroke="midnightblue" points="153.21,-197.25 157.89,-187.75 148.31,-192.26 153.21,-197.25"/>
</g>
<!-- Node10 -->
<g id="node10" class="node">
<title>Node10</title>
<g id="a_node10"><a xlink:href="_math_8h.html" target="_top" xlink:title="API for Mathematical operations.">
<polygon fill="white" stroke="black" points="235.81,-168.5 235.81,-187.5 325.81,-187.5 325.81,-168.5 235.81,-168.5"/>
<text text-anchor="middle" x="280.81" y="-175.5" font-family="Helvetica,sans-Serif" font-size="10.00">ifxBase/Math.h</text>
</a>
</g>
</g>
<!-- Node2&#45;&gt;Node10 -->
<g id="edge13" class="edge">
<title>Node2&#45;&gt;Node10</title>
<path fill="none" stroke="midnightblue" d="M138.59,-224.44C167.14,-215.32 212.54,-200.81 244.34,-190.65"/>
<polygon fill="midnightblue" stroke="midnightblue" points="245.69,-193.89 254.15,-187.52 243.56,-187.23 245.69,-193.89"/>
</g>
<!-- Node3&#45;&gt;Node4 -->
<g id="edge3" class="edge">
<title>Node3&#45;&gt;Node4</title>
<path fill="none" stroke="midnightblue" d="M62.36,-168.37C71.85,-150.38 93.9,-108.55 106.51,-84.63"/>
<polygon fill="midnightblue" stroke="midnightblue" points="109.71,-86.07 111.28,-75.59 103.52,-82.8 109.71,-86.07"/>
</g>
<!-- Node8 -->
<g id="node8" class="node">
<title>Node8</title>
<g id="a_node8"><a xlink:href="_vector_8h.html" target="_top" xlink:title="API for operations on Vector data structures.">
<polygon fill="white" stroke="black" points="144.31,-112.5 144.31,-131.5 239.31,-131.5 239.31,-112.5 144.31,-112.5"/>
<text text-anchor="middle" x="191.81" y="-119.5" font-family="Helvetica,sans-Serif" font-size="10.00">ifxBase/Vector.h</text>
</a>
</g>
</g>
<!-- Node3&#45;&gt;Node8 -->
<g id="edge7" class="edge">
<title>Node3&#45;&gt;Node8</title>
<path fill="none" stroke="midnightblue" d="M79.04,-168.44C101.19,-159.52 136.13,-145.44 161.24,-135.32"/>
<polygon fill="midnightblue" stroke="midnightblue" points="162.71,-138.5 170.67,-131.52 160.09,-132.01 162.71,-138.5"/>
</g>
<!-- Node5 -->
<g id="node5" class="node">
<title>Node5</title>
<g id="a_node5"><a xlink:title=" ">
<polygon fill="white" stroke="#bfbfbf" points="16.31,-0.5 16.31,-19.5 69.31,-19.5 69.31,-0.5 16.31,-0.5"/>
<text text-anchor="middle" x="42.81" y="-7.5" font-family="Helvetica,sans-Serif" font-size="10.00">stdint.h</text>
</a>
</g>
</g>
<!-- Node4&#45;&gt;Node5 -->
<g id="edge4" class="edge">
<title>Node4&#45;&gt;Node5</title>
<path fill="none" stroke="midnightblue" d="M104.08,-56.32C92.97,-48.11 76.07,-35.6 62.82,-25.81"/>
<polygon fill="midnightblue" stroke="midnightblue" points="64.87,-22.97 54.75,-19.83 60.71,-28.59 64.87,-22.97"/>
</g>
<!-- Node6 -->
<g id="node6" class="node">
<title>Node6</title>
<g id="a_node6"><a xlink:title=" ">
<polygon fill="white" stroke="#bfbfbf" points="87.81,-0.5 87.81,-19.5 143.81,-19.5 143.81,-0.5 87.81,-0.5"/>
<text text-anchor="middle" x="115.81" y="-7.5" font-family="Helvetica,sans-Serif" font-size="10.00">stddef.h</text>
</a>
</g>
</g>
<!-- Node4&#45;&gt;Node6 -->
<g id="edge5" class="edge">
<title>Node4&#45;&gt;Node6</title>
<path fill="none" stroke="midnightblue" d="M115.81,-56.08C115.81,-49.01 115.81,-38.86 115.81,-29.99"/>
<polygon fill="midnightblue" stroke="midnightblue" points="119.31,-29.75 115.81,-19.75 112.31,-29.75 119.31,-29.75"/>
</g>
<!-- Node7 -->
<g id="node7" class="node">
<title>Node7</title>
<g id="a_node7"><a xlink:title=" ">
<polygon fill="white" stroke="#bfbfbf" points="161.81,-0.5 161.81,-19.5 223.81,-19.5 223.81,-0.5 161.81,-0.5"/>
<text text-anchor="middle" x="192.81" y="-7.5" font-family="Helvetica,sans-Serif" font-size="10.00">stdbool.h</text>
</a>
</g>
</g>
<!-- Node4&#45;&gt;Node7 -->
<g id="edge6" class="edge">
<title>Node4&#45;&gt;Node7</title>
<path fill="none" stroke="midnightblue" d="M128.18,-56.32C139.97,-48.06 157.94,-35.45 171.94,-25.63"/>
<polygon fill="midnightblue" stroke="midnightblue" points="174.29,-28.26 180.47,-19.65 170.27,-22.53 174.29,-28.26"/>
</g>
<!-- Node8&#45;&gt;Node4 -->
<g id="edge8" class="edge">
<title>Node8&#45;&gt;Node4</title>
<path fill="none" stroke="midnightblue" d="M179.6,-112.32C168.03,-104.11 150.43,-91.6 136.65,-81.81"/>
<polygon fill="midnightblue" stroke="midnightblue" points="138.42,-78.77 128.24,-75.83 134.36,-84.48 138.42,-78.77"/>
</g>
<!-- Node9&#45;&gt;Node4 -->
<g id="edge10" class="edge">
<title>Node9&#45;&gt;Node4</title>
<path fill="none" stroke="midnightblue" d="M159.53,-168.2C152.62,-159.47 142.34,-145.49 135.81,-132 128.57,-117.06 123.25,-98.92 119.92,-85.6"/>
<polygon fill="midnightblue" stroke="midnightblue" points="123.3,-84.66 117.6,-75.73 116.48,-86.26 123.3,-84.66"/>
</g>
<!-- Node9&#45;&gt;Node8 -->
<g id="edge11" class="edge">
<title>Node9&#45;&gt;Node8</title>
<path fill="none" stroke="midnightblue" d="M170.94,-168.08C174.32,-160.77 179.22,-150.18 183.43,-141.1"/>
<polygon fill="midnightblue" stroke="midnightblue" points="186.73,-142.3 187.76,-131.75 180.38,-139.36 186.73,-142.3"/>
</g>
<!-- Node10&#45;&gt;Node4 -->
<g id="edge14" class="edge">
<title>Node10&#45;&gt;Node4</title>
<path fill="none" stroke="midnightblue" d="M278.77,-168.09C275.13,-154.16 266.21,-127.26 248.81,-112 227.53,-93.35 198.2,-82.36 172.5,-75.92"/>
<polygon fill="midnightblue" stroke="midnightblue" points="173.01,-72.44 162.48,-73.58 171.42,-79.26 173.01,-72.44"/>
</g>
<!-- Node10&#45;&gt;Node8 -->
<g id="edge15" class="edge">
<title>Node10&#45;&gt;Node8</title>
<path fill="none" stroke="midnightblue" d="M266.51,-168.32C252.62,-159.9 231.32,-146.97 215,-137.07"/>
<polygon fill="midnightblue" stroke="midnightblue" points="216.44,-133.85 206.07,-131.65 212.81,-139.83 216.44,-133.85"/>
</g>
<!-- Node11&#45;&gt;Node4 -->
<g id="edge18" class="edge">
<title>Node11&#45;&gt;Node4</title>
<path fill="none" stroke="midnightblue" d="M378.86,-168.43C356.52,-154.97 310.99,-128.7 269.81,-112 234.79,-97.8 193.64,-86.01 162.69,-78.07"/>
<polygon fill="midnightblue" stroke="midnightblue" points="163.16,-74.58 152.61,-75.52 161.44,-81.37 163.16,-74.58"/>
</g>
<!-- Node11&#45;&gt;Node8 -->
<g id="edge19" class="edge">
<title>Node11&#45;&gt;Node8</title>
<path fill="none" stroke="midnightblue" d="M360.96,-168.44C326.41,-159.16 271.13,-144.31 233.22,-134.13"/>
<polygon fill="midnightblue" stroke="midnightblue" points="234.07,-130.73 223.51,-131.52 232.26,-137.49 234.07,-130.73"/>
</g>
</g>
</svg>
