<?xml version="1.0" encoding="UTF-8" standalone="no"?>
<!DOCTYPE svg PUBLIC "-//W3C//DTD SVG 1.1//EN"
 "http://www.w3.org/Graphics/SVG/1.1/DTD/svg11.dtd">
<!-- Generated by graphviz version 2.43.0 (0)
 -->
<!-- Title: /home/build/sdk/c/ifxRadarSegmentation/RangeAngleImage7.h Pages: 1 -->
<svg width="222pt" height="151pt"
 viewBox="0.00 0.00 221.50 151.00" xmlns="http://www.w3.org/2000/svg" xmlns:xlink="http://www.w3.org/1999/xlink">
<g id="graph0" class="graph" transform="scale(1 1) rotate(0) translate(4 147)">
<title>/home/build/sdk/c/ifxRadarSegmentation/RangeAngleImage7.h</title>
<polygon fill="white" stroke="transparent" points="-4,4 -4,-147 217.5,-147 217.5,4 -4,4"/>
<!-- Node1 -->
<g id="node1" class="node">
<title>Node1</title>
<g id="a_node1"><a xlink:title=" ">
<polygon fill="#bfbfbf" stroke="black" points="0,-112.5 0,-142.5 192,-142.5 192,-112.5 0,-112.5"/>
<text text-anchor="start" x="8" y="-130.5" font-family="Helvetica,sans-Serif" font-size="10.00">/home/build/sdk/c/ifxRadar</text>
<text text-anchor="middle" x="96" y="-119.5" font-family="Helvetica,sans-Serif" font-size="10.00">Segmentation/RangeAngleImage7.h</text>
</a>
</g>
</g>
<!-- Node2 -->
<g id="node2" class="node">
<title>Node2</title>
<g id="a_node2"><a xlink:title=" ">
<polygon fill="white" stroke="#bfbfbf" points="69.5,-0.5 69.5,-19.5 122.5,-19.5 122.5,-0.5 69.5,-0.5"/>
<text text-anchor="middle" x="96" y="-7.5" font-family="Helvetica,sans-Serif" font-size="10.00">stdint.h</text>
</a>
</g>
</g>
<!-- Node1&#45;&gt;Node2 -->
<g id="edge1" class="edge">
<title>Node1&#45;&gt;Node2</title>
<path fill="none" stroke="midnightblue" d="M83.91,-112.23C73.53,-98.21 61.1,-76.06 67,-56 70.01,-45.76 76.15,-35.66 82.01,-27.63"/>
<polygon fill="midnightblue" stroke="midnightblue" points="84.93,-29.58 88.33,-19.54 79.41,-25.27 84.93,-29.58"/>
</g>
<!-- Node3 -->
<g id="node3" class="node">
<title>Node3</title>
<g id="a_node3"><a xlink:href="_range_angle_image___util_8h.html" target="_top" xlink:title=" ">
<polygon fill="white" stroke="black" points="76.5,-56.5 76.5,-75.5 213.5,-75.5 213.5,-56.5 76.5,-56.5"/>
<text text-anchor="middle" x="145" y="-63.5" font-family="Helvetica,sans-Serif" font-size="10.00">RangeAngleImage_Util.h</text>
</a>
</g>
</g>
<!-- Node1&#45;&gt;Node3 -->
<g id="edge2" class="edge">
<title>Node1&#45;&gt;Node3</title>
<path fill="none" stroke="midnightblue" d="M107.61,-112.4C114.73,-103.75 123.88,-92.64 131.35,-83.58"/>
<polygon fill="midnightblue" stroke="midnightblue" points="134.21,-85.6 137.87,-75.66 128.81,-81.15 134.21,-85.6"/>
</g>
<!-- Node3&#45;&gt;Node2 -->
<g id="edge3" class="edge">
<title>Node3&#45;&gt;Node2</title>
<path fill="none" stroke="midnightblue" d="M136.91,-56.08C129.84,-48.3 119.41,-36.8 110.85,-27.37"/>
<polygon fill="midnightblue" stroke="midnightblue" points="113.25,-24.8 103.94,-19.75 108.07,-29.51 113.25,-24.8"/>
</g>
</g>
</svg>
