<?xml version="1.0" encoding="UTF-8" standalone="no"?>
<!DOCTYPE svg PUBLIC "-//W3C//DTD SVG 1.1//EN"
 "http://www.w3.org/Graphics/SVG/1.1/DTD/svg11.dtd">
<!-- Generated by graphviz version 2.43.0 (0)
 -->
<!-- Title: /home/build/sdk/c/ifxBase/Vector.h Pages: 1 -->
<svg width="2151pt" height="508pt"
 viewBox="0.00 0.00 2150.50 508.00" xmlns="http://www.w3.org/2000/svg" xmlns:xlink="http://www.w3.org/1999/xlink">
<g id="graph0" class="graph" transform="scale(1 1) rotate(0) translate(4 504)">
<title>/home/build/sdk/c/ifxBase/Vector.h</title>
<polygon fill="white" stroke="transparent" points="-4,4 -4,-504 2146.5,-504 2146.5,4 -4,4"/>
<!-- Node1 -->
<g id="node1" class="node">
<title>Node1</title>
<g id="a_node1"><a xlink:title="API for operations on Vector data structures.">
<polygon fill="#bfbfbf" stroke="black" points="937.5,-469.5 937.5,-499.5 1080.5,-499.5 1080.5,-469.5 937.5,-469.5"/>
<text text-anchor="start" x="945.5" y="-487.5" font-family="Helvetica,sans-Serif" font-size="10.00">/home/build/sdk/c/ifxBase</text>
<text text-anchor="middle" x="1009" y="-476.5" font-family="Helvetica,sans-Serif" font-size="10.00">/Vector.h</text>
</a>
</g>
</g>
<!-- Node2 -->
<g id="node2" class="node">
<title>Node2</title>
<g id="a_node2"><a xlink:href="_f_f_t_8h.html" target="_top" xlink:title="API for Fast Fourier Transform (FFT)">
<polygon fill="white" stroke="black" points="596,-335.5 596,-365.5 736,-365.5 736,-335.5 596,-335.5"/>
<text text-anchor="start" x="604" y="-353.5" font-family="Helvetica,sans-Serif" font-size="10.00">/home/build/sdk/c/ifxAlgo</text>
<text text-anchor="middle" x="666" y="-342.5" font-family="Helvetica,sans-Serif" font-size="10.00">/FFT.h</text>
</a>
</g>
</g>
<!-- Node1&#45;&gt;Node2 -->
<g id="edge1" class="edge">
<title>Node1&#45;&gt;Node2</title>
<path fill="none" stroke="midnightblue" d="M962.89,-465.76C893.95,-439.23 765.4,-389.75 702.53,-365.56"/>
<polygon fill="midnightblue" stroke="midnightblue" points="962.03,-469.17 972.62,-469.5 964.54,-462.64 962.03,-469.17"/>
</g>
<!-- Node9 -->
<g id="node9" class="node">
<title>Node9</title>
<g id="a_node9"><a xlink:href="_range_spectrum_8h.html" target="_top" xlink:title="API for Range Spectrum.">
<polygon fill="white" stroke="black" points="392.5,-201.5 392.5,-231.5 539.5,-231.5 539.5,-201.5 392.5,-201.5"/>
<text text-anchor="start" x="400.5" y="-219.5" font-family="Helvetica,sans-Serif" font-size="10.00">/home/build/sdk/c/ifxRadar</text>
<text text-anchor="middle" x="466" y="-208.5" font-family="Helvetica,sans-Serif" font-size="10.00">/RangeSpectrum.h</text>
</a>
</g>
</g>
<!-- Node1&#45;&gt;Node9 -->
<g id="edge76" class="edge">
<title>Node1&#45;&gt;Node9</title>
<path fill="none" stroke="midnightblue" d="M927.18,-480.18C794.32,-474.1 537.81,-459.33 451,-433 339.25,-399.1 280.68,-401.64 225,-299 218.43,-286.89 216.31,-278.69 225,-268 230.4,-261.35 323.47,-243.24 392.34,-230.62"/>
<polygon fill="midnightblue" stroke="midnightblue" points="927.16,-483.68 937.3,-480.64 927.47,-476.69 927.16,-483.68"/>
</g>
<!-- Node12 -->
<g id="node12" class="node">
<title>Node12</title>
<g id="a_node12"><a xlink:href="_m_t_i_8h.html" target="_top" xlink:title="API for Moving Target Indicator (MTI) filter.">
<polygon fill="white" stroke="black" points="0,-402.5 0,-432.5 140,-432.5 140,-402.5 0,-402.5"/>
<text text-anchor="start" x="8" y="-420.5" font-family="Helvetica,sans-Serif" font-size="10.00">/home/build/sdk/c/ifxAlgo</text>
<text text-anchor="middle" x="70" y="-409.5" font-family="Helvetica,sans-Serif" font-size="10.00">/MTI.h</text>
</a>
</g>
</g>
<!-- Node1&#45;&gt;Node12 -->
<g id="edge17" class="edge">
<title>Node1&#45;&gt;Node12</title>
<path fill="none" stroke="midnightblue" d="M927.04,-481.71C774.46,-477.7 436.66,-465.64 154,-433 149.44,-432.47 144.76,-431.86 140.04,-431.19"/>
<polygon fill="midnightblue" stroke="midnightblue" points="927.18,-485.21 937.26,-481.97 927.36,-478.22 927.18,-485.21"/>
</g>
<!-- Node13 -->
<g id="node13" class="node">
<title>Node13</title>
<g id="a_node13"><a xlink:href="_signal_8h.html" target="_top" xlink:title="API for digital filtering operations.">
<polygon fill="white" stroke="black" points="234,-268.5 234,-298.5 374,-298.5 374,-268.5 234,-268.5"/>
<text text-anchor="start" x="242" y="-286.5" font-family="Helvetica,sans-Serif" font-size="10.00">/home/build/sdk/c/ifxAlgo</text>
<text text-anchor="middle" x="304" y="-275.5" font-family="Helvetica,sans-Serif" font-size="10.00">/Signal.h</text>
</a>
</g>
</g>
<!-- Node1&#45;&gt;Node13 -->
<g id="edge19" class="edge">
<title>Node1&#45;&gt;Node13</title>
<path fill="none" stroke="midnightblue" d="M927.13,-476.74C774.33,-462.84 452.84,-427.09 361,-366 335.84,-349.26 318.44,-317.32 309.95,-298.79"/>
<polygon fill="midnightblue" stroke="midnightblue" points="927.12,-480.26 937.4,-477.67 927.75,-473.29 927.12,-480.26"/>
</g>
<!-- Node14 -->
<g id="node14" class="node">
<title>Node14</title>
<g id="a_node14"><a xlink:href="_window_8h.html" target="_top" xlink:title="API for Window function processing.">
<polygon fill="white" stroke="black" points="370,-335.5 370,-365.5 510,-365.5 510,-335.5 370,-335.5"/>
<text text-anchor="start" x="378" y="-353.5" font-family="Helvetica,sans-Serif" font-size="10.00">/home/build/sdk/c/ifxAlgo</text>
<text text-anchor="middle" x="440" y="-342.5" font-family="Helvetica,sans-Serif" font-size="10.00">/Window.h</text>
</a>
</g>
</g>
<!-- Node1&#45;&gt;Node14 -->
<g id="edge21" class="edge">
<title>Node1&#45;&gt;Node14</title>
<path fill="none" stroke="midnightblue" d="M938.74,-467.2C826.05,-441.06 606.82,-390.2 500.59,-365.56"/>
<polygon fill="midnightblue" stroke="midnightblue" points="938.11,-470.65 948.65,-469.5 939.7,-463.83 938.11,-470.65"/>
</g>
<!-- Node15 -->
<g id="node15" class="node">
<title>Node15</title>
<g id="a_node15"><a xlink:href="_base_8h.html" target="_top" xlink:title="Header for ifxAvian.">
<polygon fill="white" stroke="black" points="1845.5,-201.5 1845.5,-231.5 1988.5,-231.5 1988.5,-201.5 1845.5,-201.5"/>
<text text-anchor="start" x="1853.5" y="-219.5" font-family="Helvetica,sans-Serif" font-size="10.00">/home/build/sdk/c/ifxBase</text>
<text text-anchor="middle" x="1917" y="-208.5" font-family="Helvetica,sans-Serif" font-size="10.00">/Base.h</text>
</a>
</g>
</g>
<!-- Node1&#45;&gt;Node15 -->
<g id="edge26" class="edge">
<title>Node1&#45;&gt;Node15</title>
<path fill="none" stroke="midnightblue" d="M1090.85,-483.23C1238.06,-480.2 1555.02,-461.94 1801,-366 1856.11,-344.51 1886.21,-350.1 1916,-299 1928.19,-278.1 1924.54,-248.75 1920.77,-231.57"/>
<polygon fill="midnightblue" stroke="midnightblue" points="1090.49,-479.74 1080.55,-483.42 1090.62,-486.74 1090.49,-479.74"/>
</g>
<!-- Node16 -->
<g id="node16" class="node">
<title>Node16</title>
<g id="a_node16"><a xlink:href="_math_8h.html" target="_top" xlink:title="API for Mathematical operations.">
<polygon fill="white" stroke="black" points="1058.5,-402.5 1058.5,-432.5 1201.5,-432.5 1201.5,-402.5 1058.5,-402.5"/>
<text text-anchor="start" x="1066.5" y="-420.5" font-family="Helvetica,sans-Serif" font-size="10.00">/home/build/sdk/c/ifxBase</text>
<text text-anchor="middle" x="1130" y="-409.5" font-family="Helvetica,sans-Serif" font-size="10.00">/Math.h</text>
</a>
</g>
</g>
<!-- Node1&#45;&gt;Node16 -->
<g id="edge28" class="edge">
<title>Node1&#45;&gt;Node16</title>
<path fill="none" stroke="midnightblue" d="M1044.23,-464.57C1063.26,-454.35 1086.37,-441.94 1103.8,-432.58"/>
<polygon fill="midnightblue" stroke="midnightblue" points="1042.41,-461.58 1035.26,-469.4 1045.72,-467.75 1042.41,-461.58"/>
</g>
<!-- Node19 -->
<g id="node19" class="node">
<title>Node19</title>
<g id="a_node19"><a xlink:href="_angle_monopulse_8h.html" target="_top" xlink:title="API for Phase Monopulse algorithm.">
<polygon fill="white" stroke="black" points="1332.5,-201.5 1332.5,-231.5 1479.5,-231.5 1479.5,-201.5 1332.5,-201.5"/>
<text text-anchor="start" x="1340.5" y="-219.5" font-family="Helvetica,sans-Serif" font-size="10.00">/home/build/sdk/c/ifxRadar</text>
<text text-anchor="middle" x="1406" y="-208.5" font-family="Helvetica,sans-Serif" font-size="10.00">/AngleMonopulse.h</text>
</a>
</g>
</g>
<!-- Node1&#45;&gt;Node19 -->
<g id="edge73" class="edge">
<title>Node1&#45;&gt;Node19</title>
<path fill="none" stroke="midnightblue" d="M1090.89,-471.57C1128.82,-463.93 1173.66,-451.81 1211,-433 1294.76,-390.82 1318.87,-374.86 1374,-299 1389.28,-277.97 1398.43,-248.67 1402.81,-231.53"/>
<polygon fill="midnightblue" stroke="midnightblue" points="1090.04,-468.16 1080.9,-473.51 1091.38,-475.04 1090.04,-468.16"/>
</g>
<!-- Node28 -->
<g id="node28" class="node">
<title>Node28</title>
<g id="a_node28"><a xlink:href="_segmentation_8h.html" target="_top" xlink:title="API for Segmentation algorithm.">
<polygon fill="white" stroke="black" points="1662.5,-201.5 1662.5,-231.5 1827.5,-231.5 1827.5,-201.5 1662.5,-201.5"/>
<text text-anchor="start" x="1670.5" y="-219.5" font-family="Helvetica,sans-Serif" font-size="10.00">/home/build/sdk/c/ifxRadar</text>
<text text-anchor="middle" x="1745" y="-208.5" font-family="Helvetica,sans-Serif" font-size="10.00">Segmentation/Segmentation.h</text>
</a>
</g>
</g>
<!-- Node1&#45;&gt;Node28 -->
<g id="edge77" class="edge">
<title>Node1&#45;&gt;Node28</title>
<path fill="none" stroke="midnightblue" d="M1090.96,-477.25C1236.92,-464.57 1533.91,-431.33 1612,-366 1647.83,-336.02 1618.98,-302.93 1650,-268 1664.51,-251.66 1685.6,-239.7 1704.22,-231.54"/>
<polygon fill="midnightblue" stroke="midnightblue" points="1090.38,-473.78 1080.72,-478.12 1090.98,-480.76 1090.38,-473.78"/>
</g>
<!-- Node30 -->
<g id="node30" class="node">
<title>Node30</title>
<g id="a_node30"><a xlink:href="_matrix_8h.html" target="_top" xlink:title="API for operations on Matrix data structures.">
<polygon fill="white" stroke="black" points="937.5,-335.5 937.5,-365.5 1080.5,-365.5 1080.5,-335.5 937.5,-335.5"/>
<text text-anchor="start" x="945.5" y="-353.5" font-family="Helvetica,sans-Serif" font-size="10.00">/home/build/sdk/c/ifxBase</text>
<text text-anchor="middle" x="1009" y="-342.5" font-family="Helvetica,sans-Serif" font-size="10.00">/Matrix.h</text>
</a>
</g>
</g>
<!-- Node1&#45;&gt;Node30 -->
<g id="edge59" class="edge">
<title>Node1&#45;&gt;Node30</title>
<path fill="none" stroke="midnightblue" d="M1009,-459.02C1009,-431.51 1009,-387.79 1009,-365.52"/>
<polygon fill="midnightblue" stroke="midnightblue" points="1005.5,-459.37 1009,-469.37 1012.5,-459.37 1005.5,-459.37"/>
</g>
<!-- Node34 -->
<g id="node34" class="node">
<title>Node34</title>
<g id="a_node34"><a xlink:href="_peak_search_8h.html" target="_top" xlink:title="API for Peak Search preprocessing.">
<polygon fill="white" stroke="black" points="1995.5,-402.5 1995.5,-432.5 2142.5,-432.5 2142.5,-402.5 1995.5,-402.5"/>
<text text-anchor="start" x="2003.5" y="-420.5" font-family="Helvetica,sans-Serif" font-size="10.00">/home/build/sdk/c/ifxRadar</text>
<text text-anchor="middle" x="2069" y="-409.5" font-family="Helvetica,sans-Serif" font-size="10.00">/PeakSearch.h</text>
</a>
</g>
</g>
<!-- Node1&#45;&gt;Node34 -->
<g id="edge74" class="edge">
<title>Node1&#45;&gt;Node34</title>
<path fill="none" stroke="midnightblue" d="M1090.78,-482.32C1258.28,-479.24 1652.3,-468.51 1981,-433 1985.62,-432.5 1990.36,-431.92 1995.14,-431.28"/>
<polygon fill="midnightblue" stroke="midnightblue" points="1090.49,-478.83 1080.56,-482.51 1090.62,-485.83 1090.49,-478.83"/>
</g>
<!-- Node3 -->
<g id="node3" class="node">
<title>Node3</title>
<g id="a_node3"><a xlink:href="_algo_8h.html" target="_top" xlink:title="Header for ifxAlgo.">
<polygon fill="white" stroke="black" points="234,-201.5 234,-231.5 374,-231.5 374,-201.5 234,-201.5"/>
<text text-anchor="start" x="242" y="-219.5" font-family="Helvetica,sans-Serif" font-size="10.00">/home/build/sdk/c/ifxAlgo</text>
<text text-anchor="middle" x="304" y="-208.5" font-family="Helvetica,sans-Serif" font-size="10.00">/Algo.h</text>
</a>
</g>
</g>
<!-- Node2&#45;&gt;Node3 -->
<g id="edge2" class="edge">
<title>Node2&#45;&gt;Node3</title>
<path fill="none" stroke="midnightblue" d="M585.89,-341.68C460.37,-329.24 230.95,-305.68 225,-299 203.23,-274.59 242.91,-247.57 273.5,-231.59"/>
<polygon fill="midnightblue" stroke="midnightblue" points="585.55,-345.16 595.85,-342.67 586.24,-338.2 585.55,-345.16"/>
</g>
<!-- Node5 -->
<g id="node5" class="node">
<title>Node5</title>
<g id="a_node5"><a xlink:href="_preprocessed_f_f_t_8h.html" target="_top" xlink:title="API for Pre&#45;processed FFT.">
<polygon fill="white" stroke="black" points="468,-268.5 468,-298.5 608,-298.5 608,-268.5 468,-268.5"/>
<text text-anchor="start" x="476" y="-286.5" font-family="Helvetica,sans-Serif" font-size="10.00">/home/build/sdk/c/ifxAlgo</text>
<text text-anchor="middle" x="538" y="-275.5" font-family="Helvetica,sans-Serif" font-size="10.00">/PreprocessedFFT.h</text>
</a>
</g>
</g>
<!-- Node2&#45;&gt;Node5 -->
<g id="edge4" class="edge">
<title>Node2&#45;&gt;Node5</title>
<path fill="none" stroke="midnightblue" d="M629.28,-330.85C609.04,-320.58 584.33,-308.03 565.72,-298.58"/>
<polygon fill="midnightblue" stroke="midnightblue" points="627.72,-333.99 638.23,-335.4 630.89,-327.75 627.72,-333.99"/>
</g>
<!-- Node11 -->
<g id="node11" class="node">
<title>Node11</title>
<g id="a_node11"><a xlink:href="_spectrum_axis_8h.html" target="_top" xlink:title="API for Spectrum Axis used by Range spectrum, Range Doppler and Range Angle Map modules.">
<polygon fill="white" stroke="black" points="1056.5,-268.5 1056.5,-298.5 1203.5,-298.5 1203.5,-268.5 1056.5,-268.5"/>
<text text-anchor="start" x="1064.5" y="-286.5" font-family="Helvetica,sans-Serif" font-size="10.00">/home/build/sdk/c/ifxRadar</text>
<text text-anchor="middle" x="1130" y="-275.5" font-family="Helvetica,sans-Serif" font-size="10.00">/SpectrumAxis.h</text>
</a>
</g>
</g>
<!-- Node2&#45;&gt;Node11 -->
<g id="edge15" class="edge">
<title>Node2&#45;&gt;Node11</title>
<path fill="none" stroke="midnightblue" d="M746.34,-338.25C833.65,-326.02 971.94,-306.64 1056.48,-294.8"/>
<polygon fill="midnightblue" stroke="midnightblue" points="745.64,-334.81 736.22,-339.66 746.61,-341.74 745.64,-334.81"/>
</g>
<!-- Node4 -->
<g id="node4" class="node">
<title>Node4</title>
<g id="a_node4"><a xlink:href="_s_d_k_8h.html" target="_top" xlink:title="Master header file for Radar SDK.">
<polygon fill="white" stroke="black" points="1642.5,-0.5 1642.5,-30.5 1789.5,-30.5 1789.5,-0.5 1642.5,-0.5"/>
<text text-anchor="start" x="1650.5" y="-18.5" font-family="Helvetica,sans-Serif" font-size="10.00">/home/build/sdk/c/ifxRadar</text>
<text text-anchor="middle" x="1716" y="-7.5" font-family="Helvetica,sans-Serif" font-size="10.00">/SDK.h</text>
</a>
</g>
</g>
<!-- Node3&#45;&gt;Node4 -->
<g id="edge3" class="edge">
<title>Node3&#45;&gt;Node4</title>
<path fill="none" stroke="midnightblue" d="M365.78,-198.92C433.64,-181.12 546,-152.87 644,-134 1015.14,-62.52 1467.56,-30.71 1642.28,-20.45"/>
<polygon fill="midnightblue" stroke="midnightblue" points="364.88,-195.53 356.1,-201.46 366.66,-202.3 364.88,-195.53"/>
</g>
<!-- Node5&#45;&gt;Node3 -->
<g id="edge5" class="edge">
<title>Node5&#45;&gt;Node3</title>
<path fill="none" stroke="midnightblue" d="M477.57,-265.71C439.49,-255.14 390.89,-241.63 354.8,-231.61"/>
<polygon fill="midnightblue" stroke="midnightblue" points="476.94,-269.17 487.51,-268.48 478.82,-262.43 476.94,-269.17"/>
</g>
<!-- Node6 -->
<g id="node6" class="node">
<title>Node6</title>
<g id="a_node6"><a xlink:href="_range_doppler_map_8h.html" target="_top" xlink:title="API for Range Doppler Map.">
<polygon fill="white" stroke="black" points="887.5,-201.5 887.5,-231.5 1034.5,-231.5 1034.5,-201.5 887.5,-201.5"/>
<text text-anchor="start" x="895.5" y="-219.5" font-family="Helvetica,sans-Serif" font-size="10.00">/home/build/sdk/c/ifxRadar</text>
<text text-anchor="middle" x="961" y="-208.5" font-family="Helvetica,sans-Serif" font-size="10.00">/RangeDopplerMap.h</text>
</a>
</g>
</g>
<!-- Node5&#45;&gt;Node6 -->
<g id="edge6" class="edge">
<title>Node5&#45;&gt;Node6</title>
<path fill="none" stroke="midnightblue" d="M618.35,-267.81C717.16,-251.62 819.98,-236.89 887.4,-227.53"/>
<polygon fill="midnightblue" stroke="midnightblue" points="617.49,-264.4 608.19,-269.48 618.62,-271.31 617.49,-264.4"/>
</g>
<!-- Node5&#45;&gt;Node9 -->
<g id="edge11" class="edge">
<title>Node5&#45;&gt;Node9</title>
<path fill="none" stroke="midnightblue" d="M514.85,-261.6C503.98,-251.78 491.3,-240.34 481.59,-231.58"/>
<polygon fill="midnightblue" stroke="midnightblue" points="512.61,-264.29 522.38,-268.4 517.3,-259.1 512.61,-264.29"/>
</g>
<!-- Node7 -->
<g id="node7" class="node">
<title>Node7</title>
<g id="a_node7"><a xlink:href="_radar_8h.html" target="_top" xlink:title="Header for ifxRadar.">
<polygon fill="white" stroke="black" points="1110.5,-67.5 1110.5,-97.5 1257.5,-97.5 1257.5,-67.5 1110.5,-67.5"/>
<text text-anchor="start" x="1118.5" y="-85.5" font-family="Helvetica,sans-Serif" font-size="10.00">/home/build/sdk/c/ifxRadar</text>
<text text-anchor="middle" x="1184" y="-74.5" font-family="Helvetica,sans-Serif" font-size="10.00">/Radar.h</text>
</a>
</g>
</g>
<!-- Node6&#45;&gt;Node7 -->
<g id="edge7" class="edge">
<title>Node6&#45;&gt;Node7</title>
<path fill="none" stroke="midnightblue" d="M961.94,-191.1C963.96,-172.94 969.62,-148.81 985,-134 1003.07,-116.6 1061.42,-103.07 1110.3,-94.41"/>
<polygon fill="midnightblue" stroke="midnightblue" points="958.44,-191 961.12,-201.25 965.42,-191.57 958.44,-191"/>
</g>
<!-- Node8 -->
<g id="node8" class="node">
<title>Node8</title>
<g id="a_node8"><a xlink:href="_range_angle_image_8h.html" target="_top" xlink:title="API for Range Angle Image algorithm.">
<polygon fill="white" stroke="black" points="1192.5,-134.5 1192.5,-164.5 1339.5,-164.5 1339.5,-134.5 1192.5,-134.5"/>
<text text-anchor="start" x="1200.5" y="-152.5" font-family="Helvetica,sans-Serif" font-size="10.00">/home/build/sdk/c/ifxRadar</text>
<text text-anchor="middle" x="1266" y="-141.5" font-family="Helvetica,sans-Serif" font-size="10.00">/RangeAngleImage.h</text>
</a>
</g>
</g>
<!-- Node6&#45;&gt;Node8 -->
<g id="edge9" class="edge">
<title>Node6&#45;&gt;Node8</title>
<path fill="none" stroke="midnightblue" d="M1036.63,-199.38C1086.8,-188.69 1151.99,-174.8 1200.05,-164.55"/>
<polygon fill="midnightblue" stroke="midnightblue" points="1035.86,-195.97 1026.8,-201.48 1037.31,-202.81 1035.86,-195.97"/>
</g>
<!-- Node7&#45;&gt;Node4 -->
<g id="edge8" class="edge">
<title>Node7&#45;&gt;Node4</title>
<path fill="none" stroke="midnightblue" d="M1267.74,-71.27C1370.73,-58.69 1543.91,-37.53 1642.14,-25.52"/>
<polygon fill="midnightblue" stroke="midnightblue" points="1267.19,-67.81 1257.69,-72.5 1268.04,-74.76 1267.19,-67.81"/>
</g>
<!-- Node8&#45;&gt;Node7 -->
<g id="edge10" class="edge">
<title>Node8&#45;&gt;Node7</title>
<path fill="none" stroke="midnightblue" d="M1240.35,-128.17C1227.81,-118.23 1213.03,-106.51 1201.76,-97.58"/>
<polygon fill="midnightblue" stroke="midnightblue" points="1238.2,-130.93 1248.21,-134.4 1242.54,-125.44 1238.2,-130.93"/>
</g>
<!-- Node9&#45;&gt;Node7 -->
<g id="edge14" class="edge">
<title>Node9&#45;&gt;Node7</title>
<path fill="none" stroke="midnightblue" d="M521.6,-198.54C583.43,-180.24 686.52,-151.39 777,-134 892.55,-111.79 1028.51,-97.21 1110.38,-89.67"/>
<polygon fill="midnightblue" stroke="midnightblue" points="520.26,-195.28 511.67,-201.49 522.25,-201.99 520.26,-195.28"/>
</g>
<!-- Node10 -->
<g id="node10" class="node">
<title>Node10</title>
<g id="a_node10"><a xlink:href="_presence_sensing_8h.html" target="_top" xlink:title="API for Presence Sensing algorithm.">
<polygon fill="white" stroke="black" points="785.5,-134.5 785.5,-164.5 932.5,-164.5 932.5,-134.5 785.5,-134.5"/>
<text text-anchor="start" x="793.5" y="-152.5" font-family="Helvetica,sans-Serif" font-size="10.00">/home/build/sdk/c/ifxRadar</text>
<text text-anchor="middle" x="859" y="-141.5" font-family="Helvetica,sans-Serif" font-size="10.00">/PresenceSensing.h</text>
</a>
</g>
</g>
<!-- Node9&#45;&gt;Node10 -->
<g id="edge12" class="edge">
<title>Node9&#45;&gt;Node10</title>
<path fill="none" stroke="midnightblue" d="M550.02,-201.6C619.96,-190.04 718.55,-173.73 785.41,-162.67"/>
<polygon fill="midnightblue" stroke="midnightblue" points="549.22,-198.19 539.92,-203.27 550.36,-205.1 549.22,-198.19"/>
</g>
<!-- Node10&#45;&gt;Node7 -->
<g id="edge13" class="edge">
<title>Node10&#45;&gt;Node7</title>
<path fill="none" stroke="midnightblue" d="M939.25,-132.45C992.76,-121.75 1062.41,-107.82 1113.73,-97.55"/>
<polygon fill="midnightblue" stroke="midnightblue" points="938.24,-129.08 929.12,-134.48 939.61,-135.95 938.24,-129.08"/>
</g>
<!-- Node11&#45;&gt;Node7 -->
<g id="edge16" class="edge">
<title>Node11&#45;&gt;Node7</title>
<path fill="none" stroke="midnightblue" d="M1106.59,-261.66C1076.8,-234.52 1028.09,-187.86 1019,-165 1013.91,-152.2 1010.81,-145.08 1019,-134 1040.02,-105.58 1076.72,-92.63 1110.18,-86.93"/>
<polygon fill="midnightblue" stroke="midnightblue" points="1104.32,-264.33 1114.08,-268.44 1109.01,-259.13 1104.32,-264.33"/>
</g>
<!-- Node12&#45;&gt;Node3 -->
<g id="edge18" class="edge">
<title>Node12&#45;&gt;Node3</title>
<path fill="none" stroke="midnightblue" d="M82.31,-393.14C100.3,-360.98 136.64,-303.1 182,-268 203.12,-251.66 230.28,-239.73 253.62,-231.59"/>
<polygon fill="midnightblue" stroke="midnightblue" points="79.06,-391.78 77.32,-402.23 85.2,-395.15 79.06,-391.78"/>
</g>
<!-- Node13&#45;&gt;Node3 -->
<g id="edge20" class="edge">
<title>Node13&#45;&gt;Node3</title>
<path fill="none" stroke="midnightblue" d="M304,-258.11C304,-249.15 304,-239.32 304,-231.58"/>
<polygon fill="midnightblue" stroke="midnightblue" points="300.5,-258.4 304,-268.4 307.5,-258.4 300.5,-258.4"/>
</g>
<!-- Node14&#45;&gt;Node3 -->
<g id="edge22" class="edge">
<title>Node14&#45;&gt;Node3</title>
<path fill="none" stroke="midnightblue" d="M359.86,-343.97C295.68,-337.67 213.01,-324.72 192,-299 168.11,-269.76 215.65,-245.73 255.99,-231.52"/>
<polygon fill="midnightblue" stroke="midnightblue" points="359.71,-347.47 369.99,-344.92 360.36,-340.5 359.71,-347.47"/>
</g>
<!-- Node14&#45;&gt;Node5 -->
<g id="edge23" class="edge">
<title>Node14&#45;&gt;Node5</title>
<path fill="none" stroke="midnightblue" d="M469.8,-329.73C484.97,-319.68 503.04,-307.68 516.78,-298.58"/>
<polygon fill="midnightblue" stroke="midnightblue" points="467.66,-326.95 461.26,-335.4 471.53,-332.79 467.66,-326.95"/>
</g>
<!-- Node14&#45;&gt;Node9 -->
<g id="edge25" class="edge">
<title>Node14&#45;&gt;Node9</title>
<path fill="none" stroke="midnightblue" d="M429.8,-325.84C424.14,-309.29 419.43,-286.86 426,-268 430.85,-254.06 441.34,-241.07 450.35,-231.75"/>
<polygon fill="midnightblue" stroke="midnightblue" points="426.57,-327.18 433.36,-335.3 433.12,-324.71 426.57,-327.18"/>
</g>
<!-- Node14&#45;&gt;Node10 -->
<g id="edge24" class="edge">
<title>Node14&#45;&gt;Node10</title>
<path fill="none" stroke="midnightblue" d="M439.46,-325.37C440.37,-307.35 444.55,-283.29 459,-268 471.19,-255.09 699.76,-192.92 805.79,-164.61"/>
<polygon fill="midnightblue" stroke="midnightblue" points="435.96,-325.36 439.26,-335.43 442.96,-325.5 435.96,-325.36"/>
</g>
<!-- Node15&#45;&gt;Node4 -->
<g id="edge27" class="edge">
<title>Node15&#45;&gt;Node4</title>
<path fill="none" stroke="midnightblue" d="M1952.2,-195.97C1964.74,-187.69 1978.18,-177.13 1988,-165 2016.58,-129.7 2046.34,-101.67 2017,-67 1988.46,-33.28 1869.39,-22.06 1789.84,-18.34"/>
<polygon fill="midnightblue" stroke="midnightblue" points="1950.29,-193.03 1943.71,-201.33 1954.03,-198.95 1950.29,-193.03"/>
</g>
<!-- Node16&#45;&gt;Node5 -->
<g id="edge29" class="edge">
<title>Node16&#45;&gt;Node5</title>
<path fill="none" stroke="midnightblue" d="M1057.25,-400.28C940.12,-374.16 711.67,-323.22 601.04,-298.56"/>
<polygon fill="midnightblue" stroke="midnightblue" points="1056.68,-403.74 1067.21,-402.5 1058.21,-396.91 1056.68,-403.74"/>
</g>
<!-- Node16&#45;&gt;Node11 -->
<g id="edge58" class="edge">
<title>Node16&#45;&gt;Node11</title>
<path fill="none" stroke="midnightblue" d="M1130,-392.02C1130,-364.51 1130,-320.79 1130,-298.52"/>
<polygon fill="midnightblue" stroke="midnightblue" points="1126.5,-392.37 1130,-402.37 1133.5,-392.37 1126.5,-392.37"/>
</g>
<!-- Node16&#45;&gt;Node15 -->
<g id="edge30" class="edge">
<title>Node16&#45;&gt;Node15</title>
<path fill="none" stroke="midnightblue" d="M1211.74,-415.38C1388.37,-411.21 1797.51,-391.54 1894,-299 1912.46,-281.29 1916.45,-250.01 1917.12,-231.78"/>
<polygon fill="midnightblue" stroke="midnightblue" points="1211.64,-411.88 1201.72,-415.61 1211.8,-418.88 1211.64,-411.88"/>
</g>
<!-- Node17 -->
<g id="node17" class="node">
<title>Node17</title>
<g id="a_node17"><a xlink:href="_defines_8h.html" target="_top" xlink:title="Internal definitions used by standard math.h functions as Macros, to use float or double precision.">
<polygon fill="white" stroke="black" points="1459.5,-335.5 1459.5,-365.5 1602.5,-365.5 1602.5,-335.5 1459.5,-335.5"/>
<text text-anchor="start" x="1467.5" y="-353.5" font-family="Helvetica,sans-Serif" font-size="10.00">/home/build/sdk/c/ifxBase</text>
<text text-anchor="middle" x="1531" y="-342.5" font-family="Helvetica,sans-Serif" font-size="10.00">/Defines.h</text>
</a>
</g>
</g>
<!-- Node16&#45;&gt;Node17 -->
<g id="edge31" class="edge">
<title>Node16&#45;&gt;Node17</title>
<path fill="none" stroke="midnightblue" d="M1211.73,-403.25C1284.44,-391.47 1389.74,-374.4 1459.26,-363.13"/>
<polygon fill="midnightblue" stroke="midnightblue" points="1211,-399.82 1201.69,-404.88 1212.12,-406.73 1211,-399.82"/>
</g>
<!-- Node17&#45;&gt;Node15 -->
<g id="edge32" class="edge">
<title>Node17&#45;&gt;Node15</title>
<path fill="none" stroke="midnightblue" d="M1612.85,-345.07C1698.62,-339.07 1826.43,-325.86 1867,-299 1891.36,-282.87 1905.86,-250.4 1912.54,-231.68"/>
<polygon fill="midnightblue" stroke="midnightblue" points="1612.61,-341.58 1602.87,-345.75 1613.09,-348.57 1612.61,-341.58"/>
</g>
<!-- Node18 -->
<g id="node18" class="node">
<title>Node18</title>
<g id="a_node18"><a xlink:href="_complex_8h.html" target="_top" xlink:title="API for operations on complex numbers.">
<polygon fill="white" stroke="black" points="1459.5,-268.5 1459.5,-298.5 1602.5,-298.5 1602.5,-268.5 1459.5,-268.5"/>
<text text-anchor="start" x="1467.5" y="-286.5" font-family="Helvetica,sans-Serif" font-size="10.00">/home/build/sdk/c/ifxBase</text>
<text text-anchor="middle" x="1531" y="-275.5" font-family="Helvetica,sans-Serif" font-size="10.00">/Complex.h</text>
</a>
</g>
</g>
<!-- Node17&#45;&gt;Node18 -->
<g id="edge33" class="edge">
<title>Node17&#45;&gt;Node18</title>
<path fill="none" stroke="midnightblue" d="M1531,-325.11C1531,-316.15 1531,-306.32 1531,-298.58"/>
<polygon fill="midnightblue" stroke="midnightblue" points="1527.5,-325.4 1531,-335.4 1534.5,-325.4 1527.5,-325.4"/>
</g>
<!-- Node20 -->
<g id="node20" class="node">
<title>Node20</title>
<g id="a_node20"><a xlink:href="_cube_8h.html" target="_top" xlink:title="API for operations on Cube data structures.">
<polygon fill="white" stroke="black" points="1221.5,-268.5 1221.5,-298.5 1364.5,-298.5 1364.5,-268.5 1221.5,-268.5"/>
<text text-anchor="start" x="1229.5" y="-286.5" font-family="Helvetica,sans-Serif" font-size="10.00">/home/build/sdk/c/ifxBase</text>
<text text-anchor="middle" x="1293" y="-275.5" font-family="Helvetica,sans-Serif" font-size="10.00">/Cube.h</text>
</a>
</g>
</g>
<!-- Node17&#45;&gt;Node20 -->
<g id="edge37" class="edge">
<title>Node17&#45;&gt;Node20</title>
<path fill="none" stroke="midnightblue" d="M1469.54,-332.71C1430.81,-322.14 1381.37,-308.63 1344.67,-298.61"/>
<polygon fill="midnightblue" stroke="midnightblue" points="1469.08,-336.22 1479.65,-335.48 1470.93,-329.46 1469.08,-336.22"/>
</g>
<!-- Node18&#45;&gt;Node15 -->
<g id="edge34" class="edge">
<title>Node18&#45;&gt;Node15</title>
<path fill="none" stroke="midnightblue" d="M1612.83,-269.35C1674.5,-259.36 1761.11,-245.14 1837,-232 1839.78,-231.52 1842.62,-231.02 1845.48,-230.52"/>
<polygon fill="midnightblue" stroke="midnightblue" points="1612.09,-265.93 1602.77,-270.98 1613.21,-272.84 1612.09,-265.93"/>
</g>
<!-- Node18&#45;&gt;Node19 -->
<g id="edge35" class="edge">
<title>Node18&#45;&gt;Node19</title>
<path fill="none" stroke="midnightblue" d="M1494.87,-263.71C1475.16,-253.46 1451.16,-240.98 1433.07,-231.58"/>
<polygon fill="midnightblue" stroke="midnightblue" points="1493.39,-266.89 1503.88,-268.4 1496.62,-260.68 1493.39,-266.89"/>
</g>
<!-- Node19&#45;&gt;Node7 -->
<g id="edge36" class="edge">
<title>Node19&#45;&gt;Node7</title>
<path fill="none" stroke="midnightblue" d="M1399.81,-191.79C1393.83,-173.46 1382.98,-148.79 1365,-134 1334.89,-109.23 1293.45,-96.58 1257.82,-90.14"/>
<polygon fill="midnightblue" stroke="midnightblue" points="1396.49,-192.9 1402.71,-201.47 1403.19,-190.89 1396.49,-192.9"/>
</g>
<!-- Node20&#45;&gt;Node8 -->
<g id="edge54" class="edge">
<title>Node20&#45;&gt;Node8</title>
<path fill="none" stroke="midnightblue" d="M1227.92,-265.58C1198.14,-256.4 1167.58,-244.41 1159,-232 1151.16,-220.67 1151.62,-212.64 1159,-201 1170,-183.65 1188.73,-172.15 1207.48,-164.57"/>
<polygon fill="midnightblue" stroke="midnightblue" points="1226.94,-268.95 1237.53,-268.46 1228.95,-262.24 1226.94,-268.95"/>
</g>
<!-- Node20&#45;&gt;Node15 -->
<g id="edge48" class="edge">
<title>Node20&#45;&gt;Node15</title>
<path fill="none" stroke="midnightblue" d="M1374.55,-275.02C1523.56,-261.34 1825.69,-233.55 1837,-232 1839.66,-231.64 1842.36,-231.25 1845.09,-230.84"/>
<polygon fill="midnightblue" stroke="midnightblue" points="1374.16,-271.54 1364.52,-275.94 1374.8,-278.51 1374.16,-271.54"/>
</g>
<!-- Node21 -->
<g id="node21" class="node">
<title>Node21</title>
<g id="a_node21"><a xlink:href="_device_control_8h.html" target="_top" xlink:title="API for Radar device control operations.">
<polygon fill="white" stroke="black" points="1498,-201.5 1498,-231.5 1644,-231.5 1644,-201.5 1498,-201.5"/>
<text text-anchor="start" x="1506" y="-219.5" font-family="Helvetica,sans-Serif" font-size="10.00">/home/build/sdk/c/ifxAvian</text>
<text text-anchor="middle" x="1571" y="-208.5" font-family="Helvetica,sans-Serif" font-size="10.00">/DeviceControl.h</text>
</a>
</g>
</g>
<!-- Node20&#45;&gt;Node21 -->
<g id="edge38" class="edge">
<title>Node20&#45;&gt;Node21</title>
<path fill="none" stroke="midnightblue" d="M1362.78,-266.19C1408.3,-255.54 1467.14,-241.78 1510.65,-231.61"/>
<polygon fill="midnightblue" stroke="midnightblue" points="1361.92,-262.79 1352.98,-268.48 1363.51,-269.61 1361.92,-262.79"/>
</g>
<!-- Node26 -->
<g id="node26" class="node">
<title>Node26</title>
<g id="a_node26"><a xlink:href="_angle_capon_8h.html" target="_top" xlink:title="API for Angle Capon algorithm.">
<polygon fill="white" stroke="black" points="1027.5,-134.5 1027.5,-164.5 1174.5,-164.5 1174.5,-134.5 1027.5,-134.5"/>
<text text-anchor="start" x="1035.5" y="-152.5" font-family="Helvetica,sans-Serif" font-size="10.00">/home/build/sdk/c/ifxRadar</text>
<text text-anchor="middle" x="1101" y="-141.5" font-family="Helvetica,sans-Serif" font-size="10.00">/AngleCapon.h</text>
</a>
</g>
</g>
<!-- Node20&#45;&gt;Node26 -->
<g id="edge49" class="edge">
<title>Node20&#45;&gt;Node26</title>
<path fill="none" stroke="midnightblue" d="M1212.58,-265.25C1190.32,-257.7 1167.27,-247.02 1149,-232 1126.93,-213.86 1112.68,-182.73 1105.82,-164.64"/>
<polygon fill="midnightblue" stroke="midnightblue" points="1211.81,-268.68 1222.4,-268.4 1213.94,-262.01 1211.81,-268.68"/>
</g>
<!-- Node27 -->
<g id="node27" class="node">
<title>Node27</title>
<g id="a_node27"><a xlink:href="_d_b_f_8h.html" target="_top" xlink:title="API for Digital Beamforming (DBF) algorithm.">
<polygon fill="white" stroke="black" points="1167.5,-201.5 1167.5,-231.5 1314.5,-231.5 1314.5,-201.5 1167.5,-201.5"/>
<text text-anchor="start" x="1175.5" y="-219.5" font-family="Helvetica,sans-Serif" font-size="10.00">/home/build/sdk/c/ifxRadar</text>
<text text-anchor="middle" x="1241" y="-208.5" font-family="Helvetica,sans-Serif" font-size="10.00">/DBF.h</text>
</a>
</g>
</g>
<!-- Node20&#45;&gt;Node27 -->
<g id="edge51" class="edge">
<title>Node20&#45;&gt;Node27</title>
<path fill="none" stroke="midnightblue" d="M1275.36,-260.45C1267.72,-250.9 1259,-240 1252.26,-231.58"/>
<polygon fill="midnightblue" stroke="midnightblue" points="1272.74,-262.77 1281.72,-268.4 1278.2,-258.4 1272.74,-262.77"/>
</g>
<!-- Node20&#45;&gt;Node28 -->
<g id="edge55" class="edge">
<title>Node20&#45;&gt;Node28</title>
<path fill="none" stroke="midnightblue" d="M1375.05,-268.6C1376.38,-268.4 1377.69,-268.2 1379,-268 1500.47,-249.79 1531.44,-249.56 1653,-232 1656.04,-231.56 1659.14,-231.11 1662.26,-230.64"/>
<polygon fill="midnightblue" stroke="midnightblue" points="1374.11,-265.2 1364.76,-270.2 1375.18,-272.12 1374.11,-265.2"/>
</g>
<!-- Node21&#45;&gt;Node10 -->
<g id="edge47" class="edge">
<title>Node21&#45;&gt;Node10</title>
<path fill="none" stroke="midnightblue" d="M1487.7,-200.92C1279.45,-174.96 1224.51,-182.18 1019,-165 990.79,-162.64 959.8,-159.87 932.66,-157.39"/>
<polygon fill="midnightblue" stroke="midnightblue" points="1487.38,-204.4 1497.74,-202.18 1488.25,-197.46 1487.38,-204.4"/>
</g>
<!-- Node22 -->
<g id="node22" class="node">
<title>Node22</title>
<g id="a_node22"><a xlink:href="_avian_8h.html" target="_top" xlink:title=" ">
<polygon fill="white" stroke="black" points="1643,-67.5 1643,-97.5 1789,-97.5 1789,-67.5 1643,-67.5"/>
<text text-anchor="start" x="1651" y="-85.5" font-family="Helvetica,sans-Serif" font-size="10.00">/home/build/sdk/c/ifxAvian</text>
<text text-anchor="middle" x="1716" y="-74.5" font-family="Helvetica,sans-Serif" font-size="10.00">/Avian.h</text>
</a>
</g>
</g>
<!-- Node21&#45;&gt;Node22 -->
<g id="edge39" class="edge">
<title>Node21&#45;&gt;Node22</title>
<path fill="none" stroke="midnightblue" d="M1654.24,-201.26C1735.96,-193.06 1912.12,-213.32 1955,-165 1964.15,-154.7 1963.68,-144.7 1955,-134 1949.65,-127.4 1857.35,-109.28 1789.05,-96.64"/>
<polygon fill="midnightblue" stroke="midnightblue" points="1653.79,-197.79 1644.29,-202.48 1654.64,-204.74 1653.79,-197.79"/>
</g>
<!-- Node23 -->
<g id="node23" class="node">
<title>Node23</title>
<g id="a_node23"><a xlink:href="_constant_wave_control_8h.html" target="_top" xlink:title="Header for Constant Wave Control. It provides APIs to use an Avian device in constant wave mode....">
<polygon fill="white" stroke="black" points="1472,-134.5 1472,-164.5 1618,-164.5 1618,-134.5 1472,-134.5"/>
<text text-anchor="start" x="1480" y="-152.5" font-family="Helvetica,sans-Serif" font-size="10.00">/home/build/sdk/c/ifxAvian</text>
<text text-anchor="middle" x="1545" y="-141.5" font-family="Helvetica,sans-Serif" font-size="10.00">/ConstantWaveControl.h</text>
</a>
</g>
</g>
<!-- Node21&#45;&gt;Node23 -->
<g id="edge41" class="edge">
<title>Node21&#45;&gt;Node23</title>
<path fill="none" stroke="midnightblue" d="M1561.6,-191.99C1557.92,-182.8 1553.83,-172.58 1550.63,-164.58"/>
<polygon fill="midnightblue" stroke="midnightblue" points="1558.39,-193.41 1565.36,-201.4 1564.89,-190.81 1558.39,-193.41"/>
</g>
<!-- Node24 -->
<g id="node24" class="node">
<title>Node24</title>
<g id="a_node24"><a xlink:href="_metrics_8h.html" target="_top" xlink:title="API for Metrics.">
<polygon fill="white" stroke="black" points="1636,-134.5 1636,-164.5 1782,-164.5 1782,-134.5 1636,-134.5"/>
<text text-anchor="start" x="1644" y="-152.5" font-family="Helvetica,sans-Serif" font-size="10.00">/home/build/sdk/c/ifxAvian</text>
<text text-anchor="middle" x="1709" y="-141.5" font-family="Helvetica,sans-Serif" font-size="10.00">/Metrics.h</text>
</a>
</g>
</g>
<!-- Node21&#45;&gt;Node24 -->
<g id="edge43" class="edge">
<title>Node21&#45;&gt;Node24</title>
<path fill="none" stroke="midnightblue" d="M1610,-197.13C1631.93,-186.8 1658.87,-174.11 1679.11,-164.58"/>
<polygon fill="midnightblue" stroke="midnightblue" points="1608.5,-193.97 1600.94,-201.4 1611.48,-200.3 1608.5,-193.97"/>
</g>
<!-- Node25 -->
<g id="node25" class="node">
<title>Node25</title>
<g id="a_node25"><a xlink:href="_shapes_8h.html" target="_top" xlink:title=" ">
<polygon fill="white" stroke="black" points="1800,-134.5 1800,-164.5 1946,-164.5 1946,-134.5 1800,-134.5"/>
<text text-anchor="start" x="1808" y="-152.5" font-family="Helvetica,sans-Serif" font-size="10.00">/home/build/sdk/c/ifxAvian</text>
<text text-anchor="middle" x="1873" y="-141.5" font-family="Helvetica,sans-Serif" font-size="10.00">/Shapes.h</text>
</a>
</g>
</g>
<!-- Node21&#45;&gt;Node25 -->
<g id="edge45" class="edge">
<title>Node21&#45;&gt;Node25</title>
<path fill="none" stroke="midnightblue" d="M1646.2,-199.32C1695.83,-188.63 1760.22,-174.77 1807.7,-164.55"/>
<polygon fill="midnightblue" stroke="midnightblue" points="1645.2,-195.95 1636.16,-201.48 1646.67,-202.79 1645.2,-195.95"/>
</g>
<!-- Node22&#45;&gt;Node4 -->
<g id="edge40" class="edge">
<title>Node22&#45;&gt;Node4</title>
<path fill="none" stroke="midnightblue" d="M1716,-57.11C1716,-48.15 1716,-38.32 1716,-30.58"/>
<polygon fill="midnightblue" stroke="midnightblue" points="1712.5,-57.4 1716,-67.4 1719.5,-57.4 1712.5,-57.4"/>
</g>
<!-- Node23&#45;&gt;Node22 -->
<g id="edge42" class="edge">
<title>Node23&#45;&gt;Node22</title>
<path fill="none" stroke="midnightblue" d="M1591.52,-130.82C1619,-120.37 1653.33,-107.32 1678.97,-97.58"/>
<polygon fill="midnightblue" stroke="midnightblue" points="1590.21,-127.57 1582.1,-134.4 1592.7,-134.11 1590.21,-127.57"/>
</g>
<!-- Node24&#45;&gt;Node22 -->
<g id="edge44" class="edge">
<title>Node24&#45;&gt;Node22</title>
<path fill="none" stroke="midnightblue" d="M1711.6,-124.4C1712.57,-115.37 1713.64,-105.41 1714.48,-97.58"/>
<polygon fill="midnightblue" stroke="midnightblue" points="1708.11,-124.08 1710.52,-134.4 1715.07,-124.83 1708.11,-124.08"/>
</g>
<!-- Node25&#45;&gt;Node22 -->
<g id="edge46" class="edge">
<title>Node25&#45;&gt;Node22</title>
<path fill="none" stroke="midnightblue" d="M1829.63,-130.54C1804.51,-120.14 1773.34,-107.24 1750,-97.58"/>
<polygon fill="midnightblue" stroke="midnightblue" points="1828.36,-133.8 1838.93,-134.4 1831.03,-127.34 1828.36,-133.8"/>
</g>
<!-- Node26&#45;&gt;Node7 -->
<g id="edge50" class="edge">
<title>Node26&#45;&gt;Node7</title>
<path fill="none" stroke="midnightblue" d="M1126.96,-128.17C1139.65,-118.23 1154.61,-106.51 1166.03,-97.58"/>
<polygon fill="midnightblue" stroke="midnightblue" points="1124.72,-125.47 1119.01,-134.4 1129.04,-130.99 1124.72,-125.47"/>
</g>
<!-- Node27&#45;&gt;Node7 -->
<g id="edge52" class="edge">
<title>Node27&#45;&gt;Node7</title>
<path fill="none" stroke="midnightblue" d="M1309.57,-197.39C1325.12,-189.94 1339.76,-179.52 1349,-165 1356.4,-153.38 1357.19,-145.08 1349,-134 1327.98,-105.58 1291.28,-92.63 1257.82,-86.93"/>
<polygon fill="midnightblue" stroke="midnightblue" points="1308.09,-194.21 1300.34,-201.44 1310.9,-200.62 1308.09,-194.21"/>
</g>
<!-- Node27&#45;&gt;Node8 -->
<g id="edge53" class="edge">
<title>Node27&#45;&gt;Node8</title>
<path fill="none" stroke="midnightblue" d="M1250.04,-191.99C1253.58,-182.8 1257.51,-172.58 1260.59,-164.58"/>
<polygon fill="midnightblue" stroke="midnightblue" points="1246.75,-190.81 1246.42,-201.4 1253.28,-193.32 1246.75,-190.81"/>
</g>
<!-- Node29 -->
<g id="node29" class="node">
<title>Node29</title>
<g id="a_node29"><a xlink:href="_radar_segmentation_8h.html" target="_top" xlink:title="Header for ifxRadarSegmentation.">
<polygon fill="white" stroke="black" points="1814,-67.5 1814,-97.5 2008,-97.5 2008,-67.5 1814,-67.5"/>
<text text-anchor="start" x="1822" y="-85.5" font-family="Helvetica,sans-Serif" font-size="10.00">/home/build/sdk/c/ifxRadar</text>
<text text-anchor="middle" x="1911" y="-74.5" font-family="Helvetica,sans-Serif" font-size="10.00">Segmentation/RadarSegmentation.h</text>
</a>
</g>
</g>
<!-- Node28&#45;&gt;Node29 -->
<g id="edge56" class="edge">
<title>Node28&#45;&gt;Node29</title>
<path fill="none" stroke="midnightblue" d="M1837.86,-200.45C1896.64,-189.98 1963.2,-175.98 1972,-165 1990.58,-141.84 1958.5,-113.98 1934.25,-97.56"/>
<polygon fill="midnightblue" stroke="midnightblue" points="1836.99,-197.05 1827.74,-202.23 1838.2,-203.95 1836.99,-197.05"/>
</g>
<!-- Node29&#45;&gt;Node4 -->
<g id="edge57" class="edge">
<title>Node29&#45;&gt;Node4</title>
<path fill="none" stroke="midnightblue" d="M1859.18,-64.23C1827.64,-53.71 1787.85,-40.45 1758.23,-30.58"/>
<polygon fill="midnightblue" stroke="midnightblue" points="1858.09,-67.55 1868.69,-67.4 1860.31,-60.91 1858.09,-67.55"/>
</g>
<!-- Node30&#45;&gt;Node6 -->
<g id="edge70" class="edge">
<title>Node30&#45;&gt;Node6</title>
<path fill="none" stroke="midnightblue" d="M1011.45,-325.31C1012.21,-308.61 1011.35,-286.23 1004,-268 998.32,-253.9 987.06,-240.92 977.49,-231.64"/>
<polygon fill="midnightblue" stroke="midnightblue" points="1007.95,-325.14 1010.76,-335.36 1014.93,-325.62 1007.95,-325.14"/>
</g>
<!-- Node30&#45;&gt;Node9 -->
<g id="edge71" class="edge">
<title>Node30&#45;&gt;Node9</title>
<path fill="none" stroke="midnightblue" d="M994.79,-326.9C981.39,-307.7 959.44,-281.23 933,-268 865.82,-234.38 653.43,-222.99 539.66,-219.25"/>
<polygon fill="midnightblue" stroke="midnightblue" points="992.02,-329.04 1000.5,-335.38 997.83,-325.13 992.02,-329.04"/>
</g>
<!-- Node30&#45;&gt;Node10 -->
<g id="edge69" class="edge">
<title>Node30&#45;&gt;Node10</title>
<path fill="none" stroke="midnightblue" d="M1001.47,-325.74C994.71,-307.79 983.18,-283.65 966,-268 935.06,-239.82 906.26,-263.75 879,-232 862.58,-212.88 859.22,-182.38 858.77,-164.62"/>
<polygon fill="midnightblue" stroke="midnightblue" points="998.19,-326.97 1004.82,-335.23 1004.79,-324.64 998.19,-326.97"/>
</g>
<!-- Node30&#45;&gt;Node13 -->
<g id="edge64" class="edge">
<title>Node30&#45;&gt;Node13</title>
<path fill="none" stroke="midnightblue" d="M927.24,-342.04C819.81,-332.22 625.26,-314.41 459,-299 431.28,-296.43 400.78,-293.58 374.21,-291.09"/>
<polygon fill="midnightblue" stroke="midnightblue" points="927.09,-345.54 937.36,-342.96 927.72,-338.57 927.09,-345.54"/>
</g>
<!-- Node30&#45;&gt;Node15 -->
<g id="edge65" class="edge">
<title>Node30&#45;&gt;Node15</title>
<path fill="none" stroke="midnightblue" d="M1090.84,-346.06C1292.87,-337.34 1801.44,-314.06 1835,-299 1837.14,-298.04 1879.91,-255 1902.81,-231.86"/>
<polygon fill="midnightblue" stroke="midnightblue" points="1090.42,-342.57 1080.58,-346.5 1090.72,-349.56 1090.42,-342.57"/>
</g>
<!-- Node30&#45;&gt;Node20 -->
<g id="edge66" class="edge">
<title>Node30&#45;&gt;Node20</title>
<path fill="none" stroke="midnightblue" d="M1080.28,-333.19C1126.79,-322.54 1186.9,-308.78 1231.35,-298.61"/>
<polygon fill="midnightblue" stroke="midnightblue" points="1079.24,-329.83 1070.27,-335.48 1080.8,-336.66 1079.24,-329.83"/>
</g>
<!-- Node30&#45;&gt;Node28 -->
<g id="edge72" class="edge">
<title>Node30&#45;&gt;Node28</title>
<path fill="none" stroke="midnightblue" d="M1090.96,-343.94C1165.69,-337.51 1278.65,-324.38 1374,-299 1409.65,-289.51 1415.51,-278.07 1451,-268 1471.08,-262.3 1582.51,-243.75 1662.24,-230.79"/>
<polygon fill="midnightblue" stroke="midnightblue" points="1090.35,-340.47 1080.68,-344.8 1090.93,-347.45 1090.35,-340.47"/>
</g>
<!-- Node31 -->
<g id="node31" class="node">
<title>Node31</title>
<g id="a_node31"><a xlink:href="2_d_m_t_i_8h.html" target="_top" xlink:title="API for 2D Moving Target Indicator filter (2DMTI)">
<polygon fill="white" stroke="black" points="626,-268.5 626,-298.5 766,-298.5 766,-268.5 626,-268.5"/>
<text text-anchor="start" x="634" y="-286.5" font-family="Helvetica,sans-Serif" font-size="10.00">/home/build/sdk/c/ifxAlgo</text>
<text text-anchor="middle" x="696" y="-275.5" font-family="Helvetica,sans-Serif" font-size="10.00">/2DMTI.h</text>
</a>
</g>
</g>
<!-- Node30&#45;&gt;Node31 -->
<g id="edge60" class="edge">
<title>Node30&#45;&gt;Node31</title>
<path fill="none" stroke="midnightblue" d="M931.39,-333.38C879.9,-322.69 813,-308.8 763.68,-298.55"/>
<polygon fill="midnightblue" stroke="midnightblue" points="930.97,-336.87 941.47,-335.48 932.39,-330.02 930.97,-336.87"/>
</g>
<!-- Node32 -->
<g id="node32" class="node">
<title>Node32</title>
<g id="a_node32"><a xlink:href="_o_s_c_f_a_r_8h.html" target="_top" xlink:title="API for 2D ordered statistic constant false alarm rate (OS&#45;CFAR) algorithm.">
<polygon fill="white" stroke="black" points="784,-268.5 784,-298.5 924,-298.5 924,-268.5 784,-268.5"/>
<text text-anchor="start" x="792" y="-286.5" font-family="Helvetica,sans-Serif" font-size="10.00">/home/build/sdk/c/ifxAlgo</text>
<text text-anchor="middle" x="854" y="-275.5" font-family="Helvetica,sans-Serif" font-size="10.00">/OSCFAR.h</text>
</a>
</g>
</g>
<!-- Node30&#45;&gt;Node32 -->
<g id="edge62" class="edge">
<title>Node30&#45;&gt;Node32</title>
<path fill="none" stroke="midnightblue" d="M965.85,-331.41C941.11,-321.03 910.5,-308.2 887.57,-298.58"/>
<polygon fill="midnightblue" stroke="midnightblue" points="964.79,-334.76 975.37,-335.4 967.5,-328.3 964.79,-334.76"/>
</g>
<!-- Node33 -->
<g id="node33" class="node">
<title>Node33</title>
<g id="a_node33"><a xlink:href="_l_a_8h.html" target="_top" xlink:title="API for Linear Algebra (LA)">
<polygon fill="white" stroke="black" points="1658.5,-274 1658.5,-293 1825.5,-293 1825.5,-274 1658.5,-274"/>
<text text-anchor="middle" x="1742" y="-281" font-family="Helvetica,sans-Serif" font-size="10.00">/home/build/sdk/c/ifxBase/LA.h</text>
</a>
</g>
</g>
<!-- Node30&#45;&gt;Node33 -->
<g id="edge67" class="edge">
<title>Node30&#45;&gt;Node33</title>
<path fill="none" stroke="midnightblue" d="M1090.75,-343.37C1206.76,-334.51 1425.76,-317.18 1612,-299 1630.42,-297.2 1650.29,-295.08 1668.81,-293.02"/>
<polygon fill="midnightblue" stroke="midnightblue" points="1090.24,-339.9 1080.53,-344.15 1090.77,-346.88 1090.24,-339.9"/>
</g>
<!-- Node31&#45;&gt;Node3 -->
<g id="edge61" class="edge">
<title>Node31&#45;&gt;Node3</title>
<path fill="none" stroke="midnightblue" d="M615.82,-267.83C511.57,-250.42 483.62,-248.97 383,-232 380.11,-231.51 377.17,-231.01 374.19,-230.49"/>
<polygon fill="midnightblue" stroke="midnightblue" points="615.37,-271.3 625.81,-269.51 616.53,-264.4 615.37,-271.3"/>
</g>
<!-- Node32&#45;&gt;Node3 -->
<g id="edge63" class="edge">
<title>Node32&#45;&gt;Node3</title>
<path fill="none" stroke="midnightblue" d="M773.84,-267.92C599.95,-244.6 553.11,-255.37 383,-232 380.1,-231.6 377.14,-231.17 374.16,-230.72"/>
<polygon fill="midnightblue" stroke="midnightblue" points="773.46,-271.41 783.84,-269.28 774.4,-264.47 773.46,-271.41"/>
</g>
<!-- Node33&#45;&gt;Node15 -->
<g id="edge68" class="edge">
<title>Node33&#45;&gt;Node15</title>
<path fill="none" stroke="midnightblue" d="M1774.72,-270.35C1804.38,-259.33 1848.1,-243.09 1879.23,-231.53"/>
<polygon fill="midnightblue" stroke="midnightblue" points="1773.39,-267.11 1765.24,-273.87 1775.83,-273.67 1773.39,-267.11"/>
</g>
<!-- Node34&#45;&gt;Node7 -->
<g id="edge75" class="edge">
<title>Node34&#45;&gt;Node7</title>
<path fill="none" stroke="midnightblue" d="M2069.13,-392.29C2067.93,-346.5 2058.09,-247.62 1998,-201 1950.93,-164.48 1520.95,-178.84 1463,-165 1428.72,-156.81 1423.45,-145.12 1390,-134 1345.27,-119.13 1293.77,-106.5 1253.46,-97.6"/>
<polygon fill="midnightblue" stroke="midnightblue" points="2065.63,-392.53 2069.28,-402.48 2072.63,-392.43 2065.63,-392.53"/>
</g>
</g>
</svg>
