<?xml version="1.0" encoding="UTF-8" standalone="no"?>
<!DOCTYPE svg PUBLIC "-//W3C//DTD SVG 1.1//EN"
 "http://www.w3.org/Graphics/SVG/1.1/DTD/svg11.dtd">
<!-- Generated by graphviz version 2.48.0 (20210717.1556)
 -->
<!-- Title: radar_sdk Pages: 1 -->
<svg width="621pt" height="387pt"
 viewBox="0.00 0.00 621.23 387.00" xmlns="http://www.w3.org/2000/svg" xmlns:xlink="http://www.w3.org/1999/xlink">
<g id="graph0" class="graph" transform="scale(1 1) rotate(0) translate(4 383)">
<title>radar_sdk</title>
<polygon fill="white" stroke="transparent" points="-4,4 -4,-383 617.23,-383 617.23,4 -4,4"/>
<g id="clust1" class="cluster">
<title>cluster_radar_sdk</title>
<polygon fill="none" stroke="black" points="13.55,-8 13.55,-371 599.68,-371 599.68,-8 13.55,-8"/>
<text text-anchor="middle" x="306.62" y="-355.8" font-family="Times New Roman,serif" font-size="14.00">Radar SDK library</text>
</g>
<!-- ifxAlgo -->
<g id="node1" class="node">
<title>ifxAlgo</title>
<polygon fill="lightgrey" stroke="black" points="440.02,-268 386.02,-268 386.02,-232 440.02,-232 440.02,-268"/>
<text text-anchor="middle" x="413.02" y="-246.9" font-family="Times New Roman,serif" font-size="12.00">ifxAlgo</text>
</g>
<!-- ifxBase -->
<g id="node3" class="node">
<title>ifxBase</title>
<polygon fill="lightgrey" stroke="black" points="415.02,-196 361.02,-196 361.02,-160 415.02,-160 415.02,-196"/>
<text text-anchor="middle" x="388.02" y="-174.9" font-family="Times New Roman,serif" font-size="12.00">ifxBase</text>
</g>
<!-- ifxAlgo&#45;&gt;ifxBase -->
<g id="edge2" class="edge">
<title>ifxAlgo&#45;&gt;ifxBase</title>
<path fill="none" stroke="black" d="M406.84,-231.7C404.03,-223.81 400.63,-214.3 397.5,-205.55"/>
<polygon fill="black" stroke="black" points="400.79,-204.34 394.13,-196.1 394.2,-206.7 400.79,-204.34"/>
</g>
<!-- muFFT -->
<g id="node9" class="node">
<title>muFFT</title>
<polygon fill="none" stroke="black" points="560.6,-178 542.81,-196 507.23,-196 489.44,-178 507.23,-160 542.81,-160 560.6,-178"/>
<text text-anchor="middle" x="525.02" y="-174.9" font-family="Times New Roman,serif" font-size="12.00">muFFT</text>
</g>
<!-- ifxAlgo&#45;&gt;muFFT -->
<g id="edge1" class="edge">
<title>ifxAlgo&#45;&gt;muFFT</title>
<path fill="none" stroke="black" stroke-dasharray="1,5" d="M440.13,-232.05C456.67,-221.72 477.84,-208.49 494.9,-197.83"/>
<polygon fill="black" stroke="black" points="496.78,-200.78 503.4,-192.51 493.07,-194.84 496.78,-200.78"/>
</g>
<!-- ifxAvian -->
<g id="node2" class="node">
<title>ifxAvian</title>
<polygon fill="lightgrey" stroke="black" points="284.02,-268 230.02,-268 230.02,-232 284.02,-232 284.02,-268"/>
<text text-anchor="middle" x="257.02" y="-246.9" font-family="Times New Roman,serif" font-size="12.00">ifxAvian</text>
</g>
<!-- ifxAvian&#45;&gt;ifxBase -->
<g id="edge5" class="edge">
<title>ifxAvian&#45;&gt;ifxBase</title>
<path fill="none" stroke="black" d="M284.16,-234.5C303.84,-223.98 330.64,-209.66 352.08,-198.2"/>
<polygon fill="black" stroke="black" points="353.74,-201.29 360.91,-193.49 350.44,-195.11 353.74,-201.29"/>
</g>
<!-- ifxRadarDeviceCommon -->
<g id="node5" class="node">
<title>ifxRadarDeviceCommon</title>
<polygon fill="lightgrey" stroke="black" points="233.02,-196 105.02,-196 105.02,-160 233.02,-160 233.02,-196"/>
<text text-anchor="middle" x="169.02" y="-174.9" font-family="Times New Roman,serif" font-size="12.00">ifxRadarDeviceCommon</text>
</g>
<!-- ifxAvian&#45;&gt;ifxRadarDeviceCommon -->
<g id="edge8" class="edge">
<title>ifxAvian&#45;&gt;ifxRadarDeviceCommon</title>
<path fill="none" stroke="black" d="M235.27,-231.7C224.19,-222.88 210.55,-212.03 198.53,-202.47"/>
<polygon fill="black" stroke="black" points="200.53,-199.59 190.52,-196.1 196.17,-205.07 200.53,-199.59"/>
</g>
<!-- lib_avian -->
<g id="node7" class="node">
<title>lib_avian</title>
<ellipse fill="none" stroke="black" cx="213.02" cy="-106" rx="34.45" ry="18"/>
<text text-anchor="middle" x="213.02" y="-102.9" font-family="Times New Roman,serif" font-size="12.00">lib_avian</text>
</g>
<!-- ifxAvian&#45;&gt;lib_avian -->
<g id="edge4" class="edge">
<title>ifxAvian&#45;&gt;lib_avian</title>
<path fill="none" stroke="black" stroke-dasharray="1,5" d="M255.83,-231.85C254.18,-213.61 250.39,-184.13 242.02,-160 238.74,-150.54 233.87,-140.76 229.06,-132.22"/>
<polygon fill="black" stroke="black" points="232.02,-130.36 223.93,-123.52 225.99,-133.91 232.02,-130.36"/>
</g>
<!-- Strata -->
<g id="node8" class="node">
<title>Strata</title>
<ellipse fill="none" stroke="black" cx="124.02" cy="-34" rx="27.17" ry="18"/>
<text text-anchor="middle" x="124.02" y="-30.9" font-family="Times New Roman,serif" font-size="12.00">Strata</text>
</g>
<!-- ifxAvian&#45;&gt;Strata -->
<g id="edge9" class="edge">
<title>ifxAvian&#45;&gt;Strata</title>
<path fill="none" stroke="black" stroke-dasharray="1,5" d="M229.84,-249.06C192.57,-247.48 126.73,-238.44 96.02,-196 66.53,-155.24 91.33,-93.7 109.36,-59.72"/>
<polygon fill="black" stroke="black" points="112.45,-61.36 114.21,-50.91 106.32,-57.98 112.45,-61.36"/>
</g>
<!-- ifxRadar -->
<g id="node4" class="node">
<title>ifxRadar</title>
<polygon fill="lightgrey" stroke="black" points="313.52,-340 258.52,-340 258.52,-304 313.52,-304 313.52,-340"/>
<text text-anchor="middle" x="286.02" y="-318.9" font-family="Times New Roman,serif" font-size="12.00">ifxRadar</text>
</g>
<!-- ifxRadar&#45;&gt;ifxAlgo -->
<g id="edge10" class="edge">
<title>ifxRadar&#45;&gt;ifxAlgo</title>
<path fill="none" stroke="black" stroke-dasharray="1,5" d="M313.58,-305.81C332.18,-295.56 356.91,-281.93 377.06,-270.82"/>
<polygon fill="black" stroke="black" points="378.89,-273.81 385.95,-265.92 375.51,-267.68 378.89,-273.81"/>
</g>
<!-- ifxRadar&#45;&gt;ifxAvian -->
<g id="edge11" class="edge">
<title>ifxRadar&#45;&gt;ifxAvian</title>
<path fill="none" stroke="black" stroke-dasharray="5,2" d="M278.85,-303.7C275.59,-295.81 271.65,-286.3 268.02,-277.55"/>
<polygon fill="black" stroke="black" points="271.17,-276 264.11,-268.1 264.7,-278.68 271.17,-276"/>
</g>
<!-- ifxRadar&#45;&gt;ifxBase -->
<g id="edge12" class="edge">
<title>ifxRadar&#45;&gt;ifxBase</title>
<path fill="none" stroke="black" d="M298.32,-303.87C316.09,-279.14 349.06,-233.24 369.7,-204.51"/>
<polygon fill="black" stroke="black" points="372.68,-206.35 375.67,-196.19 367,-202.27 372.68,-206.35"/>
</g>
<!-- ifxRadarDeviceCommon&#45;&gt;lib_avian -->
<g id="edge6" class="edge">
<title>ifxRadarDeviceCommon&#45;&gt;lib_avian</title>
<path fill="none" stroke="black" stroke-dasharray="1,5" d="M179.9,-159.7C185.09,-151.44 191.4,-141.39 197.12,-132.3"/>
<polygon fill="black" stroke="black" points="200.21,-133.95 202.57,-123.62 194.29,-130.23 200.21,-133.95"/>
</g>
<!-- ifxRadarDeviceCommon&#45;&gt;Strata -->
<g id="edge7" class="edge">
<title>ifxRadarDeviceCommon&#45;&gt;Strata</title>
<path fill="none" stroke="black" stroke-dasharray="1,5" d="M163.59,-159.87C155.85,-135.43 141.56,-90.33 132.43,-61.55"/>
<polygon fill="black" stroke="black" points="135.69,-60.22 129.33,-51.75 129.01,-62.34 135.69,-60.22"/>
</g>
<!-- ifxRadarSegmentation -->
<g id="node6" class="node">
<title>ifxRadarSegmentation</title>
<polygon fill="lightgrey" stroke="black" points="520.02,-340 404.02,-340 404.02,-304 520.02,-304 520.02,-340"/>
<text text-anchor="middle" x="462.02" y="-318.9" font-family="Times New Roman,serif" font-size="12.00">ifxRadarSegmentation</text>
</g>
<!-- ifxRadarSegmentation&#45;&gt;ifxAlgo -->
<g id="edge13" class="edge">
<title>ifxRadarSegmentation&#45;&gt;ifxAlgo</title>
<path fill="none" stroke="black" stroke-dasharray="1,5" d="M449.91,-303.7C444.15,-295.47 437.16,-285.48 430.82,-276.42"/>
<polygon fill="black" stroke="black" points="433.6,-274.29 424.99,-268.1 427.86,-278.3 433.6,-274.29"/>
</g>
<!-- ifxRadarSegmentation&#45;&gt;ifxAvian -->
<g id="edge15" class="edge">
<title>ifxRadarSegmentation&#45;&gt;ifxAvian</title>
<path fill="none" stroke="black" stroke-dasharray="5,2" d="M412.13,-303.97C375.62,-291.5 326.87,-274.85 293.85,-263.57"/>
<polygon fill="black" stroke="black" points="294.73,-260.18 284.13,-260.26 292.46,-266.8 294.73,-260.18"/>
</g>
<!-- ifxRadarSegmentation&#45;&gt;ifxBase -->
<g id="edge14" class="edge">
<title>ifxRadarSegmentation&#45;&gt;ifxBase</title>
<path fill="none" stroke="black" d="M462.95,-303.83C463.21,-285.05 461.38,-254.61 449.02,-232 442.76,-220.54 432.98,-210.4 423.07,-202.15"/>
<polygon fill="black" stroke="black" points="425.19,-199.36 415.17,-195.94 420.87,-204.86 425.19,-199.36"/>
</g>
<!-- lib_avian&#45;&gt;Strata -->
<g id="edge3" class="edge">
<title>lib_avian&#45;&gt;Strata</title>
<path fill="none" stroke="black" stroke-dasharray="1,5" d="M194.58,-90.5C181.39,-80.12 163.47,-66.03 149,-54.64"/>
<polygon fill="black" stroke="black" points="150.96,-51.73 140.93,-48.3 146.63,-57.23 150.96,-51.73"/>
</g>
</g>
</svg>
