<?xml version="1.0" encoding="UTF-8" standalone="no"?>
<!DOCTYPE svg PUBLIC "-//W3C//DTD SVG 1.1//EN"
 "http://www.w3.org/Graphics/SVG/1.1/DTD/svg11.dtd">
<!-- Generated by graphviz version 2.43.0 (0)
 -->
<!-- Title: /home/build/sdk/c/ifxRadar Pages: 1 -->
<svg width="262pt" height="295pt"
 viewBox="0.00 0.00 262.20 295.00" xmlns="http://www.w3.org/2000/svg" xmlns:xlink="http://www.w3.org/1999/xlink">
<g id="graph0" class="graph" transform="scale(1 1) rotate(0) translate(4 291)">
<title>/home/build/sdk/c/ifxRadar</title>
<polygon fill="white" stroke="transparent" points="-4,4 -4,-291 258.2,-291 258.2,4 -4,4"/>
<g id="clust1" class="cluster">
<title>clusterdir_cb1b8b20a863d3b4f720b5073297472d</title>
<g id="a_clust1"><a xlink:href="dir_cb1b8b20a863d3b4f720b5073297472d.html" target="_top" xlink:title="c">
<polygon fill="#ddddee" stroke="black" points="90,-208 90,-279 164,-279 164,-208 90,-208"/>
<text text-anchor="middle" x="127" y="-267" font-family="Helvetica,sans-Serif" font-size="10.00">c</text>
</a>
</g>
</g>
<!-- dir_dab4b19e452ad33ce9758a674c7abd78 -->
<g id="node1" class="node">
<title>dir_dab4b19e452ad33ce9758a674c7abd78</title>
<g id="a_node1"><a xlink:href="dir_dab4b19e452ad33ce9758a674c7abd78.html" target="_top" xlink:title="ifxRadar">
<polygon fill="#eeeeff" stroke="black" points="156,-252 98,-252 98,-216 156,-216 156,-252"/>
<text text-anchor="middle" x="127" y="-231.5" font-family="Helvetica,sans-Serif" font-size="10.00">ifxRadar</text>
</a>
</g>
</g>
<!-- dir_4697e86ad33e45c91248444b464b6119 -->
<g id="node2" class="node">
<title>dir_4697e86ad33e45c91248444b464b6119</title>
<g id="a_node2"><a xlink:href="dir_4697e86ad33e45c91248444b464b6119.html" target="_top" xlink:title="ifxAlgo">
<polygon fill="none" stroke="black" points="54,-180 0,-180 0,-144 54,-144 54,-180"/>
<text text-anchor="middle" x="27" y="-159.5" font-family="Helvetica,sans-Serif" font-size="10.00">ifxAlgo</text>
</a>
</g>
</g>
<!-- dir_dab4b19e452ad33ce9758a674c7abd78&#45;&gt;dir_4697e86ad33e45c91248444b464b6119 -->
<g id="edge5" class="edge">
<title>dir_dab4b19e452ad33ce9758a674c7abd78&#45;&gt;dir_4697e86ad33e45c91248444b464b6119</title>
<path fill="none" stroke="black" d="M102.54,-215.88C89.7,-206.89 73.8,-195.76 59.91,-186.03"/>
<polygon fill="black" stroke="black" points="61.76,-183.06 51.56,-180.19 57.74,-188.79 61.76,-183.06"/>
<g id="a_edge5&#45;headlabel"><a xlink:href="dir_000007_000004.html" target="_top" xlink:title="6">
<text text-anchor="middle" x="66.33" y="-180.29" font-family="Helvetica,sans-Serif" font-size="10.00">6</text>
</a>
</g>
</g>
<!-- dir_1346ff5bb9c7843a219db733dcd633fb -->
<g id="node3" class="node">
<title>dir_1346ff5bb9c7843a219db733dcd633fb</title>
<g id="a_node3"><a xlink:href="dir_1346ff5bb9c7843a219db733dcd633fb.html" target="_top" xlink:title="ifxAvian">
<polygon fill="none" stroke="black" points="145,-108 89,-108 89,-72 145,-72 145,-108"/>
<text text-anchor="middle" x="117" y="-87.5" font-family="Helvetica,sans-Serif" font-size="10.00">ifxAvian</text>
</a>
</g>
</g>
<!-- dir_dab4b19e452ad33ce9758a674c7abd78&#45;&gt;dir_1346ff5bb9c7843a219db733dcd633fb -->
<g id="edge6" class="edge">
<title>dir_dab4b19e452ad33ce9758a674c7abd78&#45;&gt;dir_1346ff5bb9c7843a219db733dcd633fb</title>
<path fill="none" stroke="black" d="M115.95,-215.61C110.26,-205.62 103.92,-192.58 101,-180 96.19,-159.29 100.95,-135.59 106.5,-117.85"/>
<polygon fill="black" stroke="black" points="109.88,-118.76 109.79,-108.17 103.26,-116.51 109.88,-118.76"/>
<g id="a_edge6&#45;headlabel"><a xlink:href="dir_000007_000005.html" target="_top" xlink:title="3">
<text text-anchor="middle" x="111.42" y="-120.58" font-family="Helvetica,sans-Serif" font-size="10.00">3</text>
</a>
</g>
</g>
<!-- dir_029b6408fc75c8aa18949ca0afd8f1c3 -->
<g id="node4" class="node">
<title>dir_029b6408fc75c8aa18949ca0afd8f1c3</title>
<g id="a_node4"><a xlink:href="dir_029b6408fc75c8aa18949ca0afd8f1c3.html" target="_top" xlink:title="ifxRadarSegmentation">
<polygon fill="none" stroke="black" points="236,-180 110,-180 110,-144 236,-144 236,-180"/>
<text text-anchor="middle" x="173" y="-159.5" font-family="Helvetica,sans-Serif" font-size="10.00">ifxRadarSegmentation</text>
</a>
</g>
</g>
<!-- dir_dab4b19e452ad33ce9758a674c7abd78&#45;&gt;dir_029b6408fc75c8aa18949ca0afd8f1c3 -->
<g id="edge7" class="edge">
<title>dir_dab4b19e452ad33ce9758a674c7abd78&#45;&gt;dir_029b6408fc75c8aa18949ca0afd8f1c3</title>
<path fill="none" stroke="black" d="M138.37,-215.7C143.72,-207.56 150.2,-197.69 156.11,-188.7"/>
<polygon fill="black" stroke="black" points="159.19,-190.38 161.76,-180.1 153.34,-186.54 159.19,-190.38"/>
<g id="a_edge7&#45;headlabel"><a xlink:href="dir_000007_000009.html" target="_top" xlink:title="1">
<text text-anchor="middle" x="159.59" y="-192.45" font-family="Helvetica,sans-Serif" font-size="10.00">1</text>
</a>
</g>
</g>
<!-- dir_567fd94d20573b82fae4b73e87e5ca9b -->
<g id="node5" class="node">
<title>dir_567fd94d20573b82fae4b73e87e5ca9b</title>
<g id="a_node5"><a xlink:href="dir_567fd94d20573b82fae4b73e87e5ca9b.html" target="_top" xlink:title="ifxBase">
<polygon fill="none" stroke="black" points="172,-36 118,-36 118,0 172,0 172,-36"/>
<text text-anchor="middle" x="145" y="-15.5" font-family="Helvetica,sans-Serif" font-size="10.00">ifxBase</text>
</a>
</g>
</g>
<!-- dir_dab4b19e452ad33ce9758a674c7abd78&#45;&gt;dir_567fd94d20573b82fae4b73e87e5ca9b -->
<g id="edge8" class="edge">
<title>dir_dab4b19e452ad33ce9758a674c7abd78&#45;&gt;dir_567fd94d20573b82fae4b73e87e5ca9b</title>
<path fill="none" stroke="black" d="M156.1,-228.96C184.27,-223.33 225.48,-210.17 245,-180 276.44,-131.41 217.48,-73.59 177.49,-42.16"/>
<polygon fill="black" stroke="black" points="179.6,-39.36 169.53,-36.05 175.33,-44.92 179.6,-39.36"/>
<g id="a_edge8&#45;headlabel"><a xlink:href="dir_000007_000006.html" target="_top" xlink:title="21">
<text text-anchor="middle" x="184.18" y="-36.8" font-family="Helvetica,sans-Serif" font-size="10.00">21</text>
</a>
</g>
</g>
<!-- dir_4697e86ad33e45c91248444b464b6119&#45;&gt;dir_567fd94d20573b82fae4b73e87e5ca9b -->
<g id="edge1" class="edge">
<title>dir_4697e86ad33e45c91248444b464b6119&#45;&gt;dir_567fd94d20573b82fae4b73e87e5ca9b</title>
<path fill="none" stroke="black" d="M34.98,-143.77C44.2,-124.94 60.61,-94.47 80,-72 89.32,-61.19 101.04,-50.89 111.94,-42.3"/>
<polygon fill="black" stroke="black" points="114.26,-44.93 120.07,-36.07 110,-39.37 114.26,-44.93"/>
<g id="a_edge1&#45;headlabel"><a xlink:href="dir_000004_000006.html" target="_top" xlink:title="16">
<text text-anchor="middle" x="113.13" y="-46.87" font-family="Helvetica,sans-Serif" font-size="10.00">16</text>
</a>
</g>
</g>
<!-- dir_1346ff5bb9c7843a219db733dcd633fb&#45;&gt;dir_567fd94d20573b82fae4b73e87e5ca9b -->
<g id="edge2" class="edge">
<title>dir_1346ff5bb9c7843a219db733dcd633fb&#45;&gt;dir_567fd94d20573b82fae4b73e87e5ca9b</title>
<path fill="none" stroke="black" d="M123.92,-71.7C127.07,-63.81 130.88,-54.3 134.38,-45.55"/>
<polygon fill="black" stroke="black" points="137.69,-46.69 138.16,-36.1 131.19,-44.09 137.69,-46.69"/>
<g id="a_edge2&#45;headlabel"><a xlink:href="dir_000005_000006.html" target="_top" xlink:title="7">
<text text-anchor="middle" x="139" y="-48.58" font-family="Helvetica,sans-Serif" font-size="10.00">7</text>
</a>
</g>
</g>
<!-- dir_029b6408fc75c8aa18949ca0afd8f1c3&#45;&gt;dir_1346ff5bb9c7843a219db733dcd633fb -->
<g id="edge3" class="edge">
<title>dir_029b6408fc75c8aa18949ca0afd8f1c3&#45;&gt;dir_1346ff5bb9c7843a219db733dcd633fb</title>
<path fill="none" stroke="black" d="M159.16,-143.7C152.51,-135.39 144.42,-125.28 137.11,-116.14"/>
<polygon fill="black" stroke="black" points="139.66,-113.73 130.68,-108.1 134.2,-118.1 139.66,-113.73"/>
<g id="a_edge3&#45;headlabel"><a xlink:href="dir_000009_000005.html" target="_top" xlink:title="1">
<text text-anchor="middle" x="144.13" y="-112.26" font-family="Helvetica,sans-Serif" font-size="10.00">1</text>
</a>
</g>
</g>
<!-- dir_029b6408fc75c8aa18949ca0afd8f1c3&#45;&gt;dir_567fd94d20573b82fae4b73e87e5ca9b -->
<g id="edge4" class="edge">
<title>dir_029b6408fc75c8aa18949ca0afd8f1c3&#45;&gt;dir_567fd94d20573b82fae4b73e87e5ca9b</title>
<path fill="none" stroke="black" d="M169.62,-143.87C164.83,-119.56 156.01,-74.82 150.33,-46.01"/>
<polygon fill="black" stroke="black" points="153.76,-45.32 148.39,-36.19 146.89,-46.68 153.76,-45.32"/>
<g id="a_edge4&#45;headlabel"><a xlink:href="dir_000009_000006.html" target="_top" xlink:title="5">
<text text-anchor="middle" x="157.24" y="-45.8" font-family="Helvetica,sans-Serif" font-size="10.00">5</text>
</a>
</g>
</g>
</g>
</svg>
