<?xml version="1.0" encoding="UTF-8" standalone="no"?>
<!DOCTYPE svg PUBLIC "-//W3C//DTD SVG 1.1//EN"
 "http://www.w3.org/Graphics/SVG/1.1/DTD/svg11.dtd">
<!-- Generated by graphviz version 2.43.0 (0)
 -->
<!-- Title: /home/build/sdk/c Pages: 1 -->
<svg width="272pt" height="399pt"
 viewBox="0.00 0.00 272.00 399.00" xmlns="http://www.w3.org/2000/svg" xmlns:xlink="http://www.w3.org/1999/xlink">
<g id="graph0" class="graph" transform="scale(1 1) rotate(0) translate(4 395)">
<title>/home/build/sdk/c</title>
<polygon fill="white" stroke="transparent" points="-4,4 -4,-395 268,-395 268,4 -4,4"/>
<g id="clust1" class="cluster">
<title>clusterdir_243a4ba6b4f893d71afbb5a3e90552fa</title>
<g id="a_clust1"><a xlink:href="dir_243a4ba6b4f893d71afbb5a3e90552fa.html" target="_top" xlink:title="sdk">
<polygon fill="#ddddee" stroke="black" points="8,-8 8,-383 256,-383 256,-8 8,-8"/>
<text text-anchor="middle" x="132" y="-371" font-family="Helvetica,sans-Serif" font-size="10.00">sdk</text>
</a>
</g>
</g>
<g id="clust2" class="cluster">
<title>clusterdir_cb1b8b20a863d3b4f720b5073297472d</title>
<g id="a_clust2"><a xlink:href="dir_cb1b8b20a863d3b4f720b5073297472d.html" target="_top">
<polygon fill="#eeeeff" stroke="black" points="16,-16 16,-356 248,-356 248,-16 16,-16"/>
</a>
</g>
</g>
<!-- dir_cb1b8b20a863d3b4f720b5073297472d -->
<g id="node1" class="node">
<title>dir_cb1b8b20a863d3b4f720b5073297472d</title>
<text text-anchor="middle" x="197" y="-327.5" font-family="Helvetica,sans-Serif" font-size="10.00">c</text>
</g>
<!-- dir_4697e86ad33e45c91248444b464b6119 -->
<g id="node2" class="node">
<title>dir_4697e86ad33e45c91248444b464b6119</title>
<g id="a_node2"><a xlink:href="dir_4697e86ad33e45c91248444b464b6119.html" target="_top" xlink:title="ifxAlgo">
<polygon fill="white" stroke="black" points="80,-204 26,-204 26,-168 80,-168 80,-204"/>
<text text-anchor="middle" x="53" y="-183.5" font-family="Helvetica,sans-Serif" font-size="10.00">ifxAlgo</text>
</a>
</g>
</g>
<!-- dir_567fd94d20573b82fae4b73e87e5ca9b -->
<g id="node4" class="node">
<title>dir_567fd94d20573b82fae4b73e87e5ca9b</title>
<g id="a_node4"><a xlink:href="dir_567fd94d20573b82fae4b73e87e5ca9b.html" target="_top" xlink:title="ifxBase">
<polygon fill="white" stroke="black" points="226,-60 172,-60 172,-24 226,-24 226,-60"/>
<text text-anchor="middle" x="199" y="-39.5" font-family="Helvetica,sans-Serif" font-size="10.00">ifxBase</text>
</a>
</g>
</g>
<!-- dir_4697e86ad33e45c91248444b464b6119&#45;&gt;dir_567fd94d20573b82fae4b73e87e5ca9b -->
<g id="edge1" class="edge">
<title>dir_4697e86ad33e45c91248444b464b6119&#45;&gt;dir_567fd94d20573b82fae4b73e87e5ca9b</title>
<path fill="none" stroke="black" d="M42.37,-167.93C31.89,-148.67 19.51,-117.29 35,-96 63.81,-56.42 122.78,-45.78 161.6,-43.26"/>
<polygon fill="black" stroke="black" points="162.15,-46.74 171.97,-42.75 161.81,-39.74 162.15,-46.74"/>
<g id="a_edge1&#45;headlabel"><a xlink:href="dir_000004_000006.html" target="_top" xlink:title="16">
<text text-anchor="middle" x="158.7" y="-47.25" font-family="Helvetica,sans-Serif" font-size="10.00">16</text>
</a>
</g>
</g>
<!-- dir_1346ff5bb9c7843a219db733dcd633fb -->
<g id="node3" class="node">
<title>dir_1346ff5bb9c7843a219db733dcd633fb</title>
<g id="a_node3"><a xlink:href="dir_1346ff5bb9c7843a219db733dcd633fb.html" target="_top" xlink:title="ifxAvian">
<polygon fill="white" stroke="black" points="170,-204 114,-204 114,-168 170,-168 170,-204"/>
<text text-anchor="middle" x="142" y="-183.5" font-family="Helvetica,sans-Serif" font-size="10.00">ifxAvian</text>
</a>
</g>
</g>
<!-- dir_1346ff5bb9c7843a219db733dcd633fb&#45;&gt;dir_567fd94d20573b82fae4b73e87e5ca9b -->
<g id="edge3" class="edge">
<title>dir_1346ff5bb9c7843a219db733dcd633fb&#45;&gt;dir_567fd94d20573b82fae4b73e87e5ca9b</title>
<path fill="none" stroke="black" d="M162.14,-167.91C171.94,-158.39 182.9,-145.71 189,-132 197.63,-112.62 199.9,-88.61 200.14,-70.42"/>
<polygon fill="black" stroke="black" points="203.64,-70.17 200.07,-60.2 196.64,-70.22 203.64,-70.17"/>
<g id="a_edge3&#45;headlabel"><a xlink:href="dir_000005_000006.html" target="_top" xlink:title="7">
<text text-anchor="middle" x="206.5" y="-71.25" font-family="Helvetica,sans-Serif" font-size="10.00">7</text>
</a>
</g>
</g>
<!-- dir_c4ebba6b7f8869d2f5ecfd530fb1e966 -->
<g id="node6" class="node">
<title>dir_c4ebba6b7f8869d2f5ecfd530fb1e966</title>
<g id="a_node6"><a xlink:href="dir_c4ebba6b7f8869d2f5ecfd530fb1e966.html" target="_top" xlink:title="ifxRadarDeviceCommon">
<polygon fill="white" stroke="black" points="180,-132 44,-132 44,-96 180,-96 180,-132"/>
<text text-anchor="middle" x="112" y="-111.5" font-family="Helvetica,sans-Serif" font-size="10.00">ifxRadarDeviceCommon</text>
</a>
</g>
</g>
<!-- dir_1346ff5bb9c7843a219db733dcd633fb&#45;&gt;dir_c4ebba6b7f8869d2f5ecfd530fb1e966 -->
<g id="edge2" class="edge">
<title>dir_1346ff5bb9c7843a219db733dcd633fb&#45;&gt;dir_c4ebba6b7f8869d2f5ecfd530fb1e966</title>
<path fill="none" stroke="black" d="M134.58,-167.7C131.21,-159.81 127.13,-150.3 123.38,-141.55"/>
<polygon fill="black" stroke="black" points="126.49,-139.92 119.33,-132.1 120.05,-142.67 126.49,-139.92"/>
<g id="a_edge2&#45;headlabel"><a xlink:href="dir_000005_000008.html" target="_top" xlink:title="2">
<text text-anchor="middle" x="130.51" y="-139.6" font-family="Helvetica,sans-Serif" font-size="10.00">2</text>
</a>
</g>
</g>
<!-- dir_dab4b19e452ad33ce9758a674c7abd78 -->
<g id="node5" class="node">
<title>dir_dab4b19e452ad33ce9758a674c7abd78</title>
<g id="a_node5"><a xlink:href="dir_dab4b19e452ad33ce9758a674c7abd78.html" target="_top" xlink:title="ifxRadar">
<polygon fill="white" stroke="black" points="120,-348 62,-348 62,-312 120,-312 120,-348"/>
<text text-anchor="middle" x="91" y="-327.5" font-family="Helvetica,sans-Serif" font-size="10.00">ifxRadar</text>
</a>
</g>
</g>
<!-- dir_dab4b19e452ad33ce9758a674c7abd78&#45;&gt;dir_4697e86ad33e45c91248444b464b6119 -->
<g id="edge7" class="edge">
<title>dir_dab4b19e452ad33ce9758a674c7abd78&#45;&gt;dir_4697e86ad33e45c91248444b464b6119</title>
<path fill="none" stroke="black" d="M83.15,-311.62C78.79,-301.41 73.54,-288.16 70,-276 64.08,-255.64 59.68,-232.05 56.84,-214.27"/>
<polygon fill="black" stroke="black" points="60.29,-213.64 55.31,-204.29 53.37,-214.7 60.29,-213.64"/>
<g id="a_edge7&#45;headlabel"><a xlink:href="dir_000007_000004.html" target="_top" xlink:title="6">
<text text-anchor="middle" x="63.64" y="-214.27" font-family="Helvetica,sans-Serif" font-size="10.00">6</text>
</a>
</g>
</g>
<!-- dir_dab4b19e452ad33ce9758a674c7abd78&#45;&gt;dir_1346ff5bb9c7843a219db733dcd633fb -->
<g id="edge8" class="edge">
<title>dir_dab4b19e452ad33ce9758a674c7abd78&#45;&gt;dir_1346ff5bb9c7843a219db733dcd633fb</title>
<path fill="none" stroke="black" d="M85.3,-311.8C80.17,-293.26 74.86,-263.28 85,-240 89.93,-228.68 98.61,-218.68 107.73,-210.51"/>
<polygon fill="black" stroke="black" points="109.99,-213.19 115.42,-204.09 105.5,-207.81 109.99,-213.19"/>
<g id="a_edge8&#45;headlabel"><a xlink:href="dir_000007_000005.html" target="_top" xlink:title="3">
<text text-anchor="middle" x="109.05" y="-215.17" font-family="Helvetica,sans-Serif" font-size="10.00">3</text>
</a>
</g>
</g>
<!-- dir_dab4b19e452ad33ce9758a674c7abd78&#45;&gt;dir_567fd94d20573b82fae4b73e87e5ca9b -->
<g id="edge10" class="edge">
<title>dir_dab4b19e452ad33ce9758a674c7abd78&#45;&gt;dir_567fd94d20573b82fae4b73e87e5ca9b</title>
<path fill="none" stroke="black" d="M120.2,-321.92C156.81,-312.38 216.32,-294.46 229,-276 272.78,-212.29 235.29,-115.21 212.88,-69.09"/>
<polygon fill="black" stroke="black" points="215.96,-67.43 208.35,-60.05 209.7,-70.56 215.96,-67.43"/>
<g id="a_edge10&#45;headlabel"><a xlink:href="dir_000007_000006.html" target="_top" xlink:title="21">
<text text-anchor="middle" x="220.11" y="-66.87" font-family="Helvetica,sans-Serif" font-size="10.00">21</text>
</a>
</g>
</g>
<!-- dir_029b6408fc75c8aa18949ca0afd8f1c3 -->
<g id="node7" class="node">
<title>dir_029b6408fc75c8aa18949ca0afd8f1c3</title>
<g id="a_node7"><a xlink:href="dir_029b6408fc75c8aa18949ca0afd8f1c3.html" target="_top" xlink:title="ifxRadarSegmentation">
<polygon fill="white" stroke="black" points="220,-276 94,-276 94,-240 220,-240 220,-276"/>
<text text-anchor="middle" x="157" y="-255.5" font-family="Helvetica,sans-Serif" font-size="10.00">ifxRadarSegmentation</text>
</a>
</g>
</g>
<!-- dir_dab4b19e452ad33ce9758a674c7abd78&#45;&gt;dir_029b6408fc75c8aa18949ca0afd8f1c3 -->
<g id="edge9" class="edge">
<title>dir_dab4b19e452ad33ce9758a674c7abd78&#45;&gt;dir_029b6408fc75c8aa18949ca0afd8f1c3</title>
<path fill="none" stroke="black" d="M107.31,-311.7C115.31,-303.22 125.07,-292.86 133.82,-283.58"/>
<polygon fill="black" stroke="black" points="136.56,-285.78 140.87,-276.1 131.47,-280.98 136.56,-285.78"/>
<g id="a_edge9&#45;headlabel"><a xlink:href="dir_000007_000009.html" target="_top" xlink:title="1">
<text text-anchor="middle" x="136.16" y="-287.84" font-family="Helvetica,sans-Serif" font-size="10.00">1</text>
</a>
</g>
</g>
<!-- dir_c4ebba6b7f8869d2f5ecfd530fb1e966&#45;&gt;dir_567fd94d20573b82fae4b73e87e5ca9b -->
<g id="edge4" class="edge">
<title>dir_c4ebba6b7f8869d2f5ecfd530fb1e966&#45;&gt;dir_567fd94d20573b82fae4b73e87e5ca9b</title>
<path fill="none" stroke="black" d="M133.51,-95.7C144.46,-86.88 157.95,-76.03 169.82,-66.47"/>
<polygon fill="black" stroke="black" points="172.14,-69.1 177.74,-60.1 167.76,-63.65 172.14,-69.1"/>
<g id="a_edge4&#45;headlabel"><a xlink:href="dir_000008_000006.html" target="_top" xlink:title="1">
<text text-anchor="middle" x="171.12" y="-71.07" font-family="Helvetica,sans-Serif" font-size="10.00">1</text>
</a>
</g>
</g>
<!-- dir_029b6408fc75c8aa18949ca0afd8f1c3&#45;&gt;dir_1346ff5bb9c7843a219db733dcd633fb -->
<g id="edge5" class="edge">
<title>dir_029b6408fc75c8aa18949ca0afd8f1c3&#45;&gt;dir_1346ff5bb9c7843a219db733dcd633fb</title>
<path fill="none" stroke="black" d="M153.29,-239.7C151.64,-231.98 149.65,-222.71 147.81,-214.11"/>
<polygon fill="black" stroke="black" points="151.18,-213.15 145.67,-204.1 144.34,-214.62 151.18,-213.15"/>
<g id="a_edge5&#45;headlabel"><a xlink:href="dir_000009_000005.html" target="_top" xlink:title="1">
<text text-anchor="middle" x="154.71" y="-213.57" font-family="Helvetica,sans-Serif" font-size="10.00">1</text>
</a>
</g>
</g>
<!-- dir_029b6408fc75c8aa18949ca0afd8f1c3&#45;&gt;dir_567fd94d20573b82fae4b73e87e5ca9b -->
<g id="edge6" class="edge">
<title>dir_029b6408fc75c8aa18949ca0afd8f1c3&#45;&gt;dir_567fd94d20573b82fae4b73e87e5ca9b</title>
<path fill="none" stroke="black" d="M164.94,-239.56C169.42,-229.33 174.92,-216.08 179,-204 189.59,-172.64 193.56,-164.8 198,-132 200.78,-111.46 200.92,-88 200.43,-70.33"/>
<polygon fill="black" stroke="black" points="203.92,-70.02 200.05,-60.15 196.92,-70.27 203.92,-70.02"/>
<g id="a_edge6&#45;headlabel"><a xlink:href="dir_000009_000006.html" target="_top" xlink:title="5">
<text text-anchor="middle" x="206.89" y="-71.01" font-family="Helvetica,sans-Serif" font-size="10.00">5</text>
</a>
</g>
</g>
</g>
</svg>
